<?xml version="1.0" encoding="utf-8"?>
<!-- Generator: Adobe Illustrator 22.0.0, SVG Export Plug-In . SVG Version: 6.00 Build 0)  -->
<svg version="1.1" id="Layer_1" xmlns="http://www.w3.org/2000/svg" xmlns:xlink="http://www.w3.org/1999/xlink" x="0px" y="0px"
	 viewBox="0 0 484.1 484.1" style="enable-background:new 0 0 484.1 484.1;" xml:space="preserve">
<style type="text/css">
	.st0{fill:url(#SVGID_1_);}
	.st1{fill:url(#SVGID_2_);}
	.st2{fill:url(#SVGID_3_);}
</style>
<title>be-boi</title>
<linearGradient id="SVGID_1_" gradientUnits="userSpaceOnUse" x1="241.9617" y1="13" x2="241.9617" y2="471.2139">
	<stop  offset="0" style="stop-color:#C9A34A"/>
	<stop  offset="0" style="stop-color:#A47715"/>
	<stop  offset="0.2279" style="stop-color:#C7992B"/>
	<stop  offset="0.414" style="stop-color:#DAB461"/>
	<stop  offset="0.586" style="stop-color:#B68F3A"/>
	<stop  offset="0.7721" style="stop-color:#CBA147"/>
	<stop  offset="1" style="stop-color:#FFE084"/>
</linearGradient>
<path class="st0" d="M87.9,359.3c-14.2,0-28.7-4.4-43-12.9c-10.5-6.3-21.2-9.6-32.5-9.9c-3.7-0.1-6.6-1.4-8.3-3.6
	c-1.4-2-1.7-4.5-1-6.8c0.8-2.9,3.1-5.9,7.1-5.9c0.5,0,1,0,1.5,0.1c1.5,0.3,2.9,0.4,4.4,0.4c7.8,0,14.3-3.8,19.5-6.9
	c30.5-18.1,61.5-36.3,91.5-54l32.7-19.2c1.4-0.8,2.8-1.6,4.2-2.5l4.5-2.7l-7.8-13.8l-13.4-23.8c-7-12.4-8.7-25-5.1-36.3
	s12.2-20.4,24.9-26.4c59.3-28.2,108.8-51.6,155.8-73.8c5.5-2.7,11.5-4,17.6-4.1c17.6,0,31.7,11.8,35.2,29.2
	c3.2,16-4.8,31.5-20.5,39.4c-16.6,8.4-33.5,16.9-49.8,25l-22.4,11.2l-28.8,14.4l-16.6,8.3l1.7,2.6l0.9,1.5c0.6,0.9,1.1,1.9,1.7,2.7
	l20.3,29.6c21.2,31,43.1,63,64.7,94.6c2.6,3.8,5.9,5.2,9,6.3l0.6,0.2c8.5,3,17.2,6.1,24.9,10.5c11.7,6.8,23.3,10.2,34.6,10.2
	c10.9,0,21.7-3.1,32.1-9.4c14.7-8.7,28-13,41.8-13.4h0.9c1.7-0.1,3.5,0.2,5.1,0.7c3.4,1.2,5.1,3.8,5.1,7.8c-0.1,3.5-2.5,6.5-5.9,7.4
	c-1.8,0.4-3.7,0.6-5.6,0.6c-10.5,0.4-20.7,3.5-29.6,9.1c-14.6,8.9-29.4,13.5-44,13.5s-29.8-4.6-44.9-13.7
	c-10.5-6.3-21.4-9.5-32.3-9.5s-22,3.3-32.7,9.7c-14.9,9-29.8,13.5-44.4,13.5s-29.3-4.5-44-13.4c-10.8-6.5-21.8-9.8-32.9-9.8
	s-22.2,3.3-33,9.9C117.3,354.8,102.5,359.3,87.9,359.3z M165.5,320c14.6,0,29.1,4.4,42.9,13c10.8,6.7,22,10.1,33.3,10.1
	c10.1-0.1,20-2.6,28.8-7.4c2-1,3.9-2,5.8-3.1c9.5-5.1,18.4-9.9,29.5-11.5l4.4-0.6l-2.4-3.7l-1.4-2.2c-0.8-1.3-1.5-2.3-2.2-3.4
	c-12.4-18-63.2-91.9-76.2-110.8c-4.9-7.1-6.7-13.6-5.2-19.2s6.1-10.4,13.8-14.2l41.5-20.8c23-11.5,46-23,69-34.5
	c4.4-2.2,9.7-5.5,12-12.2c2.8-7.6,0.6-16.1-5.5-21.4c-3.5-3.2-8-4.9-12.7-5c-3.7,0.1-7.2,1-10.5,2.6c-27.7,13.2-55.4,26.3-83.1,39.4
	c-24.7,11.7-49.4,23.4-74.2,35.1c-7.8,3.7-13.1,9.3-15.2,16s-1,14.5,3.3,22.2c3.8,6.7,7.7,13.5,11.5,20.1c2.3,4,4.6,8.1,6.9,12.1
	c8.2,14.4,5.8,23.7-8.3,32c-23.5,13.9-47,27.8-70.6,41.7l-47.9,28.2c-0.8,0.5-1.6,1.1-2.4,1.7l-1.3,0.9l-3.4,2.4l3.5,2.3
	c13.1,8.6,26.3,13,39.1,13c11.4,0,22.8-3.5,34.1-10.3l0.4-0.3c3.8-2.4,7.7-4.5,11.8-6.3C144.4,322.2,154.9,320.1,165.5,320z"/>
<linearGradient id="SVGID_2_" gradientUnits="userSpaceOnUse" x1="242.0207" y1="13" x2="242.0207" y2="471.2139">
	<stop  offset="0" style="stop-color:#C9A34A"/>
	<stop  offset="0" style="stop-color:#A47715"/>
	<stop  offset="0.2279" style="stop-color:#C7992B"/>
	<stop  offset="0.414" style="stop-color:#DAB461"/>
	<stop  offset="0.586" style="stop-color:#B68F3A"/>
	<stop  offset="0.7721" style="stop-color:#CBA147"/>
	<stop  offset="1" style="stop-color:#FFE084"/>
</linearGradient>
<path class="st1" d="M87.8,427c-13.5,0-27.1-3.9-40.3-11.6c-13.4-7.8-24.8-11.4-36.8-11.4c-2.1,0-4.1-0.8-5.6-2.3
	c-3.1-3.2-3.1-8.3,0.1-11.4c1.5-1.5,3.6-2.3,5.7-2.3h2.3c14.3,0,27.9,4.2,41.3,12.9c9.7,6.4,21,9.8,32.6,9.8
	c6.9,0,13.7-1.1,20.2-3.2c5.3-1.6,10.2-4.4,14.8-7.1l1.4-0.8c13.9-8,28-12,41.7-12s27.5,4.1,41,12.1c12.2,7.3,23.9,10.9,35.9,10.9
	c11.6,0,23.3-3.5,35-10.5c13.9-8.2,28-12.4,42-12.4c13.7,0,27.6,4,41.2,12c12.1,7.1,24.3,10.7,36.1,10.7c12.2,0,24.6-3.9,36.7-11.5
	c11.3-7.2,24.5-10.9,37.9-10.8h1c5.5,0.1,9.1,3.2,9.2,8c0.1,2.1-0.7,4.1-2.1,5.6c-1.8,1.7-4.3,2.7-6.8,2.6
	c-11.9,0.1-23.6,3.6-33.6,10.1c-12.4,8-26.9,12.3-41.7,12.5c-15.9-0.1-30.2-4.3-45.1-13.1c-10.7-6.4-21.8-9.6-32.9-9.6
	s-22.3,3.2-33.5,9.4c-7.9,4.4-16.5,8.8-25.1,10.9c-6.4,1.6-12.9,2.4-19.5,2.5c-14.8,0-29.2-4.4-42.9-13.2
	c-9.7-6.4-20.9-9.8-32.5-9.9c-9,0.1-18,2-26.3,5.6c-2.6,1.2-5.1,2.5-7.5,4.1c-1.2,0.8-2.4,1.5-3.6,2.1
	C114.9,423.2,101.2,427,87.8,427z"/>
<linearGradient id="SVGID_3_" gradientUnits="userSpaceOnUse" x1="394.1768" y1="13" x2="394.1768" y2="471.2139">
	<stop  offset="0" style="stop-color:#C9A34A"/>
	<stop  offset="0" style="stop-color:#A47715"/>
	<stop  offset="0.2279" style="stop-color:#C7992B"/>
	<stop  offset="0.414" style="stop-color:#DAB461"/>
	<stop  offset="0.586" style="stop-color:#B68F3A"/>
	<stop  offset="0.7721" style="stop-color:#CBA147"/>
	<stop  offset="1" style="stop-color:#FFE084"/>
</linearGradient>
<path class="st2" d="M394.3,302.7h-1.2c-41.8-0.5-75.3-34.8-74.7-76.6c0.2-20,8.4-39.1,22.7-53.1c13.8-14,32.7-21.9,52.3-22h1.1
	c20.3,0.2,39.7,8.5,53.9,23c14.2,14.3,21.9,33.7,21.6,53.8C469.3,269.1,435.4,302.7,394.3,302.7z M394.3,167.5
	c-32.7-0.1-59.3,26.3-59.4,59c0,0.4,0,0.7,0,1.1c0.3,32.3,26.9,58.6,59.5,58.6h0.3c32.7-0.2,59-26.9,58.9-59.5
	c-0.1-32.6-26.6-59.1-59-59.1L394.3,167.5z"/>
</svg>
