<svg id="Layer_1" data-name="Layer 1" xmlns="http://www.w3.org/2000/svg" viewBox="0 0 484.09 484.09"><defs><style>.cls-1{fill:#f09c1b;}</style></defs><title>be-boi</title><path class="cls-1" d="M87.94,359.28c-14.24,0-28.69-4.35-43-12.92-10.55-6.34-21.18-9.57-32.5-9.87-3.7-.1-6.63-1.39-8.26-3.61a7.58,7.58,0,0,1-.95-6.82c.82-2.87,3.12-5.94,7.09-5.94a9.31,9.31,0,0,1,1.46.13,25.65,25.65,0,0,0,4.42.39c7.83,0,14.28-3.83,19.46-6.9,30.47-18.08,61.52-36.33,91.54-54l32.69-19.22c1.38-.82,2.76-1.65,4.21-2.54l4.53-2.74-7.77-13.82-13.37-23.82c-7-12.43-8.74-25-5.14-36.28s12.18-20.35,24.9-26.39c59.3-28.16,108.81-51.61,155.84-73.8a41,41,0,0,1,17.6-4.08c17.56,0,31.72,11.75,35.23,29.22,3.21,16-4.84,31.48-20.5,39.44-16.56,8.43-33.47,16.86-49.83,25l-22.42,11.2-28.79,14.42-16.63,8.34,1.67,2.64.93,1.5c.59.95,1.14,1.85,1.74,2.72l20.28,29.61c21.22,31,43.15,63,64.67,94.56,2.59,3.79,5.89,5.2,9,6.32l.56.19c8.47,3,17.22,6.09,24.89,10.52,11.66,6.76,23.32,10.19,34.64,10.19,10.86,0,21.68-3.15,32.14-9.37,14.7-8.73,28-13,41.75-13.39l.92,0a15.13,15.13,0,0,1,5.1.72c3.36,1.23,5.07,3.84,5.07,7.76a7.7,7.7,0,0,1-5.91,7.36,28.34,28.34,0,0,1-5.56.6,60.12,60.12,0,0,0-29.59,9.11c-14.61,8.94-29.41,13.48-44,13.48s-29.79-4.61-44.87-13.7c-10.51-6.33-21.37-9.55-32.27-9.55s-22,3.27-32.69,9.72c-14.86,9-29.8,13.5-44.39,13.5s-29.33-4.5-44-13.37c-10.76-6.5-21.83-9.8-32.89-9.8s-22.19,3.32-33,9.86C117.29,354.76,102.46,359.28,87.94,359.28ZM165.49,320c14.62,0,29.07,4.38,42.95,13,10.79,6.73,22,10.14,33.29,10.14a62.71,62.71,0,0,0,28.84-7.39q2.93-1.52,5.83-3.08c9.48-5.07,18.44-9.86,29.49-11.52l4.37-.65-2.42-3.7-1.42-2.19c-.82-1.28-1.5-2.33-2.21-3.36-12.35-18-63.18-91.85-76.23-110.84-4.91-7.14-6.67-13.59-5.24-19.17s6.08-10.35,13.81-14.21l41.5-20.76q34.5-17.28,69-34.51c4.37-2.18,9.68-5.53,12-12.22a19.49,19.49,0,0,0-5.53-21.42,19.21,19.21,0,0,0-12.7-5,24.24,24.24,0,0,0-10.5,2.63q-41.55,19.73-83.11,39.39-37.08,17.56-74.16,35.14c-7.79,3.7-13.05,9.25-15.2,16s-1,14.54,3.28,22.2c3.8,6.73,7.7,13.53,11.46,20.11q3.48,6.06,6.93,12.12c8.22,14.42,5.81,23.7-8.3,32Q136,273.61,100.61,294.41L52.76,322.6a27.46,27.46,0,0,0-2.42,1.67l-1.26.93-3.37,2.41,3.46,2.27c13.14,8.62,26.28,13,39.07,13,11.38,0,22.85-3.46,34.08-10.27l.45-.27a78.4,78.4,0,0,1,11.81-6.27A85.62,85.62,0,0,1,165.49,320Z"/><path class="cls-1" d="M87.85,427c-13.51,0-27.08-3.92-40.34-11.65C34.08,407.53,22.74,404,10.76,403.93a7.92,7.92,0,0,1-5.63-2.32A8.08,8.08,0,0,1,11,387.88l2.26,0c14.33,0,27.85,4.2,41.34,12.85a59.53,59.53,0,0,0,32.57,9.79,68.27,68.27,0,0,0,20.21-3.21c5.29-1.64,10.15-4.44,14.85-7.15l1.36-.77c13.94-8,28-12,41.66-12s27.53,4.07,41,12.11c12.2,7.3,23.93,10.85,35.86,10.85,11.55,0,23.33-3.52,35-10.45,13.87-8.23,28-12.4,42-12.4,13.74,0,27.59,4,41.16,12,12.13,7.12,24.27,10.73,36.08,10.73,12.24,0,24.59-3.87,36.73-11.5a70,70,0,0,1,37.89-10.83H472c5.51.08,9.13,3.2,9.21,7.95a7.58,7.58,0,0,1-2.12,5.56,9.46,9.46,0,0,1-6.77,2.63,62.86,62.86,0,0,0-33.56,10.14,79.36,79.36,0,0,1-41.66,12.52c-15.88-.12-30.22-4.27-45.07-13.07-10.72-6.35-21.77-9.58-32.86-9.58s-22.27,3.18-33.53,9.43c-7.94,4.4-16.47,8.77-25.1,10.92a81.27,81.27,0,0,1-19.47,2.45c-14.76,0-29.19-4.43-42.9-13.16a59.86,59.86,0,0,0-32.51-9.85,67.93,67.93,0,0,0-26.25,5.62,54.42,54.42,0,0,0-7.46,4.07c-1.23.76-2.38,1.47-3.57,2.13C114.87,423.18,101.22,427,87.85,427Z"/><path class="cls-1" d="M394.27,302.69h-1.18A75.69,75.69,0,0,1,341,173a74,74,0,0,1,52.34-22h1.15a76.79,76.79,0,0,1,53.93,23A74.54,74.54,0,0,1,470,227.82C469.34,269.11,435.36,302.69,394.27,302.69Zm0-135.17a59.18,59.18,0,0,0-59.39,60.08c.25,32.31,26.94,58.59,59.5,58.59h.29a59.3,59.3,0,0,0,58.86-59.54c-.12-32.6-26.6-59.13-59-59.13Z"/></svg>