<svg id="Layer_1" data-name="Layer 1" xmlns="http://www.w3.org/2000/svg" viewBox="0 0 622.25 622.25"><defs><style>.cls-1{fill:#e2fef9;}.cls-2{fill:#00d5a3;}</style></defs><title>dv02</title><circle class="cls-1" cx="311.13" cy="313.46" r="306.4"/><path class="cls-2" d="M233.55,497.42l.18-20.49,25.72-.32,1.28.17a15.36,15.36,0,0,0,1,4.51c1.88,5.38,4.74,10.42,5.62,16.13Z"/><path class="cls-2" d="M267.32,497.42c-.88-5.71-3.74-10.75-5.62-16.13a15.36,15.36,0,0,1-1-4.5l28.78-.15q4,10.39,8,20.78Z"/><path class="cls-2" d="M256.65,154.52c7.45,7.24,14.86,14.52,23.43,20.53a107.73,107.73,0,0,0,54,19.28c17.42,1.45,34.56-.77,51.77-2.77,16-1.87,32-4.09,48.18-3.77,32.9.65,60.11,13.74,82.47,37.52.49.51,1,1,1,1.83l-.12.14c-6.1-2.29-12.12-4.81-18.64-5.8a82.08,82.08,0,0,0-28.69.84,7.26,7.26,0,0,0-4.63-1.48c-12.51-.83-24.77.44-36.6,4.76a205,205,0,0,0-43.14,22.28c-15.79,10.48-31.26,21.42-47,31.92-17.59,11.72-35.52,22.83-56.11,28.77-2.24.64-4.74.58-6.68,2.18-6.8-1.11-13-4-19.25-6.67,0-.48-.08-.95-.08-1.43q0-72.81,0-145.63C256.51,156.19,256.6,155.35,256.65,154.52Z"/><path class="cls-2" d="M256.65,154.52c0,.83-.14,1.67-.14,2.5q0,72.81,0,145.63c0,.48.05,1,.08,1.43l-.06,58.27c-1,1-.6,2.23-.6,3.36,0,5.42,0,10.85,0,16.27l-21.7-.23q0-119.26,0-238.52a18.26,18.26,0,0,1,.41-5.7,11.12,11.12,0,0,1,21.8,3C256.62,145.18,256.59,149.85,256.65,154.52Z"/><path class="cls-2" d="M234.22,381.75l21.7.23c.85,1.29.62,2.76.62,4.17,0,18.51-.19,37,.07,55.51.17,11.69-1.89,23.61,2.84,34.95l-25.72.32c-.07-7.76-3.75-13.41-9.62-18.31-6-5-11.61-10.67-17.16-16.26a17.48,17.48,0,0,1-5-12.66c0-9.46-.06-18.91,0-28.36s8.21-18,17.64-19C224.46,381.8,229.33,381.94,234.22,381.75Z"/><path class="cls-2" d="M259.45,476.61c-4.73-11.34-2.67-23.26-2.84-34.95-.26-18.5-.07-37-.07-55.51,0-1.41.23-2.88-.62-4.17,0-5.42,0-10.85,0-16.27,0-1.13-.39-2.38.6-3.36,4.51.32,9.05-.41,13.56.67,9.54,2.28,15.92,10,15.94,19.85.06,24.29.15,48.57,0,72.86-.06,7.26.34,14.28,3.54,20.91l-28.78.15Z"/><path class="cls-2" d="M275.83,310.75c1.94-1.6,4.44-1.54,6.68-2.18,20.59-5.94,38.52-17.05,56.11-28.77,15.77-10.5,31.24-21.44,47-31.92a205,205,0,0,1,43.14-22.28c11.83-4.32,24.09-5.59,36.6-4.76a7.26,7.26,0,0,1,4.63,1.48c-29.25,7.41-53.35,24.53-77.7,41.2-19.42,13.29-38.46,27.2-59.81,37.4-15.14,7.24-30.86,12.12-47.94,11.13A42.22,42.22,0,0,1,275.83,310.75Z"/></svg>