<svg id="Layer_1" data-name="Layer 1" xmlns="http://www.w3.org/2000/svg" viewBox="0 0 622.25 622.25"><defs><style>.cls-1{fill:#cfecfe;}.cls-2{fill:#44a3f9;}</style></defs><title>dv03</title><circle class="cls-1" cx="311.13" cy="313.46" r="306.4"/><path class="cls-2" d="M252.39,476.93H212.16c-.07-7.12-.18-14.24-.18-21.35a3.68,3.68,0,0,0-1.85-3.65c-15.19-9.64-22.24-23.68-22.23-41.51,0-28.31,0-56.61.06-84.92,0-2.27-.37-3.17-2.9-3-4.67.24-9.37,0-14,.12-2.21.08-2.87-.54-2.84-2.8.11-11.17.08-22.35,0-33.52,0-2.52,1.09-5.73-.48-7.37s-4.64-.5-7.05-.42c-1.93.06-2.51-.43-2.51-2.44q.1-38.79,0-77.57c0-1.9.38-2.57,2.43-2.52,6.17.15,12.34.18,18.51,0,2.5-.08,3.12.6,3.11,3.11-.1,23.72-.05,47.45-.07,71.18,0,2.64.8,6-.49,7.7s-4.77.47-7.28.45c-1.79,0-2.37.47-2.36,2.32q.12,17.88,0,35.75c0,1.9.64,2.33,2.38,2.27a79,79,0,0,1,10.21,0c3,.29,3.36-.87,3.36-3.51q-.14-58.73-.07-117.47a49,49,0,0,1,2.45-16.3c6.82-19.63,23.74-31.46,45.11-31.47H383.58a68,68,0,0,1,8.9.59c20.7,2.74,38.35,21.54,38.67,42.38.45,28.72.21,57.46.25,86.19,0,13,.05,26,0,38.94,0,2.19.24,3.25,2.85,3.1,4.35-.26,8.73-.19,13.08,0,2,.08,2.46-.55,2.44-2.48-.11-9.37,0-18.73-.06-28.1,0-2.31.71-5.32-.45-6.76s-4.38-.53-6.67-.45c-2,.06-2.5-.5-2.49-2.48q.09-38.94,0-77.89c0-1.9.63-2.25,2.36-2.23,6.17.1,12.34.16,18.51,0,2.5-.07,3.17.62,3.16,3.15-.1,23.94-.06,47.88-.06,71.82,0,7.53,0,7.64-7.59,7.51-2.34,0-3,.47-3,2.92.14,12.13,0,24.26.11,36.39,0,2-.49,2.5-2.46,2.45-5.42-.15-10.86.11-16.27-.12-2.75-.12-3.53.53-3.52,3.42.13,27.56.08,55.12.08,82.68,0,18-7.46,31.95-22.94,41.35a3.84,3.84,0,0,0-2,3.87c0,6.91-.12,13.81-.19,20.72H366.05c.05-5,0-10,.21-15,.13-2.64-.64-3.34-3.3-3.33q-53.74.14-107.49.06a10.92,10.92,0,0,1-1.28,0c-1.54-.19-2,.49-2,2C252.32,466.1,252.33,471.51,252.39,476.93Zm57.36-279q-49.78,0-99.56,0c-2.39,0-3.18.44-3.18,3q.15,60.63,0,121.27a10.45,10.45,0,0,0,1.33,5.14c3.81,7.06,9.68,12.07,16.36,16.16,16.54,10.1,35,13.82,53.91,15.89a286.66,286.66,0,0,0,52.24.69c17-1.25,33.76-3.9,49.72-10.21,10.68-4.22,20.5-9.8,27.84-19a16.7,16.7,0,0,0,3.88-11.07q-.22-59.35,0-118.71c0-2.69-.68-3.27-3.31-3.26C375.92,198,342.84,197.91,309.75,197.91Zm.75-38.33c-16.91,0-33.81,0-50.71-.07-2.45,0-3,.66-2.93,3,.17,6.48.16,13,0,19.45-.05,2.16.65,2.63,2.67,2.58,5.74-.13,11.48,0,17.22,0,28.17,0,56.35,0,84.52.06,2.58,0,3.12-.75,3.05-3.15q-.24-9.57,0-19.14c.06-2.29-.63-2.76-2.81-2.74C344.52,159.62,327.51,159.58,310.5,159.58Zm-72,251.16c9.14,0,18.29-.05,27.43,0,1.9,0,2.53-.39,2.5-2.42-.14-7.33-.12-14.67,0-22,0-1.93-.46-2.52-2.46-2.51q-27.27.12-54.53,0c-1.94,0-2.55.47-2.51,2.47q.18,11,0,22c0,2,.55,2.49,2.49,2.47C220.47,410.68,229.51,410.74,238.54,410.74Zm143.92,0c9.13,0,18.27,0,27.4,0,1.66,0,2.46-.23,2.43-2.19q-.17-11.16,0-22.31c0-2.07-.76-2.42-2.6-2.41q-27.09.08-54.17,0c-2.32,0-2.82.74-2.78,2.89.12,7,.15,14,0,21-.06,2.34.5,3.08,3,3C364.61,410.65,373.53,410.74,382.46,410.74Z"/></svg>