<svg id="Layer_1" data-name="Layer 1" xmlns="http://www.w3.org/2000/svg" xmlns:xlink="http://www.w3.org/1999/xlink" viewBox="0 0 622.25 622.25"><defs><style>.cls-1{fill:#ffeef5;}.cls-2{fill:url(#linear-gradient);}.cls-3{fill:url(#linear-gradient-2);}.cls-4{fill:url(#linear-gradient-3);}.cls-5{fill:url(#linear-gradient-4);}.cls-6{fill:url(#linear-gradient-5);}.cls-7{fill:url(#linear-gradient-6);}</style><linearGradient id="linear-gradient" x1="147.86" y1="427.97" x2="453.86" y2="153.97" gradientUnits="userSpaceOnUse"><stop offset="0" stop-color="#c9a34a"/><stop offset="0" stop-color="#ff6ea3"/><stop offset="1" stop-color="#ff98a3"/></linearGradient><linearGradient id="linear-gradient-2" x1="235.24" y1="525.55" x2="541.24" y2="251.55" xlink:href="#linear-gradient"/><linearGradient id="linear-gradient-3" x1="95.68" y1="369.69" x2="401.68" y2="95.69" xlink:href="#linear-gradient"/><linearGradient id="linear-gradient-4" x1="180.16" y1="464.04" x2="486.16" y2="190.04" xlink:href="#linear-gradient"/><linearGradient id="linear-gradient-5" x1="86.7" y1="359.67" x2="392.7" y2="85.67" xlink:href="#linear-gradient"/><linearGradient id="linear-gradient-6" x1="135.34" y1="413.98" x2="441.34" y2="139.98" xlink:href="#linear-gradient"/></defs><title>dv04</title><circle class="cls-1" cx="311.13" cy="313.46" r="306.4"/><path class="cls-2" d="M314,200.47c21.12-.84,39.2,5.87,53.53,21.7a62.12,62.12,0,0,1,14.53,27.92c.28,1.22.75,2.33-.39,3.58-4.21,4.58-5.33,10.33-6,16.28C374.91,277,374,284,373,291c-.62,4.68-.44,9.29,2.24,13.3,1.23,1.84.73,2.77-.47,4.18-7.51,8.8-14.87,17.72-22.42,26.49-3.86,4.48-6.35,9.4-5.78,15.42.21,2.09-1.1,2.62-2.41,3.34-14.76,8.07-30.3,8.84-46.33,4.9A103.06,103.06,0,0,1,281.55,353c-1.77-.77-2.83-1.66-3-3.8-.26-3.51-2-6.45-4.21-9.18-8.68-10.89-17.3-21.83-26-32.66-1.34-1.66-1.44-2.65-.06-4.4,3.52-4.42,4.16-9.65,3.32-15.1-1.21-7.8-2.52-15.59-3.76-23.4a29.19,29.19,0,0,0-7.24-15.08c-1.51-1.7-1.34-2.75-.08-4.35,8.51-10.79,19.08-19.24,30.29-27,8.73-6,17.91-11.33,27.18-16.5,3.17-1.77,6.46-.78,9.7-1C309.77,200.34,311.91,200.47,314,200.47Z"/><path class="cls-3" d="M311.86,472.31q-60.24,0-120.47.07c-2.86,0-3.88-.53-3.68-3.59.35-5.39-.28-10.84,1.22-16.17,3.57-12.71,12.52-20.75,23.4-27.11,13.46-7.88,28.33-12,43.18-16.2,11.52-3.25,18.07-12,18.14-24,0-5.44,0-10.87,0-16.3,0-.59,0-1.18,0-1.77.17-3.16,1.33-3.9,4.21-2.6A97.26,97.26,0,0,0,310.25,373a68.29,68.29,0,0,0,32.55-5c2.33-1,2.82-.57,2.78,1.82-.08,4.84-.19,9.7.14,14.52a23.26,23.26,0,0,0,18,21.45c15.44,3.78,30.15,9.26,43.59,17.87a78.15,78.15,0,0,1,20.08,17.72c6.2,8,9.62,16.89,9.35,27.17-.08,2.92-.48,3.93-3.76,3.91-23.15-.18-46.3-.1-69.44-.1Z"/><path class="cls-4" d="M239.68,290.86c-.05,4.42-2.45,7.14-6,7.53s-6.63-2-7.36-6.13c-1.35-7.78-2.53-15.59-3.8-23.39-.42-2.56-.75-5.14-1.36-7.66a5.86,5.86,0,0,0-6.86-4.65,6,6,0,0,0-5.06,6.95c1.72,10.71,3.39,21.43,5.43,32.08,1.74,9,9.17,15,18.36,15.09a4.64,4.64,0,0,1,4.09,2c9,11.51,18.17,22.94,27.25,34.41,2.94,3.71,3,7.46.24,10.16s-6.29,2.6-9.92-.17q-30.1-23-60.2-46a13.91,13.91,0,0,1-5.24-8.13q-14.85-61.49-29.73-122.95c-1.43-5.92.11-8.28,6.14-9.38,6.49-1.19,13-2.27,19.52-3.33,4.25-.69,6.74,1.1,7.52,5.4q3.24,17.92,6.4,35.86a36.17,36.17,0,0,0,6.83,16.1c7.53,9.84,14.83,19.87,22.81,29.34a33.5,33.5,0,0,1,8,18.72C237.5,279.09,238.78,285.34,239.68,290.86Z"/><path class="cls-5" d="M385.56,290.11c.63-5.39,1.39-12.44,2.31-19.45a25.77,25.77,0,0,1,5.75-12.74c6.38-8,12.48-16.32,19.12-24.14a53.85,53.85,0,0,0,12.53-29.06c1.32-10.53,3.19-21,4.86-31.47.82-5.15,3.28-6.8,8.38-6,5.71.91,11.43,1.75,17.15,2.56,6.71.94,8.56,3.49,7,10.1Q448.88,239.85,435,299.77a23.41,23.41,0,0,1-9.28,14.12Q397.29,335,368.94,356.13a27,27,0,0,1-3.6,2.19,3.36,3.36,0,0,1-5-1.75c-1.63-3.67-2.32-7.64.22-11.13,8-11,17-21.19,25.66-31.61.93-1.12,1.93-1.06,3.13-.95,7.68.72,12.72-2.86,16.11-9.57,3.81-7.58,4.17-15.9,5.62-24,.71-3.95,1.38-7.91,1.89-11.88a30,30,0,0,0,.16-6.35c-.25-2.69-1.68-4.66-4.56-5.09s-4.77.78-6,3.33c-2.47,5.24-2.41,11-3.47,16.55-1.08,5.68-1.82,11.41-2.8,17.11-.94,5.44-3.55,8.27-7,7.81C386.25,300.39,385,297.43,385.56,290.11Z"/><path class="cls-6" d="M357.74,160.81a488.44,488.44,0,0,0-58.94,26.7c-18.85,10-37.21,20.84-53.57,34.72a78.59,78.59,0,0,0-12.76,13.21c-1,1.37-1.56,1.74-2.75.13q-4.83-6.54-9.94-12.87c-1.16-1.44-.89-2.86-.61-4.33,6.68-35.08,38.05-62.28,73.94-63.37,16.25-.49,32.57-1.18,48.77,1.2A52.13,52.13,0,0,1,357.74,160.81Z"/><path class="cls-7" d="M325.28,187.84c7.28-3.19,14.51-6.48,21.84-9.52s14.92-5.8,22.3-8.89a4.52,4.52,0,0,1,5.1.57c17,12.61,27.43,29.23,31.27,50a3.64,3.64,0,0,1-.69,3.25c-4.26,5.49-8.47,11-12.8,16.68C380,209.73,357.85,192.5,325.28,187.84Z"/></svg>