<svg id="Layer_1" data-name="Layer 1" xmlns="http://www.w3.org/2000/svg" viewBox="0 0 622.25 622.25"><defs><style>.cls-1{fill:#e4f4fe;}.cls-2{fill:#00cb9d;}</style></defs><title>dv05</title><circle class="cls-1" cx="311.13" cy="313.46" r="306.4"/><path class="cls-2" d="M113.51,298c9.84-12.85,21.66-19.65,36.63-20,14.53-.37,29.08-.1,43.61-.11q147.95,0,295.9.09c8.86,0,16.11,5.1,23.3,9.69,1.42.91,2.19,2.58,2.85,4.21,2.1,5.22,1.49,6.15-4.14,6.15-11.55,0-14.39,2.85-14.39,14.38,0,2.81-.08,5.63,0,8.44.27,7.11,3.75,10.55,10.75,10.87,2.78.12,6.86-1.29,8,.64,1.86,3.05,1,7.31.22,10.95a18.42,18.42,0,0,1-17.57,14.26c-5.15.18-10.33-.18-15.47.14-3.3.2-4.48-.79-5.1-4.1-3.66-19.43-20.3-33.43-40.27-34.2-18.84-.72-36.38,12.11-41.83,30.59-2,6.84-2,6.84-9.36,6.84q-77.13,0-154.28.1c-3.7,0-4.91-1-5.68-4.58a42.18,42.18,0,0,0-82.57,1.18c-.62,3.26-1.73,4.37-5.08,4.13-4.82-.34-9.68,0-14.53-.1a19.62,19.62,0,0,1-19-24.1c.54-2.51,2.24-1.73,3.59-1.74a23.63,23.63,0,0,0,19.52-9.37,22.87,22.87,0,0,0,3.69-7c3.51-10.49-.63-18.22-12.34-17.35C118.2,298.09,116.36,298,113.51,298Zm173.37-5.08v0c-1.87,0-3.76-.13-5.62,0a4.66,4.66,0,0,0-4.64,4.91,4.46,4.46,0,0,0,4.24,4.77,46.19,46.19,0,0,0,12.15-.07,4.4,4.4,0,0,0,3.95-5,4.62,4.62,0,0,0-4.45-4.61C290.65,292.74,288.76,292.89,286.88,292.89Zm78.81,0c-1.88,0-3.76-.11-5.63,0a4.65,4.65,0,0,0-4.6,4.47,4.38,4.38,0,0,0,3.81,5.1,40.89,40.89,0,0,0,12.59,0,4.37,4.37,0,0,0,3.92-5,4.6,4.6,0,0,0-4.47-4.58C369.45,292.74,367.56,292.89,365.69,292.87Z"/><path class="cls-2" d="M470,267.87q-43.44,0-86.9.05c-2.49,0-3.17-.8-3.14-3.22.12-9.67.1-19.34,0-29,0-2.2.59-2.92,2.88-3,7.09-.22,13.75.67,20.37,3.79,22.2,10.42,44.6,20.41,66.92,30.56Z"/><path class="cls-2" d="M281.17,267.88c-7.64,0-15.28-.09-22.92.05-2.44,0-3.6-.3-3.54-3.2.18-9.66.16-19.34,0-29,0-2.61.91-3,3.22-3,15.44.09,30.88.12,46.31,0,2.75,0,3.32.88,3.28,3.42-.14,9.51-.16,19,0,28.53.05,2.78-.88,3.34-3.44,3.28C296.45,267.77,288.81,267.88,281.17,267.88Z"/><path class="cls-2" d="M344,232.77c7.64,0,15.28.1,22.92-.06,2.63-.06,3.42.68,3.38,3.35q-.24,14.26,0,28.53c.05,2.73-.84,3.36-3.44,3.34q-23.15-.17-46.3,0c-2.49,0-3.17-.72-3.13-3.16q.19-14.5,0-29c0-2.55.85-3.09,3.19-3.05C328.38,232.84,336.17,232.76,344,232.77Z"/><path class="cls-2" d="M185.34,394.25a32.46,32.46,0,1,1,32.84-32.58A32.56,32.56,0,0,1,185.34,394.25ZM162.69,362a22.92,22.92,0,0,0,23,22.8,23,23,0,1,0-.35-45.92A22.83,22.83,0,0,0,162.69,362Z"/><path class="cls-2" d="M436.85,394.25a32.46,32.46,0,1,1,32.43-32.48A32.65,32.65,0,0,1,436.85,394.25Zm22.78-32.31A22.81,22.81,0,0,0,437,338.84a23,23,0,1,0,22.62,23.1Z"/><path class="cls-2" d="M199.78,267.86c9.72-10.69,18.56-20.71,27.77-30.38,4-4.19,9.51-5,15.18-4.75,1.72.08,2.06.77,2.05,2.27q-.06,15.24,0,30.47c0,1.37-.08,2.41-1.92,2.41C228.86,267.84,214.87,267.86,199.78,267.86Z"/><path class="cls-2" d="M115.6,307.87h2.25c6.59,0,7.3,1.2,3.89,6.92a16.16,16.16,0,0,1-3.28,3.9c-2.95,2.53-10.7,4.27-12.28,2.94-1-.83.33-10.66,1.92-12.59C110.29,306.4,113.4,308.64,115.6,307.87Z"/><path class="cls-2" d="M516.75,315.06a8.05,8.05,0,0,1,0,1.39c-.29,1.76,1,4.48-.78,5.11-2.35.82-5.18.32-7.8.23-1,0-.95-1-1-1.8,0-3.41,0-6.82,0-10.22,0-1.37.51-1.73,1.86-1.94C516,306.78,516.75,307.39,516.75,315.06Z"/><path class="cls-2" d="M185.44,348.76a13,13,0,1,1,.29,26,13,13,0,1,1-.29-26Z"/><path class="cls-2" d="M436.9,374.76a13,13,0,1,1-.33-26,13,13,0,1,1,.33,26Z"/></svg>