<svg id="Layer_1" data-name="Layer 1" xmlns="http://www.w3.org/2000/svg" viewBox="0 0 622.25 622.25"><defs><style>.cls-1{fill:#ccbcf5;}.cls-2{fill:#a38cea;}</style></defs><title>dv06</title><circle class="cls-1" cx="311.13" cy="313.46" r="306.4"/><path class="cls-2" d="M97.07,348.67c10.7,0,21.4.08,32.1,0,7.68,0,13-5,13.09-12.1s-5-12.39-12.73-12.42c-10.82,0-21.65-.48-32.46.25V307.7c2.07-5.33,5.36-9.26,11.45-10,14.09-1.71,28.18-3.48,42.28-5.08,2.75-.32,4.41-1.25,5.67-3.9,7.28-15.3,14.81-30.47,22.18-45.72,5.74-11.86,15.22-17.76,28.28-17.76q119.1-.06,238.2,0c16.18,0,26.76,8.55,30.51,24.22q3.84,16,7.6,32c2.16,9.18,2.17,8.94,11.47,10.31,16,2.36,30.86,14.52,30.47,33.91-.28,13.78,0,27.58-.06,41.37,0,9.91-4.59,14.52-14.56,14.56-11.42.05-22.84.06-34.26,0-2.32,0-3.65.53-4.86,2.78-6.07,11.22-15.75,17.25-28.42,17.33-12.85.08-22.65-6-28.84-17.31-1.22-2.23-2.53-2.8-4.85-2.8q-102.39.08-204.77,0a4.68,4.68,0,0,0-4.8,2.87c-6.12,11.2-15.81,17.2-28.47,17.25-12.85,0-22.62-6.05-28.82-17.38-1.1-2-2.21-2.77-4.46-2.74-7.93.12-15.89-.27-23.81.14-7.63.39-13.61-1.63-17.13-8.83Zm354.07-95.18c-.6-2.49-2.35-3.53-4.94-3.52q-19,.08-38,0c-2,0-2.61.54-2.6,2.57.09,12,.05,23.91,0,35.87,0,1.45-.13,2.7,2,2.7,17.36-.06,34.72,0,52.4,0C457.06,278.28,454.13,265.88,451.14,253.49Zm-116.68-3.55c-2.24-.05-2.78.66-2.76,2.81q.15,17.78,0,35.53c0,2.16.53,2.84,2.76,2.83q21.94-.15,43.89,0c2.18,0,2.85-.61,2.83-2.82q-.15-17.76,0-35.53c0-2.23-.67-2.84-2.83-2.81-7.39.12-14.77.05-22.16.05S341.7,250.08,334.46,249.94Zm-73.82,0c-2.19,0-3.14.3-3.11,2.85.14,11.83.11,23.65,0,35.48,0,2.1.44,2.84,2.71,2.83q21.92-.17,43.83,0c2.5,0,2.91-.85,2.89-3.08q-.14-17.53,0-35.06c0-2.29-.51-3.09-2.94-3-7.37.16-14.75.06-22.12.06C274.83,250,267.74,250.07,260.64,250Zm-54.08,41.11c7.8,0,15.6-.1,23.4.05,2.43.05,3-.73,3-3.05q-.16-17.55,0-35.1c0-2.37-.6-3.07-3-3-7.8.15-15.6.09-23.4,0-2.11,0-3.95.52-4.91,2.48-6.25,12.66-12.44,25.35-18.93,38.61ZM179,369.35a7.8,7.8,0,1,0-7.74,7.73A8.1,8.1,0,0,0,179,369.35Zm263.74,7.74a7.79,7.79,0,1,0-7.71-7.78A8.14,8.14,0,0,0,442.69,377.09Z"/></svg>