<svg id="Layer_1" data-name="Layer 1" xmlns="http://www.w3.org/2000/svg" viewBox="0 0 622.25 622.25"><defs><style>.cls-1{fill:#fbf1ec;}.cls-2{fill:#ff87a2;}</style></defs><title>dv06</title><circle class="cls-1" cx="311.13" cy="313.46" r="306.4"/><path class="cls-2" d="M65.82,353.81c12.26,0,24.52.09,36.78,0,8.81-.05,14.91-5.77,15-13.86s-5.79-14.21-14.59-14.24c-12.4,0-24.8-.55-37.2.29V306.86C68.2,300.75,72,296.24,79,295.4c16.15-2,32.28-4,48.44-5.83,3.16-.36,5.06-1.42,6.5-4.47,8.34-17.52,17-34.91,25.42-52.38,6.57-13.6,17.44-20.36,32.41-20.36q136.48-.08,273,0c18.55,0,30.66,9.8,35,27.75q4.39,18.34,8.71,36.72c2.47,10.51,2.49,10.23,13.14,11.81,18.3,2.7,35.36,16.63,34.91,38.85-.32,15.8,0,31.61-.07,47.41,0,11.36-5.26,16.64-16.67,16.69-13.09.05-26.18.07-39.27,0-2.65,0-4.18.6-5.57,3.18-7,12.86-18,19.77-32.57,19.86-14.72.1-26-6.84-33-19.83-1.4-2.56-2.89-3.21-5.56-3.21q-117.33.07-234.65,0c-2.74,0-4.16.81-5.51,3.29-7,12.83-18.11,19.71-32.63,19.76-14.72.06-25.91-6.93-33-19.91-1.27-2.32-2.55-3.18-5.12-3.14-9.09.14-18.21-.31-27.29.16-8.74.45-15.59-1.87-19.63-10.12ZM471.58,244.74c-.69-2.86-2.69-4.05-5.67-4q-21.74.09-43.49,0c-2.26,0-3,.61-3,2.94.1,13.71.06,27.41,0,41.11,0,1.67-.15,3.1,2.32,3.09,19.89-.07,39.78,0,60,0C478.36,273.14,475,258.93,471.58,244.74Zm-133.72-4.08c-2.56,0-3.18.76-3.16,3.23q.18,20.36,0,40.72c0,2.46.6,3.25,3.17,3.23q25.14-.16,50.29,0c2.5,0,3.27-.71,3.24-3.24q-.16-20.36,0-40.71c0-2.55-.77-3.26-3.25-3.22-8.46.14-16.92.05-25.39.05C354.47,240.72,346.16,240.82,337.86,240.66Zm-84.59,0c-2.51,0-3.6.35-3.57,3.28.17,13.55.13,27.1,0,40.65,0,2.41.5,3.26,3.11,3.25q25.11-.19,50.23,0c2.86,0,3.33-1,3.31-3.53q-.17-20.08,0-40.18c0-2.63-.58-3.54-3.37-3.48-8.45.18-16.9.07-25.35.07C269.54,240.73,261.4,240.81,253.27,240.67Zm-62,47.11c8.94,0,17.88-.11,26.82.07,2.79,0,3.42-.83,3.4-3.5q-.21-20.12,0-40.23c0-2.71-.68-3.51-3.42-3.46-8.94.17-17.88.09-26.82.05-2.42,0-4.52.59-5.63,2.84-7.16,14.51-14.25,29.05-21.68,44.23Zm-31.64,89.73a8.94,8.94,0,1,0-8.86,8.86A9.27,9.27,0,0,0,159.65,377.51Zm302.25,8.86c4.8.08,9.25-4.39,9.09-9.13a9,9,0,1,0-9.09,9.13Z"/></svg>