<svg id="Layer_1" data-name="Layer 1" xmlns="http://www.w3.org/2000/svg" viewBox="0 0 798.22 798.22"><defs><style>.cls-1,.cls-3{fill:#025750;}.cls-1{opacity:0.1;}.cls-2{fill:none;stroke:#025750;stroke-miterlimit:10;stroke-width:11px;}</style></defs><title>dv1</title><rect class="cls-1" x="14.11" y="14.11" width="770" height="770" rx="85.96" ry="85.96"/><rect class="cls-2" x="14.11" y="14.11" width="770" height="770" rx="85.96" ry="85.96"/><path class="cls-3" d="M312.33,640.63H252.9c-.11-10.52-.28-21-.28-31.55,0-2.4-.5-4-2.72-5.39-22.45-14.24-32.87-35-32.85-61.33,0-41.82,0-83.64.09-125.46,0-3.36-.55-4.68-4.29-4.49-6.9.34-13.84-.07-20.75.17-3.26.11-4.23-.79-4.2-4.14.18-16.5.13-33,0-49.52,0-3.72,1.61-8.46-.72-10.89-2.13-2.23-6.86-.73-10.42-.62-2.84.09-3.71-.63-3.7-3.61q.16-57.3,0-114.61c0-2.79.57-3.78,3.59-3.71,9.11.21,18.24.26,27.35,0,3.69-.11,4.62.89,4.6,4.59-.15,35.06-.08,70.11-.1,105.17,0,3.9,1.18,8.84-.74,11.38-1.8,2.38-7,.7-10.75.66-2.64,0-3.5.7-3.48,3.43q.16,26.42,0,52.82c0,2.81.95,3.44,3.52,3.36a114.94,114.94,0,0,1,15.08.06c4.43.42,5-1.29,5-5.19Q217,315,217,228.18a72.61,72.61,0,0,1,3.62-24.09c10.09-29,35.08-46.47,66.66-46.48q109.43,0,218.84,0a99.91,99.91,0,0,1,13.15.87c30.59,4.05,56.66,31.83,57.14,62.62.65,42.44.3,84.89.36,127.34,0,19.18.07,38.36-.06,57.53,0,3.24.36,4.8,4.21,4.58,6.43-.38,12.9-.28,19.33,0,3,.12,3.63-.81,3.6-3.67-.16-13.83,0-27.67-.09-41.5,0-3.43,1.06-7.87-.66-10s-6.47-.78-9.86-.66c-2.91.09-3.69-.74-3.68-3.67q.15-57.52,0-115.07c0-2.81.93-3.33,3.49-3.29,9.11.14,18.24.23,27.35,0,3.7-.11,4.69.92,4.67,4.65C625,272.63,625,308,625,343.38c0,11.13,0,11.28-11.22,11.09-3.46-.06-4.45.7-4.4,4.32.21,17.92,0,35.84.17,53.76,0,2.94-.73,3.69-3.63,3.62-8-.22-16.05.16-24.05-.18-4.06-.17-5.21.79-5.19,5.06.19,40.72.11,81.44.11,122.16,0,26.64-11,47.2-33.9,61.09-2.42,1.47-2.94,3.16-2.94,5.72,0,10.2-.17,20.4-.27,30.61H480.26c.07-7.38-.06-14.76.31-22.12.19-3.89-.94-4.94-4.88-4.93q-79.41.21-158.82.1a16.84,16.84,0,0,1-1.88,0c-2.28-.28-3,.72-2.95,3C312.22,624.62,312.25,632.63,312.33,640.63Zm84.75-412.24q-73.54,0-147.11-.08c-3.52,0-4.69.65-4.69,4.51q.22,89.58.06,179.17a15.48,15.48,0,0,0,2,7.6c5.64,10.43,14.3,17.83,24.18,23.87,24.43,14.92,51.75,20.41,79.64,23.47a422.57,422.57,0,0,0,77.19,1c25.14-1.85,49.87-5.76,73.46-15.09,15.78-6.23,30.28-14.47,41.13-28a24.66,24.66,0,0,0,5.74-16.35q-.35-87.69,0-175.4c0-4-1-4.83-4.88-4.82C494.84,228.44,446,228.39,397.08,228.39Zm1.1-56.64c-25,0-49.95.09-74.92-.09-3.61,0-4.41,1-4.32,4.42.25,9.57.23,19.16,0,28.74-.07,3.2,1,3.89,3.95,3.82,8.48-.19,17-.07,25.45-.07,41.62,0,83.24-.06,124.87.1,3.81,0,4.6-1.12,4.51-4.67-.24-9.41-.25-18.85,0-28.26.09-3.39-.93-4.08-4.16-4.07C448.44,171.81,423.31,171.75,398.18,171.75ZM291.87,542.84c13.51,0,27-.08,40.52.06,2.81,0,3.75-.58,3.69-3.58-.19-10.83-.17-21.67,0-32.51,0-2.84-.67-3.72-3.64-3.71q-40.28.18-80.56,0c-2.87,0-3.76.69-3.71,3.65q.26,16.25,0,32.5c-.05,3,.81,3.67,3.67,3.64C265.17,542.75,278.52,542.84,291.87,542.84Zm212.63,0c13.5,0,27-.05,40.49,0,2.45,0,3.63-.34,3.59-3.24q-.26-16.47,0-33c0-3.06-1.13-3.57-3.84-3.56q-40,.12-80.05,0c-3.41,0-4.16,1.09-4.1,4.28.19,10.35.22,20.72,0,31.07-.07,3.47.75,4.55,4.38,4.49C478.13,542.7,491.32,542.84,504.5,542.84Z"/></svg>