<svg id="Layer_1" data-name="Layer 1" xmlns="http://www.w3.org/2000/svg" xmlns:xlink="http://www.w3.org/1999/xlink" viewBox="0 0 798.22 798.22"><defs><style>.cls-1{fill:url(#linear-gradient);}.cls-2{fill:#fff;}</style><linearGradient id="linear-gradient" x1="15.24" y1="781.21" x2="883.24" y2="-82.79" gradientUnits="userSpaceOnUse"><stop offset="0" stop-color="#c9a34a"/><stop offset="0" stop-color="#a47715"/><stop offset="0.23" stop-color="#c7992b"/><stop offset="0.59" stop-color="#b68f3a"/><stop offset="0.77" stop-color="#cba147"/><stop offset="1" stop-color="#ffe084"/></linearGradient></defs><title>dv1</title><rect class="cls-1" width="798.22" height="798.22" rx="89.11" ry="89.11"/><path class="cls-2" d="M205.49,536.13c-23.73-.14-41.23-11.43-51.8-33.71-2.31-5.07-5.64-7.24-11.14-7.38-20.54-.58-34.87-9.55-44.13-27.35a16.58,16.58,0,0,1-1.3-4.05,21,21,0,0,0-3-7.38V370.89a43.22,43.22,0,0,0,2.46-5.35,25.72,25.72,0,0,1,2.32-4.92c5.64-7.67,13.16-11.29,23.73-11.29a29.06,29.06,0,0,1,3.61.15h1.45c6.95,0,10.27-4.05,12.3-7.67,8-13.6,16.2-27.49,24.16-40.8,11.29-19.1,23.15-38.92,34.29-58.46,6.95-12,16.35-17.36,30.53-17.36,82.91.14,166,.14,229.05.14H650.71c13.89.58,24,9.12,26.62,22.58,3.48,17.79,6.95,35.59,10.28,53.39q3.46,18,6.94,36c.15.44.15,1,.29,1.45.73,4.2,1.74,10,8.39,13.17,0,0,.87.43.87,4.48v30.1c0,20.11.15,40.8-.14,61.2-.29,22.14-13.31,39.22-35,45.44a66.1,66.1,0,0,1-17.79,2c-2.32,0-4.64,0-7.09-.14-2,0-4.2-.15-6.37-.15-5.5,0-8.83,2.17-11.29,7.24C615.84,524.56,598.33,536,574.46,536h-.29c-23.88-.15-41.24-11.43-51.8-33.72-1.74-3.61-4.34-7.38-11.29-7.38-41.23,0-82.33.15-123.56.15q-59.47,0-118.94-.15c-5.5,0-9,2.17-11.29,7.24C246.73,524.56,229.22,536,205.2,536Zm.15-103h0a45.88,45.88,0,0,0-45.72,45.58c-.15,24.89,20.25,45.58,45.28,46h.87c24.31,0,45-20.69,45.29-45.29a45.4,45.4,0,0,0-13.17-32.7,46,46,0,0,0-32.55-13.6Zm323.53,42.11c-2.32,25.75,16.35,47,43.41,49.48a25.72,25.72,0,0,0,3.33.15h0c22,0,42.25-18.81,44.27-41.1,2.32-26.77-15.77-47.89-43-50.21a30.11,30.11,0,0,0-3.62-.14C551.16,433.26,531.2,452.07,529.17,475.22Zm-114.31,8.53c2.32,0,5.07-.29,7.24-2.46,2-2.17,2.31-4.92,2.31-7.52-.14-13.6-.14-27.35-.14-40.66,0-13.6,0-27.64-.15-41.53v-.86h.15a12.05,12.05,0,0,0,2.31.14c1.45,0,2.9-.14,4.2-.14a26.86,26.86,0,0,1,3.47-.15,13.41,13.41,0,0,1,2,.15c.29,1,0,4-.15,5.64s-.43,3.47-.43,5.21c.14,22.86.14,47.31,0,71.91,0,2.6.29,5.64,2.46,7.81s5.21,2.46,7.52,2.46h.44c10-.14,20.25-.14,30.53-.14s20.54,0,31,.14h.29c8.1,0,9.41-5.21,9.69-9.69,1.6-24.17,20.55-45.72,45.29-51.22a50.34,50.34,0,0,1,11.43-1.3,57.77,57.77,0,0,1,49.92,29.08c4.92,8.82,7.24,16.64,7.53,24.74.14,7.38,5.78,8.25,8.1,8.25h.58c2.46-.15,4.92-.15,7.38-.15A116.15,116.15,0,0,0,660,483c18.81-1.74,32.27-15.77,32.7-34.15.29-16.2.29-32.55.29-48.47V369a8.18,8.18,0,0,0-2.17-6.07,7.77,7.77,0,0,0-5.79-2H126.35c-16.06,0-20.69,4.63-20.69,20.84v64.82c.14,20.4,13.6,35.16,33.57,36.75h1.44c7.53,0,8-6.37,8.11-8.54,2-29.52,27.49-53.39,56.86-53.39h.29c29.52.15,55.13,24,56.86,53.1.29,3.91,1.45,9,9.41,9h3.47c13.89,0,14.61-4.63,14.61-17.94V446.86c0-18.23,0-37.19-.14-55.71v-.72h.14a10.65,10.65,0,0,0,2.17.14,44.92,44.92,0,0,0,4.63-.29c1.31-.14,2.46-.29,3.48-.29a7.1,7.1,0,0,1,1.59.15h0c.58.72.14,4.34,0,6.07s-.44,3.48-.44,5.21c.15,22.72.15,47,0,71.34,0,2.89.29,5.93,2.46,8.24s5.5,2.61,7.67,2.61H312c16.35-.15,33.42-.15,50.78-.15C379.41,483.46,396.78,483.61,414.86,483.75Zm-135.14-247c-8.39.15-16.93.15-26.19.15-8.1,0-16.49,0-25.61-.15h-.29c-8.25,0-14.18,3.33-18.37,10.57-11.72,20.11-23.88,40.51-35.45,60.33-5.65,9.7-11.43,19.25-17.08,28.94-.14.29-.43.58-.58.87a12.08,12.08,0,0,0-2.6,7.23v4.63H217.5c17.08,0,39.79,0,62.51.15h.15c2.45,0,5.64-.29,7.81-2.61s2.46-5.35,2.46-7.95c-.29-32.7-.29-62.66,0-91.74,0-2.46-.29-5.64-2.46-8-2.17-2.17-5.07-2.46-7.67-2.46Zm268.69,0c-6.8.15-14.32.15-23.58.15H469.27c-9.26,0-16.79,0-23.44-.15h-.44c-2.17,0-5.06.29-7.09,2.46s-2.46,5.07-2.46,7.53c.15,29.08.15,59.61,0,93,0,2.46.29,5.36,2.32,7.38s5.06,2.32,7.23,2.32h0c17.37-.15,34.73-.15,51.8-.15,17.37,0,34.87,0,52.24.15a9.94,9.94,0,0,0,7.09-2.32c2-2,2.31-4.92,2.31-7.38-.14-25.61-.29-59.46,0-93,0-2.32-.29-5.36-2.46-7.67-2.46-2.46-5.79-2.46-7.52-2.46ZM349.17,349.48h41.67c9.7,0,17.08,0,24.17.14h.29c2.17,0,4.92-.29,6.94-2.31,2-2.17,2.32-4.92,2.32-7.24-.15-31.54-.15-62.94,0-93.61,0-2.17-.29-5.07-2.32-7.09s-4.77-2.32-7.38-2.32h0c-17.22,0-34.58.15-51.8.15-17.5,0-34.87,0-51.65-.15-2.46,0-5.36.29-7.53,2.46s-2.46,5.07-2.46,7.53c.15,31.11.15,62.36,0,93,0,2.32.29,5.21,2.46,7.38s5.07,2.46,7.38,2.46h.44c6.8-.14,14.32-.14,23.58-.14C339.91,349.48,344.54,349.48,349.17,349.48Zm265.37,0H653c8.68,0,15.62,0,21.84.14h.44c1.73,0,5.06,0,7.09-2.6,1.88-2.32,1.59-5.35,1.16-7.81-3.91-19.25-7.67-38.78-11.43-57.59-2-10.13-3.91-20.4-5.94-30.53-1.88-9.7-7.09-13.89-16.93-14H611.07c-9.55,0-20.84,0-31.84-.14h-.14c-1.88,0-4.78.29-6.8,2.31S570,244,570,246.31c.15,25.61.15,59.33,0,93.62,0,2.17.29,5.21,2.46,7.38,2.32,2.31,5.65,2.31,7.38,2.31h.44c6.22-.14,13-.14,21.56-.14Z"/></svg>