<svg id="Layer_1" data-name="Layer 1" xmlns="http://www.w3.org/2000/svg" viewBox="0 0 798.22 798.22"><defs><style>.cls-1,.cls-3{fill:#025750;}.cls-1{opacity:0.08;}.cls-2{fill:none;}</style></defs><title>dvbs2</title><rect class="cls-1" x="14.11" y="14.11" width="770" height="770" rx="85.96" ry="85.96"/><rect class="cls-2" x="14.11" y="14.11" width="770" height="770" rx="85.96" ry="85.96"/><path class="cls-3" d="M82.62,374.31c15.76-20.58,34.7-31.48,58.68-32.09,23.26-.59,46.55-.17,69.83-.17q237,0,473.89.14c14.18,0,25.79,8.17,37.31,15.52,2.27,1.45,3.52,4.14,4.57,6.75,3.35,8.35,2.39,9.83-6.63,9.85-18.5,0-23,4.56-23,23,0,4.51-.13,9,0,13.52.43,11.39,6,16.9,17.22,17.41,4.44.2,11-2.06,12.86,1,3,4.89,1.59,11.72.35,17.54-2.76,13-14.48,22.38-28.14,22.84-8.25.28-16.54-.29-24.77.22-5.28.33-7.17-1.25-8.17-6.56-5.86-31.12-32.52-53.53-64.49-54.77-30.17-1.16-58.27,19.39-67,49-3.22,11-3.22,11-15,11q-123.54,0-247.08.16c-5.93,0-7.87-1.61-9.11-7.34-6.71-31.09-35.34-53.44-66.87-52.8a67.67,67.67,0,0,0-65.35,54.7c-1,5.21-2.77,7-8.14,6.61-7.72-.54-15.51,0-23.27-.15-20.43-.3-34.75-18.66-30.43-38.6.87-4,3.58-2.78,5.75-2.79,12.83,0,23.3-4.87,31.26-15a36.87,36.87,0,0,0,5.91-11.19c5.62-16.8-1-29.18-19.76-27.8C90.13,374.49,87.19,374.31,82.62,374.31Zm277.67-8.15v0c-3,0-6-.22-9,.05-4.67.41-7.39,3.31-7.43,7.85a7.14,7.14,0,0,0,6.79,7.64,74.06,74.06,0,0,0,19.45-.1c4.3-.66,6.6-3.75,6.34-8a7.4,7.4,0,0,0-7.14-7.37C366.31,365.93,363.29,366.16,360.29,366.16Zm126.2,0c-3,0-6-.18-9,0a7.44,7.44,0,0,0-7.37,7.16c-.38,4.18,1.79,7.46,6.1,8.17a65.52,65.52,0,0,0,20.16,0c4.3-.63,6.58-3.75,6.29-8s-2.86-6.92-7.17-7.33C492.52,365.93,489.49,366.16,486.49,366.14Z"/><path class="cls-3" d="M653.48,326.1q-69.57,0-139.16.08c-4,0-5.08-1.29-5-5.16q.29-23.22,0-46.46c0-3.53,1-4.67,4.62-4.79,11.36-.36,22,1.08,32.63,6.06,35.54,16.7,71.42,32.69,107.17,48.95C653.64,325.22,653.56,325.66,653.48,326.1Z"/><path class="cls-3" d="M351.13,326.1c-12.24,0-24.47-.13-36.71.08-3.9.07-5.76-.48-5.67-5.12.3-15.47.27-31,0-46.44-.07-4.18,1.46-4.84,5.16-4.82,24.72.14,49.45.19,74.17,0,4.39,0,5.31,1.4,5.25,5.48-.22,15.23-.26,30.47,0,45.69.08,4.45-1.43,5.34-5.53,5.26C375.6,325.94,363.37,326.1,351.13,326.1Z"/><path class="cls-3" d="M451.71,269.87c12.23,0,24.47.18,36.7-.09,4.21-.09,5.49,1.09,5.42,5.37q-.39,22.85,0,45.69c.07,4.37-1.34,5.39-5.51,5.36q-37.06-.29-74.15,0c-4,0-5.07-1.16-5-5.06q.32-23.22,0-46.44c-.06-4.09,1.36-5,5.11-4.89C426.74,270,439.22,269.87,451.71,269.87Z"/><path class="cls-3" d="M197.66,528.5a52,52,0,1,1,52.59-52.19C250.37,505.12,226.7,528.6,197.66,528.5Zm-36.27-51.73a36.72,36.72,0,0,0,36.77,36.53,36.78,36.78,0,1,0-.57-73.55A36.57,36.57,0,0,0,161.39,476.77Z"/><path class="cls-3" d="M600.46,528.5a52.3,52.3,0,0,1-52.39-51.63c-.24-28.78,23.39-52.4,52.38-52.34a52,52,0,0,1,0,104Zm36.48-51.75a36.55,36.55,0,0,0-36.22-37,36.78,36.78,0,1,0,36.22,37Z"/><path class="cls-3" d="M220.79,326.07c15.57-17.11,29.73-33.15,44.47-48.65,6.39-6.71,15.23-8,24.32-7.61,2.75.13,3.28,1.24,3.28,3.64q-.11,24.41,0,48.81c0,2.18-.13,3.86-3.07,3.85C267.37,326.05,245,326.07,220.79,326.07Z"/><path class="cls-3" d="M86,390.16h3.6c10.55,0,11.69,1.91,6.23,11.08a26,26,0,0,1-5.26,6.24c-4.72,4-17.13,6.84-19.65,4.71-1.57-1.33.51-17.07,3.07-20.16C77.47,387.8,82.45,391.39,86,390.16Z"/><path class="cls-3" d="M728.41,401.66a13.81,13.81,0,0,1,0,2.23c-.47,2.82,1.62,7.18-1.26,8.19-3.76,1.31-8.3.52-12.49.37-1.53-.05-1.52-1.66-1.53-2.89,0-5.45,0-10.91-.06-16.37,0-2.19.81-2.77,3-3.09C727.28,388.41,728.41,389.38,728.41,401.66Z"/><path class="cls-3" d="M197.82,455.64a20.83,20.83,0,1,1,.46,41.66,20.83,20.83,0,1,1-.46-41.66Z"/><path class="cls-3" d="M600.54,497.28a20.83,20.83,0,1,1-.53-41.66,20.83,20.83,0,1,1,.53,41.66Z"/></svg>