<svg id="Layer_1" data-name="Layer 1" xmlns="http://www.w3.org/2000/svg" viewBox="0 0 798.22 798.22"><defs><style>.cls-1,.cls-3{fill:#025750;}.cls-1{opacity:0.08;}.cls-2{fill:none;}</style></defs><title>dvbs6</title><rect class="cls-1" x="14.11" y="14.11" width="770" height="770" rx="85.96" ry="85.96"/><rect class="cls-2" x="14.11" y="14.11" width="770" height="770" rx="85.96" ry="85.96"/><path class="cls-3" d="M380.49,426.36c0,12.73,0,25.45,0,38.18-.11,31.06-22.7,53.64-53.75,53.73q-20.72.06-41.44,0c-26.4-.06-46.78-16.14-52.58-41.75-.62-2.72-1.7-3-4-3q-9.76.16-19.55,0a29.77,29.77,0,0,1-29.82-29.91c-.1-9.93-.12-19.86,0-29.79A29.74,29.74,0,0,1,209,384.21c6.36-.1,12.72-.11,19.08,0,2.36.06,3.27-.34,3.71-3.05,1.92-11.94,10.83-19.31,23-19.33q51.21-.06,102.42,0c13.64,0,23.17,9.49,23.25,23.07C380.56,398.74,380.49,412.55,380.49,426.36Zm-149,2.55c0-8.83-.09-17.67,0-26.5,0-2.53-.53-3.47-3.26-3.39-6.34.21-12.7,0-19.06.1a14.81,14.81,0,0,0-14.95,15.1q-.17,14.64,0,29.28c.09,8.65,6.33,15,14.9,15.15,6.36.13,12.72-.1,19.06.1,2.65.08,3.36-.72,3.32-3.34C231.42,446.58,231.52,437.75,231.52,428.91Z"/><path class="cls-3" d="M399.58,533.17q99.63,0,199.26,0c13.78,0,23.84,9.62,23.73,22.57a22.42,22.42,0,0,1-21,22.07c-1.08.06-2.17,0-3.25,0H199.86c-13.41,0-23.39-8.59-24.16-20.72A22.28,22.28,0,0,1,198,533.21c20.79-.13,41.58,0,62.38,0Z"/><path class="cls-3" d="M371.46,517.45A67.75,67.75,0,0,0,395.4,466c0-10.7.06-21.41-.06-32.11,0-2.43.55-3.85,2.88-5.05,12.48-6.39,25.71-8.17,40.25-7.19-11,9.56-18.39,20.72-22.05,34.2a62.68,62.68,0,0,0-2.38,16c0,5.42,2.78,8.89,7.25,9s7.39-3.23,7.65-8.66c1.17-24.31,16.83-43.71,39.87-49.42a62.72,62.72,0,0,1,15.7-1.39c11.61.07,23.22,0,35.87,0-2.75,1.82-4.74,3.07-6.66,4.44q-27.08,19.37-28.86,52.61c-.34,6.13,2.55,9.79,7.28,9.85,4.55.07,7.34-3.32,7.59-9.21a52.19,52.19,0,0,1,48.62-50.25,8.07,8.07,0,0,0,1.85-.15c9.6-3,17.1,1.18,24.21,6.95,16.22,13.15,24.92,30.12,25.75,51,.3,7.75.14,15.51.06,23.27-.06,5.45-2.9,8.32-8.37,8.32q-109.59.06-219.18,0C372.27,518.26,371.69,518.52,371.46,517.45Z"/><path class="cls-3" d="M399.4,592.77q96.33,0,192.66-.1c4.11,0,5.15.76,4.49,5C593.66,616.08,578.34,630,559.61,630q-160.55.13-321.1,0c-18.69,0-34.1-14-36.81-32.44-.54-3.66-.11-4.88,4.11-4.87q88.89.26,177.77.12Z"/><path class="cls-3" d="M292,250.11c22,0,44.07.07,66.11,0a18.59,18.59,0,0,0,3.6-36.84,28.56,28.56,0,0,0-5.56-.35c-14.89,0-29.79,0-44.69,0-21.2,0-35.63-14.72-35.28-35.85.09-5.49,2.86-8.79,7.41-8.82s7.37,3.28,7.49,8.76c.24,11.3,5.08,18.22,14.48,20.46a26,26,0,0,0,6,.53c15.67.05,31.35-.1,47,.07,16.76.19,30.29,12.36,32.82,29.18,2.36,15.68-7.82,31.42-23.44,36.29A39.5,39.5,0,0,1,356,265q-63.77,0-127.55,0c-13.58,0-22.61,12.4-18.27,24.8a18.64,18.64,0,0,0,17.9,12.4c14.27.07,28.55,0,42.82,0,21.05.05,35.56,15,35.07,36.07-.13,5.36-3.13,8.72-7.66,8.59-4.36-.12-7.11-3.35-7.25-8.52-.31-11.66-5.17-18.61-14.71-20.78a26.09,26.09,0,0,0-5.53-.45c-13.35,0-26.71-.44-40,.08-21.85.87-36.63-15.82-36.57-33.74.05-17.66,14.65-34.25,36.8-33.54C251.36,250.62,271.71,250.11,292,250.11Z"/><path class="cls-3" d="M220.34,188c0-3.71-.05-7.43,0-11.14.08-5.41,3-8.71,7.57-8.62,4.37.09,7.25,3.31,7.31,8.43.07,6.81,0,13.62,0,20.44.07,8.93,5.49,14.89,14.27,15.78,5.21.53,8.19,3.41,8,7.74-.16,4.51-3.72,7.33-9,7.15-14.78-.52-27.5-13.2-28.14-28.17-.16-3.86,0-7.74,0-11.61Z"/><path class="cls-3" d="M354.39,334.05c0,2,.16,4,0,6a7.4,7.4,0,0,1-14.77-.15c-.19-2.31,0-4.65-.07-7-.12-13.12-8.6-22.27-21.64-23.21-3.38-.24-6-1.36-7.46-4.55a6.9,6.9,0,0,1,.87-7.43c1.83-2.48,4.44-3,7.41-3C338.91,295.27,354.37,312.21,354.39,334.05Z"/></svg>