<svg id="Layer_1" data-name="Layer 1" xmlns="http://www.w3.org/2000/svg" viewBox="0 0 798.22 798.22"><defs><style>.cls-1,.cls-3{fill:#025750;}.cls-1{opacity:0.08;}.cls-2{fill:none;}</style></defs><title>dvbs5</title><rect class="cls-1" x="14.11" y="14.11" width="770" height="770" rx="85.96" ry="85.96"/><rect class="cls-2" x="14.11" y="14.11" width="770" height="770" rx="85.96" ry="85.96"/><path class="cls-3" d="M403.15,241.82c29.4-1.16,54.57,8.18,74.52,30.21a86.53,86.53,0,0,1,20.22,38.86c.4,1.71,1.05,3.25-.54,5-5.85,6.38-7.42,14.39-8.35,22.67-1.1,9.79-2.4,19.56-3.7,29.32-.87,6.53-.61,12.94,3.11,18.53,1.72,2.56,1,3.86-.65,5.81-10.45,12.25-20.71,24.67-31.21,36.87-5.37,6.24-8.85,13.09-8,21.47.28,2.92-1.53,3.65-3.36,4.65C424.61,466.42,403,467.5,380.66,462a142.83,142.83,0,0,1-22.72-7.92c-2.46-1.06-3.93-2.31-4.16-5.29-.36-4.88-2.84-9-5.86-12.77-12.09-15.15-24.08-30.38-36.25-45.47-1.86-2.31-2-3.69-.08-6.11,4.9-6.16,5.79-13.45,4.61-21-1.67-10.87-3.5-21.72-5.22-32.58a40.78,40.78,0,0,0-10.08-21c-2.11-2.36-1.87-3.82-.12-6.05,11.84-15,26.57-26.78,42.16-37.56,12.16-8.4,24.94-15.77,37.84-23,4.41-2.46,9-1.08,13.5-1.42C397.22,241.64,400.2,241.82,403.15,241.82Z"/><path class="cls-3" d="M400.13,620.23q-83.85,0-167.7.1c-4,0-5.4-.74-5.12-5,.49-7.52-.39-15.09,1.7-22.52,5-17.7,17.43-28.88,32.57-37.74,18.74-11,39.44-16.72,60.11-22.55,16-4.52,25.16-16.65,25.25-33.35,0-7.57,0-15.13,0-22.69,0-.82,0-1.65,0-2.47.24-4.39,1.86-5.43,5.87-3.61a135.51,135.51,0,0,0,45.07,11.51,95.22,95.22,0,0,0,45.31-7c3.24-1.35,3.93-.79,3.87,2.54-.12,6.73-.26,13.49.2,20.21a32.36,32.36,0,0,0,25.12,29.85c21.49,5.27,42,12.9,60.68,24.87,10.59,6.78,20.19,14.69,27.95,24.68,8.63,11.12,13.39,23.5,13,37.82-.1,4.07-.66,5.47-5.23,5.43-32.22-.24-64.44-.13-96.67-.13Z"/><path class="cls-3" d="M299.65,367.65c-.07,6.16-3.4,9.94-8.29,10.48s-9.23-2.76-10.24-8.53c-1.89-10.84-3.53-21.71-5.29-32.57-.58-3.56-1.05-7.15-1.9-10.66a8.16,8.16,0,0,0-9.54-6.47,8.34,8.34,0,0,0-7.05,9.68c2.39,14.91,4.72,29.83,7.56,44.65,2.41,12.57,12.76,20.87,25.55,21a6.46,6.46,0,0,1,5.7,2.81c12.58,16,25.3,31.93,37.93,47.9,4.09,5.16,4.15,10.39.33,14.14s-8.75,3.62-13.8-.23q-41.91-32-83.8-64a19.36,19.36,0,0,1-7.29-11.32Q208.83,299,188.12,213.41c-2-8.23.15-11.53,8.55-13.06,9-1.65,18.11-3.15,27.18-4.63,5.91-1,9.38,1.53,10.46,7.52q4.51,24.94,8.91,49.91a50.31,50.31,0,0,0,9.51,22.42c10.48,13.69,20.65,27.66,31.75,40.83a46.72,46.72,0,0,1,11.2,26.06C296.62,351.26,298.41,360,299.65,367.65Z"/><path class="cls-3" d="M502.72,366.6c.88-7.51,1.93-17.31,3.22-27.08.87-6.66,3.83-12.47,8-17.72,8.88-11.2,17.37-22.73,26.62-33.62,10-11.8,15.53-25.17,17.45-40.45,1.83-14.65,4.43-29.21,6.76-43.8,1.14-7.16,4.56-9.47,11.67-8.35q11.91,1.89,23.87,3.56c9.34,1.31,11.91,4.87,9.78,14.07Q590.86,296.63,571.59,380a32.61,32.61,0,0,1-12.93,19.67Q519.06,429,479.58,458.5a35.43,35.43,0,0,1-5,3.05c-3.11,1.61-5.71.43-7-2.43-2.27-5.11-3.22-10.64.31-15.5,11.12-15.29,23.6-29.5,35.71-44,1.31-1.56,2.69-1.47,4.36-1.32,10.7,1,17.72-4,22.42-13.33,5.32-10.54,5.81-22.12,7.83-33.38,1-5.49,1.92-11,2.63-16.53a40.85,40.85,0,0,0,.23-8.84c-.35-3.75-2.34-6.49-6.35-7.09s-6.64,1.09-8.32,4.65c-3.44,7.29-3.36,15.33-4.83,23-1.51,7.9-2.53,15.89-3.9,23.82-1.31,7.56-4.94,11.51-9.75,10.86C503.68,380.92,501.91,376.8,502.72,366.6Z"/><path class="cls-3" d="M464,186.62A680.25,680.25,0,0,0,382,223.78c-26.24,14-51.8,29-74.57,48.33a110,110,0,0,0-17.76,18.39c-1.41,1.91-2.17,2.42-3.82.18q-6.74-9.1-13.85-17.92c-1.62-2-1.23-4-.84-6,9.29-48.83,53-86.68,102.92-88.2,22.62-.68,45.34-1.64,67.9,1.67A72.38,72.38,0,0,1,464,186.62Z"/><path class="cls-3" d="M418.81,224.24c10.13-4.43,20.2-9,30.41-13.26s20.77-8.06,31-12.36c2.8-1.17,4.71-1,7.1.79C511,217,525.53,240.1,530.89,269.06a5.08,5.08,0,0,1-1,4.52c-5.94,7.64-11.8,15.35-17.83,23.22C494.92,254.71,464.15,230.73,418.81,224.24Z"/></svg>