<svg id="Layer_1" data-name="Layer 1" xmlns="http://www.w3.org/2000/svg" viewBox="0 0 798.22 798.22"><defs><style>.cls-1,.cls-3{fill:#025750;}.cls-1{opacity:0.08;}.cls-2{fill:none;}</style></defs><title>dvbs4</title><rect class="cls-1" x="14.11" y="14.11" width="770" height="770" rx="85.96" ry="85.96"/><rect class="cls-2" x="14.11" y="14.11" width="770" height="770" rx="85.96" ry="85.96"/><path class="cls-3" d="M227.91,648.81l.24-27.82,34.92-.43,1.73.24a21.41,21.41,0,0,0,1.31,6.12c2.56,7.29,6.43,14.13,7.64,21.89Z"/><path class="cls-3" d="M273.75,648.81c-1.21-7.76-5.08-14.6-7.64-21.89a21.41,21.41,0,0,1-1.31-6.12l39.06-.2q5.43,14.11,10.85,28.21Z"/><path class="cls-3" d="M259.26,183.36c10.12,9.84,20.17,19.72,31.8,27.87,22.05,15.46,46.46,23.94,73.29,26.17,23.64,2,46.91-1,70.27-3.76,21.73-2.53,43.43-5.55,65.4-5.11,44.65.88,81.59,18.65,111.94,50.92.66.7,1.42,1.38,1.33,2.49l-.16.19c-8.28-3.11-16.46-6.52-25.3-7.88a111.74,111.74,0,0,0-38.94,1.14c-1.79-1.62-4.15-1.86-6.3-2-17-1.13-33.62.6-49.67,6.46-20.79,7.59-40.18,18-58.57,30.24-21.42,14.22-42.42,29.08-63.82,43.33-23.88,15.91-48.22,31-76.17,39.05-3,.87-6.43.79-9.06,2.95-9.23-1.49-17.63-5.43-26.13-9,0-.65-.11-1.3-.11-1.95q0-98.83,0-197.67C259.07,185.63,259.19,184.5,259.26,183.36Z"/><path class="cls-3" d="M259.26,183.36c-.07,1.14-.19,2.27-.19,3.4q0,98.84,0,197.67c0,.65.07,1.3.11,1.95l-.09,79.1c-1.33,1.32-.8,3-.81,4.55,0,7.36,0,14.72,0,22.08l-29.45-.32q0-161.87,0-323.74c0-2.59-.26-5.19.55-7.74A15.09,15.09,0,0,1,259,164.36C259.22,170.69,259.18,177,259.26,183.36Z"/><path class="cls-3" d="M228.82,491.79l29.45.32c1.15,1.76.84,3.74.84,5.67,0,25.11-.26,50.24.1,75.35.23,15.86-2.57,32,3.86,47.43l-34.92.43c-.09-10.52-5.09-18.2-13.05-24.84-8.2-6.85-15.76-14.49-23.3-22.08A23.73,23.73,0,0,1,185,556.88c0-12.83-.08-25.66,0-38.49s11.14-24.38,23.95-25.78C215.57,491.87,222.19,492.06,228.82,491.79Z"/><path class="cls-3" d="M263.07,620.56c-6.43-15.39-3.63-31.57-3.86-47.43-.36-25.11-.09-50.24-.1-75.35,0-1.93.31-3.91-.84-5.67,0-7.36,0-14.72,0-22.08,0-1.54-.52-3.23.81-4.55,6.13.42,12.3-.57,18.42.89,12.94,3.1,21.6,13.57,21.63,27,.08,33,.21,65.92-.06,98.89-.09,9.85.45,19.38,4.79,28.38l-39.06.2Z"/><path class="cls-3" d="M285.3,395.42c2.63-2.16,6-2.08,9.06-2.95,27.95-8.06,52.29-23.14,76.17-39.05,21.4-14.25,42.4-29.11,63.82-43.33,18.39-12.21,37.78-22.65,58.57-30.24,16.05-5.86,32.7-7.59,49.67-6.46,2.15.14,4.51.38,6.3,2-39.71,10.06-72.43,33.31-105.47,55.93-26.36,18-52.21,36.92-81.18,50.76-20.56,9.83-41.9,16.45-65.08,15.11A55.81,55.81,0,0,1,285.3,395.42Z"/></svg>