<svg id="Layer_1" data-name="Layer 1" xmlns="http://www.w3.org/2000/svg" viewBox="0 0 798.22 798.22"><defs><style>.cls-1,.cls-3{fill:#025750;}.cls-1{opacity:0.08;}.cls-2{fill:none;}</style></defs><title>dvbs3</title><rect class="cls-1" x="14.11" y="14.11" width="770" height="770" rx="85.96" ry="85.96"/><rect class="cls-2" x="14.11" y="14.11" width="770" height="770" rx="85.96" ry="85.96"/><path class="cls-3" d="M89.12,450.09c15.49,0,31,.12,46.48,0,11.13-.06,18.83-7.29,19-17.51s-7.33-17.95-18.44-18c-15.67-.06-31.35-.7-47,.36V390.77c3-7.72,7.76-13.42,16.58-14.49,20.41-2.47,40.8-5,61.23-7.36,4-.45,6.38-1.8,8.21-5.65,10.54-22.14,21.45-44.11,32.12-66.2,8.31-17.18,22-25.72,41-25.73q172.47-.07,344.95,0c23.44,0,38.75,12.39,44.19,35.07q5.57,23.18,11,46.4c3.13,13.28,3.15,12.93,16.62,14.92,23.12,3.41,44.68,21,44.11,49.1-.4,20-.06,39.94-.08,59.91,0,14.35-6.65,21-21.08,21.09-16.54.07-33.08.09-49.62,0-3.35,0-5.28.77-7,4-8.79,16.24-22.81,25-41.15,25.09-18.62.12-32.81-8.64-41.78-25.06-1.76-3.24-3.65-4.06-7-4.06q-148.26.1-296.53,0c-3.46,0-5.25,1-7,4.15-8.85,16.23-22.88,24.92-41.22,25-18.61.06-32.75-8.76-41.73-25.17-1.6-2.93-3.21-4-6.46-4-11.49.17-23-.39-34.49.2-11,.57-19.7-2.37-24.8-12.78ZM601.88,312.26c-.88-3.61-3.41-5.12-7.16-5.1q-27.48.1-55,0c-2.85,0-3.79.78-3.77,3.73.13,17.31.08,34.63,0,51.94,0,2.11-.19,3.92,2.94,3.91,25.14-.09,50.27,0,75.88,0C610.45,348.16,606.21,330.2,601.88,312.26Zm-169-5.15c-3.24-.06-4,1-4,4.08q.23,25.72,0,51.46c0,3.11.75,4.11,4,4.09q31.78-.23,63.56,0c3.16,0,4.13-.89,4.1-4.09q-.22-25.72,0-51.45c0-3.22-1-4.11-4.1-4.07-10.69.17-21.39.07-32.08.07C453.88,307.19,443.39,307.32,432.9,307.11Zm-106.9,0c-3.17-.06-4.56.43-4.51,4.13.21,17.13.16,34.26,0,51.38,0,3,.64,4.12,3.93,4.1q31.74-.24,63.47,0c3.62,0,4.22-1.25,4.19-4.47q-.21-25.38,0-50.78c0-3.31-.73-4.47-4.26-4.39-10.67.23-21.35.08-32,.08C346.55,307.19,336.27,307.3,326,307.13Zm-78.33,59.53c11.3,0,22.6-.14,33.89.08,3.53.07,4.33-1.05,4.3-4.42q-.25-25.41,0-50.83c0-3.43-.86-4.45-4.32-4.38-11.29.22-22.59.12-33.89.06-3.06,0-5.72.75-7.12,3.59-9,18.33-18,36.71-27.4,55.9Zm-40,113.39a11.74,11.74,0,0,0-11.1-11.32c-6.08-.12-11.66,5.47-11.49,11.52a11.3,11.3,0,0,0,22.59-.2Zm382,11.2c6.06.09,11.68-5.55,11.48-11.54-.2-5.84-5.66-11.09-11.47-11A11.81,11.81,0,0,0,578.48,480C578.47,485.79,583.79,491.16,589.65,491.25Z"/></svg>