<svg xmlns="http://www.w3.org/2000/svg" xmlns:xlink="http://www.w3.org/1999/xlink" viewBox="0 0 22.31 22.31"><defs><style>.cls-1,.cls-13,.cls-8{isolation:isolate;}.cls-1{filter:url(#luminosity-noclip-3);}.cls-2{mask:url(#mask);}.cls-3{mix-blend-mode:multiply;}.cls-4{clip-path:url(#clip-path);}.cls-29,.cls-5{fill:none;}.cls-6{clip-path:url(#clip-path-2);}.cls-7{fill:url(#linear-gradient);}.cls-8{filter:url(#luminosity-noclip-4);}.cls-9{mask:url(#mask-2);}.cls-10{clip-path:url(#clip-path-3);}.cls-11{clip-path:url(#clip-path-4);}.cls-12{fill:url(#linear-gradient-2);}.cls-14{clip-path:url(#clip-path-5);}.cls-15{opacity:0.4;}.cls-16{clip-path:url(#clip-path-6);}.cls-17{clip-path:url(#clip-path-7);}.cls-18{opacity:0.7;mix-blend-mode:soft-light;}.cls-19{clip-path:url(#clip-path-9);}.cls-20{mask:url(#mask-3);}.cls-21{clip-path:url(#clip-path-10);}.cls-22{clip-path:url(#clip-path-11);}.cls-23{fill:url(#linear-gradient-3);}.cls-24{mask:url(#mask-4);}.cls-25{clip-path:url(#clip-path-12);}.cls-26{clip-path:url(#clip-path-13);}.cls-27{fill:url(#linear-gradient-4);}.cls-28{fill:#fff;}.cls-29{stroke:#fff;stroke-miterlimit:10;stroke-width:0.5px;}.cls-30{filter:url(#luminosity-noclip-2);}.cls-31{filter:url(#luminosity-noclip);}</style><filter id="luminosity-noclip" x="-94.22" y="-6167.78" width="379.08" height="32766" filterUnits="userSpaceOnUse" color-interpolation-filters="sRGB"><feFlood flood-color="#fff" result="bg"/><feBlend in="SourceGraphic" in2="bg"/></filter><mask id="mask" x="-94.22" y="-6167.78" width="379.08" height="32766" maskUnits="userSpaceOnUse"><g class="cls-31"/></mask><clipPath id="clip-path"><rect class="cls-5" x="-91.39" y="-305.7" width="375.2" height="668.49"/></clipPath><clipPath id="clip-path-2"><path class="cls-5" d="M194.74-288.43q14.23-18,26.82-17.23c10.73.69,20.37,11.74,28.64,32.83,9,22.87,16.67,58.29,22.9,105.28,8.26,62.23,11.77,119.65,10.44,170.7-1.16,44.34-6,85.26-14.44,121.61C254.36,188.43,231,229.83,208,265.08c-24.66,37.79-53,65.07-84.2,81.07-27.14,13.91-55.9,19.14-85.49,15.54-61.65-7.51-112.57-52.36-126.18-91.38-6.39-18.31-4.12-34.26,6.39-44.91C-37,180.27-.83,137.6,29,95c41.12-58.78,69.55-117,84.51-173,10.69-40.06,27.52-97.83,47-145.55q18.06-44.31,34.25-64.79M207,264.4l-1.05-.68c22.88-35.07,46.07-76.24,60.73-139.52C275.05,88,279.89,47.25,281,3.08c1.33-50.91-2.18-108.21-10.42-170.3-6.2-46.79-13.86-82-22.75-104.7C240-292,231.08-302.54,221.4-303.17c-16.44-1.06-36.7,26.77-58.6,80.48-19.4,47.59-36.2,105.25-46.87,145.25-15,56.32-43.59,114.8-84.88,173.82C1.13,139.15-35.08,181.93-79.66,227.15c-9.81,9.95-11.87,25-5.81,42.34C-72.11,307.78-22,351.81,38.66,359.21c29.08,3.54,57.35-1.6,84-15.28,30.82-15.8,58.82-42.79,83.24-80.21Z"/></clipPath><linearGradient id="linear-gradient" x1="274.29" y1="544.78" x2="275.29" y2="544.78" gradientTransform="matrix(-375.2, 0, 0, 375.2, 103196.49, -204371.46)" gradientUnits="userSpaceOnUse"><stop offset="0" stop-color="#fff"/><stop offset="0.03" stop-color="#d4d3d4"/><stop offset="0.15" stop-color="#231f20"/><stop offset="0.39" stop-color="#fff"/><stop offset="0.63" stop-color="#e6e7e8"/><stop offset="0.86" stop-color="#414042"/><stop offset="1" stop-color="#231f20"/><stop offset="1" stop-color="#231f20"/></linearGradient><filter id="luminosity-noclip-2" x="-73.5" y="-6167.78" width="354.58" height="32766" filterUnits="userSpaceOnUse" color-interpolation-filters="sRGB"><feFlood flood-color="#fff" result="bg"/><feBlend in="SourceGraphic" in2="bg"/></filter><mask id="mask-2" x="-73.5" y="-6167.78" width="354.58" height="32766" maskUnits="userSpaceOnUse"><g class="cls-30"/></mask><clipPath id="clip-path-3"><rect class="cls-5" x="-70.61" y="-275.07" width="346.58" height="618.94"/></clipPath><clipPath id="clip-path-4"><path class="cls-5" d="M196.44-259.23c8.73-11,17-16.34,24.64-15.81,20.67,1.43,36.08,43.14,47.1,127.52,12.9,109.47,9.75,202.31-9.36,275.93-15.5,59.76-38.29,97.3-60.6,129C176,290.73,150.74,314.85,123.09,329c-24.15,12.39-49.65,17.06-75.78,13.88-18-2.2-45.24-9.35-72.73-30.95-19.53-15.34-34.58-34.88-41.3-53.61-6.78-18.89-4.66-35.45,6-46.61C17.42,127.41,93.81,34.66,123.11-72c10-36.23,25.45-88.19,42.77-130.06Q182-241,196.44-259.23M182.59,274.94q7-8.88,13.69-18.89c22.2-31.51,44.86-68.84,60.27-128.23,19-73.34,22.16-165.88,9.3-275-5.64-43.17-12.62-75.67-20.74-96.6-7.2-18.54-15.33-28.25-24.19-28.87-15-1-32.79,23-52.87,71.57-17.28,41.76-32.75,93.63-42.68,129.79C95.94,35.77,19.34,128.78-59,213.34c-10,10.5-11.92,26.19-5.46,44.21C-57.93,275.87-43.16,295-24,310.11-9,321.84,15.51,336.65,47.6,340.57c25.65,3.12,50.69-1.46,74.42-13.63,21.78-11.17,42.09-28.61,60.57-52"/></clipPath><linearGradient id="linear-gradient-2" x1="274.29" y1="544.78" x2="275.29" y2="544.78" gradientTransform="matrix(-346.58, 0, 0, 346.58, 95338.52, -188774.09)" xlink:href="#linear-gradient"/><clipPath id="clip-path-5"><rect class="cls-5" x="274.29" y="-4592.95" width="1440" height="5137.73"/></clipPath><clipPath id="clip-path-6"><rect class="cls-5" x="-1733.3" y="-1900.84" width="2247.19" height="2872.83"/></clipPath><clipPath id="clip-path-7"><rect class="cls-5" x="-1407.07" y="-282.5" width="1440" height="376.06"/></clipPath><clipPath id="clip-path-9"><rect class="cls-5" x="-1407.07" y="-935.32" width="1440" height="1028.88"/></clipPath><filter id="luminosity-noclip-3" x="-94.22" y="-306.2" width="379.08" height="671.49" filterUnits="userSpaceOnUse" color-interpolation-filters="sRGB"><feFlood flood-color="#fff" result="bg"/><feBlend in="SourceGraphic" in2="bg"/></filter><mask id="mask-3" x="-94.22" y="-306.2" width="379.08" height="671.49" maskUnits="userSpaceOnUse"><g class="cls-1"><g class="cls-2"><g class="cls-3"><g class="cls-4"><g class="cls-6"><rect class="cls-7" x="-94.22" y="-306.2" width="379.08" height="671.49"/></g></g></g></g></g></mask><clipPath id="clip-path-10"><rect class="cls-5" x="-91.39" y="-305.7" width="375.2" height="668.49"/></clipPath><clipPath id="clip-path-11"><path class="cls-5" d="M194.74-288.43q14.23-18,26.82-17.23c10.73.69,20.37,11.74,28.64,32.83,9,22.87,16.67,58.29,22.9,105.28,8.26,62.23,11.77,119.65,10.44,170.7-1.16,44.34-6,85.26-14.44,121.61C254.36,188.43,231,229.83,208,265.08c-24.66,37.79-53,65.07-84.2,81.07-27.14,13.92-55.9,19.14-85.49,15.54-61.65-7.51-112.57-52.36-126.18-91.38-6.39-18.31-4.12-34.26,6.39-44.91C-37,180.27-.83,137.6,29,95c41.12-58.78,69.55-117,84.51-173,10.69-40.06,27.52-97.83,47-145.55q18.06-44.31,34.25-64.79M207,264.4l-1.05-.68c22.88-35.07,46.07-76.24,60.73-139.52C275.05,88,279.89,47.25,281,3.08c1.33-50.91-2.18-108.21-10.42-170.3-6.2-46.79-13.86-82-22.75-104.7C240-292,231.08-302.54,221.4-303.17c-16.44-1.06-36.7,26.77-58.6,80.48-19.4,47.59-36.2,105.25-46.87,145.25-15,56.32-43.59,114.8-84.88,173.82C1.13,139.15-35.08,181.93-79.66,227.15c-9.81,9.95-11.87,25-5.81,42.34C-72.11,307.78-22,351.82,38.66,359.21c29.08,3.54,57.35-1.6,84-15.28,30.82-15.8,58.82-42.78,83.24-80.21Z"/></clipPath><linearGradient id="linear-gradient-3" x1="274.29" y1="544.78" x2="275.29" y2="544.78" gradientTransform="matrix(0, -668.49, -668.49, 0, 364275.37, 183722.14)" gradientUnits="userSpaceOnUse"><stop offset="0" stop-color="#f0c89f"/><stop offset="0.15" stop-color="#f0dbb8"/><stop offset="0.39" stop-color="#d2a680"/><stop offset="0.63" stop-color="#a27b5d"/><stop offset="0.86" stop-color="#d2a680"/><stop offset="1" stop-color="#d2a680"/><stop offset="1" stop-color="#d2a680"/></linearGradient><filter id="luminosity-noclip-4" x="-73.5" y="-275.57" width="354.58" height="621.65" filterUnits="userSpaceOnUse" color-interpolation-filters="sRGB"><feFlood flood-color="#fff" result="bg"/><feBlend in="SourceGraphic" in2="bg"/></filter><mask id="mask-4" x="-73.5" y="-275.57" width="354.58" height="621.65" maskUnits="userSpaceOnUse"><g class="cls-8"><g class="cls-9"><g class="cls-3"><g class="cls-10"><g class="cls-11"><rect class="cls-12" x="-73.5" y="-275.57" width="354.58" height="621.65"/></g></g></g></g></g></mask><clipPath id="clip-path-12"><rect class="cls-5" x="-70.61" y="-275.07" width="346.58" height="618.94"/></clipPath><clipPath id="clip-path-13"><path class="cls-5" d="M196.44-259.23c8.73-11,17-16.34,24.64-15.81,20.67,1.43,36.08,43.14,47.1,127.52,12.9,109.47,9.75,202.31-9.36,275.93-15.5,59.76-38.29,97.3-60.6,129C176,290.73,150.74,314.85,123.09,329c-24.15,12.39-49.65,17.06-75.78,13.88-18-2.2-45.24-9.35-72.73-30.95-19.53-15.34-34.58-34.88-41.3-53.61-6.78-18.9-4.66-35.45,6-46.61C17.42,127.41,93.81,34.66,123.11-72c10-36.23,25.45-88.19,42.77-130.06Q182-241,196.44-259.23M182.59,274.94q7-8.88,13.69-18.89c22.2-31.51,44.86-68.84,60.27-128.23,19-73.34,22.16-165.88,9.3-275-5.64-43.17-12.62-75.67-20.74-96.6-7.2-18.54-15.33-28.25-24.19-28.87-15-1-32.79,23-52.87,71.57-17.28,41.76-32.75,93.63-42.68,129.79C95.94,35.77,19.34,128.78-59,213.34c-10,10.5-11.92,26.19-5.46,44.21C-57.93,275.87-43.16,295-24,310.11-9,321.84,15.51,336.65,47.6,340.57c25.65,3.12,50.69-1.46,74.42-13.63,21.78-11.17,42.09-28.62,60.57-52"/></clipPath><linearGradient id="linear-gradient-4" x1="274.29" y1="544.78" x2="275.29" y2="544.78" gradientTransform="matrix(0, -618.94, -618.94, 0, 337288.39, 170112.37)" xlink:href="#linear-gradient-3"/></defs><g class="cls-13"><g id="Layer_1" data-name="Layer 1"><g class="cls-14"><g class="cls-15"><g class="cls-16"><g class="cls-17"><g class="cls-18"><g class="cls-16"><g class="cls-19"><g class="cls-20"><g class="cls-21"><g class="cls-22"><rect class="cls-23" x="-94.22" y="-306.2" width="379.08" height="671.49"/></g></g></g><g class="cls-24"><g class="cls-25"><g class="cls-26"><rect class="cls-27" x="-73.5" y="-275.57" width="354.58" height="621.65"/></g></g></g></g></g></g></g></g></g></g><path class="cls-28" d="M13.79,11.86l.31-2h-2V8.49a1,1,0,0,1,1.15-1.11h.9V5.63A11.58,11.58,0,0,0,12.6,5.5,2.5,2.5,0,0,0,9.92,8.25V9.82H8.12v2h1.8v5h2.22v-5Z"/><circle class="cls-29" cx="11.16" cy="11.16" r="10.91" transform="translate(-3.42 5.12) rotate(-22.5)"/></g></g></svg>