<?xml version="1.0" encoding="utf-8"?>
<!-- Generator: Adobe Illustrator 22.0.0, SVG Export Plug-In . SVG Version: 6.00 Build 0)  -->
<svg version="1.1" id="Layer_1" xmlns="http://www.w3.org/2000/svg" xmlns:xlink="http://www.w3.org/1999/xlink" x="0px" y="0px"
	 viewBox="0 0 484.1 484.1" style="enable-background:new 0 0 484.1 484.1;" xml:space="preserve">
<style type="text/css">
	.st0{fill:url(#SVGID_1_);}
	.st1{fill:url(#SVGID_2_);}
</style>
<title>gym</title>
<linearGradient id="SVGID_1_" gradientUnits="userSpaceOnUse" x1="242.0511" y1="5" x2="242.0511" y2="480.0674">
	<stop  offset="0" style="stop-color:#C9A34A"/>
	<stop  offset="0" style="stop-color:#A47715"/>
	<stop  offset="0.2279" style="stop-color:#C7992B"/>
	<stop  offset="0.414" style="stop-color:#DAB461"/>
	<stop  offset="0.586" style="stop-color:#B68F3A"/>
	<stop  offset="0.7721" style="stop-color:#CBA147"/>
	<stop  offset="1" style="stop-color:#FFE084"/>
</linearGradient>
<path class="st0" d="M12.7,421.8c-6.6,0-8.4-1.8-9.4-4.8c-0.8-2.5-0.9-4.7,5-9.1l2-1.5L9,404.2c-5.6-9.7-7.4-19.1-5.4-28.7
	c2.3-10.9,8.1-19.3,17.9-25.7c2-1.3,4.6-3.9,5.3-6.9c5.7-24.2,11.3-48.9,16.6-72.8l2.6-11.4c0.2-0.8,0.3-1.6,0.3-2.4
	c0-0.4,0.1-0.8,0.1-1.3l0.3-2.5l-8.3-1.9c-15.2-3.6-24-16.4-20.9-30.6c2.6-11.9,12.9-19.9,25.5-19.9c2.2,0,4.5,0.3,6.7,0.7
	c35.7,8,74.2,16.6,113.3,25.5c1.1,0.3,2.3,0.4,3.5,0.4c2.8,0,5.5-0.9,7.9-2.4C258.9,172.4,345,119.7,430.1,67.6
	c5.7-3.5,11.3-5.3,16.6-5.3c4.1,0,8.1,1,11.6,2.9c7.1,3.5,11.9,10.3,12.8,18.1c0.9,8.1-2.4,15.9-9,21.5c-2.5,2-5.1,3.8-7.8,5.5
	c-29.2,18.5-58.4,36.9-87.7,55.2l-29.8,18.7c-0.9,0.6-1.8,1.1-2.8,1.8l-3.4,2.2l2.9,11c1.8,6.8,3.6,13.6,5.4,20.4
	c1.3,5,2.7,10.1,4,15.1c1.5,5.8,3.1,11.5,4.6,17.3c1.7,6.3,1,8-4.6,11.4c-2.3,1.4-4.7,2.9-7,4.3c-5.7,3.6-11.6,7.2-17.6,10.3
	c-7.5,3.9-11.1,9.4-11.4,17.5l-0.1,2.4l26.4,6.1l0.8-2.5c0.4-1.4,0.8-2.9,1.3-4.3c0.9-3.1,1.8-6,2.7-8.9c1.3-4,3.7-6.3,6.6-6.3
	c0.6,0,1.2,0.1,1.8,0.3c5.7,1.6,4.9,7.4,4.3,9.9c-0.7,2.6-1.5,5.3-2.3,8l-1.2,4l-0.8,2.9l27.5,6.2l0.7-2.6c0.4-1.5,0.8-2.9,1.2-4.3
	c0.9-3,1.7-5.9,2.6-8.7c1.3-4,3.7-6.2,6.6-6.2c0.6,0,1.3,0.1,1.9,0.3c5.5,1.6,5,6.9,4.2,9.9c-0.6,2.3-1.3,4.6-1.9,6.9l-1.1,4
	c-0.2,0.6-0.1,1.3,0.1,1.9c0,0.1,0.1,0.3,0.1,0.5l0.4,1.7l10,2.3c6.2,1.4,12.5,2.9,18.9,4.4l11.5,2.6c5.8,1.3,11.7,2.7,17.5,4
	c6.2,1.5,7.4,3.3,6.8,10.3c-0.2,2.3,1.3,5.7,3.6,6.7c13.1,5.8,20.9,15.4,23.8,29.3c0.1,0.6,0.4,1.2,0.7,1.8v10.2l-7.3,20.4l1.9,1.2
	c0.2,0.1,0.3,0.2,0.5,0.3c0.4,0.2,0.8,0.4,1.1,0.7c2.4,2.5,2.3,6.6-0.3,9c-0.9,0.8-2,1.4-3.1,1.6c-1.5,0.3-3,0.4-4.6,0.4h-0.8
	c-42.3,0-84.5,0-126.7,0H282c-10.4,0-10.5-4.7-10.6-6.5c-0.1-1.5,0.4-3,1.4-4.2c1.6-1.7,4.8-2.6,9.2-2.6h130.8l-2.6-4.3
	c-5.3-8.6-7.3-18.8-5.5-28.8l0.4-2.6L88.8,300.6l-8.2,35.9c-1.7,7.5-3.4,15.1-5.1,22.8c-0.5,1.8-0.4,3.8,0.1,5.6
	c6.3,18.3,6.2,21.3-1.6,39.8l-1.6,3.9H200c2.1,0,8.9,0.6,8.9,6.7c0,5.9-6.3,6.6-9,6.6L12.7,421.8L12.7,421.8z M41.4,357.5
	c-13.6,0-25.2,11.6-25.3,25.3c0,14,11.2,25.4,25.1,25.7h0.3c13.9-0.1,25.2-11.3,25.4-25.2c0-14-11.2-25.4-25.2-25.7H41.4z
	 M442.6,357.5c-13.6,0-25.2,11.6-25.4,25.3c0,14,11.2,25.4,25.2,25.6h0.2c14-0.1,25.3-11.3,25.4-25.3c-0.1-14-11.2-25.4-25.2-25.7
	H442.6z M91.8,287.4l2.6,0.7l1.6,0.5c1,0.3,1.8,0.5,2.7,0.7c71.5,16.3,142.9,32.7,214.4,49c36.3,8.3,65.7,15,92.5,21
	c1,0.2,2,0.3,3,0.4l0,0c1.4,0.1,2.8-0.3,4-1.1c4.6-3.4,9.1-6.9,13.5-10.4l4.5-3.5l4.7-3.7L97.1,263.8L91.8,287.4z M40.6,342.8
	l23.5,6.9l19.7-88.8l-23.4-5.3L40.6,342.8z M263.5,263.1c0.6,0,1.3,0.1,1.9,0.3c5.3,1.6,5,6.3,4.3,9c-0.7,3-1.6,5.9-2.4,9
	c-0.4,1.4-0.8,2.9-1.2,4.3l-0.8,2.9l27.4,6.2l0.8-2.5c0.3-1.1,0.7-2.2,1-3.3c0.8-2.3,1.4-4.6,1.9-6.9c1-5,3.7-8.5,8.8-11.3
	c6.4-3.5,12.5-7.3,19-11.3c2.7-1.7,5.4-3.3,8.2-5l1.8-1.1l-15.3-57.6l-123,77l56.3,12.8l0.8-2.5c0.5-1.7,0.9-3.2,1.4-4.8
	c0.9-3.3,1.8-6.3,2.8-9.3C258.2,265.2,260.6,263.1,263.5,263.1L263.5,263.1z M42.3,213.4c-5.5-0.1-10.4,3.6-11.7,9
	c-1.6,6,1.9,12.3,8.1,14.6c1.4,0.5,2.8,0.8,4.3,1.1l1.1,0.2c30.2,6.8,60.4,13.6,90.6,20.4c7.4,1.7,14.9,3.3,22.7,5.1l15.6,3.5
	l-1.3-4.6c-0.6-2-1.1-3.8-1.7-5.6c-1.2-4-2.3-7.8-3.3-11.6c-1.1-4.5-4.1-5.8-6.9-6.3c-8.9-1.9-17.9-3.9-26.6-5.9l-12.9-2.9l-4.1-0.9
	c-23.2-5.2-47.3-10.5-70.9-15.7C44.3,213.5,43.3,213.4,42.3,213.4z M447.7,75.7c-0.7,0-1.5,0.1-2.2,0.2c-3.7,0.8-7.2,2.2-10.4,4.1
	c-74.6,45.7-150.4,92.2-223.7,137.1l-27.1,16.6c-0.9,0.6-1.8,1.1-2.8,1.8l-3.2,2.1l7.4,25.5l3.1-1.8c0.5-0.3,1-0.6,1.4-0.8
	c0.8-0.5,1.5-0.8,2.1-1.2C278,205.4,363.8,151.6,449.5,97.7c1.7-1.1,3.4-2.4,4.9-3.7c3.7-3.5,4.7-7.7,2.7-11.8
	S451.6,75.7,447.7,75.7z"/>
<linearGradient id="SVGID_2_" gradientUnits="userSpaceOnUse" x1="240.1074" y1="5" x2="240.1074" y2="480.0674">
	<stop  offset="0" style="stop-color:#C9A34A"/>
	<stop  offset="0" style="stop-color:#A47715"/>
	<stop  offset="0.2279" style="stop-color:#C7992B"/>
	<stop  offset="0.414" style="stop-color:#DAB461"/>
	<stop  offset="0.586" style="stop-color:#B68F3A"/>
	<stop  offset="0.7721" style="stop-color:#CBA147"/>
	<stop  offset="1" style="stop-color:#FFE084"/>
</linearGradient>
<path class="st1" d="M240.1,421.7c-3.6,0-6.6-2.9-6.6-6.5c0-3.6,2.9-6.6,6.5-6.6l0,0h0.1c3.5,0.2,6.3,2.9,6.5,6.4
	c0,1.7-0.7,3.3-1.9,4.5c-1.2,1.3-2.8,2-4.5,2.1H240.1z"/>
</svg>
