<svg id="Layer_1" data-name="Layer 1" xmlns="http://www.w3.org/2000/svg" viewBox="0 0 484.09 484.09"><defs><style>.cls-1{fill:#f09c1b;}</style></defs><title>gym</title><path class="cls-1" d="M12.66,421.77c-6.59,0-8.44-1.76-9.41-4.79-.81-2.54-.93-4.67,5-9.07l2-1.5L9,404.22c-5.62-9.74-7.37-19.13-5.37-28.72,2.29-10.93,8.15-19.34,17.92-25.72,2-1.3,4.59-3.88,5.28-6.86,5.67-24.24,11.25-48.93,16.65-72.8l2.58-11.43a15.67,15.67,0,0,0,.3-2.37c0-.38.06-.8.11-1.27l.26-2.49-8.28-1.93c-15.24-3.56-24-16.44-20.89-30.63,2.63-11.92,12.88-19.93,25.52-19.93a30.87,30.87,0,0,1,6.65.74c35.75,8,74.21,16.56,113.26,25.5a15.67,15.67,0,0,0,3.5.42,14.38,14.38,0,0,0,7.85-2.45C258.93,172.38,345,119.66,430.06,67.57c5.7-3.49,11.29-5.26,16.59-5.26a25.3,25.3,0,0,1,11.64,2.93,23.18,23.18,0,0,1,12.8,18.13c.91,8.09-2.36,15.92-9,21.48a69.77,69.77,0,0,1-7.8,5.47Q410.47,138,366.59,165.56L336.81,184.3c-.89.56-1.77,1.14-2.78,1.8l-3.36,2.19,2.89,11q2.65,10.17,5.36,20.4,2,7.54,4,15.08,2.31,8.66,4.6,17.3c1.66,6.29,1,8-4.63,11.39-2.34,1.42-4.67,2.87-7,4.32-5.69,3.56-11.58,7.24-17.58,10.33-7.5,3.87-11.14,9.44-11.44,17.51L306.8,298l26.38,6.07.75-2.55c.43-1.44.84-2.86,1.25-4.26.9-3.09,1.75-6,2.68-8.94,1.28-4,3.69-6.33,6.6-6.33a7,7,0,0,1,1.83.26c5.74,1.63,4.89,7.44,4.25,9.86-.69,2.64-1.47,5.27-2.29,8.05l-1.17,4-.83,2.89,27.55,6.19.74-2.56c.43-1.48.84-2.92,1.24-4.32.85-3,1.67-5.88,2.56-8.69,1.26-4,3.67-6.24,6.6-6.24a6.8,6.8,0,0,1,1.9.29c5.5,1.61,5,6.87,4.16,9.87-.62,2.29-1.27,4.57-1.93,6.85l-1.14,4a3.38,3.38,0,0,0,.06,1.9c0,.12.08.29.14.55l.4,1.72,10,2.32c6.23,1.44,12.55,2.91,18.88,4.36l11.48,2.62q8.75,2,17.49,4c6.23,1.45,7.44,3.28,6.77,10.29-.21,2.31,1.29,5.66,3.62,6.7,13.14,5.83,20.92,15.4,23.81,29.26a6.84,6.84,0,0,0,.69,1.8v10.2L474,408.61l1.89,1.22a4.62,4.62,0,0,0,.52.28,4,4,0,0,1,1.13.71,6.34,6.34,0,0,1-3.4,10.58,20,20,0,0,1-4.58.36h-.81q-63.39,0-126.7,0H282c-10.38,0-10.51-4.71-10.56-6.48a5.43,5.43,0,0,1,1.41-4.16c1.65-1.7,4.83-2.6,9.19-2.6H412.79l-2.56-4.29a41.19,41.19,0,0,1-5.51-28.79l.43-2.63L88.79,300.63l-8.16,35.9c-1.69,7.45-3.44,15.15-5.1,22.75a10.37,10.37,0,0,0,.09,5.57c6.26,18.34,6.15,21.31-1.56,39.75l-1.64,3.93H200c2.1,0,8.95.57,8.89,6.66,0,5.93-6.3,6.57-9,6.57H12.66Zm28.75-64.24c-13.61,0-25.21,11.57-25.34,25.26A25.78,25.78,0,0,0,41.2,408.5h.25a25.61,25.61,0,0,0,25.38-25.23,25.73,25.73,0,0,0-25.16-25.74Zm401.18,0c-13.62,0-25.24,11.59-25.38,25.32a25.68,25.68,0,0,0,25.23,25.64h.18A25.48,25.48,0,0,0,468,383.19a25.77,25.77,0,0,0-25.2-25.66ZM91.81,287.37l2.57.73,1.57.46c1,.29,1.8.54,2.68.74q107.2,24.51,214.4,49c36.31,8.29,65.71,15,92.51,21a14,14,0,0,0,3,.35h0a6.72,6.72,0,0,0,4-1.11c4.62-3.36,9.15-6.93,13.54-10.39l4.5-3.53,4.7-3.68L97.06,263.78ZM40.57,342.76l23.48,6.89,19.7-88.82-23.43-5.31Zm222.9-79.68a6.43,6.43,0,0,1,1.9.3c5.29,1.59,5,6.31,4.32,9-.73,3-1.56,5.88-2.44,9-.41,1.42-.82,2.86-1.23,4.34l-.79,2.86,27.39,6.21.76-2.53c.34-1.14.7-2.23,1-3.28a55.93,55.93,0,0,0,1.94-6.92c1-5,3.67-8.52,8.75-11.34,6.4-3.55,12.52-7.31,19-11.29q4-2.5,8.22-5l1.82-1.1-15.34-57.62-123,77.05,56.34,12.83.75-2.55q.73-2.48,1.39-4.78c.94-3.26,1.82-6.34,2.8-9.34C258.23,265.24,260.63,263.08,263.47,263.08ZM42.25,213.37a11.77,11.77,0,0,0-11.67,9c-1.6,6,1.89,12.31,8.12,14.57A31,31,0,0,0,43,238l1.09.24q45.3,10.22,90.59,20.41c7.44,1.67,14.88,3.32,22.68,5.06L173,267.23l-1.34-4.6c-.57-2-1.13-3.83-1.67-5.63-1.2-4-2.33-7.81-3.25-11.55-1.12-4.53-4.13-5.75-6.93-6.34-8.88-1.88-17.89-3.91-26.6-5.88l-12.94-2.91-4.09-.91c-23.24-5.17-47.28-10.52-70.93-15.71A14,14,0,0,0,42.25,213.37ZM447.66,75.68a10.62,10.62,0,0,0-2.22.24A33.93,33.93,0,0,0,435,80c-74.6,45.67-150.41,92.17-223.73,137.14l-27.09,16.62c-.9.56-1.8,1.13-2.75,1.75l-3.22,2.07,7.45,25.52,3.13-1.82c.54-.32,1-.58,1.43-.82.82-.47,1.46-.84,2.09-1.23q128.6-80.73,257.16-161.48A33.28,33.28,0,0,0,454.34,94c3.74-3.47,4.69-7.67,2.68-11.83S451.64,75.68,447.66,75.68Z"/><path class="cls-1" d="M240.14,421.7a6.55,6.55,0,0,1-.11-13.1h.12a6.86,6.86,0,0,1,6.53,6.44,6.51,6.51,0,0,1-1.9,4.54,6.62,6.62,0,0,1-4.53,2.12Z"/></svg>