<svg xmlns="http://www.w3.org/2000/svg" xmlns:xlink="http://www.w3.org/1999/xlink" viewBox="0 0 22.31 22.31"><defs><style>.cls-1,.cls-13,.cls-8{isolation:isolate;}.cls-1{filter:url(#luminosity-noclip-3);}.cls-2{mask:url(#mask);}.cls-3{mix-blend-mode:multiply;}.cls-4{clip-path:url(#clip-path);}.cls-29,.cls-5{fill:none;}.cls-6{clip-path:url(#clip-path-2);}.cls-7{fill:url(#linear-gradient);}.cls-8{filter:url(#luminosity-noclip-4);}.cls-9{mask:url(#mask-2);}.cls-10{clip-path:url(#clip-path-3);}.cls-11{clip-path:url(#clip-path-4);}.cls-12{fill:url(#linear-gradient-2);}.cls-14{clip-path:url(#clip-path-5);}.cls-15{opacity:0.4;}.cls-16{clip-path:url(#clip-path-6);}.cls-17{clip-path:url(#clip-path-7);}.cls-18{opacity:0.7;mix-blend-mode:soft-light;}.cls-19{clip-path:url(#clip-path-9);}.cls-20{mask:url(#mask-3);}.cls-21{clip-path:url(#clip-path-10);}.cls-22{clip-path:url(#clip-path-11);}.cls-23{fill:url(#linear-gradient-3);}.cls-24{mask:url(#mask-4);}.cls-25{clip-path:url(#clip-path-12);}.cls-26{clip-path:url(#clip-path-13);}.cls-27{fill:url(#linear-gradient-4);}.cls-28{fill:#fff;}.cls-29{stroke:#fff;stroke-miterlimit:10;stroke-width:0.5px;}.cls-30{filter:url(#luminosity-noclip-2);}.cls-31{filter:url(#luminosity-noclip);}</style><filter id="luminosity-noclip" x="-237.1" y="-6205.95" width="379.08" height="32766" filterUnits="userSpaceOnUse" color-interpolation-filters="sRGB"><feFlood flood-color="#fff" result="bg"/><feBlend in="SourceGraphic" in2="bg"/></filter><mask id="mask" x="-237.1" y="-6205.95" width="379.08" height="32766" maskUnits="userSpaceOnUse"><g class="cls-31"/></mask><clipPath id="clip-path"><rect class="cls-5" x="-234.27" y="-267.53" width="375.2" height="668.49"/></clipPath><clipPath id="clip-path-2"><path class="cls-5" d="M51.86-250.27c9.49-12,18.44-17.77,26.81-17.23,10.74.7,20.37,11.74,28.64,32.83,9,22.87,16.67,58.29,22.91,105.29C138.47-67.16,142-9.73,140.65,41.31c-1.15,44.34-6,85.26-14.43,121.62C111.47,226.59,88.15,268,65.15,303.25,40.49,341,12.16,368.32-19,384.32c-27.13,13.91-55.9,19.14-85.48,15.53-61.65-7.51-112.57-52.36-126.19-91.38-6.38-18.3-4.11-34.25,6.39-44.91,44.48-45.12,80.61-87.79,110.45-130.45,41.12-58.77,69.55-117,84.51-173C-18.68-80-1.85-137.76,17.6-185.47q18.06-44.31,34.26-64.8M64.1,302.57l-1-.69c22.88-35.06,46.07-76.23,60.72-139.51,8.39-36.2,13.22-76.95,14.37-121.12C139.48-9.66,136-67,127.74-129c-6.21-46.8-13.87-82-22.76-104.7C97.1-253.87,88.19-264.38,78.51-265c-16.44-1.06-36.7,26.76-58.59,80.47C.51-136.93-16.28-79.27-27-39.28-42,17-70.55,75.53-111.83,134.55c-29.92,42.77-66.14,85.54-110.72,130.76-9.8,9.95-11.86,25-5.81,42.34C-215,346-164.91,390-104.23,397.37c29.08,3.54,57.36-1.6,84-15.28,30.82-15.8,58.83-42.78,83.25-80.21Z"/></clipPath><linearGradient id="linear-gradient" x1="131.4" y1="582.95" x2="132.4" y2="582.95" gradientTransform="matrix(-375.2, 0, 0, 375.2, 49443.26, -218652.72)" gradientUnits="userSpaceOnUse"><stop offset="0" stop-color="#fff"/><stop offset="0.03" stop-color="#d4d3d4"/><stop offset="0.15" stop-color="#231f20"/><stop offset="0.39" stop-color="#fff"/><stop offset="0.63" stop-color="#e6e7e8"/><stop offset="0.86" stop-color="#414042"/><stop offset="1" stop-color="#231f20"/><stop offset="1" stop-color="#231f20"/></linearGradient><filter id="luminosity-noclip-2" x="-216.38" y="-6205.95" width="354.58" height="32766" filterUnits="userSpaceOnUse" color-interpolation-filters="sRGB"><feFlood flood-color="#fff" result="bg"/><feBlend in="SourceGraphic" in2="bg"/></filter><mask id="mask-2" x="-216.38" y="-6205.95" width="354.58" height="32766" maskUnits="userSpaceOnUse"><g class="cls-30"/></mask><clipPath id="clip-path-3"><rect class="cls-5" x="-213.5" y="-236.91" width="346.58" height="618.94"/></clipPath><clipPath id="clip-path-4"><path class="cls-5" d="M53.55-221.06q13.11-16.58,24.65-15.81c20.67,1.43,36.07,43.14,47.1,127.51C138.19.12,135,93,115.94,166.58c-15.51,59.75-38.3,97.29-60.61,129C33.13,328.9,7.86,353-19.79,367.19c-24.16,12.39-49.66,17.06-75.78,13.87-18-2.19-45.24-9.34-72.73-30.94-19.53-15.35-34.59-34.89-41.3-53.61-6.78-18.9-4.67-35.45,5.95-46.61C-125.47,165.57-49.07,72.83-19.78-33.8-9.83-70,5.67-122,23-163.86q16.11-38.92,30.55-57.2M39.71,313.11q7-8.88,13.68-18.9C75.6,262.7,98.25,225.38,113.67,166,132.7,92.64,135.83.1,123-109.07c-5.64-43.16-12.62-75.67-20.75-96.6C95-224.21,86.89-233.92,78-234.53c-15-1-32.78,23-52.86,71.57C7.89-121.2-7.58-69.33-17.52-33.18-46.94,73.94-123.54,167-201.94,251.51c-10,10.5-11.92,26.19-5.45,44.2,6.57,18.32,21.35,37.48,40.54,52.56,14.93,11.74,39.48,26.55,71.56,30.46,25.65,3.13,50.69-1.46,74.43-13.63,21.77-11.17,42.08-28.61,60.57-52"/></clipPath><linearGradient id="linear-gradient-2" x1="131.4" y1="582.95" x2="132.4" y2="582.95" gradientTransform="matrix(-346.58, 0, 0, 346.58, 45674.66, -201963.07)" xlink:href="#linear-gradient"/><clipPath id="clip-path-5"><rect class="cls-5" x="131.4" y="-4554.78" width="1440" height="5137.73"/></clipPath><clipPath id="clip-path-6"><rect class="cls-5" x="-1876.19" y="-1862.68" width="2247.19" height="2872.83"/></clipPath><clipPath id="clip-path-7"><rect class="cls-5" x="-1549.96" y="-244.33" width="1440" height="376.06"/></clipPath><clipPath id="clip-path-9"><rect class="cls-5" x="-1549.96" y="-897.15" width="1440" height="1028.88"/></clipPath><filter id="luminosity-noclip-3" x="-237.1" y="-268.04" width="379.08" height="671.49" filterUnits="userSpaceOnUse" color-interpolation-filters="sRGB"><feFlood flood-color="#fff" result="bg"/><feBlend in="SourceGraphic" in2="bg"/></filter><mask id="mask-3" x="-237.1" y="-268.04" width="379.08" height="671.49" maskUnits="userSpaceOnUse"><g class="cls-1"><g class="cls-2"><g class="cls-3"><g class="cls-4"><g class="cls-6"><rect class="cls-7" x="-237.1" y="-268.04" width="379.08" height="671.49"/></g></g></g></g></g></mask><clipPath id="clip-path-10"><rect class="cls-5" x="-234.27" y="-267.53" width="375.2" height="668.49"/></clipPath><clipPath id="clip-path-11"><path class="cls-5" d="M51.86-250.27c9.49-12,18.44-17.77,26.81-17.23,10.74.7,20.37,11.74,28.64,32.83,9,22.87,16.67,58.29,22.91,105.29C138.47-67.16,142-9.73,140.65,41.31c-1.15,44.34-6,85.26-14.43,121.62C111.47,226.59,88.15,268,65.15,303.25,40.49,341,12.16,368.32-19,384.32c-27.13,13.91-55.9,19.14-85.48,15.53-61.65-7.51-112.57-52.36-126.19-91.38-6.38-18.3-4.11-34.25,6.39-44.91,44.48-45.12,80.61-87.79,110.45-130.45,41.12-58.77,69.55-117,84.51-173C-18.68-80-1.85-137.76,17.6-185.47q18.06-44.31,34.26-64.8M64.1,302.57l-1-.69c22.88-35.06,46.07-76.23,60.72-139.51,8.39-36.2,13.22-76.95,14.37-121.12C139.48-9.66,136-67,127.74-129c-6.21-46.8-13.87-82-22.76-104.7C97.1-253.86,88.19-264.38,78.51-265c-16.44-1.06-36.7,26.76-58.59,80.47C.51-136.93-16.28-79.27-27-39.28-42,17-70.55,75.53-111.83,134.55c-29.92,42.77-66.14,85.54-110.72,130.77-9.8,9.94-11.86,25-5.81,42.33C-215,346-164.91,390-104.23,397.37c29.08,3.54,57.36-1.6,84-15.28,30.82-15.8,58.83-42.78,83.25-80.21Z"/></clipPath><linearGradient id="linear-gradient-3" x1="131.4" y1="582.95" x2="132.4" y2="582.95" gradientTransform="matrix(0, -668.49, -668.49, 0, 389645.37, 88242.85)" gradientUnits="userSpaceOnUse"><stop offset="0" stop-color="#f0c89f"/><stop offset="0.15" stop-color="#f0dbb8"/><stop offset="0.39" stop-color="#d2a680"/><stop offset="0.63" stop-color="#a27b5d"/><stop offset="0.86" stop-color="#d2a680"/><stop offset="1" stop-color="#d2a680"/><stop offset="1" stop-color="#d2a680"/></linearGradient><filter id="luminosity-noclip-4" x="-216.38" y="-237.4" width="354.58" height="621.65" filterUnits="userSpaceOnUse" color-interpolation-filters="sRGB"><feFlood flood-color="#fff" result="bg"/><feBlend in="SourceGraphic" in2="bg"/></filter><mask id="mask-4" x="-216.38" y="-237.4" width="354.58" height="621.65" maskUnits="userSpaceOnUse"><g class="cls-8"><g class="cls-9"><g class="cls-3"><g class="cls-10"><g class="cls-11"><rect class="cls-12" x="-216.38" y="-237.4" width="354.58" height="621.65"/></g></g></g></g></g></mask><clipPath id="clip-path-12"><rect class="cls-5" x="-213.5" y="-236.91" width="346.58" height="618.94"/></clipPath><clipPath id="clip-path-13"><path class="cls-5" d="M53.55-221.06q13.11-16.58,24.65-15.81c20.67,1.43,36.07,43.14,47.1,127.51C138.19.12,135,93,115.94,166.58c-15.51,59.75-38.3,97.29-60.61,129C33.13,328.9,7.86,353-19.79,367.19c-24.16,12.39-49.66,17.05-75.78,13.87-18-2.2-45.24-9.35-72.73-30.94-19.53-15.35-34.59-34.89-41.3-53.61-6.78-18.9-4.67-35.45,5.95-46.61C-125.47,165.57-49.07,72.83-19.78-33.8-9.83-70,5.67-122,23-163.86q16.11-38.92,30.55-57.2M39.71,313.11q7-8.88,13.68-18.9C75.6,262.7,98.25,225.38,113.67,166,132.7,92.64,135.83.1,123-109.07c-5.64-43.16-12.62-75.67-20.75-96.6C95-224.21,86.89-233.92,78-234.53c-15-1-32.78,23-52.86,71.57C7.89-121.2-7.58-69.34-17.52-33.18-46.94,73.94-123.54,167-201.94,251.51c-10,10.5-11.92,26.19-5.45,44.2,6.57,18.32,21.35,37.48,40.54,52.56,14.93,11.74,39.48,26.55,71.56,30.46,25.65,3.13,50.69-1.46,74.43-13.63,21.77-11.17,42.08-28.61,60.57-52"/></clipPath><linearGradient id="linear-gradient-4" x1="131.4" y1="582.94" x2="132.4" y2="582.94" gradientTransform="matrix(0, -618.94, -618.94, 0, 360767.34, 81712.96)" xlink:href="#linear-gradient-3"/></defs><g class="cls-13"><g id="Layer_1" data-name="Layer 1"><g class="cls-14"><g class="cls-15"><g class="cls-16"><g class="cls-17"><g class="cls-18"><g class="cls-16"><g class="cls-19"><g class="cls-20"><g class="cls-21"><g class="cls-22"><rect class="cls-23" x="-237.1" y="-268.04" width="379.08" height="671.49"/></g></g></g><g class="cls-24"><g class="cls-25"><g class="cls-26"><rect class="cls-27" x="-216.38" y="-237.4" width="354.58" height="621.65"/></g></g></g></g></g></g></g></g></g></g><path class="cls-28" d="M14.15,7.52a.66.66,0,1,0,.67.66.66.66,0,0,0-.67-.66"/><path class="cls-28" d="M11.2,8.37A2.79,2.79,0,1,0,14,11.16,2.8,2.8,0,0,0,11.2,8.37m0,4.57A1.79,1.79,0,1,1,13,11.16a1.78,1.78,0,0,1-1.79,1.78"/><path class="cls-28" d="M13.42,16.82H8.9a3.4,3.4,0,0,1-3.4-3.4V8.9A3.4,3.4,0,0,1,8.9,5.5h4.52a3.4,3.4,0,0,1,3.4,3.4v4.52a3.41,3.41,0,0,1-3.4,3.4M8.9,6.56A2.34,2.34,0,0,0,6.56,8.9v4.52A2.34,2.34,0,0,0,8.9,15.75h4.52a2.34,2.34,0,0,0,2.33-2.33V8.9a2.34,2.34,0,0,0-2.33-2.34Z"/><circle class="cls-29" cx="11.16" cy="11.16" r="10.91"/></g></g></svg>