<svg id="Layer_1" data-name="Layer 1" xmlns="http://www.w3.org/2000/svg" viewBox="0 0 484.09 484.09"><defs><style>.cls-1{fill:#f09c1b;}</style></defs><title>Karaoke</title><path class="cls-1" d="M185.57,479.29a6.3,6.3,0,0,1-4.47-2c-2.66-2.67-2.54-6.55.28-9.45,3.92-4,8-8.05,11.91-11.94,4.91-4.88,10-9.92,14.87-15a30.44,30.44,0,0,0,7.64-29.34,29.57,29.57,0,0,0-20.87-20.75,32.73,32.73,0,0,0-8.66-1.23c-7.94,0-15.19,3.23-21.54,9.59l-13.27,13.32c-12.78,12.83-26,26.1-39.11,39-9.33,9.17-19.63,13.82-30.61,13.82A46.44,46.44,0,0,1,64.6,461.8,42.62,42.62,0,0,1,49,393.28c7.14-7.83,14.87-15.42,22.35-22.76q4.8-4.71,9.56-9.44c.78-.79,1.69-1.54,2.74-2.42.57-.47,1.19-1,1.85-1.56l2.34-2-7-6.91c-3.45-3.37-6.7-6.55-9.93-9.78-4.9-4.88-5-7.1-.82-12.51l22.5-28.8c49.66-63.54,101-129.24,151.44-193.9a16.43,16.43,0,0,0,3.53-8.09,99.63,99.63,0,0,1,24.64-56.69c.38-.43.7-.86,1.19-1.51l1.11-1.45,1.7-2.19L274,31.51c-.72-.58-1.45-1.13-2.18-1.69a36.71,36.71,0,0,1-4.11-3.42,8.32,8.32,0,0,1-2.79-5.73,6.08,6.08,0,0,1,2.06-4.33,6.11,6.11,0,0,1,4.3-1.93,8.07,8.07,0,0,1,5.48,2.67,48.72,48.72,0,0,1,4.11,4.85c.64.82,1.28,1.64,1.93,2.44l1.69,2.06,2.16-1.56c13.85-10,28.08-16.12,43.49-18.69,1.72-.29,3.42-.64,5.07-1l2-.41h19.1c2.23.5,4.5,1,6.7,1.4A134.07,134.07,0,0,1,377.5,9.7a99.66,99.66,0,0,1,52.1,150.11c-.57.85-1.12,1.71-1.83,2.83l-2.58,4,1.81,1.61c.95.85,1.92,1.69,2.89,2.52,2.13,1.84,4.15,3.58,6,5.48a8.29,8.29,0,0,1,2.7,5.76,6.55,6.55,0,0,1-6.2,6.17,8.37,8.37,0,0,1-5.64-2.66c-1.79-1.71-3.48-3.51-5.27-5.41-.82-.88-1.65-1.76-2.5-2.64l-1.78-1.86-2,1.6c-1.16.92-2.26,1.8-3.32,2.66-2.15,1.73-4.17,3.37-6.23,4.88a99.9,99.9,0,0,1-49.58,18.95,16.23,16.23,0,0,0-8,3.53c-45.39,35.67-91.49,72-136.07,107.13L176.89,342c-16.66,13.13-33.89,26.71-50.87,40-2.51,2-4.45,2.89-6.09,2.89s-3.67-1.1-6.14-3.57C110.37,378,107,374.55,103.51,371l-6.35-6.47-2,1.41-.76.52a9.85,9.85,0,0,0-1.65,1.27L84,376.45c-8,8-16.3,16.2-24.33,24.43a30,30,0,0,0,21,51.16h.91c8.24-.26,15.38-3.53,21.81-10,20.17-20.32,36.59-36.74,51.69-51.7,9-8.91,20.36-13.82,32-13.82a43.22,43.22,0,0,1,42.54,37.6,41.93,41.93,0,0,1-10.2,33.74c-7.27,8.07-15.22,15.83-22.91,23.34l-6,5.85A7.06,7.06,0,0,1,185.57,479.29ZM82.77,330.82,121,369.4l24.9-19.79-43.6-43.72Zm28.75-36.77,46.29,46.34L339.55,197.18,254,111.67ZM282.92,45.94a87.12,87.12,0,0,0-22,46.53c-.58,3.83.5,6.85,3.48,9.82l4.28,4.26c25.61,25.47,52.08,51.81,77.82,78,3.79,3.86,7.46,5.58,11.92,5.58a21.07,21.07,0,0,0,4.65-.56c16.54-3.63,30.37-10.67,42.28-21.52l2.22-2-7.79-7.62c-4-3.93-7.82-7.63-11.6-11.39-9.94-9.87-17.49-17.43-24.49-24.52-2.4-2.43-3.08-4.54-2-6.28,1.61-2.69,4-4.65,5.17-4.8l.41,0a11.16,11.16,0,0,1,6.62,3c8.84,8.45,17.62,17.28,26.12,25.82q4.88,4.91,9.76,9.8c.85.85,1.73,1.65,2.58,2.42l1.17,1.07,2.29,2.14,1.89-2.5c21.59-28.42,23.46-77.68-10.76-110.89A85.72,85.72,0,0,0,347,18c-18.52,0-36.58,5.86-49.56,16.09l-2.82,2.22,2.82,2.23c.48.38,1,.73,1.44,1.09a22.1,22.1,0,0,1,2.42,2l1.89,1.87c5.06,5,10.28,10.14,15.24,15.35a6.52,6.52,0,0,1,.88,8.13,6.63,6.63,0,0,1-5.35,3A4.94,4.94,0,0,1,312,69.5a16.31,16.31,0,0,1-4.7-3.45c-4.94-4.83-9.93-9.84-14.75-14.69L287,45.83l-2.12-2.13Z"/><path class="cls-1" d="M303.09,429.28a34.23,34.23,0,0,1-9.72-1.35c-7.47-2.22-13-7.06-15.21-13.29s-1-12.89,3.29-19.08c8.18-11.86,20.33-17.88,36.12-17.88l1.52,0a41.88,41.88,0,0,1,4.52.44l2.65.33,3.14.34V352.06q0-24.54,0-49.09c0-6.5.77-7.58,6.84-9.69l85.33-29.59a16.78,16.78,0,0,1,5.36-1.07c1.66,0,6,0,6.05,9.18q0,18,0,36c0,18.78,0,38.2.06,57.3,0,8.53-2.9,15.33-8.95,20.8-9.07,8.2-18.9,12.36-29.21,12.36a42.7,42.7,0,0,1-11-1.49c-7.32-1.94-12.82-6.59-15.1-12.74s-1.11-13.25,3.18-19.49c8.2-11.9,20.29-17.94,35.95-17.94.83,0,1.68,0,2.53.05,1.2,0,2.47.22,3.82.4.71.1,1.44.19,2.21.28l3.16.37V278.26l-77.17,26.66v19.13q0,10,0,20c0,17.25,0,35.1,0,52.65a26.36,26.36,0,0,1-5.84,16.88C329.35,423,315.85,429.27,303.09,429.28Zm13.59-39.68c-8.23,1.41-17.51,4-23.93,12.58-2.27,3-2.95,5.8-2,8.28s3.26,4.17,7,5a29,29,0,0,0,6.37.73c6.9,0,13.32-2.57,19.08-7.64,1.58-1.39,7.13-7.48,5.38-11.84-1.14-2.86-4.2-4.19-7.16-5.47-1-.45-2-.87-2.8-1.32l-.88-.5Zm89.56-30c-7,0-13.41,2.57-19.15,7.64-2.42,2.15-6.93,7.86-5.35,11.83,1.14,2.87,4.19,4.2,7.15,5.5,1,.45,2,.87,2.79,1.32l.89.5,1-.18c8.26-1.48,17.56-4.13,23.9-12.54,2.8-3.73,2.62-6.59,2-8.34s-2.37-4-6.93-5A29.53,29.53,0,0,0,406.24,359.57Z"/><path class="cls-1" d="M341,96.93A6.57,6.57,0,0,1,336.28,95a6.35,6.35,0,0,1-1.8-4.58A6.63,6.63,0,0,1,341,84a6.39,6.39,0,0,1,6.4,6.44,6.21,6.21,0,0,1-6.27,6.46Z"/><path class="cls-1" d="M246.71,229.86A25.42,25.42,0,0,1,235.35,227c-8.86-4.41-13.41-11.88-13.89-22.84.06-.38.11-.8.18-1.25a39.69,39.69,0,0,1,.7-4c3.15-12.87,21-28.11,33-28.11,10.32,0,17.86,4.58,22.43,13.61,4.66,9.21,3.74,18.32-2.68,26.34a85.3,85.3,0,0,1-13.75,13.71A23.4,23.4,0,0,1,246.71,229.86Zm9.1-45.45a12.19,12.19,0,0,0-6.8,1.84c-4.49,3.11-8.16,7.23-11.84,11.53s-3.61,9.77.11,14.34c2.45,3,5.68,4.75,8.85,4.75h0a8.86,8.86,0,0,0,5.41-1.89,94.37,94.37,0,0,0,11.34-10.89c.94-1,1.88-2,2.83-3a7.4,7.4,0,0,0,1.64-3.79c.13-.62.29-1.31.52-2.1l.43-1.43-.94-1.16c-.36-.45-.77-1.08-1.2-1.74-1.28-2-2.88-4.43-5.45-5.53A12.7,12.7,0,0,0,255.81,184.41Z"/></svg>