<?xml version="1.0" encoding="utf-8"?>
<!-- Generator: Adobe Illustrator 22.0.0, SVG Export Plug-In . SVG Version: 6.00 Build 0)  -->
<svg version="1.1" id="Layer_1" xmlns="http://www.w3.org/2000/svg" xmlns:xlink="http://www.w3.org/1999/xlink" x="0px" y="0px"
	 viewBox="0 0 484.1 484.1" style="enable-background:new 0 0 484.1 484.1;" xml:space="preserve">
<style type="text/css">
	.st0{fill:url(#SVGID_1_);}
	.st1{fill:url(#SVGID_2_);}
	.st2{fill:url(#SVGID_3_);}
	.st3{fill:url(#SVGID_4_);}
</style>
<title>Karaoke</title>
<linearGradient id="SVGID_1_" gradientUnits="userSpaceOnUse" x1="242.0418" y1="1" x2="242.0418" y2="467.0687">
	<stop  offset="0" style="stop-color:#C9A34A"/>
	<stop  offset="0" style="stop-color:#A47715"/>
	<stop  offset="0.2279" style="stop-color:#C7992B"/>
	<stop  offset="0.414" style="stop-color:#DAB461"/>
	<stop  offset="0.586" style="stop-color:#B68F3A"/>
	<stop  offset="0.7721" style="stop-color:#CBA147"/>
	<stop  offset="1" style="stop-color:#FFE084"/>
</linearGradient>
<path class="st0" d="M185.6,479.3c-1.7,0-3.3-0.8-4.5-2c-2.7-2.7-2.5-6.5,0.3-9.5c3.9-4,8-8,11.9-11.9c4.9-4.9,10-9.9,14.9-15
	c7.6-7.7,10.5-18.9,7.6-29.3c-2.8-10.1-10.7-18-20.9-20.8c-2.8-0.8-5.7-1.2-8.7-1.2c-7.9,0-15.2,3.2-21.5,9.6l-13.3,13.3
	c-12.8,12.8-26,26.1-39.1,39c-9.3,9.2-19.6,13.8-30.6,13.8c-5.9-0.1-11.7-1.3-17.1-3.5c-21.9-8.7-32.6-33.5-23.9-55.3
	c1.9-4.9,4.7-9.3,8.3-13.2c7.1-7.8,14.9-15.4,22.3-22.8c3.2-3.1,6.4-6.3,9.6-9.4c0.8-0.8,1.7-1.5,2.7-2.4c0.6-0.5,1.2-1,1.8-1.6
	l2.3-2l-7-6.9c-3.4-3.4-6.7-6.5-9.9-9.8c-4.9-4.9-5-7.1-0.8-12.5l22.5-28.8c49.7-63.5,101-129.2,151.4-193.9
	c1.9-2.3,3.1-5.1,3.5-8.1c2-21,10.6-40.9,24.6-56.7c0.4-0.4,0.7-0.9,1.2-1.5l1.1-1.5l1.7-2.2l-2.2-1.8c-0.7-0.6-1.5-1.1-2.2-1.7
	c-1.5-1-2.8-2.2-4.1-3.4c-1.7-1.5-2.7-3.5-2.8-5.7c0.1-1.7,0.8-3.2,2.1-4.3c1.1-1.2,2.7-1.9,4.3-1.9c2.1,0.1,4.1,1.1,5.5,2.7
	c1.5,1.5,2.8,3.1,4.1,4.9c0.6,0.8,1.3,1.6,1.9,2.4l1.7,2.1l2.2-1.6c13.9-10,28.1-16.1,43.5-18.7c1.7-0.3,3.4-0.6,5.1-1l2-0.4h19.1
	c2.2,0.5,4.5,1,6.7,1.4c4.9,0.9,9.7,2.1,14.5,3.5c52.3,17,81,73.2,64,125.6c-2.8,8.7-6.8,16.9-11.9,24.5c-0.6,0.9-1.1,1.7-1.8,2.8
	l-2.6,4l1.8,1.6c1,0.9,1.9,1.7,2.9,2.5c2.1,1.8,4.1,3.6,6,5.5c1.6,1.5,2.6,3.6,2.7,5.8c-0.2,3.3-2.9,6-6.2,6.2
	c-2.2-0.1-4.2-1.1-5.6-2.7c-1.8-1.7-3.5-3.5-5.3-5.4c-0.8-0.9-1.6-1.8-2.5-2.6l-1.8-1.9l-2,1.6c-1.2,0.9-2.3,1.8-3.3,2.7
	c-2.1,1.7-4.2,3.4-6.2,4.9c-14.5,10.7-31.6,17.2-49.6,18.9c-2.9,0.4-5.7,1.6-8,3.5c-45.4,35.7-91.5,72-136.1,107.1L176.9,342
	c-16.7,13.1-33.9,26.7-50.9,40c-2.5,2-4.4,2.9-6.1,2.9s-3.7-1.1-6.1-3.6c-3.4-3.3-6.8-6.8-10.3-10.3l-6.3-6.5l-2,1.4l-0.8,0.5
	c-0.6,0.4-1.1,0.8-1.7,1.3l-8.8,8.7c-8,8-16.3,16.2-24.3,24.4C48,412.6,48,431.6,59.8,443.3c5.6,5.5,13.1,8.7,20.9,8.7h0.9
	c8.2-0.3,15.4-3.5,21.8-10c20.2-20.3,36.6-36.7,51.7-51.7c9-8.9,20.4-13.8,32-13.8c21.6,0.2,39.7,16.2,42.5,37.6
	c1.7,12.2-2,24.5-10.2,33.7c-7.3,8.1-15.2,15.8-22.9,23.3l-6,5.9C189.2,478.4,187.4,479.2,185.6,479.3z M82.8,330.8l38.2,38.6
	l24.9-19.8l-43.6-43.7L82.8,330.8z M111.5,294.1l46.3,46.3l181.7-143.2L254,111.7L111.5,294.1z M282.9,45.9
	c-11.9,12.9-19.5,29.2-22,46.5c-0.6,3.8,0.5,6.8,3.5,9.8l4.3,4.3c25.6,25.5,52.1,51.8,77.8,78c3.8,3.9,7.5,5.6,11.9,5.6
	c1.6,0,3.1-0.2,4.6-0.6c16.5-3.6,30.4-10.7,42.3-21.5l2.2-2l-7.8-7.6c-4-3.9-7.8-7.6-11.6-11.4c-9.9-9.9-17.5-17.4-24.5-24.5
	c-2.4-2.4-3.1-4.5-2-6.3c1.6-2.7,4-4.7,5.2-4.8h0.4c2.5,0.2,4.8,1.3,6.6,3c8.8,8.4,17.6,17.3,26.1,25.8c3.3,3.3,6.5,6.5,9.8,9.8
	c0.9,0.9,1.7,1.6,2.6,2.4l1.2,1.1l2.3,2.1l1.9-2.5c21.6-28.4,23.5-77.7-10.8-110.9C390.9,26.7,369.4,18,347,18
	c-18.5,0-36.6,5.9-49.6,16.1l-2.8,2.2l2.8,2.2c0.5,0.4,1,0.7,1.4,1.1c0.9,0.6,1.7,1.3,2.4,2l1.9,1.9c5.1,5,10.3,10.1,15.2,15.3
	c2.2,2.2,2.5,5.5,0.9,8.1c-1.2,1.8-3.2,2.9-5.4,3c-0.7,0-1.3-0.2-2-0.5c-1.8-0.9-3.4-2-4.7-3.4c-4.9-4.8-9.9-9.8-14.8-14.7l-5.5-5.5
	l-2.1-2.1L282.9,45.9z"/>
<linearGradient id="SVGID_2_" gradientUnits="userSpaceOnUse" x1="355.0586" y1="1" x2="355.0586" y2="467.0687">
	<stop  offset="0" style="stop-color:#C9A34A"/>
	<stop  offset="0" style="stop-color:#A47715"/>
	<stop  offset="0.2279" style="stop-color:#C7992B"/>
	<stop  offset="0.414" style="stop-color:#DAB461"/>
	<stop  offset="0.586" style="stop-color:#B68F3A"/>
	<stop  offset="0.7721" style="stop-color:#CBA147"/>
	<stop  offset="1" style="stop-color:#FFE084"/>
</linearGradient>
<path class="st1" d="M303.1,429.3c-3.3,0-6.6-0.4-9.7-1.4c-7.5-2.2-13-7.1-15.2-13.3s-1-12.9,3.3-19.1c8.2-11.9,20.3-17.9,36.1-17.9
	h1.5c1.5,0.1,3,0.2,4.5,0.4l2.6,0.3l3.1,0.3v-26.7c0-16.4,0-32.7,0-49.1c0-6.5,0.8-7.6,6.8-9.7l85.3-29.6c1.7-0.6,3.5-1,5.4-1.1
	c1.7,0,6,0,6,9.2c0,12,0,24,0,36c0,18.8,0,38.2,0.1,57.3c0,8.5-2.9,15.3-9,20.8c-9.1,8.2-18.9,12.4-29.2,12.4c-3.7,0-7.4-0.5-11-1.5
	c-7.3-1.9-12.8-6.6-15.1-12.7s-1.1-13.3,3.2-19.5c8.2-11.9,20.3-17.9,36-17.9c0.8,0,1.7,0,2.5,0c1.2,0,2.5,0.2,3.8,0.4
	c0.7,0.1,1.4,0.2,2.2,0.3l3.2,0.4v-69.4l-77.2,26.7v19.1c0,6.7,0,13.3,0,20c0,17.3,0,35.1,0,52.6c0.1,6.1-2,12.1-5.8,16.9
	C329.4,423,315.9,429.3,303.1,429.3z M316.7,389.6c-8.2,1.4-17.5,4-23.9,12.6c-2.3,3-3,5.8-2,8.3s3.3,4.2,7,5
	c2.1,0.5,4.2,0.7,6.4,0.7c6.9,0,13.3-2.6,19.1-7.6c1.6-1.4,7.1-7.5,5.4-11.8c-1.1-2.9-4.2-4.2-7.2-5.5c-1-0.5-2-0.9-2.8-1.3
	l-0.9-0.5L316.7,389.6z M406.2,359.6c-7,0-13.4,2.6-19.1,7.6c-2.4,2.1-6.9,7.9-5.4,11.8c1.1,2.9,4.2,4.2,7.1,5.5
	c1,0.5,2,0.9,2.8,1.3l0.9,0.5l1-0.2c8.3-1.5,17.6-4.1,23.9-12.5c2.8-3.7,2.6-6.6,2-8.3s-2.4-4-6.9-5
	C410.5,359.9,408.4,359.6,406.2,359.6L406.2,359.6z"/>
<linearGradient id="SVGID_3_" gradientUnits="userSpaceOnUse" x1="340.9417" y1="1" x2="340.9417" y2="467.0687">
	<stop  offset="0" style="stop-color:#C9A34A"/>
	<stop  offset="0" style="stop-color:#A47715"/>
	<stop  offset="0.2279" style="stop-color:#C7992B"/>
	<stop  offset="0.414" style="stop-color:#DAB461"/>
	<stop  offset="0.586" style="stop-color:#B68F3A"/>
	<stop  offset="0.7721" style="stop-color:#CBA147"/>
	<stop  offset="1" style="stop-color:#FFE084"/>
</linearGradient>
<path class="st2" d="M341,96.9c-1.8,0-3.5-0.7-4.7-1.9c-1.2-1.2-1.8-2.9-1.8-4.6c0.1-3.5,3-6.4,6.5-6.4c3.5,0,6.4,2.9,6.4,6.4
	c0,0,0,0,0,0.1c0.1,3.4-2.5,6.3-6,6.5c-0.1,0-0.2,0-0.3,0L341,96.9z"/>
<linearGradient id="SVGID_4_" gradientUnits="userSpaceOnUse" x1="251.0773" y1="1" x2="251.0773" y2="467.0687">
	<stop  offset="0" style="stop-color:#C9A34A"/>
	<stop  offset="0" style="stop-color:#A47715"/>
	<stop  offset="0.2279" style="stop-color:#C7992B"/>
	<stop  offset="0.414" style="stop-color:#DAB461"/>
	<stop  offset="0.586" style="stop-color:#B68F3A"/>
	<stop  offset="0.7721" style="stop-color:#CBA147"/>
	<stop  offset="1" style="stop-color:#FFE084"/>
</linearGradient>
<path class="st3" d="M246.7,229.9c-4-0.1-7.8-1-11.4-2.9c-8.9-4.4-13.4-11.9-13.9-22.8c0.1-0.4,0.1-0.8,0.2-1.3
	c0.2-1.3,0.4-2.7,0.7-4c3.1-12.9,21-28.1,33-28.1c10.3,0,17.9,4.6,22.4,13.6c4.7,9.2,3.7,18.3-2.7,26.3c-4,5.1-8.7,9.7-13.8,13.7
	C257.2,227.9,252.1,229.8,246.7,229.9z M255.8,184.4c-2.4-0.1-4.8,0.6-6.8,1.8c-4.5,3.1-8.2,7.2-11.8,11.5s-3.6,9.8,0.1,14.3
	c2.4,3,5.7,4.8,8.9,4.8l0,0c2,0,3.9-0.7,5.4-1.9c4.1-3.3,7.9-7,11.3-10.9c0.9-1,1.9-2,2.8-3c0.9-1.1,1.5-2.4,1.6-3.8
	c0.1-0.6,0.3-1.3,0.5-2.1l0.4-1.4l-0.9-1.2c-0.4-0.4-0.8-1.1-1.2-1.7c-1.3-2-2.9-4.4-5.5-5.5C259.2,184.7,257.5,184.4,255.8,184.4
	L255.8,184.4z"/>
</svg>
