<svg id="Layer_1" data-name="Layer 1" xmlns="http://www.w3.org/2000/svg" viewBox="0 0 65.91 54.18"><defs><style>.cls-1{fill:#fec;}.cls-2{fill:none;}</style></defs><path class="cls-1" d="M0,54.18S-.87,28.06,14.41,19.6,31,12.11,34.62,6.19c0,0-1.73,12-18.38,21.66S.8,51.57,0,54.18"/><path class="cls-1" d="M3.82,46.89s7.85-14.56,18.41-11.1,10.92,4.67,14.69,3.4c0,0-4.72,5.58-16.36,2S5.06,45.9,3.82,46.89"/><path class="cls-1" d="M9.42,37.36s9.12-13.42,19.2-8.42S39,35.19,42.78,34.48c0,0-5.17,4.89-16.32-.36s-15.73,2.43-17,3.24"/><path class="cls-1" d="M24.69,25.52a32.58,32.58,0,0,0,14.69-17S55.07,10.42,64,0c0,0-8.48,20.24-39.3,25.52"/><path class="cls-1" d="M31.32,27.3a59.29,59.29,0,0,0,10-3.77s9.77,5.3,16.51.66c0,0-11.88,12-26.53,3.11"/><path class="cls-1" d="M45.33,22.06A26.44,26.44,0,0,0,52,17.46,20.19,20.19,0,0,0,65.91,9.91S59.8,26.27,45.33,22.06"/><rect class="cls-2" x="-928.05" y="-2256.94" width="1440" height="5137.73"/><rect class="cls-2" x="-928.05" y="-2256.94" width="1440" height="5137.73"/><rect class="cls-2" x="-928.05" y="-2256.95" width="1440" height="5137.73"/></svg>