<svg id="Layer_1" data-name="Layer 1" xmlns="http://www.w3.org/2000/svg" viewBox="0 0 65.91 54.18"><defs><style>.cls-1{fill:#fec;}.cls-2{fill:none;}</style></defs><path class="cls-1" d="M65.9,54.18s.88-26.12-14.39-34.58S35,12.11,31.29,6.19c0,0,1.73,12,18.38,21.66S65.11,51.57,65.9,54.18"/><path class="cls-1" d="M62.09,46.89s-7.85-14.56-18.41-11.1S32.77,40.46,29,39.19c0,0,4.71,5.58,16.35,2s15.5,4.69,16.74,5.68"/><path class="cls-1" d="M56.5,37.36s-9.13-13.42-19.21-8.42S27,35.19,23.13,34.48c0,0,5.17,4.89,16.32-.36s15.73,2.43,17,3.24"/><path class="cls-1" d="M41.22,25.52a32.58,32.58,0,0,1-14.69-17S10.84,10.42,1.93,0c0,0,8.47,20.24,39.29,25.52"/><path class="cls-1" d="M34.59,27.3a59.05,59.05,0,0,1-10-3.77s-9.78,5.3-16.51.66c0,0,11.87,12,26.52,3.11"/><path class="cls-1" d="M20.58,22.06a26.31,26.31,0,0,1-6.7-4.6A20.22,20.22,0,0,1,0,9.91S6.11,26.27,20.58,22.06"/><rect class="cls-2" x="-442.51" y="-2256.94" width="1440" height="5137.73"/><rect class="cls-2" x="-442.51" y="-2256.94" width="1440" height="5137.73"/><rect class="cls-2" x="-442.51" y="-2256.95" width="1440" height="5137.73"/></svg>