<svg id="Layer_1" data-name="Layer 1" xmlns="http://www.w3.org/2000/svg" viewBox="0 0 315.79 300.13"><defs><style>.cls-1{fill:#7e8284;}</style></defs><title>Lich-icon</title><path class="cls-1" d="M254.72,291.38H61.07A51.93,51.93,0,0,1,9.2,239.51V80.15A51.92,51.92,0,0,1,61.07,28.28H254.72A51.93,51.93,0,0,1,306.6,80.15V239.51A51.93,51.93,0,0,1,254.72,291.38ZM61.07,36.94A43.25,43.25,0,0,0,17.86,80.15V239.51a43.25,43.25,0,0,0,43.21,43.21H254.72a43.25,43.25,0,0,0,43.21-43.21V80.15a43.25,43.25,0,0,0-43.21-43.21Z"/><path class="cls-1" d="M90.25,56.47a4.33,4.33,0,0,1-4.33-4.33V13.07a4.33,4.33,0,1,1,8.66,0V52.14A4.33,4.33,0,0,1,90.25,56.47Z"/><path class="cls-1" d="M225.55,56.47a4.33,4.33,0,0,1-4.33-4.33V13.07a4.33,4.33,0,1,1,8.66,0V52.14A4.33,4.33,0,0,1,225.55,56.47Z"/><path class="cls-1" d="M302.26,116.92H13.53a4.33,4.33,0,0,1,0-8.66H302.26a4.33,4.33,0,1,1,0,8.66Z"/><path class="cls-1" d="M99.6,182.45H62a4.33,4.33,0,0,1-4.33-4.33V140.51A4.33,4.33,0,0,1,62,136.18H99.6a4.33,4.33,0,0,1,4.33,4.33v37.61A4.33,4.33,0,0,1,99.6,182.45Zm-33.29-8.66h29V144.84h-29Z"/><path class="cls-1" d="M176.7,182.45H139.09a4.33,4.33,0,0,1-4.33-4.33V140.51a4.33,4.33,0,0,1,4.33-4.33H176.7a4.33,4.33,0,0,1,4.34,4.33v37.61A4.33,4.33,0,0,1,176.7,182.45Zm-33.28-8.66h29V144.84h-29Z"/><path class="cls-1" d="M253.81,182.45H216.2a4.33,4.33,0,0,1-4.33-4.33V140.51a4.33,4.33,0,0,1,4.33-4.33h37.61a4.33,4.33,0,0,1,4.33,4.33v37.61A4.33,4.33,0,0,1,253.81,182.45Zm-33.28-8.66h28.95V144.84H220.53Z"/><path class="cls-1" d="M99.6,257.91H62a4.33,4.33,0,0,1-4.33-4.33V216A4.33,4.33,0,0,1,62,211.64H99.6a4.33,4.33,0,0,1,4.33,4.33v37.61A4.33,4.33,0,0,1,99.6,257.91Zm-33.29-8.66h29V220.3h-29Z"/><path class="cls-1" d="M176.7,257.91H139.09a4.33,4.33,0,0,1-4.33-4.33V216a4.33,4.33,0,0,1,4.33-4.33H176.7A4.33,4.33,0,0,1,181,216v37.61A4.33,4.33,0,0,1,176.7,257.91Zm-33.28-8.66h29V220.3h-29Z"/><path class="cls-1" d="M253.81,257.91H216.2a4.33,4.33,0,0,1-4.33-4.33V216a4.33,4.33,0,0,1,4.33-4.33h37.61a4.33,4.33,0,0,1,4.33,4.33v37.61A4.33,4.33,0,0,1,253.81,257.91Zm-33.28-8.66h28.95V220.3H220.53Z"/></svg>