<svg xmlns="http://www.w3.org/2000/svg" xmlns:xlink="http://www.w3.org/1999/xlink" viewBox="0 0 16.47 22.88"><defs><style>.cls-1,.cls-13,.cls-8{isolation:isolate;}.cls-1{filter:url(#luminosity-noclip-3);}.cls-2{mask:url(#mask);}.cls-3{mix-blend-mode:multiply;}.cls-4{clip-path:url(#clip-path);}.cls-5{fill:none;}.cls-6{clip-path:url(#clip-path-2);}.cls-7{fill:url(#linear-gradient);}.cls-8{filter:url(#luminosity-noclip-4);}.cls-9{mask:url(#mask-2);}.cls-10{clip-path:url(#clip-path-3);}.cls-11{clip-path:url(#clip-path-4);}.cls-12{fill:url(#linear-gradient-2);}.cls-14{clip-path:url(#clip-path-5);}.cls-15{opacity:0.4;}.cls-16{clip-path:url(#clip-path-6);}.cls-17{clip-path:url(#clip-path-7);}.cls-18{opacity:0.7;mix-blend-mode:soft-light;}.cls-19{clip-path:url(#clip-path-9);}.cls-20{mask:url(#mask-3);}.cls-21{clip-path:url(#clip-path-10);}.cls-22{clip-path:url(#clip-path-11);}.cls-23{fill:url(#linear-gradient-3);}.cls-24{mask:url(#mask-4);}.cls-25{clip-path:url(#clip-path-12);}.cls-26{clip-path:url(#clip-path-13);}.cls-27{fill:url(#linear-gradient-4);}.cls-28{fill:#fff;}.cls-29{filter:url(#luminosity-noclip-2);}.cls-30{filter:url(#luminosity-noclip);}</style><filter id="luminosity-noclip" x="-99.04" y="-6213.48" width="379.08" height="32766" filterUnits="userSpaceOnUse" color-interpolation-filters="sRGB"><feFlood flood-color="#fff" result="bg"/><feBlend in="SourceGraphic" in2="bg"/></filter><mask id="mask" x="-99.04" y="-6213.48" width="379.08" height="32766" maskUnits="userSpaceOnUse"><g class="cls-30"/></mask><clipPath id="clip-path"><rect class="cls-5" x="-96.2" y="-260" width="375.2" height="668.49"/></clipPath><clipPath id="clip-path-2"><path class="cls-5" d="M189.93-242.74c9.49-12,18.44-17.77,26.81-17.23,10.73.7,20.37,11.74,28.64,32.83,9,22.87,16.67,58.29,22.9,105.29C276.54-59.63,280.05-2.2,278.72,48.84c-1.16,44.34-6,85.26-14.43,121.62-14.75,63.66-38.07,105.06-61.07,140.32-24.66,37.79-53,65.07-84.2,81.07C91.88,405.76,63.12,411,33.54,407.38-28.11,399.87-79,355-92.65,316c-6.39-18.3-4.11-34.25,6.39-44.91C-41.78,226-5.65,183.3,24.19,140.64c41.12-58.77,69.55-117,84.51-173,10.69-40.06,27.52-97.84,47-145.55q18.06-44.31,34.26-64.8M202.17,310.1l-1-.69c22.87-35.06,46.06-76.23,60.72-139.51,8.39-36.2,13.22-76.95,14.37-121.12,1.33-50.91-2.18-108.21-10.41-170.3-6.21-46.8-13.87-82-22.76-104.7-7.88-20.12-16.79-30.63-26.47-31.25-16.44-1.06-36.7,26.76-58.6,80.47-19.4,47.6-36.2,105.26-46.87,145.25-15,56.32-43.59,114.81-84.87,173.83C-3.69,184.85-39.9,227.62-84.48,272.84c-9.81,10-11.87,25-5.81,42.34,13.36,38.3,63.44,82.33,124.13,89.72,29.08,3.54,57.36-1.6,84-15.28,30.82-15.8,58.83-42.78,83.25-80.21Z"/></clipPath><linearGradient id="linear-gradient" x1="269.47" y1="590.48" x2="270.47" y2="590.48" gradientTransform="matrix(-375.2, 0, 0, 375.2, 101383.97, -221470.65)" gradientUnits="userSpaceOnUse"><stop offset="0" stop-color="#fff"/><stop offset="0.03" stop-color="#d4d3d4"/><stop offset="0.15" stop-color="#231f20"/><stop offset="0.39" stop-color="#fff"/><stop offset="0.63" stop-color="#e6e7e8"/><stop offset="0.86" stop-color="#414042"/><stop offset="1" stop-color="#231f20"/><stop offset="1" stop-color="#231f20"/></linearGradient><filter id="luminosity-noclip-2" x="-78.31" y="-6213.48" width="354.58" height="32766" filterUnits="userSpaceOnUse" color-interpolation-filters="sRGB"><feFlood flood-color="#fff" result="bg"/><feBlend in="SourceGraphic" in2="bg"/></filter><mask id="mask-2" x="-78.31" y="-6213.48" width="354.58" height="32766" maskUnits="userSpaceOnUse"><g class="cls-29"/></mask><clipPath id="clip-path-3"><rect class="cls-5" x="-75.43" y="-229.38" width="346.58" height="618.94"/></clipPath><clipPath id="clip-path-4"><path class="cls-5" d="M191.62-213.53c8.73-11.05,17-16.34,24.64-15.81,20.67,1.43,36.08,43.14,47.11,127.51C276.26,7.65,273.11,100.48,254,174.11c-15.51,59.75-38.3,97.29-60.61,129-22.2,33.36-47.48,57.47-75.12,71.65-24.16,12.39-49.66,17.06-75.78,13.87-18-2.19-45.25-9.34-72.73-30.94C-49.76,342.3-64.82,322.76-71.53,304c-6.78-18.9-4.67-35.45,6-46.61C12.6,173.1,89,80.36,118.29-26.27c10-36.22,25.45-88.19,42.78-130.06q16.11-38.92,30.55-57.2M177.78,320.64q7-8.88,13.68-18.9c22.21-31.51,44.86-68.83,60.27-128.22,19-73.35,22.17-165.89,9.31-275.06-5.64-43.16-12.62-75.67-20.75-96.6C233.1-216.68,225-226.39,216.1-227c-15-1-32.78,23-52.86,71.57C146-113.67,130.49-61.8,120.55-25.65,91.13,81.47,14.53,174.48-63.87,259c-10,10.5-11.92,26.19-5.46,44.2,6.58,18.32,21.35,37.48,40.55,52.56,14.93,11.74,39.47,26.55,71.56,30.46,25.65,3.13,50.69-1.46,74.43-13.63,21.77-11.17,42.08-28.61,60.57-52"/></clipPath><linearGradient id="linear-gradient-2" x1="269.47" y1="590.48" x2="270.47" y2="590.48" gradientTransform="matrix(-346.58, 0, 0, 346.58, 93663.89, -204565.48)" xlink:href="#linear-gradient"/><clipPath id="clip-path-5"><rect class="cls-5" x="269.47" y="-4547.25" width="1440" height="5137.73"/></clipPath><clipPath id="clip-path-6"><rect class="cls-5" x="-1738.12" y="-1855.14" width="2247.19" height="2872.83"/></clipPath><clipPath id="clip-path-7"><rect class="cls-5" x="-1411.89" y="-236.8" width="1440" height="376.06"/></clipPath><clipPath id="clip-path-9"><rect class="cls-5" x="-1411.89" y="-889.62" width="1440" height="1028.88"/></clipPath><filter id="luminosity-noclip-3" x="-99.04" y="-260.51" width="379.08" height="671.49" filterUnits="userSpaceOnUse" color-interpolation-filters="sRGB"><feFlood flood-color="#fff" result="bg"/><feBlend in="SourceGraphic" in2="bg"/></filter><mask id="mask-3" x="-99.04" y="-260.51" width="379.08" height="671.49" maskUnits="userSpaceOnUse"><g class="cls-1"><g class="cls-2"><g class="cls-3"><g class="cls-4"><g class="cls-6"><rect class="cls-7" x="-99.04" y="-260.51" width="379.08" height="671.49"/></g></g></g></g></g></mask><clipPath id="clip-path-10"><rect class="cls-5" x="-96.2" y="-260" width="375.2" height="668.49"/></clipPath><clipPath id="clip-path-11"><path class="cls-5" d="M189.93-242.74c9.49-12,18.44-17.77,26.81-17.23,10.73.7,20.37,11.74,28.64,32.83,9,22.87,16.67,58.29,22.9,105.29C276.54-59.63,280.05-2.2,278.72,48.84c-1.16,44.34-6,85.26-14.43,121.62-14.75,63.66-38.07,105.06-61.07,140.32-24.66,37.79-53,65.07-84.2,81.07C91.88,405.76,63.12,411,33.54,407.38-28.11,399.87-79,355-92.65,316c-6.39-18.3-4.11-34.25,6.39-44.91C-41.78,226-5.65,183.3,24.19,140.64c41.12-58.77,69.55-117,84.51-173,10.69-40.06,27.52-97.84,47-145.55q18.06-44.31,34.26-64.8M202.17,310.1l-1-.69c22.87-35.06,46.06-76.23,60.72-139.51,8.39-36.2,13.22-76.95,14.37-121.12,1.33-50.91-2.18-108.21-10.41-170.3-6.21-46.8-13.87-82-22.76-104.7-7.88-20.11-16.79-30.63-26.47-31.25-16.44-1.06-36.7,26.76-58.6,80.47-19.4,47.6-36.2,105.26-46.87,145.25-15,56.32-43.59,114.81-84.87,173.83C-3.69,184.85-39.9,227.62-84.48,272.85c-9.81,9.94-11.87,25-5.81,42.33,13.36,38.3,63.44,82.33,124.13,89.72,29.08,3.54,57.36-1.6,84-15.28,30.82-15.8,58.83-42.78,83.25-80.21Z"/></clipPath><linearGradient id="linear-gradient-3" x1="269.47" y1="590.48" x2="270.47" y2="590.48" gradientTransform="matrix(0, -668.49, -668.49, 0, 394817.57, 180547.05)" gradientUnits="userSpaceOnUse"><stop offset="0" stop-color="#f0c89f"/><stop offset="0.15" stop-color="#f0dbb8"/><stop offset="0.39" stop-color="#d2a680"/><stop offset="0.63" stop-color="#a27b5d"/><stop offset="0.86" stop-color="#d2a680"/><stop offset="1" stop-color="#d2a680"/><stop offset="1" stop-color="#d2a680"/></linearGradient><filter id="luminosity-noclip-4" x="-78.31" y="-229.87" width="354.58" height="621.65" filterUnits="userSpaceOnUse" color-interpolation-filters="sRGB"><feFlood flood-color="#fff" result="bg"/><feBlend in="SourceGraphic" in2="bg"/></filter><mask id="mask-4" x="-78.31" y="-229.87" width="354.58" height="621.65" maskUnits="userSpaceOnUse"><g class="cls-8"><g class="cls-9"><g class="cls-3"><g class="cls-10"><g class="cls-11"><rect class="cls-12" x="-78.31" y="-229.87" width="354.58" height="621.65"/></g></g></g></g></g></mask><clipPath id="clip-path-12"><rect class="cls-5" x="-75.43" y="-229.38" width="346.58" height="618.94"/></clipPath><clipPath id="clip-path-13"><path class="cls-5" d="M191.62-213.53c8.73-11.05,17-16.34,24.64-15.81,20.67,1.43,36.08,43.14,47.11,127.51C276.26,7.65,273.11,100.48,254,174.11c-15.51,59.75-38.3,97.29-60.61,129-22.2,33.36-47.48,57.47-75.12,71.65-24.16,12.39-49.66,17-75.78,13.87-18-2.2-45.25-9.35-72.73-30.94C-49.76,342.3-64.82,322.76-71.53,304c-6.78-18.9-4.67-35.45,6-46.61C12.6,173.1,89,80.36,118.29-26.27c10-36.22,25.45-88.19,42.78-130.06q16.11-38.92,30.55-57.2M177.78,320.64q7-8.88,13.68-18.9c22.21-31.51,44.86-68.83,60.27-128.22,19-73.35,22.17-165.89,9.31-275.06-5.64-43.16-12.62-75.67-20.75-96.6C233.1-216.68,225-226.39,216.1-227c-15-1-32.78,23-52.86,71.57C146-113.67,130.49-61.81,120.55-25.65,91.13,81.47,14.53,174.48-63.87,259c-10,10.5-11.92,26.19-5.46,44.2,6.58,18.32,21.35,37.48,40.55,52.56,14.93,11.74,39.47,26.55,71.56,30.46,25.65,3.13,50.69-1.46,74.43-13.63,21.77-11.17,42.08-28.61,60.57-52"/></clipPath><linearGradient id="linear-gradient-4" x1="269.47" y1="590.47" x2="270.47" y2="590.47" gradientTransform="matrix(0, -618.94, -618.94, 0, 365566.4, 167176.02)" xlink:href="#linear-gradient-3"/></defs><g class="cls-13"><g id="Layer_1" data-name="Layer 1"><g class="cls-14"><g class="cls-15"><g class="cls-16"><g class="cls-17"><g class="cls-18"><g class="cls-16"><g class="cls-19"><g class="cls-20"><g class="cls-21"><g class="cls-22"><rect class="cls-23" x="-99.04" y="-260.51" width="379.08" height="671.49"/></g></g></g><g class="cls-24"><g class="cls-25"><g class="cls-26"><rect class="cls-27" x="-78.31" y="-229.87" width="354.58" height="621.65"/></g></g></g></g></g></g></g></g></g></g><path class="cls-28" d="M8.23,22.88a.64.64,0,0,1-.53-.29L1.33,12.8A8.42,8.42,0,0,1,0,8.23a8.24,8.24,0,0,1,16.47,0,8.42,8.42,0,0,1-1.33,4.57L8.77,22.59a.65.65,0,0,1-.54.29m0-21.61a7,7,0,0,0-7,7A7.13,7.13,0,0,0,2.4,12.11l5.83,9,5.84-9a7.12,7.12,0,0,0,1.12-3.88,7,7,0,0,0-7-7"/><path class="cls-28" d="M8.23,11.4A3.17,3.17,0,1,1,11.4,8.23,3.18,3.18,0,0,1,8.23,11.4m0-5.06a1.9,1.9,0,1,0,1.9,1.89,1.89,1.89,0,0,0-1.9-1.89"/></g></g></svg>