<svg id="Layer_1" data-name="Layer 1" xmlns="http://www.w3.org/2000/svg" viewBox="0 0 120 77.9"><defs><style>.cls-1{fill:#929497;}.cls-2{fill:#fff;}</style></defs><polygon class="cls-1" points="61.85 35.63 59.92 30.72 54.74 29.81 58.81 26.46 58.08 21.25 62.52 24.08 67.25 21.78 65.92 26.88 69.58 30.67 64.32 30.98 61.85 35.63"/><path class="cls-2" d="M70.84,2.06,69.9,2C58.4,2,49.08,11,49.08,22a19.34,19.34,0,0,0,5.18,13.15A18.49,18.49,0,1,1,70.84,2.06"/><path class="cls-2" d="M67.52,38.32A18.57,18.57,0,0,1,44,9.68,20.34,20.34,0,0,0,62.22,39a20.17,20.17,0,0,0,5.3-.7"/><path class="cls-2" d="M87.67,32.32A18.15,18.15,0,0,1,76.12,49.15a18.54,18.54,0,0,0,6.38-14A19,19,0,0,0,59.76,16.8,18.45,18.45,0,0,1,87.67,32.32"/><path class="cls-2" d="M80.45,35.18A18.75,18.75,0,0,1,61.57,53.81a19,19,0,0,1-9.67-2.63,21.3,21.3,0,0,0,2.9.19c11.61,0,21-9,21-20.13A19.46,19.46,0,0,0,72,19.65a18.54,18.54,0,0,1,8.45,15.53"/><path class="cls-2" d="M73.31,33.57c-.65,9-8.44,16-18,16-9.94,0-18-7.72-18-17.24a16.17,16.17,0,0,1,.28-3c1.54,8.46,9.25,14.88,18.52,14.88A18.88,18.88,0,0,0,73.31,33.57"/><path class="cls-2" d="M120,77.72a1.34,1.34,0,0,1-.36.14,4,4,0,0,1-4.07-1.59c-.58-.82-1.14-1.65-1.71-2.48s-1-1.48-1.54-2.19a.93.93,0,0,0-.64-.29c-.55,0-1.1,0-1.69.07,0,1.06,0,2.11,0,3.16a9.48,9.48,0,0,0,.1,1.3,1.29,1.29,0,0,0,1.2,1.29l.35.09s0,0,.08.15H107l0-.11c.14,0,.27-.1.41-.13a1,1,0,0,0,.89-1c0-.28,0-.55,0-.82q0-4.47,0-8.94c0-.2,0-.4,0-.6-.07-1-.32-1.34-1.32-1.54a1.48,1.48,0,0,1-.39-.17,1.89,1.89,0,0,1,.4-.13c1.68,0,3.36,0,5,0a4,4,0,0,1,1.27.25c1.77.62,2.49,2.28,1.91,4.3a4.67,4.67,0,0,1-1.63,2.36c1.42,1.86,2.81,3.71,4.24,5.54a2.5,2.5,0,0,0,2.2,1.23v.14m-10-7.07c.69,0,1.35.07,2,.08a1.57,1.57,0,0,0,1.59-1.08,4.31,4.31,0,0,0,0-3.43,3,3,0,0,0-3.08-1.74c-.23,0-.5,0-.5.41,0,1.89,0,3.77,0,5.76"/><path class="cls-2" d="M21.44,70.61a19.19,19.19,0,0,1,.26-2,6,6,0,0,1,5.92-4.81,8.29,8.29,0,0,1,4.46.88,6.56,6.56,0,0,1,3.21,6.72,9.65,9.65,0,0,1-.38,1.91,5.79,5.79,0,0,1-5,4.14,8.86,8.86,0,0,1-3.59-.17,6.06,6.06,0,0,1-4.76-5.52c0-.38-.05-.76-.07-1.14h0m12,.47a10.53,10.53,0,0,0-1.17-4.43,4.6,4.6,0,0,0-4.73-2.29,4.21,4.21,0,0,0-3.83,3.3,9.47,9.47,0,0,0-.22,4,6.67,6.67,0,0,0,1.32,3.47,4.82,4.82,0,0,0,4.72,1.79A4,4,0,0,0,32.83,74a25.33,25.33,0,0,0,.63-2.9"/><path class="cls-2" d="M13.14,77.39H9.37c.05-.08.06-.15.09-.16a2.22,2.22,0,0,0,1.64-1.59c1-2.44,2-4.89,3-7.34l1.67-4c.06-.12.14-.23.26-.46.14.3.26.49.33.69,1.21,3.19,2.4,6.39,3.61,9.58.21.55.45,1.1.69,1.64a2.41,2.41,0,0,0,1.64,1.54c.05,0,.1.06.26.17H17.84a.59.59,0,0,0,0-.13l.45-.14c.53-.15.74-.41.59-1-.35-1.18-.76-2.33-1.17-3.49a.53.53,0,0,0-.41-.22c-1.18,0-2.36,0-3.53,0a.55.55,0,0,0-.44.26c-.38.94-.73,1.89-1.07,2.84a2.26,2.26,0,0,0-.11.69.75.75,0,0,0,.65.84c.13,0,.25.07.38.1l0,.14m2.54-10.27h-.15l-1.76,4.57h3.56l-1.65-4.56"/><path class="cls-2" d="M53.65,77.39h-3.5c0-.07,0-.13,0-.13.87-.19,1.28-.93,1.6-1.74,1.31-3.36,2.6-6.74,3.9-10.11.2-.51.41-1,.67-1.67.16.34.27.53.34.73l3.42,9.68c.08.22.15.44.24.65.44,1.1.81,2.25,2.11,2.49l-.07.12H58.06s0-.09,0-.13l.42-.14c.49-.15.7-.41.55-1-.33-1.18-.72-2.34-1.1-3.49a.49.49,0,0,0-.39-.22c-1.1,0-2.21,0-3.31,0a.58.58,0,0,0-.43.32c-.33.83-.63,1.67-.92,2.52a3.08,3.08,0,0,0-.16.79c-.06.6.13.87.66,1l.31.11s0,.09,0,.13M56,67.11h-.13c-.55,1.5-1.09,3-1.66,4.58h3.35c-.54-1.57-1-3.07-1.56-4.57"/><path class="cls-2" d="M96.16,77.39H92.67c0-.07,0-.13,0-.13.87-.19,1.29-.93,1.61-1.74l3.9-10.11c.19-.51.4-1,.67-1.67.15.34.26.53.33.73,1.15,3.22,2.28,6.45,3.42,9.68l.24.65c.44,1.1.82,2.25,2.11,2.49l-.06.12h-4.33l0-.13.42-.14c.5-.15.7-.41.55-1-.33-1.18-.71-2.34-1.1-3.49a.48.48,0,0,0-.38-.22c-1.11,0-2.21,0-3.32,0a.58.58,0,0,0-.43.32c-.32.83-.62,1.67-.91,2.52a3.59,3.59,0,0,0-.17.79c0,.6.14.87.66,1l.31.11,0,.13m2.37-10.28H98.4c-.54,1.5-1.09,3-1.66,4.58h3.35c-.53-1.57-1-3.07-1.56-4.57"/><path class="cls-2" d="M48.29,74.63a4.12,4.12,0,0,1-.35,2.26c0,.11-.22.19-.34.22a11.84,11.84,0,0,1-6.36.1,6,6,0,0,1-4.42-5.82A10.58,10.58,0,0,1,37,68.75a6.1,6.1,0,0,1,5.56-4.87,17.91,17.91,0,0,1,4.51.39c.4.06.81,0,1.22.07v2.48a.9.9,0,0,1-.18,0c-1-2-2.85-2.39-4.75-2.38-2.78,0-4.32,1.58-4.65,4.39a8.12,8.12,0,0,0,1.17,5.63,5.34,5.34,0,0,0,5.9,2.31,3.24,3.24,0,0,0,2.34-1.9,1.31,1.31,0,0,1,.17-.24"/><path class="cls-2" d="M89.92,77.42H85.09s0-.07,0-.11a2.09,2.09,0,0,1,.41-.17c.82-.22,1-.44,1.11-1.34.05-.52.08-1,.08-1.57,0-2.91,0-5.82,0-8.72,0-.57-.17-.74-.68-.7-.74,0-1.49,0-2.23.08a1.51,1.51,0,0,0-1.54,1.23L82.08,66c.1-.73.19-1.47.29-2.2a79.59,79.59,0,0,0,10.47.11V66c-.1,0-.16,0-.16,0A1.43,1.43,0,0,0,91,64.86c-.76,0-1.52,0-2.28,0-.33,0-.46.12-.46.47,0,3.49,0,7,.09,10.46,0,1.11.16,1.2,1.2,1.41a1.74,1.74,0,0,1,.36.13.59.59,0,0,1,0,.13"/><path class="cls-2" d="M80.61,64c0,.8.09,1.6.13,2.4h-.12a.91.91,0,0,1-.09-.17,2.69,2.69,0,0,0-3.26-1.82,2.16,2.16,0,0,0-1.1,3.53,7.65,7.65,0,0,0,1.4,1.2c.71.52,1.48,1,2.17,1.49a3.51,3.51,0,0,1,1.46,3.65,3.84,3.84,0,0,1-2.81,3,5.72,5.72,0,0,1-3.78-.25c-.11,0-.28-.17-.28-.27,0-.78,0-1.57,0-2.43.1.08.16.1.16.14a2.73,2.73,0,0,0,5.45-.37,2,2,0,0,0-.69-1.53c-.59-.52-1.23-1-1.86-1.47s-1.37-.94-2-1.5a3.15,3.15,0,0,1-.91-3.41,3.09,3.09,0,0,1,2.7-2.3,17.25,17.25,0,0,1,2.49,0l.93,0"/><path class="cls-2" d="M0,77.31l.27-.1c1-.27,1.14-.44,1.15-1.5q0-4.89,0-9.8c0-1.2-.1-1.27-1.16-1.64a1.63,1.63,0,0,1-.29-.2H4.63l0,.08a2.64,2.64,0,0,1-.47.17c-.7.17-.89.37-1,1.13a12.07,12.07,0,0,0-.08,1.47c0,2.63,0,5.27.07,7.9a8.5,8.5,0,0,0,.07.87c.11.89.16,1,1,1s1.69,0,2.53-.08a1.74,1.74,0,0,0,1.59-1.15l.12.06a4.72,4.72,0,0,1-.13.54c-.19.48-.28,1.13-.62,1.37s-.94,0-1.42,0H0s0-.11,0-.16"/><path class="cls-2" d="M64,77.4c.13-.1.17-.15.21-.16,1-.13,1.27-.87,1.28-1.75,0-3.25.06-6.49,0-9.74,0-1.19-.1-1.22-1.18-1.56a1.61,1.61,0,0,1-.2-.18h4.43s0,.08,0,.12a1.72,1.72,0,0,1-.29.11c-.81.21-1,.41-1,1.31,0,.65-.07,1.3-.06,2q0,3.67.06,7.34c0,.24,0,.48,0,.71.13,1.13.3,1.32,1.35,1.61a.45.45,0,0,1,.25.23Z"/></svg>