<svg xmlns="http://www.w3.org/2000/svg" xmlns:xlink="http://www.w3.org/1999/xlink" viewBox="0 0 19.38 14.77"><defs><style>.cls-1,.cls-13,.cls-18,.cls-23,.cls-28,.cls-33,.cls-38,.cls-43,.cls-48,.cls-53,.cls-58,.cls-63,.cls-68,.cls-8{isolation:isolate;}.cls-1{filter:url(#luminosity-noclip-14);}.cls-2{mask:url(#mask);}.cls-3{mix-blend-mode:multiply;}.cls-4{clip-path:url(#clip-path);}.cls-5{fill:none;}.cls-6{clip-path:url(#clip-path-2);}.cls-7{fill:url(#linear-gradient);}.cls-8{filter:url(#luminosity-noclip-19);}.cls-9{mask:url(#mask-2);}.cls-10{clip-path:url(#clip-path-3);}.cls-11{clip-path:url(#clip-path-4);}.cls-12{fill:url(#linear-gradient-2);}.cls-13{filter:url(#luminosity-noclip-20);}.cls-14{mask:url(#mask-3);}.cls-15{clip-path:url(#clip-path-5);}.cls-16{clip-path:url(#clip-path-6);}.cls-17{fill:url(#linear-gradient-3);}.cls-18{filter:url(#luminosity-noclip-21);}.cls-19{mask:url(#mask-4);}.cls-20{clip-path:url(#clip-path-7);}.cls-21{clip-path:url(#clip-path-8);}.cls-22{fill:url(#linear-gradient-4);}.cls-23{filter:url(#luminosity-noclip-22);}.cls-24{mask:url(#mask-5);}.cls-25{clip-path:url(#clip-path-9);}.cls-26{clip-path:url(#clip-path-10);}.cls-27{fill:url(#linear-gradient-5);}.cls-28{filter:url(#luminosity-noclip-23);}.cls-29{mask:url(#mask-6);}.cls-30{clip-path:url(#clip-path-11);}.cls-31{clip-path:url(#clip-path-12);}.cls-32{fill:url(#linear-gradient-6);}.cls-33{filter:url(#luminosity-noclip-15);}.cls-34{mask:url(#mask-7);}.cls-35{clip-path:url(#clip-path-13);}.cls-36{clip-path:url(#clip-path-14);}.cls-37{fill:url(#linear-gradient-7);}.cls-38{filter:url(#luminosity-noclip-24);}.cls-39{mask:url(#mask-8);}.cls-40{clip-path:url(#clip-path-15);}.cls-41{clip-path:url(#clip-path-16);}.cls-42{fill:url(#linear-gradient-8);}.cls-43{filter:url(#luminosity-noclip-25);}.cls-44{mask:url(#mask-9);}.cls-45{clip-path:url(#clip-path-17);}.cls-46{clip-path:url(#clip-path-18);}.cls-47{fill:url(#linear-gradient-9);}.cls-48{filter:url(#luminosity-noclip-26);}.cls-49{mask:url(#mask-10);}.cls-50{clip-path:url(#clip-path-19);}.cls-51{clip-path:url(#clip-path-20);}.cls-52{fill:url(#linear-gradient-10);}.cls-53{filter:url(#luminosity-noclip-16);}.cls-54{mask:url(#mask-11);}.cls-55{clip-path:url(#clip-path-21);}.cls-56{clip-path:url(#clip-path-22);}.cls-57{fill:url(#linear-gradient-11);}.cls-58{filter:url(#luminosity-noclip-17);}.cls-59{mask:url(#mask-12);}.cls-60{clip-path:url(#clip-path-23);}.cls-61{clip-path:url(#clip-path-24);}.cls-62{fill:url(#linear-gradient-12);}.cls-63{filter:url(#luminosity-noclip-18);}.cls-64{mask:url(#mask-13);}.cls-65{clip-path:url(#clip-path-25);}.cls-66{clip-path:url(#clip-path-26);}.cls-67{fill:url(#linear-gradient-13);}.cls-69{clip-path:url(#clip-path-27);}.cls-70{clip-path:url(#clip-path-28);}.cls-71{opacity:0.4;}.cls-72{clip-path:url(#clip-path-29);}.cls-73{clip-path:url(#clip-path-30);}.cls-74{opacity:0.7;mix-blend-mode:soft-light;}.cls-75{clip-path:url(#clip-path-32);}.cls-76{mask:url(#mask-14);}.cls-77{clip-path:url(#clip-path-33);}.cls-78{clip-path:url(#clip-path-34);}.cls-79{fill:url(#linear-gradient-14);}.cls-80{mask:url(#mask-15);}.cls-81{clip-path:url(#clip-path-35);}.cls-82{clip-path:url(#clip-path-36);}.cls-83{fill:url(#linear-gradient-15);}.cls-84{mask:url(#mask-16);}.cls-85{clip-path:url(#clip-path-37);}.cls-86{clip-path:url(#clip-path-38);}.cls-87{fill:url(#linear-gradient-16);}.cls-88{mask:url(#mask-17);}.cls-89{clip-path:url(#clip-path-39);}.cls-90{clip-path:url(#clip-path-40);}.cls-91{fill:url(#linear-gradient-17);}.cls-92{mask:url(#mask-18);}.cls-93{clip-path:url(#clip-path-41);}.cls-94{clip-path:url(#clip-path-42);}.cls-95{fill:url(#linear-gradient-18);}.cls-96{mask:url(#mask-19);}.cls-97{clip-path:url(#clip-path-43);}.cls-98{clip-path:url(#clip-path-44);}.cls-99{fill:url(#linear-gradient-19);}.cls-100{mask:url(#mask-20);}.cls-101{clip-path:url(#clip-path-45);}.cls-102{clip-path:url(#clip-path-46);}.cls-103{fill:url(#linear-gradient-20);}.cls-104{mask:url(#mask-21);}.cls-105{clip-path:url(#clip-path-47);}.cls-106{clip-path:url(#clip-path-48);}.cls-107{fill:url(#linear-gradient-21);}.cls-108{mask:url(#mask-22);}.cls-109{clip-path:url(#clip-path-49);}.cls-110{clip-path:url(#clip-path-50);}.cls-111{fill:url(#linear-gradient-22);}.cls-112{mask:url(#mask-23);}.cls-113{clip-path:url(#clip-path-51);}.cls-114{clip-path:url(#clip-path-52);}.cls-115{fill:url(#linear-gradient-23);}.cls-116{mask:url(#mask-24);}.cls-117{clip-path:url(#clip-path-53);}.cls-118{clip-path:url(#clip-path-54);}.cls-119{fill:url(#linear-gradient-24);}.cls-120{clip-path:url(#clip-path-56);}.cls-121{clip-path:url(#clip-path-57);}.cls-122{clip-path:url(#clip-path-59);}.cls-123{mask:url(#mask-25);}.cls-124{clip-path:url(#clip-path-60);}.cls-125{clip-path:url(#clip-path-61);}.cls-126{fill:url(#linear-gradient-25);}.cls-127{mask:url(#mask-26);}.cls-128{clip-path:url(#clip-path-62);}.cls-129{clip-path:url(#clip-path-63);}.cls-130{fill:url(#linear-gradient-26);}.cls-131{fill:#fff;}.cls-132{filter:url(#luminosity-noclip-13);}.cls-133{filter:url(#luminosity-noclip-12);}.cls-134{filter:url(#luminosity-noclip-11);}.cls-135{filter:url(#luminosity-noclip-10);}.cls-136{filter:url(#luminosity-noclip-9);}.cls-137{filter:url(#luminosity-noclip-8);}.cls-138{filter:url(#luminosity-noclip-7);}.cls-139{filter:url(#luminosity-noclip-6);}.cls-140{filter:url(#luminosity-noclip-5);}.cls-141{filter:url(#luminosity-noclip-4);}.cls-142{filter:url(#luminosity-noclip-3);}.cls-143{filter:url(#luminosity-noclip-2);}.cls-144{filter:url(#luminosity-noclip);}</style><filter id="luminosity-noclip" x="-110.5" y="-6107.42" width="369.93" height="32766" filterUnits="userSpaceOnUse" color-interpolation-filters="sRGB"><feFlood flood-color="#fff" result="bg"/><feBlend in="SourceGraphic" in2="bg"/></filter><mask id="mask" x="-110.5" y="-6107.42" width="369.93" height="32766" maskUnits="userSpaceOnUse"><g class="cls-144"/></mask><clipPath id="clip-path"><rect class="cls-5" x="-109.64" y="-271.84" width="363.68" height="729.02"/></clipPath><clipPath id="clip-path-2"><path class="cls-5" d="M100.17,293.43C94,301.2,89.24,304.55,85.58,305.51c-20.73,5.41-42.63,40.79-63.82,75-24.39,39.4-47.44,76.62-71,76.66-10,0-19.06-6.67-27.63-20.42-25.63-41.12-31.94-118-32.71-175.3-1-70.69,5.94-136.09,10.81-162.81l1.23.22-1.23-.22C-84,18-70.73-52.77-56.6-102.61c14.92-52.6,30.16-80.62,49.4-90.84,11.21-6,23.72-5.76,38.23.62,20.19,8.86,39.21,9.53,59.86,2.1,18.74-6.75,37.23-19.62,56.79-33.24,23.68-16.47,50.51-35.15,83.31-46.79,5.5-1.95,10.13-1.27,13.77,2,9.21,8.32,11.58,33.79,7.05,75.7-4,36.83-13.29,85.84-26.94,141.74-19.34,79.15-46.16,166.83-71.76,234.54-24,63.34-41,95.11-52.94,110.2M52.91,329.38c10.7-13.54,21.43-23.52,32-26.29,14.23-3.72,38.22-47.73,65.83-120.74,25.57-67.62,52.36-155.2,71.67-234.26,29.27-119.85,37-200.22,20.64-215-2.94-2.66-6.62-3.15-11.25-1.51-32.49,11.53-59.17,30.1-82.72,46.49C109.56-194.39,75.41-170.62,30-190.54c-13.77-6.05-25.57-6.28-36.06-.7C-45.37-170.34-66-67.3-96.28,99.1-101.13,125.72-108,190.92-107,261.43c.77,56.95,7,133.38,32.33,174,8.08,13,16.42,19.25,25.5,19.24,22.15,0,45.9-38.39,68.86-75.47,11-17.7,22.1-35.7,33.27-49.83"/></clipPath><linearGradient id="linear-gradient" x1="98.37" y1="484.42" x2="99.37" y2="484.42" gradientTransform="matrix(363.68, 0, 0, -363.68, -35883.58, 176268.27)" gradientUnits="userSpaceOnUse"><stop offset="0" stop-color="#fff"/><stop offset="0.03" stop-color="#d4d3d4"/><stop offset="0.15" stop-color="#231f20"/><stop offset="0.39" stop-color="#fff"/><stop offset="0.63" stop-color="#e6e7e8"/><stop offset="0.86" stop-color="#414042"/><stop offset="1" stop-color="#231f20"/><stop offset="1" stop-color="#231f20"/></linearGradient><filter id="luminosity-noclip-2" x="-69.12" y="-6107.42" width="239.74" height="32766" filterUnits="userSpaceOnUse" color-interpolation-filters="sRGB"><feFlood flood-color="#fff" result="bg"/><feBlend in="SourceGraphic" in2="bg"/></filter><mask id="mask-2" x="-69.12" y="-6107.42" width="239.74" height="32766" maskUnits="userSpaceOnUse"><g class="cls-143"/></mask><clipPath id="clip-path-3"><rect class="cls-5" x="-63.99" y="-81.6" width="228.23" height="420.98"/></clipPath><clipPath id="clip-path-4"><path class="cls-5" d="M86.5,244.34c-2.51,3.17-4.87,5.28-7,6.13-11.34,4.18-23.69,23.82-35.64,42.81C29.64,315.82,15,339.13.61,339.39c-5.81.1-11-3.39-16-10.67C-38.28,302.34-69.12,225-63.27,176.26c4.21-22.26,8.3-45.21,8.05-60.48v-.15C-39.73,17.73-23.32-29.44-.33-42.1c8.42-4.63,17.65-4.66,28.21-.11h0C54.09-30.83,74.2-43.27,97.49-57.67,111-66,126.4-75.56,144.77-81.35l.12,0c8.05-1.33,13.66,3.56,16.69,14.53,9,32.8-6.45,113.27-24,177.63-14.75,54.2-35.69,114-51.13,133.56m-24.86,19.4c5.79-7.34,11.5-12.8,17.2-14.9,12.6-4.94,36.62-63.2,57.11-138.52,17.44-64.14,32.9-144.24,24-176.7-2.78-10.09-7.58-14.44-14.67-13.29C127.1-73.94,111.86-64.51,98.4-56.19,74.7-41.53,54.23-28.87,27.18-40.61h0c-10-4.33-18.76-4.32-26.68,0-22.46,12.37-38.61,59.14-54,156.39.24,15.44-3.86,38.46-8.07,60.71-5.79,48.3,24.82,125,47.5,151.09l.07.08c4.61,6.78,9.37,10,14.56,9.94C14,337.4,28.42,314.5,42.35,292.36c6.59-10.48,13-20.66,19.29-28.62"/></clipPath><linearGradient id="linear-gradient-2" x1="98.37" y1="484.43" x2="99.37" y2="484.43" gradientTransform="matrix(228.23, 0, 0, -228.23, -22514.39, 110690.18)" xlink:href="#linear-gradient"/><filter id="luminosity-noclip-3" x="-60.34" y="-6107.42" width="207.98" height="32766" filterUnits="userSpaceOnUse" color-interpolation-filters="sRGB"><feFlood flood-color="#fff" result="bg"/><feBlend in="SourceGraphic" in2="bg"/></filter><mask id="mask-3" x="-60.34" y="-6107.42" width="207.98" height="32766" maskUnits="userSpaceOnUse"><g class="cls-142"/></mask><clipPath id="clip-path-5"><rect class="cls-5" x="-54.99" y="-43.59" width="201.54" height="359.42"/></clipPath><clipPath id="clip-path-6"><path class="cls-5" d="M83.86,234.45a16.64,16.64,0,0,1-5.62,5c-9.46,3.92-19.88,20.39-30,36.32-12.36,19.54-25.14,39.74-37.69,40.05-4.9.12-9.5-2.81-13.68-8.71-21.13-21.45-57.24-92.41-51.22-133.32,3.86-16.06,8.86-39.1,7.81-54.61V119C-35,41.34-20-.22.67-11.77c7.87-4.4,16.81-4.5,26.57-.31h0c22.63,9.78,40-.45,60.21-12.3C99-31.16,112.05-38.84,127.52-43.47l.15,0c7.86-.84,13.35,4.29,16.3,15.24,3.6,13.35,3.44,35-.48,64.34-3.42,25.63-9.54,55.61-17.7,86.71-11.84,45.14-29,95.29-41.93,111.66M63.39,250.61c4.81-6.08,9.54-10.67,14.22-12.61,10.71-4.79,30.32-53.42,46.64-115.61C145.59,41.05,147.64-8.55,142.43-27.85c-2.7-10-7.59-14.78-14.52-14.08C112.65-37.35,100.25-30.06,88.26-23,67.73-10.94,50-.52,26.62-10.62c-9.42-4-17.65-4-25.17.23C-18.76.9-33.5,42.07-44.92,119.17c1,15.72-4,38.87-7.84,54.93-6,40.42,29.91,110.75,50.84,132l.08.1c3.92,5.56,8,8.2,12.38,8.09,11.7-.29,24.25-20.13,36.39-39.31,5.63-8.9,11.1-17.54,16.46-24.32"/></clipPath><linearGradient id="linear-gradient-3" x1="98.37" y1="484.42" x2="99.37" y2="484.42" gradientTransform="matrix(201.54, 0, 0, -201.54, -19879.99, 97768.09)" xlink:href="#linear-gradient"/><filter id="luminosity-noclip-4" x="-51.66" y="-6107.42" width="190.29" height="32766" filterUnits="userSpaceOnUse" color-interpolation-filters="sRGB"><feFlood flood-color="#fff" result="bg"/><feBlend in="SourceGraphic" in2="bg"/></filter><mask id="mask-4" x="-51.66" y="-6107.42" width="190.29" height="32766" maskUnits="userSpaceOnUse"><g class="cls-141"/></mask><clipPath id="clip-path-7"><rect class="cls-5" x="-46.02" y="-5.63" width="175.09" height="297.92"/></clipPath><clipPath id="clip-path-8"><path class="cls-5" d="M38.5,279.15c-6,7.55-12,12.92-17.95,13.13-4.07.15-7.88-2.13-11.35-6.76-19.57-16.65-60.86-80.33-54.58-114.19l0-.08c6.46-20.75,9-37.11,7.56-48.64v-.19C-30,63.86-16.81,28.93,1.34,18.59c7.53-4.29,16-4.47,25.27-.54h0c19.06,8.19,33.78.17,50.82-9.12,9.49-5.18,20.25-11,32.85-14.52l.16,0c7.76-.27,13.17,5.15,16.09,16.13,6,22.39,1.28,68.81-12.48,124.17-5.77,23.19-12.59,45.35-19.2,62.4C90,209.67,82.93,225.34,77,228.44c-7.58,3.64-16.06,16.94-24.26,29.79-4.7,7.37-9.48,14.85-14.27,20.92M-44,171.63c-3.62,19.65,9.45,47.76,17.57,62.77,11.19,20.71,26.24,41.3,36.59,50.08l.11.12c3.23,4.33,6.56,6.37,10.2,6.24,10-.36,20.7-17.14,31.05-33.38,8.7-13.63,16.91-26.5,24.83-30.31,18.24-9.6,62.24-165.57,48.77-216.27C122.44.68,117.54-4.39,110.59-4.18,98.19-.74,88,4.82,78.12,10.19c-17.36,9.47-32.36,17.64-52.07,9.18-8.81-3.75-16.88-3.59-24,.47C-15.67,29.94-28.6,64.49-36.36,122.52c1.44,11.72-1.12,28.25-7.61,49.11"/></clipPath><linearGradient id="linear-gradient-4" x1="98.37" y1="484.42" x2="99.37" y2="484.42" gradientTransform="matrix(175.09, 0, 0, -175.09, -17269.33, 84962.82)" xlink:href="#linear-gradient"/><filter id="luminosity-noclip-5" x="-48.11" y="-6107.42" width="1035.95" height="32766" filterUnits="userSpaceOnUse" color-interpolation-filters="sRGB"><feFlood flood-color="#fff" result="bg"/><feBlend in="SourceGraphic" in2="bg"/></filter><mask id="mask-5" x="-48.11" y="-6107.42" width="1035.95" height="32766" maskUnits="userSpaceOnUse"><g class="cls-140"/></mask><clipPath id="clip-path-9"><rect class="cls-5" x="-42.3" y="-217.81" width="1029.87" height="1580.8"/></clipPath><clipPath id="clip-path-10"><path class="cls-5" d="M613.82,1150.56q-20.87,26.4-41.43,49.9c-75.15,85.86-143.17,138.34-202.15,156-60.35,18-109.79-1.22-146.94-57.25C110.52,1129.06,54.86,1005.63,18,924c-16.57-36.77-29.67-65.8-42.17-85.85l1.06-.66-1.06.66c-20.79-33.34-24-108.53-8.28-196.21,16.89-94.36,51.49-182.33,95-241.36C122.45,319.11,167.71,215,195.13,141.92c31.93-85.08,58.4-178.48,70.79-249.86,8-46.08,33.5-79.57,73.77-96.84,69.71-29.91,174.53-7.46,273.54,58.59,46.93,31.3,95.46,63.68,140.14,97.65C802.76-11,842,24.56,873.24,60.12c37.34,42.46,64.65,86,83.48,133.25,21,52.71,31.12,108.73,30.85,171.27-.47,106.82-88.91,332.9-215.07,549.77-51.61,88.71-105.74,169.2-158.68,236.15M294-167.26c-12.87,16.27-21.52,36.35-25.58,59.75C256-36,229.45,57.58,197.47,142.8,170,216,124.63,320.36,64.53,402,21.29,460.74-13.15,548.34-30,642.33-45.55,729.43-42.51,803.94-22,836.78-9.44,857,3.69,886.07,20.3,922.92c36.8,81.61,92.41,204.93,205.08,374.88,36.47,55,85,73.94,144.14,56.24,58.53-17.5,126.15-69.72,201-155.22,65.63-75,134.73-173.76,199.83-285.67,126-216.53,214.27-442.09,214.73-548.52.27-62.21-9.77-117.93-30.67-170.33-18.73-46.94-45.89-90.29-83-132.53C801.68-17.48,705.17-81.86,611.84-144.11c-98.32-65.59-202.22-88-271.17-58.38-19,8.17-34.7,20.05-46.71,35.23"/></clipPath><linearGradient id="linear-gradient-5" x1="98.37" y1="484.43" x2="99.37" y2="484.43" gradientTransform="matrix(1029.88, 0, 0, -1029.88, -101347.28, 499468.27)" xlink:href="#linear-gradient"/><filter id="luminosity-noclip-6" x="-22.82" y="-6107.42" width="956.76" height="32766" filterUnits="userSpaceOnUse" color-interpolation-filters="sRGB"><feFlood flood-color="#fff" result="bg"/><feBlend in="SourceGraphic" in2="bg"/></filter><mask id="mask-6" x="-22.82" y="-6107.42" width="956.76" height="32766" maskUnits="userSpaceOnUse"><g class="cls-139"/></mask><clipPath id="clip-path-11"><rect class="cls-5" x="-17.05" y="-154.58" width="950.69" height="1458.27"/></clipPath><clipPath id="clip-path-12"><path class="cls-5" d="M589.45,1113.57q-16.51,20.88-32.8,39.74c-68.41,79.15-130.34,127.65-184.07,144.15-54.31,16.68-98.88-.15-132.47-50C137.54,1097.57,82.21,982,45.59,905.54c-17.19-35.89-30.76-64.25-43.5-84.43C-18.49,788.47-22.82,717.66-9.2,636.33,5.38,549.25,37,467,77.61,410.57c54.93-75.38,97.09-170.93,122.79-237.81,30.18-78.57,54.78-161.63,67.49-227.9,8-41.81,31.94-72.15,69.16-87.74,64.61-27.07,161-6.38,251.63,54h0c85.54,56.87,174,115.68,239.18,190,34.34,39.15,59.5,79.34,76.92,122.87,19.44,48.57,28.88,100.15,28.87,157.69.29,98.8-79.81,307.65-194.8,507.9-48.52,84.5-99.57,161-149.4,224M293.47-107.5C282-93,274.14-75.27,270.19-54.69c-12.73,66.39-37.37,149.6-67.6,228.29-25.75,67-68,162.76-123.08,238.35C39.13,468.05,7.64,550-6.89,636.72c-13.52,80.79-9.32,151,11,183.13,12.82,20.31,26.42,48.71,43.64,84.68,36.58,76.4,91.86,191.86,194.34,341.59,32.95,48.92,76.63,65.43,129.84,49.1s114.86-64.63,183-143.45c59.86-69.26,122.77-160.33,181.93-263.36C851.62,688.49,931.6,480.11,931.3,381.69c0-57.25-9.37-108.54-28.7-156.83-17.32-43.28-42.35-83.25-76.51-122.2-65-74.09-153.3-132.81-238.71-189.6h0c-90-59.94-185.53-80.54-249.42-53.78-18.17,7.61-33.1,18.82-44.49,33.22"/></clipPath><linearGradient id="linear-gradient-6" x1="98.37" y1="484.43" x2="99.37" y2="484.43" gradientTransform="matrix(950.69, 0, 0, -950.69, -93533.06, 461112.02)" xlink:href="#linear-gradient"/><filter id="luminosity-noclip-7" x="-101.59" y="-6107.42" width="351.96" height="32766" filterUnits="userSpaceOnUse" color-interpolation-filters="sRGB"><feFlood flood-color="#fff" result="bg"/><feBlend in="SourceGraphic" in2="bg"/></filter><mask id="mask-7" x="-101.59" y="-6107.42" width="351.96" height="32766" maskUnits="userSpaceOnUse"><g class="cls-138"/></mask><clipPath id="clip-path-13"><rect class="cls-5" x="-100.27" y="-233.77" width="336.27" height="667.39"/></clipPath><clipPath id="clip-path-14"><path class="cls-5" d="M97.23,283.77c-4.72,6-9,9.67-12.88,10.73-18.85,5.18-38.85,37.41-58.19,68.59-22.48,36.23-43.71,70.45-65.41,70.53-9.18,0-17.46-6-25.31-18.47-14-21.52-24.56-57.25-30.52-103.3A690.88,690.88,0,0,1-99,186.1c3.06-42.41,7.66-75,9-84,14.49-80.84,26-139.57,38.49-182.66,13.64-46.95,28.21-73.2,45.85-82.62,10.61-5.66,22.42-5.5,36.1.49,18.55,8.14,36,8.8,55,2.09,17.24-6.1,34.23-17.76,52.22-30.1,21.65-14.85,46.19-31.69,76.11-42.16,5.29-1.72,9.72-1,13.21,2.26,23.41,21.67-4.57,149.82-17.68,203.92-30.69,126.58-80.16,270.13-112,310.47M54.63,316.3c9.73-12.3,19.47-21.42,29.1-24.06C111.84,284.44,172,117.12,207-27.25c27.11-111.82,34-187.2,18.36-201.64-2.85-2.64-6.4-3.22-10.86-1.76-29.6,10.35-54,27.1-75.53,41.87-36.38,25-67.8,46.51-109.51,28.22-13-5.68-24.12-5.87-34.06-.57C-41.51-141.42-61.48-44-87.72,102.46c-1.33,8.93-5.93,41.48-9,83.79a687.6,687.6,0,0,0,4,125.29c5.91,45.72,16.34,81.1,30.17,102.34,7.39,11.73,15,17.42,23.32,17.39,20.4-.07,42.27-35.33,63.43-69.42,10-16.16,20.24-32.62,30.46-45.55"/></clipPath><linearGradient id="linear-gradient-7" x1="98.37" y1="484.42" x2="99.37" y2="484.42" gradientTransform="matrix(336.27, 0, 0, -336.27, -33177.52, 162995.15)" xlink:href="#linear-gradient"/><filter id="luminosity-noclip-8" x="2.3" y="-6107.42" width="877.95" height="32766" filterUnits="userSpaceOnUse" color-interpolation-filters="sRGB"><feFlood flood-color="#fff" result="bg"/><feBlend in="SourceGraphic" in2="bg"/></filter><mask id="mask-8" x="2.3" y="-6107.42" width="877.95" height="32766" maskUnits="userSpaceOnUse"><g class="cls-137"/></mask><clipPath id="clip-path-15"><rect class="cls-5" x="7.91" y="-91.35" width="871.83" height="1335.79"/></clipPath><clipPath id="clip-path-16"><path class="cls-5" d="M565.23,1076.52Q553,1092,540.92,1106.19c-61.68,72.46-117.53,117-166,132.33-48.28,15.3-88,.89-118-42.82-93-130.59-145.85-234.3-184.44-310C55,851.31,41.13,824.17,28.32,804.11,7.64,771.67,2.3,706.88,14,630.77c12.3-79.83,41-156.43,78.69-210.15,90.49-125.7,155.51-321.81,177.15-423,8.05-37.55,30.38-64.75,64.57-78.66,59.51-24.2,147.52-5.27,229.7,49.41,74,49,157.89,104.57,218.34,173.7,31.34,35.84,54.36,72.64,70.38,112.5,17.84,44.42,26.64,91.56,26.88,144.11.52,45.55-16.46,115.27-49.1,201.61C799.26,683.28,754.72,777.2,705.2,864.79c-45.36,80.25-93.29,152.69-140,211.73M292.92-47.73C282.87-35,275.81-19.63,272-1.88,250.33,99.45,185.17,295.93,94.5,421.89,57,475.34,28.44,551.6,16.2,631.11c-11.65,75.59-6.43,139.82,14,171.81C43,823.08,56.89,850.26,74.43,884.68,113,960.34,165.78,1064,258.71,1194.44c29.43,42.84,68.31,57,115.56,42,48.06-15.22,103.57-59.52,165-131.67,54.09-63.55,110.82-146.9,164-241,49.47-87.5,94-181.31,125.28-264.15,32.56-86.09,49.48-155.54,49-200.82-.24-52.28-9-99.15-26.72-143.31-15.92-39.63-38.82-76.23-70-111.87-60.26-68.92-144-124.38-217.9-173.32h0C481.33-84,394.1-102.89,335.26-79c-17.33,7-31.56,17.59-42.34,31.23"/></clipPath><linearGradient id="linear-gradient-8" x1="98.37" y1="484.43" x2="99.37" y2="484.43" gradientTransform="matrix(871.83, 0, 0, -871.83, -85750.27, 422909.09)" xlink:href="#linear-gradient"/><filter id="luminosity-noclip-9" x="-270.14" y="-6107.42" width="379.08" height="32766" filterUnits="userSpaceOnUse" color-interpolation-filters="sRGB"><feFlood flood-color="#fff" result="bg"/><feBlend in="SourceGraphic" in2="bg"/></filter><mask id="mask-9" x="-270.14" y="-6107.42" width="379.08" height="32766" maskUnits="userSpaceOnUse"><g class="cls-136"/></mask><clipPath id="clip-path-17"><rect class="cls-5" x="-267.31" y="-366.05" width="375.2" height="668.49"/></clipPath><clipPath id="clip-path-18"><path class="cls-5" d="M18.82-348.79c9.49-12,18.45-17.77,26.82-17.23,10.73.69,20.36,11.74,28.63,32.83,9,22.87,16.67,58.29,22.91,105.29,8.25,62.22,11.76,119.65,10.43,170.69-1.15,44.34-6,85.26-14.43,121.62C78.44,128.07,55.12,169.47,32.11,204.73c-24.66,37.79-53,65.06-84.19,81.06-27.14,13.92-55.9,19.14-85.49,15.54C-199.22,293.82-250.14,249-263.76,210c-6.38-18.3-4.11-34.26,6.39-44.91,44.49-45.13,80.61-87.79,110.45-130.45,41.12-58.78,69.56-117,84.51-173,10.69-40.06,27.52-97.83,47-145.54q18.08-44.31,34.26-64.8M31.07,204,30,203.36C52.9,168.3,76.09,127.13,90.75,63.84,99.13,27.65,104-13.1,105.12-57.28c1.32-50.91-2.18-108.2-10.42-170.29-6.21-46.8-13.86-82-22.75-104.71-7.89-20.11-16.79-30.62-26.48-31.25C29-364.59,8.77-336.76-13.12-283-32.52-235.46-49.32-177.79-60-137.8-75-81.48-103.58-23-144.87,36-174.79,78.79-211,121.57-255.59,166.79c-9.8,10-11.86,25-5.81,42.34,13.37,38.3,63.45,82.33,124.13,89.72,29.09,3.54,57.36-1.6,84.05-15.28C-22.4,267.77,5.6,240.79,30,203.36Z"/></clipPath><linearGradient id="linear-gradient-9" x1="98.37" y1="484.43" x2="99.37" y2="484.43" gradientTransform="matrix(-375.2, 0, 0, 375.2, 37014.62, -181786.07)" xlink:href="#linear-gradient"/><filter id="luminosity-noclip-10" x="-249.42" y="-6107.42" width="354.58" height="32766" filterUnits="userSpaceOnUse" color-interpolation-filters="sRGB"><feFlood flood-color="#fff" result="bg"/><feBlend in="SourceGraphic" in2="bg"/></filter><mask id="mask-10" x="-249.42" y="-6107.42" width="354.58" height="32766" maskUnits="userSpaceOnUse"><g class="cls-135"/></mask><clipPath id="clip-path-19"><rect class="cls-5" x="-246.54" y="-335.43" width="346.58" height="618.94"/></clipPath><clipPath id="clip-path-20"><path class="cls-5" d="M20.51-319.58c8.74-11.05,17-16.35,24.65-15.81,20.67,1.43,36.08,43.14,47.1,127.51C105.16-98.4,102-5.57,82.9,68.06c-15.51,59.75-38.29,97.29-60.61,129C.1,230.38-25.18,254.49-52.83,268.67c-24.16,12.39-49.65,17.05-75.78,13.87-18-2.2-45.24-9.35-72.73-31-19.53-15.34-34.58-34.88-41.3-53.61-6.78-18.89-4.66-35.44,5.95-46.6C-158.5,67.05-82.11-25.69-52.82-132.32c10-36.22,25.46-88.19,42.78-130.06q16.11-38.94,30.55-57.2M6.67,214.59q7-8.88,13.69-18.9c22.2-31.51,44.86-68.83,60.27-128.22,19-73.35,22.16-165.89,9.3-275.06-5.64-43.16-12.62-75.67-20.74-96.6C62-322.73,53.85-332.44,45-333c-15-1-32.79,23-52.87,71.57-17.28,41.76-32.75,93.62-42.68,129.78C-80-24.58-156.58,68.43-235,153c-10,10.51-11.92,26.2-5.46,44.21,6.57,18.32,21.35,37.48,40.54,52.56,14.94,11.74,39.48,26.55,71.57,30.46,25.65,3.13,50.69-1.46,74.42-13.63,21.78-11.17,42.08-28.61,60.57-52"/></clipPath><linearGradient id="linear-gradient-10" x1="98.37" y1="484.43" x2="99.37" y2="484.43" gradientTransform="matrix(-346.58, 0, 0, 346.58, 34191.55, -167916.11)" xlink:href="#linear-gradient"/><filter id="luminosity-noclip-11" x="-92.63" y="-6107.42" width="319.76" height="32766" filterUnits="userSpaceOnUse" color-interpolation-filters="sRGB"><feFlood flood-color="#fff" result="bg"/><feBlend in="SourceGraphic" in2="bg"/></filter><mask id="mask-11" x="-92.63" y="-6107.42" width="319.76" height="32766" maskUnits="userSpaceOnUse"><g class="cls-134"/></mask><clipPath id="clip-path-21"><rect class="cls-5" x="-91.11" y="-195.7" width="309.08" height="605.76"/></clipPath><clipPath id="clip-path-22"><path class="cls-5" d="M94.7,273.81c-4.19,5.29-8.08,8.64-11.57,9.68-17,4.94-35.07,34-52.57,62.16-20.56,33.06-40,64.29-59.84,64.41-8.34.05-15.86-5.36-23-16.53-13.37-19.49-24.59-53-31.58-94.48-6.5-38.5-8.78-80.57-6.25-115.41,2.17-23.27,4.7-44.25,6.74-61.1.79-6.55,1.48-12.21,2-17,10.5-59.81,22-121,34.83-164,12.54-42,26-65.66,42.27-74.4,10-5.38,21.15-5.26,34,.36,36.94,16.17,65.16-2.86,97.83-24.89,19.63-13.23,41.87-28.23,68.9-37.52,11.09-3.27,16.16,5.38,18.48,13.21,12.15,41.07-14.79,163.71-41.56,256.25-24.25,83.84-55.89,170.46-78.72,199.34M56.48,303c8.71-11,17.34-19,26-21.56,18.53-5.52,55.05-90.85,88.8-207.53C187.11,19.25,200-35.06,207.64-79c8.57-49.4,10.38-84.71,5.23-102.11-3-10.13-8.13-14-15.7-11.74-26.71,9.19-48.83,24.1-68.34,37.26-33.21,22.39-61.9,41.72-99.94,25.07C16.69-135.9,6.19-136-3.21-131c-32.07,17.21-50.74,93.26-76,236.82-.53,4.76-1.22,10.43-2,17-2,16.85-4.57,37.81-6.73,61-2.51,34.66-.24,76.53,6.23,114.87,6.94,41.12,18,74.37,31.24,93.63,6.71,10.51,13.62,15.58,21.14,15.54,18.66-.11,38.66-32.27,58-63.37,9.47-15.22,18.67-30,27.78-41.54"/></clipPath><linearGradient id="linear-gradient-11" x1="98.37" y1="484.43" x2="99.37" y2="484.43" gradientTransform="matrix(309.08, 0, 0, -309.08, -30494.53, 149834.65)" xlink:href="#linear-gradient"/><filter id="luminosity-noclip-12" x="-86.49" y="-6107.42" width="292.64" height="32766" filterUnits="userSpaceOnUse" color-interpolation-filters="sRGB"><feFlood flood-color="#fff" result="bg"/><feBlend in="SourceGraphic" in2="bg"/></filter><mask id="mask-12" x="-86.49" y="-6107.42" width="292.64" height="32766" maskUnits="userSpaceOnUse"><g class="cls-133"/></mask><clipPath id="clip-path-23"><rect class="cls-5" x="-82.03" y="-157.66" width="281.97" height="544.16"/></clipPath><clipPath id="clip-path-24"><path class="cls-5" d="M91.82,264.08c-3.47,4.39-6.82,7.41-9.92,8.41C66.81,277.18,50.62,303.12,35,328.21,17.15,356.79-1.29,386.34-19.32,386.5c-7.5.07-14.26-4.71-20.67-14.59-26.87-36.81-46.5-127.74-41.16-190.73,1.21-10.26,2.45-20,3.64-29.39,2.2-17.27,4.09-32.19,4.88-42.86v-.1C-60.66,38.91-51.35-4.55-41.5-36.49-30.06-73.57-17.78-94.6-2.84-102.67c9.46-5.11,19.92-5,32,.21h0C62.5-87.88,88-104.72,117.56-124.21c17.6-11.61,37.56-24.78,61.69-32.9,8.64-2.23,14.62,2.33,17.86,13.53,4.82,16.67,3.45,49-4,93.6-6.56,39.37-17.81,87.87-31.68,136.58-13.54,47.54-28.63,92.1-42.5,125.47-7.73,18.61-17.82,40.23-27.14,52M58.19,289.9c7.74-9.8,15.4-17,23.1-19.36,8.3-2.68,21-23.72,35.78-59.26C130.91,178,146,133.5,159.49,86c23.33-81.89,46.66-191,35.66-229-2.92-10.07-7.92-14.05-15.31-12.15-23.82,8-43.65,21.11-61.16,32.66-30,19.82-56,36.93-90.36,21.92h0c-11.44-5-21.32-5.08-30.19-.29-30.22,16.32-48.08,89.36-68.73,210-.79,10.72-2.69,25.64-4.88,42.92-1.2,9.4-2.43,19.12-3.64,29.34C-84.42,244-65,334.22-38.31,370.75c6,9.3,12.23,13.76,19,13.7,16.91-.15,35-29.21,52.58-57.32,8.51-13.64,16.78-26.9,24.95-37.23"/></clipPath><linearGradient id="linear-gradient-12" x1="98.37" y1="484.43" x2="99.37" y2="484.43" gradientTransform="matrix(281.97, 0, 0, -281.97, -27818.18, 136706.38)" xlink:href="#linear-gradient"/><filter id="luminosity-noclip-13" x="-74.77" y="-6107.42" width="264.15" height="32766" filterUnits="userSpaceOnUse" color-interpolation-filters="sRGB"><feFlood flood-color="#fff" result="bg"/><feBlend in="SourceGraphic" in2="bg"/></filter><mask id="mask-13" x="-74.77" y="-6107.42" width="264.15" height="32766" maskUnits="userSpaceOnUse"><g class="cls-132"/></mask><clipPath id="clip-path-25"><rect class="cls-5" x="-72.97" y="-119.63" width="255.07" height="482.57"/></clipPath><clipPath id="clip-path-26"><path class="cls-5" d="M89.13,254.24c-2.95,3.71-5.8,6.31-8.45,7.24-13.22,4.44-27.49,27.23-41.29,49.28-16,25.55-32.54,52-48.74,52.18C-16,363-22,358.89-27.71,350.3c-12.2-15.48-24.81-44.23-33.68-76.83-9.43-34.68-13.38-69.21-10.82-94.75l1.09-7.27c3.47-23.09,6.75-44.89,7.19-59.09v-.13C-44.2-6.91-26.71-58.67-1.52-72.39c8.92-4.86,18.74-4.84,30,.06h0c29.78,13,52.59-1.66,79-18.61,15.58-10,33.24-21.33,54.49-28.29l.1,0c8.28-1.78,14.07,2.93,17.2,14,10.07,35.66-8.78,128.75-29.79,204C138,140.11,125,179.05,112.91,208.35c-6.75,16.4-15.59,35.52-23.78,45.89M59.9,276.83c6.78-8.57,13.47-14.89,20.16-17.14,14.49-5.11,42.94-73,67.64-161.5C159.6,55.56,169.17,13,174.64-21.57c6.19-39.11,7.17-67.88,2.84-83.19-2.83-10-7.72-14.19-14.93-12.66-21,6.89-38.53,18.14-54,28.07C81.67-72.11,58.46-57.22,27.75-70.6h0c-10.72-4.65-20-4.7-28.38-.14C-29-55.28-45.69,13.68-62,112.48c-.45,14.31-3.73,36.14-7.21,59.25L-70.33,179c-2.53,25.27,1.39,59.55,10.77,94,8.81,32.38,21.29,60.87,33.38,76.22,5.36,8.08,10.84,11.93,16.8,11.86,15.17-.19,31.43-26.18,47.17-51.3C45.34,297.69,52.67,286,59.9,276.83"/></clipPath><linearGradient id="linear-gradient-13" x1="98.37" y1="484.43" x2="99.37" y2="484.43" gradientTransform="matrix(255.07, 0, 0, -255.07, -25163.34, 123683.97)" xlink:href="#linear-gradient"/><clipPath id="clip-path-27"><rect class="cls-5" x="98.37" y="-4653.31" width="1440" height="5137.73"/></clipPath><clipPath id="clip-path-28"><rect class="cls-5" x="98.37" y="-4653.3" width="1440" height="5137.73"/></clipPath><clipPath id="clip-path-29"><rect class="cls-5" x="-227.87" y="-1509.84" width="2247.19" height="2872.83"/></clipPath><clipPath id="clip-path-30"><rect class="cls-5" x="98.37" y="108.5" width="1440" height="376.06"/></clipPath><clipPath id="clip-path-32"><rect class="cls-5" x="98.37" y="-544.32" width="1440" height="1028.88"/></clipPath><filter id="luminosity-noclip-14" x="-110.5" y="-272.71" width="369.93" height="729.9" filterUnits="userSpaceOnUse" color-interpolation-filters="sRGB"><feFlood flood-color="#fff" result="bg"/><feBlend in="SourceGraphic" in2="bg"/></filter><mask id="mask-14" x="-110.5" y="-272.71" width="369.93" height="729.9" maskUnits="userSpaceOnUse"><g class="cls-1"><g class="cls-2"><g class="cls-3"><g class="cls-4"><g class="cls-6"><rect class="cls-7" x="-110.5" y="-272.71" width="369.93" height="729.9"/></g></g></g></g></g></mask><clipPath id="clip-path-33"><rect class="cls-5" x="-109.64" y="-271.84" width="363.68" height="729.02"/></clipPath><clipPath id="clip-path-34"><path class="cls-5" d="M100.17,293.43C94,301.2,89.24,304.55,85.58,305.51c-20.73,5.41-42.63,40.79-63.82,75-24.39,39.4-47.44,76.62-71,76.65-10,0-19.06-6.66-27.63-20.41-25.63-41.12-31.94-118-32.71-175.3-1-70.69,5.94-136.09,10.81-162.81l1.23.22-1.23-.22C-84,18-70.73-52.78-56.6-102.61c14.92-52.6,30.16-80.62,49.4-90.84,11.21-6,23.72-5.76,38.23.62,20.19,8.86,39.21,9.53,59.86,2.1,18.74-6.75,37.23-19.62,56.79-33.24,23.68-16.47,50.51-35.15,83.31-46.79,5.5-1.95,10.13-1.27,13.77,2,9.21,8.32,11.58,33.79,7.05,75.7-4,36.83-13.29,85.84-26.94,141.73-19.34,79.16-46.16,166.84-71.76,234.55-24,63.34-41,95.11-52.94,110.2M52.91,329.38c10.7-13.54,21.43-23.52,32-26.29,14.23-3.72,38.22-47.73,65.83-120.74,25.57-67.62,52.36-155.2,71.67-234.26,29.27-119.85,37-200.22,20.64-215-2.94-2.66-6.62-3.15-11.25-1.51-32.49,11.53-59.17,30.1-82.72,46.49C109.56-194.39,75.41-170.62,30-190.54c-13.77-6.05-25.57-6.28-36.06-.71C-45.37-170.34-66-67.3-96.28,99.1-101.13,125.72-108,190.92-107,261.42c.77,57,7,133.39,32.33,174,8.08,13,16.42,19.25,25.5,19.24,22.15,0,45.9-38.39,68.86-75.47,11-17.7,22.1-35.7,33.27-49.83"/></clipPath><linearGradient id="linear-gradient-14" x1="98.37" y1="484.42" x2="99.37" y2="484.42" gradientTransform="matrix(0, -729.02, -729.02, 0, 353225.67, 72167.97)" gradientUnits="userSpaceOnUse"><stop offset="0" stop-color="#f0c89f"/><stop offset="0.15" stop-color="#f0dbb8"/><stop offset="0.39" stop-color="#d2a680"/><stop offset="0.63" stop-color="#a27b5d"/><stop offset="0.86" stop-color="#d2a680"/><stop offset="1" stop-color="#d2a680"/><stop offset="1" stop-color="#d2a680"/></linearGradient><filter id="luminosity-noclip-15" x="-101.59" y="-234.6" width="351.96" height="668.25" filterUnits="userSpaceOnUse" color-interpolation-filters="sRGB"><feFlood flood-color="#fff" result="bg"/><feBlend in="SourceGraphic" in2="bg"/></filter><mask id="mask-15" x="-101.59" y="-234.6" width="351.96" height="668.25" maskUnits="userSpaceOnUse"><g class="cls-33"><g class="cls-34"><g class="cls-3"><g class="cls-35"><g class="cls-36"><rect class="cls-37" x="-101.59" y="-234.6" width="351.96" height="668.25"/></g></g></g></g></g></mask><clipPath id="clip-path-35"><rect class="cls-5" x="-100.27" y="-233.77" width="336.27" height="667.39"/></clipPath><clipPath id="clip-path-36"><path class="cls-5" d="M97.23,283.77c-4.72,6-9,9.67-12.88,10.73-18.85,5.18-38.85,37.42-58.19,68.59-22.48,36.23-43.71,70.45-65.41,70.53-9.18,0-17.46-6-25.31-18.47-14-21.52-24.56-57.25-30.52-103.3A690.88,690.88,0,0,1-99,186.1c3.06-42.41,7.66-75,9-84,14.49-80.84,26-139.57,38.49-182.66,13.64-46.95,28.21-73.2,45.85-82.62,10.61-5.66,22.42-5.5,36.1.49,18.55,8.14,36,8.8,55,2.09,17.24-6.1,34.23-17.75,52.22-30.1,21.65-14.85,46.19-31.69,76.11-42.15,5.29-1.73,9.72-1,13.21,2.25,23.41,21.67-4.57,149.83-17.68,203.92-30.69,126.58-80.16,270.13-112,310.47M54.63,316.3c9.73-12.3,19.47-21.42,29.1-24.06C111.84,284.44,172,117.13,207-27.25c27.11-111.82,34-187.2,18.36-201.64-2.85-2.64-6.4-3.22-10.86-1.76-29.6,10.36-54,27.1-75.53,41.87-36.38,25-67.8,46.51-109.51,28.22-13-5.68-24.12-5.87-34.06-.57C-41.51-141.42-61.48-44-87.72,102.46c-1.33,8.93-5.93,41.48-9,83.79a687.6,687.6,0,0,0,4,125.29c5.91,45.72,16.34,81.1,30.17,102.34,7.39,11.73,15,17.42,23.32,17.39,20.4-.07,42.27-35.33,63.43-69.42,10-16.16,20.24-32.62,30.46-45.55"/></clipPath><linearGradient id="linear-gradient-15" x1="98.37" y1="484.41" x2="99.37" y2="484.41" gradientTransform="matrix(0, -667.39, -667.39, 0, 323367.43, 66082.32)" xlink:href="#linear-gradient-14"/><filter id="luminosity-noclip-16" x="-92.63" y="-198.26" width="319.76" height="608.36" filterUnits="userSpaceOnUse" color-interpolation-filters="sRGB"><feFlood flood-color="#fff" result="bg"/><feBlend in="SourceGraphic" in2="bg"/></filter><mask id="mask-16" x="-92.63" y="-198.26" width="319.76" height="608.36" maskUnits="userSpaceOnUse"><g class="cls-53"><g class="cls-54"><g class="cls-3"><g class="cls-55"><g class="cls-56"><rect class="cls-57" x="-92.63" y="-198.26" width="319.76" height="608.36"/></g></g></g></g></g></mask><clipPath id="clip-path-37"><rect class="cls-5" x="-91.11" y="-195.7" width="309.08" height="605.76"/></clipPath><clipPath id="clip-path-38"><path class="cls-5" d="M94.7,273.81c-4.19,5.29-8.08,8.65-11.57,9.69-17,4.93-35.07,34-52.57,62.16-20.56,33-40,64.28-59.84,64.4-8.34.05-15.86-5.36-23-16.53-13.37-19.49-24.59-53-31.58-94.48-6.5-38.5-8.78-80.57-6.25-115.41,2.17-23.27,4.7-44.25,6.74-61.1.79-6.55,1.48-12.21,2-17,10.5-59.8,22-121,34.83-164,12.54-42,26-65.66,42.27-74.4,10-5.38,21.15-5.26,34,.36,36.94,16.17,65.16-2.86,97.83-24.88,19.63-13.24,41.87-28.24,68.9-37.53,11.09-3.27,16.16,5.38,18.48,13.21,12.15,41.08-14.79,163.71-41.56,256.25-24.25,83.84-55.89,170.46-78.72,199.34M56.48,303c8.71-11,17.34-19,26-21.56,18.53-5.52,55.05-90.85,88.8-207.52C187.11,19.25,200-35.06,207.64-79c8.57-49.41,10.38-84.72,5.23-102.12-3-10.13-8.13-14-15.7-11.74-26.71,9.19-48.83,24.1-68.34,37.26-33.21,22.39-61.9,41.72-99.94,25.07C16.69-135.9,6.19-136-3.21-131c-32.07,17.21-50.74,93.26-76,236.82-.53,4.77-1.22,10.43-2,17-2,16.85-4.57,37.81-6.73,61-2.51,34.66-.24,76.53,6.23,114.87,6.94,41.12,18,74.37,31.24,93.63,6.71,10.51,13.62,15.59,21.14,15.54,18.66-.11,38.66-32.27,58-63.36,9.47-15.23,18.67-30,27.78-41.55"/></clipPath><linearGradient id="linear-gradient-16" x1="98.37" y1="484.42" x2="99.37" y2="484.42" gradientTransform="matrix(0, -605.76, -605.76, 0, 293507, 59996.25)" xlink:href="#linear-gradient-14"/><filter id="luminosity-noclip-17" x="-86.49" y="-159.34" width="292.64" height="545.9" filterUnits="userSpaceOnUse" color-interpolation-filters="sRGB"><feFlood flood-color="#fff" result="bg"/><feBlend in="SourceGraphic" in2="bg"/></filter><mask id="mask-17" x="-86.49" y="-159.34" width="292.64" height="545.9" maskUnits="userSpaceOnUse"><g class="cls-58"><g class="cls-59"><g class="cls-3"><g class="cls-60"><g class="cls-61"><rect class="cls-62" x="-86.49" y="-159.34" width="292.64" height="545.9"/></g></g></g></g></g></mask><clipPath id="clip-path-39"><rect class="cls-5" x="-82.03" y="-157.66" width="281.97" height="544.16"/></clipPath><clipPath id="clip-path-40"><path class="cls-5" d="M91.82,264.09c-3.47,4.38-6.82,7.4-9.92,8.4C66.81,277.18,50.62,303.12,35,328.21,17.15,356.79-1.29,386.34-19.32,386.5c-7.5.07-14.26-4.71-20.67-14.59-26.87-36.81-46.5-127.74-41.16-190.73,1.21-10.26,2.45-20,3.64-29.39,2.2-17.27,4.09-32.19,4.88-42.86v-.1C-60.66,38.91-51.35-4.55-41.5-36.49-30.06-73.57-17.78-94.6-2.84-102.67c9.46-5.11,19.92-5,32,.22h0C62.5-87.88,88-104.72,117.56-124.21c17.6-11.61,37.56-24.78,61.69-32.9,8.64-2.23,14.62,2.33,17.86,13.53,4.82,16.67,3.45,49-4,93.6-6.56,39.37-17.81,87.87-31.68,136.58-13.54,47.54-28.63,92.1-42.5,125.47-7.73,18.61-17.82,40.23-27.14,52M58.19,289.9c7.74-9.8,15.4-17,23.1-19.36,8.3-2.67,21-23.72,35.78-59.26C130.91,178,146,133.5,159.49,86c23.33-81.9,46.66-191,35.66-229-2.92-10.07-7.92-14.05-15.31-12.15-23.82,8-43.65,21.11-61.16,32.66-30,19.82-56,36.93-90.36,21.92h0c-11.44-5-21.32-5.08-30.19-.29-30.22,16.32-48.08,89.36-68.73,210-.79,10.72-2.69,25.64-4.88,42.92-1.2,9.4-2.43,19.12-3.64,29.34C-84.42,244-65,334.22-38.31,370.75c6,9.3,12.23,13.76,19,13.7,16.91-.15,35-29.21,52.58-57.32,8.51-13.64,16.78-26.9,24.95-37.23"/></clipPath><linearGradient id="linear-gradient-17" x1="98.37" y1="484.42" x2="99.37" y2="484.42" gradientTransform="matrix(0, -544.16, -544.16, 0, 263663.04, 53913.53)" xlink:href="#linear-gradient-14"/><filter id="luminosity-noclip-18" x="-74.77" y="-121.04" width="264.15" height="484.07" filterUnits="userSpaceOnUse" color-interpolation-filters="sRGB"><feFlood flood-color="#fff" result="bg"/><feBlend in="SourceGraphic" in2="bg"/></filter><mask id="mask-18" x="-74.77" y="-121.04" width="264.15" height="484.07" maskUnits="userSpaceOnUse"><g class="cls-63"><g class="cls-64"><g class="cls-3"><g class="cls-65"><g class="cls-66"><rect class="cls-67" x="-74.77" y="-121.04" width="264.15" height="484.07"/></g></g></g></g></g></mask><clipPath id="clip-path-41"><rect class="cls-5" x="-72.97" y="-119.63" width="255.07" height="482.57"/></clipPath><clipPath id="clip-path-42"><path class="cls-5" d="M89.13,254.24c-2.95,3.71-5.8,6.31-8.45,7.24-13.22,4.44-27.49,27.23-41.29,49.28-16,25.55-32.54,52-48.74,52.18C-16,363-22,358.89-27.71,350.3c-12.2-15.48-24.81-44.22-33.68-76.83-9.43-34.68-13.38-69.21-10.82-94.75l1.09-7.27c3.47-23.09,6.75-44.89,7.19-59.09v-.13C-44.2-6.91-26.71-58.67-1.52-72.39c8.92-4.86,18.74-4.84,30,.06h0c29.78,13,52.59-1.66,79-18.61,15.58-10,33.24-21.33,54.49-28.29l.1,0c8.28-1.78,14.07,2.93,17.2,14,10.07,35.66-8.78,128.75-29.79,204C138,140.12,125,179.05,112.91,208.35c-6.75,16.4-15.59,35.52-23.78,45.89M59.9,276.83c6.78-8.57,13.47-14.89,20.16-17.14,14.49-5.11,42.94-73,67.64-161.5C159.6,55.56,169.17,13,174.64-21.57c6.19-39.11,7.17-67.88,2.84-83.19-2.83-10-7.72-14.19-14.93-12.66-21,6.89-38.53,18.14-54,28.07C81.67-72.11,58.46-57.22,27.75-70.59h0c-10.72-4.65-20-4.7-28.38-.14C-29-55.28-45.69,13.68-62,112.48c-.45,14.31-3.73,36.14-7.21,59.25L-70.33,179c-2.53,25.27,1.39,59.55,10.77,94,8.81,32.38,21.29,60.87,33.38,76.22,5.36,8.08,10.84,11.93,16.8,11.86,15.17-.19,31.43-26.17,47.17-51.3C45.34,297.69,52.67,286,59.9,276.83"/></clipPath><linearGradient id="linear-gradient-18" x1="98.37" y1="484.42" x2="99.37" y2="484.42" gradientTransform="matrix(0, -482.57, -482.57, 0, 233822.2, 47831.43)" xlink:href="#linear-gradient-14"/><filter id="luminosity-noclip-19" x="-69.12" y="-82.71" width="239.74" height="422.2" filterUnits="userSpaceOnUse" color-interpolation-filters="sRGB"><feFlood flood-color="#fff" result="bg"/><feBlend in="SourceGraphic" in2="bg"/></filter><mask id="mask-19" x="-69.12" y="-82.71" width="239.74" height="422.2" maskUnits="userSpaceOnUse"><g class="cls-8"><g class="cls-9"><g class="cls-3"><g class="cls-10"><g class="cls-11"><rect class="cls-12" x="-69.12" y="-82.71" width="239.74" height="422.2"/></g></g></g></g></g></mask><clipPath id="clip-path-43"><rect class="cls-5" x="-63.99" y="-81.6" width="228.23" height="420.98"/></clipPath><clipPath id="clip-path-44"><path class="cls-5" d="M86.5,244.34c-2.51,3.17-4.87,5.28-7,6.13-11.34,4.19-23.69,23.82-35.64,42.81C29.64,315.82,15,339.13.61,339.39c-5.81.1-11-3.39-16-10.67C-38.28,302.34-69.12,225-63.27,176.26c4.21-22.26,8.3-45.21,8.05-60.48v-.15C-39.73,17.73-23.32-29.44-.33-42.09c8.42-4.64,17.65-4.67,28.21-.11h0C54.09-30.83,74.2-43.27,97.49-57.67,111-66,126.4-75.56,144.77-81.35l.12,0c8.05-1.33,13.66,3.56,16.69,14.53,9,32.81-6.45,113.27-24,177.63-14.75,54.2-35.69,114-51.13,133.56m-24.86,19.4c5.79-7.34,11.5-12.8,17.2-14.9,12.6-4.94,36.62-63.2,57.11-138.52,17.44-64.14,32.9-144.24,24-176.7-2.78-10.09-7.58-14.44-14.67-13.29C127.1-73.94,111.86-64.51,98.4-56.19,74.7-41.53,54.23-28.87,27.18-40.61h0c-10-4.33-18.76-4.32-26.68,0-22.46,12.37-38.61,59.14-54,156.39.24,15.44-3.86,38.46-8.07,60.71-5.79,48.3,24.82,125,47.5,151.09l.07.08c4.61,6.78,9.37,10,14.56,9.94C14,337.4,28.42,314.5,42.35,292.36c6.59-10.48,13-20.66,19.29-28.62"/></clipPath><linearGradient id="linear-gradient-19" x1="98.37" y1="484.42" x2="99.37" y2="484.42" gradientTransform="matrix(0, -420.98, -420.98, 0, 203983.83, 41749.85)" xlink:href="#linear-gradient-14"/><filter id="luminosity-noclip-20" x="-60.34" y="-44.34" width="207.98" height="360.29" filterUnits="userSpaceOnUse" color-interpolation-filters="sRGB"><feFlood flood-color="#fff" result="bg"/><feBlend in="SourceGraphic" in2="bg"/></filter><mask id="mask-20" x="-60.34" y="-44.34" width="207.98" height="360.29" maskUnits="userSpaceOnUse"><g class="cls-13"><g class="cls-14"><g class="cls-3"><g class="cls-15"><g class="cls-16"><rect class="cls-17" x="-60.34" y="-44.34" width="207.98" height="360.29"/></g></g></g></g></g></mask><clipPath id="clip-path-45"><rect class="cls-5" x="-54.99" y="-43.59" width="201.54" height="359.43"/></clipPath><clipPath id="clip-path-46"><path class="cls-5" d="M83.86,234.45a16.64,16.64,0,0,1-5.62,5c-9.46,3.92-19.88,20.39-30,36.32-12.36,19.54-25.14,39.74-37.69,40.05-4.9.12-9.5-2.81-13.68-8.71-21.13-21.45-57.24-92.41-51.22-133.32,3.86-16.06,8.86-39.1,7.81-54.61V119C-35,41.34-20-.22.67-11.77c7.87-4.39,16.81-4.5,26.57-.31h0c22.63,9.79,40-.45,60.21-12.3C99-31.16,112.05-38.84,127.52-43.47l.15,0c7.86-.84,13.35,4.29,16.3,15.24,3.6,13.35,3.44,35-.48,64.34-3.42,25.63-9.54,55.61-17.7,86.71-11.84,45.14-29,95.29-41.93,111.66M63.39,250.61c4.81-6.08,9.54-10.67,14.22-12.61,10.71-4.79,30.32-53.41,46.64-115.61C145.59,41.05,147.64-8.55,142.43-27.85c-2.7-10-7.59-14.78-14.52-14.08C112.65-37.35,100.25-30.06,88.26-23,67.73-10.94,50-.52,26.62-10.62c-9.42-4-17.65-4-25.17.24C-18.76.9-33.5,42.07-44.92,119.17c1,15.72-4,38.87-7.84,54.93-6,40.42,29.91,110.75,50.84,132l.08.1c3.92,5.56,8,8.2,12.38,8.09,11.7-.29,24.25-20.13,36.39-39.31,5.63-8.9,11.1-17.54,16.46-24.32"/></clipPath><linearGradient id="linear-gradient-20" x1="98.37" y1="484.43" x2="99.37" y2="484.43" gradientTransform="matrix(0, -359.43, -359.43, 0, 174159.66, 35671.13)" xlink:href="#linear-gradient-14"/><filter id="luminosity-noclip-21" x="-51.66" y="-5.89" width="190.29" height="298.32" filterUnits="userSpaceOnUse" color-interpolation-filters="sRGB"><feFlood flood-color="#fff" result="bg"/><feBlend in="SourceGraphic" in2="bg"/></filter><mask id="mask-21" x="-51.66" y="-5.89" width="190.29" height="298.32" maskUnits="userSpaceOnUse"><g class="cls-18"><g class="cls-19"><g class="cls-3"><g class="cls-20"><g class="cls-21"><rect class="cls-22" x="-51.66" y="-5.89" width="190.29" height="298.32"/></g></g></g></g></g></mask><clipPath id="clip-path-47"><rect class="cls-5" x="-46.02" y="-5.63" width="175.09" height="297.92"/></clipPath><clipPath id="clip-path-48"><path class="cls-5" d="M38.5,279.15c-6,7.56-12,12.92-17.95,13.13-4.07.15-7.88-2.13-11.35-6.76-19.57-16.65-60.86-80.33-54.58-114.19l0-.08c6.46-20.75,9-37.11,7.56-48.64v-.19C-30,63.86-16.81,28.93,1.34,18.59c7.53-4.29,16-4.47,25.27-.54h0c19.06,8.19,33.78.17,50.82-9.12,9.49-5.18,20.25-11,32.85-14.52l.16,0c7.76-.27,13.17,5.16,16.09,16.13,6,22.39,1.28,68.81-12.48,124.17-5.77,23.19-12.59,45.35-19.2,62.4C90,209.67,82.93,225.34,77,228.44c-7.58,3.64-16.06,16.94-24.26,29.79-4.7,7.37-9.48,14.85-14.27,20.92M-44,171.63c-3.62,19.65,9.45,47.76,17.57,62.77,11.19,20.71,26.24,41.3,36.59,50.08l.11.12c3.23,4.33,6.56,6.37,10.2,6.24,10-.36,20.7-17.14,31.05-33.38,8.7-13.63,16.91-26.5,24.83-30.31,18.24-9.6,62.24-165.57,48.77-216.27C122.44.68,117.54-4.39,110.59-4.18,98.19-.74,88,4.82,78.12,10.19c-17.36,9.47-32.36,17.64-52.07,9.18-8.81-3.74-16.88-3.59-24,.47C-15.67,29.94-28.6,64.49-36.36,122.52c1.44,11.72-1.12,28.25-7.61,49.11"/></clipPath><linearGradient id="linear-gradient-21" x1="98.37" y1="484.42" x2="99.37" y2="484.42" gradientTransform="matrix(0, -297.92, -297.92, 0, 144359.4, 29597.25)" xlink:href="#linear-gradient-14"/><filter id="luminosity-noclip-22" x="-48.11" y="-234.69" width="1035.95" height="1609.18" filterUnits="userSpaceOnUse" color-interpolation-filters="sRGB"><feFlood flood-color="#fff" result="bg"/><feBlend in="SourceGraphic" in2="bg"/></filter><mask id="mask-22" x="-48.11" y="-234.69" width="1035.95" height="1609.18" maskUnits="userSpaceOnUse"><g class="cls-23"><g class="cls-24"><g class="cls-3"><g class="cls-25"><g class="cls-26"><rect class="cls-27" x="-48.11" y="-234.69" width="1035.95" height="1609.17"/></g></g></g></g></g></mask><clipPath id="clip-path-49"><rect class="cls-5" x="-42.3" y="-217.81" width="1029.88" height="1580.8"/></clipPath><clipPath id="clip-path-50"><path class="cls-5" d="M613.82,1150.56q-20.87,26.4-41.43,49.9c-75.15,85.86-143.17,138.34-202.15,156-60.35,18-109.79-1.22-146.94-57.26C110.52,1129.06,54.86,1005.63,18,924c-16.57-36.77-29.67-65.8-42.17-85.85l1.06-.66-1.06.66c-20.79-33.34-24-108.53-8.28-196.21,16.89-94.36,51.49-182.33,95-241.36C122.45,319.11,167.71,215,195.13,141.92c31.93-85.08,58.4-178.48,70.79-249.86,8-46.08,33.5-79.57,73.77-96.84,69.71-29.91,174.53-7.46,273.54,58.59,46.93,31.3,95.46,63.68,140.14,97.65C802.76-11,842,24.56,873.24,60.12c37.34,42.46,64.65,86,83.48,133.25,21,52.71,31.12,108.73,30.85,171.27-.47,106.82-88.91,332.9-215.07,549.77-51.61,88.71-105.74,169.2-158.68,236.15M294-167.26c-12.87,16.27-21.52,36.35-25.58,59.75C256-36,229.45,57.58,197.47,142.8,170,216,124.63,320.36,64.53,402,21.29,460.74-13.15,548.34-30,642.33-45.55,729.43-42.51,803.94-22,836.78-9.44,857,3.69,886.07,20.3,922.92c36.8,81.61,92.41,204.93,205.08,374.88,36.47,55,85,73.93,144.14,56.24,58.53-17.5,126.15-69.72,201-155.22,65.63-75,134.73-173.76,199.83-285.67,126-216.53,214.27-442.09,214.73-548.52.27-62.21-9.77-117.93-30.67-170.33-18.73-46.94-45.89-90.29-83-132.53C801.68-17.48,705.17-81.86,611.84-144.12c-98.32-65.58-202.22-87.95-271.17-58.37-19,8.17-34.7,20-46.71,35.23"/></clipPath><linearGradient id="linear-gradient-22" x1="98.37" y1="484.42" x2="99.37" y2="484.42" gradientTransform="matrix(0, -1580.8, -1580.8, 0, 766248.08, 156860.15)" xlink:href="#linear-gradient-14"/><filter id="luminosity-noclip-23" x="-22.82" y="-169.95" width="956.76" height="1484.08" filterUnits="userSpaceOnUse" color-interpolation-filters="sRGB"><feFlood flood-color="#fff" result="bg"/><feBlend in="SourceGraphic" in2="bg"/></filter><mask id="mask-23" x="-22.82" y="-169.95" width="956.76" height="1484.08" maskUnits="userSpaceOnUse"><g class="cls-28"><g class="cls-29"><g class="cls-3"><g class="cls-30"><g class="cls-31"><rect class="cls-32" x="-22.82" y="-169.95" width="956.76" height="1484.08"/></g></g></g></g></g></mask><clipPath id="clip-path-51"><rect class="cls-5" x="-17.05" y="-154.58" width="950.69" height="1458.27"/></clipPath><clipPath id="clip-path-52"><path class="cls-5" d="M589.45,1113.57q-16.51,20.88-32.8,39.74c-68.41,79.15-130.34,127.65-184.07,144.15-54.31,16.68-98.88-.15-132.47-50C137.54,1097.57,82.21,982,45.59,905.54,28.4,869.65,14.83,841.29,2.09,821.1-18.49,788.46-22.82,717.66-9.2,636.33,5.38,549.25,37,467,77.61,410.57c54.93-75.38,97.09-170.93,122.79-237.81,30.18-78.57,54.78-161.63,67.49-227.9,8-41.81,31.94-72.15,69.16-87.74,64.61-27.07,161-6.38,251.63,54h0c85.54,56.87,174,115.68,239.18,190,34.34,39.14,59.5,79.34,76.92,122.87,19.44,48.57,28.88,100.15,28.87,157.69.29,98.8-79.81,307.65-194.8,507.9-48.52,84.5-99.57,161-149.4,224M293.47-107.5C282-93,274.14-75.27,270.19-54.7c-12.73,66.4-37.37,149.61-67.6,228.3-25.75,67-68,162.76-123.08,238.35C39.13,468.05,7.64,550-6.89,636.72c-13.52,80.79-9.32,151,11,183.13,12.82,20.31,26.42,48.71,43.64,84.68,36.58,76.4,91.86,191.86,194.34,341.59,32.95,48.92,76.63,65.43,129.84,49.1s114.86-64.63,183-143.45c59.86-69.26,122.77-160.33,181.93-263.36C851.62,688.49,931.6,480.11,931.3,381.69c0-57.25-9.37-108.54-28.7-156.83-17.32-43.28-42.35-83.25-76.51-122.2-65-74.09-153.3-132.81-238.71-189.6h0c-90-59.94-185.53-80.54-249.42-53.78-18.17,7.61-33.1,18.82-44.49,33.22"/></clipPath><linearGradient id="linear-gradient-23" x1="98.37" y1="484.42" x2="99.37" y2="484.42" gradientTransform="matrix(0, -1458.27, -1458.27, 0, 706878.25, 144748.22)" xlink:href="#linear-gradient-14"/><filter id="luminosity-noclip-24" x="2.3" y="-105.2" width="877.95" height="1359.02" filterUnits="userSpaceOnUse" color-interpolation-filters="sRGB"><feFlood flood-color="#fff" result="bg"/><feBlend in="SourceGraphic" in2="bg"/></filter><mask id="mask-24" x="2.3" y="-105.2" width="877.95" height="1359.02" maskUnits="userSpaceOnUse"><g class="cls-38"><g class="cls-39"><g class="cls-3"><g class="cls-40"><g class="cls-41"><rect class="cls-42" x="2.3" y="-105.2" width="877.95" height="1359.02"/></g></g></g></g></g></mask><clipPath id="clip-path-53"><rect class="cls-5" x="7.91" y="-91.35" width="871.83" height="1335.79"/></clipPath><clipPath id="clip-path-54"><path class="cls-5" d="M565.23,1076.52Q553,1092,540.92,1106.19c-61.68,72.46-117.53,117-166,132.33-48.28,15.3-88,.89-118-42.82-93-130.59-145.85-234.3-184.44-310C55,851.31,41.13,824.17,28.32,804.11,7.64,771.67,2.3,706.88,14,630.77c12.3-79.83,41-156.43,78.69-210.15C183.2,294.92,248.22,98.81,269.86-2.33c8.05-37.56,30.38-64.76,64.57-78.67,59.51-24.2,147.52-5.27,229.7,49.41,74,49,157.89,104.57,218.34,173.7,31.34,35.84,54.36,72.64,70.38,112.5,17.84,44.42,26.64,91.56,26.88,144.11.52,45.55-16.46,115.27-49.1,201.62C799.26,683.28,754.72,777.2,705.2,864.79c-45.36,80.25-93.29,152.69-140,211.73M292.92-47.73C282.87-35,275.81-19.63,272-1.87,250.33,99.45,185.17,295.93,94.5,421.89,57,475.34,28.44,551.6,16.2,631.11c-11.65,75.59-6.43,139.82,14,171.81C43,823.08,56.89,850.26,74.43,884.68,113,960.34,165.78,1064,258.71,1194.44c29.43,42.84,68.31,57,115.56,42,48.06-15.22,103.57-59.52,165-131.67,54.09-63.55,110.82-146.9,164-241,49.47-87.5,94-181.31,125.28-264.15,32.56-86.09,49.48-155.54,49-200.82-.24-52.28-9-99.15-26.72-143.31-15.92-39.63-38.82-76.22-70-111.87-60.26-68.92-144-124.38-217.9-173.32h0C481.33-84,394.1-102.89,335.26-79c-17.33,7-31.56,17.59-42.34,31.23"/></clipPath><linearGradient id="linear-gradient-24" x1="98.37" y1="484.43" x2="99.37" y2="484.43" gradientTransform="matrix(0, -1335.79, -1335.79, 0, 647530.52, 132640.85)" xlink:href="#linear-gradient-14"/><clipPath id="clip-path-56"><rect class="cls-5" x="-1909.22" y="-1961.2" width="2247.19" height="2872.83"/></clipPath><clipPath id="clip-path-57"><rect class="cls-5" x="-1582.99" y="-342.85" width="1440" height="376.06"/></clipPath><clipPath id="clip-path-59"><rect class="cls-5" x="-1582.99" y="-995.67" width="1440" height="1028.88"/></clipPath><filter id="luminosity-noclip-25" x="-270.14" y="-366.56" width="379.08" height="671.49" filterUnits="userSpaceOnUse" color-interpolation-filters="sRGB"><feFlood flood-color="#fff" result="bg"/><feBlend in="SourceGraphic" in2="bg"/></filter><mask id="mask-25" x="-270.14" y="-366.56" width="379.08" height="671.49" maskUnits="userSpaceOnUse"><g class="cls-43"><g class="cls-44"><g class="cls-3"><g class="cls-45"><g class="cls-46"><rect class="cls-47" x="-270.14" y="-366.56" width="379.08" height="671.49"/></g></g></g></g></g></mask><clipPath id="clip-path-60"><rect class="cls-5" x="-267.31" y="-366.05" width="375.2" height="668.49"/></clipPath><clipPath id="clip-path-61"><path class="cls-5" d="M18.82-348.79c9.49-12,18.45-17.77,26.82-17.23,10.73.69,20.36,11.74,28.63,32.83,9,22.87,16.67,58.29,22.91,105.29,8.25,62.22,11.76,119.65,10.43,170.69-1.15,44.34-6,85.26-14.43,121.62C78.44,128.07,55.12,169.47,32.11,204.73c-24.66,37.79-53,65.06-84.19,81.06-27.14,13.92-55.9,19.14-85.49,15.54C-199.22,293.82-250.14,249-263.76,210c-6.38-18.3-4.11-34.26,6.39-44.91,44.49-45.12,80.61-87.79,110.45-130.45,41.12-58.78,69.56-117,84.51-173,10.69-40.06,27.52-97.83,47-145.54q18.08-44.31,34.26-64.8M31.07,204,30,203.36C52.9,168.3,76.09,127.13,90.75,63.84,99.13,27.65,104-13.1,105.12-57.28c1.32-50.91-2.18-108.2-10.42-170.29-6.21-46.8-13.86-82-22.75-104.71-7.89-20.11-16.79-30.62-26.48-31.25C29-364.59,8.77-336.76-13.12-283-32.52-235.45-49.32-177.79-60-137.8-75-81.48-103.58-23-144.87,36-174.79,78.79-211,121.57-255.59,166.79c-9.8,10-11.86,25-5.81,42.34,13.37,38.3,63.45,82.33,124.13,89.72,29.09,3.54,57.36-1.6,84.05-15.28C-22.4,267.77,5.6,240.79,30,203.36Z"/></clipPath><linearGradient id="linear-gradient-25" x1="98.37" y1="484.42" x2="99.37" y2="484.42" gradientTransform="matrix(0, -668.49, -668.49, 0, 323751.56, 66059.11)" xlink:href="#linear-gradient-14"/><filter id="luminosity-noclip-26" x="-249.42" y="-335.93" width="354.58" height="621.65" filterUnits="userSpaceOnUse" color-interpolation-filters="sRGB"><feFlood flood-color="#fff" result="bg"/><feBlend in="SourceGraphic" in2="bg"/></filter><mask id="mask-26" x="-249.42" y="-335.93" width="354.58" height="621.65" maskUnits="userSpaceOnUse"><g class="cls-48"><g class="cls-49"><g class="cls-3"><g class="cls-50"><g class="cls-51"><rect class="cls-52" x="-249.42" y="-335.93" width="354.58" height="621.65"/></g></g></g></g></g></mask><clipPath id="clip-path-62"><rect class="cls-5" x="-246.54" y="-335.43" width="346.58" height="618.94"/></clipPath><clipPath id="clip-path-63"><path class="cls-5" d="M20.51-319.58c8.74-11.05,17-16.35,24.65-15.82,20.67,1.44,36.08,43.15,47.1,127.52C105.16-98.4,102-5.57,82.9,68.05c-15.51,59.76-38.29,97.3-60.61,129C.1,230.38-25.18,254.49-52.83,268.67c-24.16,12.39-49.65,17.05-75.78,13.87-18-2.2-45.24-9.35-72.73-31-19.53-15.34-34.58-34.88-41.3-53.61-6.78-18.89-4.66-35.44,5.95-46.6C-158.5,67.05-82.11-25.69-52.82-132.32c10-36.22,25.46-88.19,42.78-130.06q16.11-38.94,30.55-57.2M6.67,214.59q7-8.88,13.69-18.9c22.2-31.51,44.86-68.83,60.27-128.23,19-73.34,22.16-165.88,9.3-275-5.64-43.16-12.62-75.67-20.74-96.6C62-322.73,53.85-332.44,45-333c-15-1-32.79,23-52.87,71.57-17.28,41.76-32.75,93.62-42.68,129.78C-80-24.58-156.58,68.43-235,153c-10,10.51-11.92,26.19-5.46,44.21,6.57,18.32,21.35,37.48,40.54,52.56,14.94,11.73,39.48,26.55,71.57,30.46,25.65,3.13,50.69-1.46,74.42-13.63,21.78-11.17,42.08-28.61,60.57-52"/></clipPath><linearGradient id="linear-gradient-26" x1="98.37" y1="484.42" x2="99.37" y2="484.42" gradientTransform="matrix(0, -618.94, -618.94, 0, 299755.21, 61166.21)" xlink:href="#linear-gradient-14"/></defs><g class="cls-68"><g id="Layer_1" data-name="Layer 1"><g class="cls-69"><g class="cls-70"><g class="cls-71"><g class="cls-72"><g class="cls-73"><g class="cls-74"><g class="cls-72"><g class="cls-75"><g class="cls-76"><g class="cls-77"><g class="cls-78"><rect class="cls-79" x="-110.5" y="-272.71" width="369.93" height="729.9"/></g></g></g><g class="cls-80"><g class="cls-81"><g class="cls-82"><rect class="cls-83" x="-101.59" y="-234.6" width="351.96" height="668.25"/></g></g></g><g class="cls-84"><g class="cls-85"><g class="cls-86"><rect class="cls-87" x="-92.63" y="-198.26" width="319.76" height="608.36"/></g></g></g><g class="cls-88"><g class="cls-89"><g class="cls-90"><rect class="cls-91" x="-86.49" y="-159.34" width="292.64" height="545.9"/></g></g></g><g class="cls-92"><g class="cls-93"><g class="cls-94"><rect class="cls-95" x="-74.77" y="-121.04" width="264.15" height="484.07"/></g></g></g><g class="cls-96"><g class="cls-97"><g class="cls-98"><rect class="cls-99" x="-69.12" y="-82.71" width="239.74" height="422.2"/></g></g></g><g class="cls-100"><g class="cls-101"><g class="cls-102"><rect class="cls-103" x="-60.34" y="-44.34" width="207.98" height="360.29"/></g></g></g><g class="cls-104"><g class="cls-105"><g class="cls-106"><rect class="cls-107" x="-51.66" y="-5.89" width="190.29" height="298.32"/></g></g></g><g class="cls-108"><g class="cls-109"><g class="cls-110"><rect class="cls-111" x="-48.11" y="-234.69" width="1035.95" height="1609.17"/></g></g></g><g class="cls-112"><g class="cls-113"><g class="cls-114"><rect class="cls-115" x="-22.82" y="-169.95" width="956.76" height="1484.08"/></g></g></g><g class="cls-116"><g class="cls-117"><g class="cls-118"><rect class="cls-119" x="2.3" y="-105.2" width="877.95" height="1359.02"/></g></g></g></g></g></g></g></g></g></g><g class="cls-70"><g class="cls-71"><g class="cls-120"><g class="cls-121"><g class="cls-74"><g class="cls-120"><g class="cls-122"><g class="cls-123"><g class="cls-124"><g class="cls-125"><rect class="cls-126" x="-270.14" y="-366.56" width="379.08" height="671.49"/></g></g></g><g class="cls-127"><g class="cls-128"><g class="cls-129"><rect class="cls-130" x="-249.42" y="-335.93" width="354.58" height="621.65"/></g></g></g></g></g></g></g></g></g></g></g><path class="cls-131" d="M19.38,1.51V13.25l0,0a1.75,1.75,0,0,1-1.87,1.48c-.84,0-1.69,0-2.53,0H1.81A1.71,1.71,0,0,1,0,13C0,9.26,0,5.5,0,1.75A1.78,1.78,0,0,1,.19,1,1.65,1.65,0,0,1,1.82,0H17.68A1.73,1.73,0,0,1,19,.66a2.23,2.23,0,0,1,.37.85M9.68,8.8l7.66-7.65H2L9.68,8.8M2,13.61H17.35L12,8.22c-.58.57-1.17,1.17-1.76,1.76a.59.59,0,0,1-.95,0L7.56,8.3l-.14-.13L2,13.61m4.6-6.27L1.15,2V12.78L6.59,7.34m11.64,5.43V2L12.85,7.4l5.38,5.37"/></g></g></svg>