<svg id="Layer_1" data-name="Layer 1" xmlns="http://www.w3.org/2000/svg" viewBox="0 0 223.49 278.92"><defs><style>.cls-1{fill:#7e8284;}</style></defs><title>Nguoi</title><path class="cls-1" d="M39.24,269.25A31.52,31.52,0,0,1,7.75,237.76a104.69,104.69,0,0,1,66.89-97.13l6.48-2.48-5.83-3.75a67.74,67.74,0,1,1,72.92,0l-5.83,3.75,6.47,2.48a104.7,104.7,0,0,1,66.9,97.13,31.52,31.52,0,0,1-31.49,31.49Zm72.51-124.1a92.72,92.72,0,0,0-92.62,92.61,20.13,20.13,0,0,0,20.11,20.11h145a20.12,20.12,0,0,0,20.1-20.11A92.72,92.72,0,0,0,111.75,145.15Zm0-124.1a56.36,56.36,0,1,0,56.36,56.36A56.42,56.42,0,0,0,111.75,21.05Z"/></svg>