<svg xmlns="http://www.w3.org/2000/svg" xmlns:xlink="http://www.w3.org/1999/xlink" viewBox="0 0 17.22 17.13"><defs><style>.cls-1,.cls-13,.cls-8{isolation:isolate;}.cls-1{filter:url(#luminosity-noclip-3);}.cls-2{mask:url(#mask);}.cls-3{mix-blend-mode:multiply;}.cls-4{clip-path:url(#clip-path);}.cls-5{fill:none;}.cls-6{clip-path:url(#clip-path-2);}.cls-7{fill:url(#linear-gradient);}.cls-8{filter:url(#luminosity-noclip-4);}.cls-9{mask:url(#mask-2);}.cls-10{clip-path:url(#clip-path-3);}.cls-11{clip-path:url(#clip-path-4);}.cls-12{fill:url(#linear-gradient-2);}.cls-14{clip-path:url(#clip-path-5);}.cls-15{opacity:0.4;}.cls-16{clip-path:url(#clip-path-6);}.cls-17{clip-path:url(#clip-path-7);}.cls-18{opacity:0.7;mix-blend-mode:soft-light;}.cls-19{clip-path:url(#clip-path-9);}.cls-20{mask:url(#mask-3);}.cls-21{clip-path:url(#clip-path-10);}.cls-22{clip-path:url(#clip-path-11);}.cls-23{fill:url(#linear-gradient-3);}.cls-24{mask:url(#mask-4);}.cls-25{clip-path:url(#clip-path-12);}.cls-26{clip-path:url(#clip-path-13);}.cls-27{fill:url(#linear-gradient-4);}.cls-28{fill:#fff;}.cls-29{filter:url(#luminosity-noclip-2);}.cls-30{filter:url(#luminosity-noclip);}</style><filter id="luminosity-noclip" x="-171.41" y="-6200.96" width="379.08" height="32766" filterUnits="userSpaceOnUse" color-interpolation-filters="sRGB"><feFlood flood-color="#fff" result="bg"/><feBlend in="SourceGraphic" in2="bg"/></filter><mask id="mask" x="-171.41" y="-6200.96" width="379.08" height="32766" maskUnits="userSpaceOnUse"><g class="cls-30"/></mask><clipPath id="clip-path"><rect class="cls-5" x="-168.58" y="-272.51" width="375.2" height="668.49"/></clipPath><clipPath id="clip-path-2"><path class="cls-5" d="M117.55-255.25c9.49-12,18.44-17.77,26.81-17.23,10.73.69,20.37,11.74,28.64,32.83,9,22.87,16.67,58.29,22.9,105.29,8.26,62.22,11.77,119.65,10.44,170.69-1.16,44.34-6,85.26-14.43,121.62C177.16,221.61,153.84,263,130.84,298.27c-24.66,37.79-53,65.06-84.2,81.06-27.13,13.92-55.9,19.14-85.48,15.54-61.65-7.51-112.58-52.36-126.19-91.38-6.38-18.3-4.11-34.26,6.39-44.91C-114.16,213.45-78,170.79-48.19,128.13c41.12-58.78,69.55-117,84.51-173C47-85,63.84-142.74,83.29-190.45q18.06-44.31,34.26-64.8m12.24,552.83-1-.68c22.87-35.06,46.07-76.23,60.72-139.52,8.39-36.19,13.22-76.94,14.37-121.12,1.33-50.91-2.18-108.2-10.41-170.29-6.21-46.8-13.87-82-22.76-104.71-7.88-20.11-16.79-30.62-26.47-31.25-16.44-1.06-36.7,26.77-58.6,80.48C66.2-141.92,49.41-84.25,38.73-44.26,23.7,12.06-4.86,70.54-46.14,129.56c-29.92,42.77-66.14,85.55-110.72,130.77-9.8,9.95-11.86,25-5.81,42.34C-149.31,341-99.22,385-38.54,392.39c29.08,3.54,57.36-1.6,84-15.28,30.82-15.8,58.83-42.78,83.25-80.21Z"/></clipPath><linearGradient id="linear-gradient" x1="197.09" y1="577.97" x2="198.09" y2="577.97" gradientTransform="matrix(-375.2, 0, 0, 375.2, 74155.24, -216788.38)" gradientUnits="userSpaceOnUse"><stop offset="0" stop-color="#fff"/><stop offset="0.03" stop-color="#d4d3d4"/><stop offset="0.15" stop-color="#231f20"/><stop offset="0.39" stop-color="#fff"/><stop offset="0.63" stop-color="#e6e7e8"/><stop offset="0.86" stop-color="#414042"/><stop offset="1" stop-color="#231f20"/><stop offset="1" stop-color="#231f20"/></linearGradient><filter id="luminosity-noclip-2" x="-150.69" y="-6200.96" width="354.58" height="32766" filterUnits="userSpaceOnUse" color-interpolation-filters="sRGB"><feFlood flood-color="#fff" result="bg"/><feBlend in="SourceGraphic" in2="bg"/></filter><mask id="mask-2" x="-150.69" y="-6200.96" width="354.58" height="32766" maskUnits="userSpaceOnUse"><g class="cls-29"/></mask><clipPath id="clip-path-3"><rect class="cls-5" x="-147.81" y="-241.89" width="346.58" height="618.94"/></clipPath><clipPath id="clip-path-4"><path class="cls-5" d="M119.24-226c8.73-11,17-16.34,24.64-15.81C164.56-240.42,180-198.71,191-114.34,203.88-4.86,200.73,88,181.63,161.59c-15.51,59.76-38.3,97.3-60.61,129C98.82,323.91,73.55,348,45.9,362.21,21.74,374.6-3.76,379.26-29.88,376.08c-18-2.2-45.25-9.35-72.73-30.95-19.53-15.34-34.59-34.88-41.3-53.61-6.78-18.89-4.67-35.44,5.95-46.6C-59.78,160.59,16.62,67.85,45.91-38.78,55.86-75,71.36-127,88.69-168.84Q104.8-207.78,119.24-226M105.4,308.13q7-8.88,13.68-18.9c22.21-31.51,44.86-68.83,60.28-128.23,19-73.34,22.16-165.88,9.3-275-5.64-43.16-12.62-75.67-20.75-96.6-7.19-18.54-15.33-28.25-24.19-28.86-15-1-32.78,23-52.86,71.57C73.58-126.18,58.11-74.32,48.17-38.16,18.75,69-57.85,162-136.25,246.52c-10,10.51-11.92,26.19-5.45,44.21,6.57,18.32,21.35,37.48,40.54,52.56C-86.23,355-61.69,369.84-29.6,373.75c25.65,3.12,50.69-1.46,74.43-13.63,21.77-11.17,42.08-28.61,60.57-52"/></clipPath><linearGradient id="linear-gradient-2" x1="197.09" y1="577.97" x2="198.09" y2="577.97" gradientTransform="matrix(-346.58, 0, 0, 346.58, 68506.63, -200241.32)" xlink:href="#linear-gradient"/><clipPath id="clip-path-5"><rect class="cls-5" x="197.09" y="-4559.77" width="1440" height="5137.73"/></clipPath><clipPath id="clip-path-6"><rect class="cls-5" x="-1810.5" y="-1867.66" width="2247.19" height="2872.83"/></clipPath><clipPath id="clip-path-7"><rect class="cls-5" x="-1484.27" y="-249.31" width="1440" height="376.06"/></clipPath><clipPath id="clip-path-9"><rect class="cls-5" x="-1484.27" y="-902.14" width="1440" height="1028.88"/></clipPath><filter id="luminosity-noclip-3" x="-171.41" y="-273.02" width="379.08" height="671.49" filterUnits="userSpaceOnUse" color-interpolation-filters="sRGB"><feFlood flood-color="#fff" result="bg"/><feBlend in="SourceGraphic" in2="bg"/></filter><mask id="mask-3" x="-171.41" y="-273.02" width="379.08" height="671.49" maskUnits="userSpaceOnUse"><g class="cls-1"><g class="cls-2"><g class="cls-3"><g class="cls-4"><g class="cls-6"><rect class="cls-7" x="-171.41" y="-273.02" width="379.08" height="671.49"/></g></g></g></g></g></mask><clipPath id="clip-path-10"><rect class="cls-5" x="-168.58" y="-272.51" width="375.2" height="668.49"/></clipPath><clipPath id="clip-path-11"><path class="cls-5" d="M117.55-255.25c9.49-12,18.44-17.77,26.81-17.23,10.73.69,20.37,11.74,28.64,32.83,9,22.87,16.67,58.29,22.9,105.29,8.26,62.22,11.77,119.65,10.44,170.69-1.16,44.34-6,85.26-14.43,121.62C177.16,221.61,153.84,263,130.84,298.27c-24.66,37.79-53,65.06-84.2,81.06-27.13,13.92-55.9,19.14-85.48,15.54-61.65-7.51-112.58-52.36-126.19-91.38-6.38-18.3-4.11-34.26,6.39-44.91C-114.16,213.45-78,170.79-48.19,128.13c41.12-58.78,69.55-117,84.51-173C47-85,63.84-142.74,83.29-190.45q18.06-44.31,34.26-64.8m12.24,552.83-1-.68c22.87-35.06,46.07-76.23,60.72-139.52,8.39-36.19,13.22-76.94,14.37-121.12,1.33-50.91-2.18-108.2-10.41-170.29-6.21-46.8-13.87-82-22.76-104.71-7.88-20.11-16.79-30.62-26.47-31.25-16.44-1.06-36.7,26.77-58.6,80.48C66.2-141.92,49.41-84.25,38.73-44.26,23.7,12.06-4.86,70.54-46.14,129.56c-29.92,42.77-66.14,85.55-110.72,130.77-9.8,9.95-11.86,25-5.81,42.34C-149.31,341-99.22,385-38.54,392.39c29.08,3.54,57.36-1.6,84-15.28,30.82-15.8,58.83-42.78,83.25-80.21Z"/></clipPath><linearGradient id="linear-gradient-3" x1="197.09" y1="577.96" x2="198.09" y2="577.96" gradientTransform="matrix(0, -668.49, -668.49, 0, 386380.5, 132150.12)" gradientUnits="userSpaceOnUse"><stop offset="0" stop-color="#f0c89f"/><stop offset="0.15" stop-color="#f0dbb8"/><stop offset="0.39" stop-color="#d2a680"/><stop offset="0.63" stop-color="#a27b5d"/><stop offset="0.86" stop-color="#d2a680"/><stop offset="1" stop-color="#d2a680"/><stop offset="1" stop-color="#d2a680"/></linearGradient><filter id="luminosity-noclip-4" x="-150.69" y="-242.39" width="354.58" height="621.65" filterUnits="userSpaceOnUse" color-interpolation-filters="sRGB"><feFlood flood-color="#fff" result="bg"/><feBlend in="SourceGraphic" in2="bg"/></filter><mask id="mask-4" x="-150.69" y="-242.39" width="354.58" height="621.65" maskUnits="userSpaceOnUse"><g class="cls-8"><g class="cls-9"><g class="cls-3"><g class="cls-10"><g class="cls-11"><rect class="cls-12" x="-150.69" y="-242.39" width="354.58" height="621.65"/></g></g></g></g></g></mask><clipPath id="clip-path-12"><rect class="cls-5" x="-147.81" y="-241.89" width="346.58" height="618.94"/></clipPath><clipPath id="clip-path-13"><path class="cls-5" d="M119.24-226c8.73-11,17-16.34,24.64-15.81C164.56-240.42,180-198.71,191-114.34,203.88-4.87,200.73,88,181.63,161.59c-15.51,59.76-38.3,97.3-60.61,129C98.82,323.91,73.55,348,45.9,362.21c-24.16,12.38-49.66,17.05-75.78,13.87-18-2.2-45.25-9.35-72.73-30.95-19.53-15.34-34.59-34.88-41.3-53.61-6.78-18.89-4.67-35.44,5.95-46.6C-59.78,160.59,16.62,67.85,45.91-38.78,55.86-75,71.36-127,88.69-168.84Q104.8-207.78,119.24-226M105.4,308.13q7-8.88,13.68-18.9c22.21-31.51,44.86-68.83,60.28-128.23,19-73.34,22.16-165.88,9.3-275-5.64-43.16-12.62-75.67-20.75-96.6-7.19-18.54-15.33-28.25-24.19-28.86-15-1-32.78,23-52.86,71.56C73.58-126.19,58.11-74.32,48.17-38.16,18.75,69-57.85,162-136.25,246.52c-10,10.51-11.92,26.19-5.45,44.21,6.57,18.32,21.35,37.48,40.54,52.56C-86.23,355-61.69,369.83-29.6,373.75c25.65,3.12,50.69-1.46,74.43-13.63,21.77-11.17,42.08-28.61,60.57-52"/></clipPath><linearGradient id="linear-gradient-4" x1="197.09" y1="577.96" x2="198.09" y2="577.96" gradientTransform="matrix(0, -618.94, -618.94, 0, 357749.33, 122365.4)" xlink:href="#linear-gradient-3"/></defs><g class="cls-13"><g id="Layer_1" data-name="Layer 1"><g class="cls-14"><g class="cls-15"><g class="cls-16"><g class="cls-17"><g class="cls-18"><g class="cls-16"><g class="cls-19"><g class="cls-20"><g class="cls-21"><g class="cls-22"><rect class="cls-23" x="-171.41" y="-273.02" width="379.08" height="671.49"/></g></g></g><g class="cls-24"><g class="cls-25"><g class="cls-26"><rect class="cls-27" x="-150.69" y="-242.39" width="354.58" height="621.65"/></g></g></g></g></g></g></g></g></g></g><path class="cls-28" d="M0,4.14c0-.21,0-.41.08-.62A2.59,2.59,0,0,1,.77,2.19c.49-.49,1-1,1.47-1.46a1.64,1.64,0,0,1,2.4,0C5.45,1.52,6.22,2.31,7,3.13A1.58,1.58,0,0,1,7,5.27c-.4.46-.85.88-1.28,1.32a.18.18,0,0,0,0,.24A10.13,10.13,0,0,0,7.37,9.17a11.51,11.51,0,0,0,2.27,1.91c.24.16.5.28.77.43.28-.29.56-.58.85-.86a7.68,7.68,0,0,1,.59-.55,1.59,1.59,0,0,1,2.1,0c.84.8,1.66,1.61,2.45,2.45a1.64,1.64,0,0,1,0,2.21,22.33,22.33,0,0,1-1.67,1.7,2.77,2.77,0,0,1-2.19.63A10.58,10.58,0,0,1,8.4,15.65,17.38,17.38,0,0,1,4.12,12.3,16.83,16.83,0,0,1,.54,6.73,7.1,7.1,0,0,1,0,4.5l0-.11Zm1,.15.06.61a2.56,2.56,0,0,0,0,.27A11.32,11.32,0,0,0,2.6,8.62a17.14,17.14,0,0,0,7.11,6.57,8.62,8.62,0,0,0,2.94.92,2,2,0,0,0,1.66-.57c.39-.4.79-.8,1.18-1.21a.77.77,0,0,0,0-1.25l-.88-.87L13.39,11a.68.68,0,0,0-1,0,1.21,1.21,0,0,0-.16.16c-.4.4-.8.8-1.21,1.19a.75.75,0,0,1-.92.19c-.35-.18-.69-.36-1-.56A13,13,0,0,1,6.22,9.42a9.47,9.47,0,0,1-1.5-2.21c-.3-.64-.26-.84.25-1.34s.81-.78,1.19-1.18a.65.65,0,0,0,0-1l-.1-.12L4,1.53a.88.88,0,0,0-.25-.18.72.72,0,0,0-.9.21c-.39.38-.77.78-1.17,1.16A2,2,0,0,0,1,4.29"/><path class="cls-28" d="M10.52,0A7,7,0,0,1,17,5.05a6.71,6.71,0,0,1,.26,1.73c0,.38-.13.55-.4.56s-.41-.17-.42-.54A6.1,6.1,0,0,0,12,1.06,6.19,6.19,0,0,0,10.4.82C10,.81,9.88.68,9.88.41S10.05,0,10.4,0Z"/><path class="cls-28" d="M10.49,2.45a4.5,4.5,0,0,1,4.17,3.49,3.88,3.88,0,0,1,.11,1c0,.28-.15.44-.41.44S14,7.19,14,6.9a3.67,3.67,0,0,0-2.73-3.51,4.15,4.15,0,0,0-.85-.12c-.35,0-.5-.14-.5-.41s.16-.41.52-.41h.1"/></g></g></svg>