<svg id="Layer_1" data-name="Layer 1" xmlns="http://www.w3.org/2000/svg" xmlns:xlink="http://www.w3.org/1999/xlink" viewBox="0 0 484.1 484.1"><defs><style>.cls-1{fill:url(#linear-gradient);}.cls-2{fill:url(#linear-gradient-2);}.cls-3{fill:url(#linear-gradient-3);}.cls-4{fill:url(#linear-gradient-4);}.cls-5{fill:url(#linear-gradient-5);}.cls-6{fill:url(#linear-gradient-6);}</style><linearGradient id="linear-gradient" x1="-32.74" y1="301.64" x2="616.73" y2="301.64" gradientUnits="userSpaceOnUse"><stop offset="0" stop-color="#c9a34a"/><stop offset="0" stop-color="#a47715"/><stop offset="0.23" stop-color="#c7992b"/><stop offset="0.41" stop-color="#dab461"/><stop offset="0.59" stop-color="#b68f3a"/><stop offset="0.77" stop-color="#cba147"/><stop offset="1" stop-color="#ffe084"/></linearGradient><linearGradient id="linear-gradient-2" x1="-32.74" y1="386.26" x2="616.73" y2="386.26" xlink:href="#linear-gradient"/><linearGradient id="linear-gradient-3" x1="-32.74" y1="78.75" x2="616.73" y2="78.75" xlink:href="#linear-gradient"/><linearGradient id="linear-gradient-4" x1="-32.74" y1="111.46" x2="616.73" y2="111.46" xlink:href="#linear-gradient"/><linearGradient id="linear-gradient-5" x1="-32.74" y1="111.46" x2="616.73" y2="111.46" xlink:href="#linear-gradient"/><linearGradient id="linear-gradient-6" x1="-32.74" y1="111.43" x2="616.73" y2="111.43" xlink:href="#linear-gradient"/></defs><title>Artboard 1</title><path class="cls-1" d="M85,232.48q0-27.91,0-55.81c0-18.61,11.75-30.26,30.47-30.28q33.34,0,66.68,0c18.34,0,30.23,11.78,30.28,30.09q.14,42.33-.06,84.65c0,4.08,1,5.47,5.27,5.41,16.23-.24,32.47-.12,48.71-.09,14.36,0,24.69,8.22,27.47,22.3,6.2,31.33,12.2,62.7,18.27,94.06,2.64,13.59,5.21,27.19,7.9,40.78,3.14,15.89-5.51,29.64-20.73,32.79-14.15,2.93-27.86-6.4-30.89-21.61q-11-55.08-21.45-110.27c-.78-4.13-2.27-5.23-6.36-5.21-41.31.15-82.61.09-123.91.09C96.39,319.38,85,308,85,287.81Q85,260.15,85,232.48Zm13.25.26v55.32c0,12.45,5.67,18.06,18.24,18.06q62.9,0,125.78,0c10.13,0,15.13,4,17.08,13.9q10.89,55.34,21.58,110.71c1.73,8.93,8,14,15.75,12.62S308.71,434.76,307,426q-13.06-66.93-26.11-133.86c-1.69-8.63-6.24-12.46-15-12.47-15.76,0-31.54-.43-47.28.13-11.13.4-20-4.84-19.64-19.82.61-27.89.21-55.8.15-83.69,0-10.65-6.14-16.67-16.76-16.68q-33.57,0-67.15,0c-11,0-17,5.89-17,16.82Q98.2,204.6,98.22,232.74Z"/><path class="cls-2" d="M115.74,342.41q40.89,0,81.78,0c16.35,0,25.93,9.45,26,25.68q.09,18.19,0,36.4c-.09,16-9.68,25.61-25.58,25.61q-82,0-164,0c-15.84,0-25.52-9.75-25.54-25.66q0-18.66,0-37.34c.06-14.6,10-24.63,24.64-24.68C60.59,342.35,88.17,342.41,115.74,342.41Zm.15,74.45q41.13,0,82.27,0c8.13,0,12-3.71,12.08-11.72q.15-18.92,0-37.83c-.07-7.75-4-11.6-11.73-11.61q-82.5-.06-165,0c-7.93,0-11.84,4-11.87,12,0,12.14,0,24.27,0,36.41,0,9.1,3.74,12.78,12.94,12.79Z"/><path class="cls-3" d="M148.87,27.18a51.77,51.77,0,0,1,51.43,51.4c.1,28.3-23.28,51.73-51.64,51.73a51.57,51.57,0,1,1,.21-103.13ZM110.41,78.47a38.32,38.32,0,1,0,38.73-38A38.29,38.29,0,0,0,110.41,78.47Z"/><path class="cls-4" d="M398.87,75.71c-.18,10.29-3.2,19.81-7.83,28.88q-5,9.85-10.29,19.61c-9.16,17-8,33.48,2,49.66,1,1.6,2.07,3.16,2.93,4.84,1.79,3.45,1,6.46-2.07,8.71a6.34,6.34,0,0,1-9.12-1.84c-13.12-19.44-18.19-40-7.83-62.33,3.7-8,7.78-15.79,12-23.48,9.89-17.91,8.54-35.18-2.31-52.14-3.95-6.16-3.8-9.88.15-12.29s7.36-.68,11.1,5.38C394.28,51.45,398.68,62.91,398.87,75.71Z"/><path class="cls-5" d="M475.74,75.62c-.11,11.5-3.94,21.73-9.09,31.58-3,5.7-6,11.42-9,17.08-9.21,17-7.89,33.48,2.06,49.65,1,1.61,2.05,3.18,2.91,4.85,1.78,3.47,1.05,6.59-2.16,8.65s-6.63,1.61-8.79-1.57c-12.38-18.22-18.07-37.59-9.55-59.24a171.76,171.76,0,0,1,12.05-24c11.28-19.22,10.83-37.88-1.7-56.28A19.18,19.18,0,0,1,451,43.9c-1.73-3.58-.77-6.61,2.47-8.55s6.61-1.35,8.75,1.85C470.08,48.88,475.65,61.39,475.74,75.62Z"/><path class="cls-6" d="M284.31,146.23c0-9.48,3.09-18.8,7.61-27.73,3.34-6.58,6.82-13.09,10.3-19.59,9.26-17.29,8.1-34.08-2.3-50.46-.84-1.33-1.72-2.64-2.42-4-1.78-3.59-1.34-6.93,2.19-9s6.78-1.2,9.05,2.18c13.29,19.82,17.93,40.69,7.16,63.21-3.38,7.08-6.94,14.09-10.82,20.9-10.54,18.54-9.72,36.54,2,54.19a21.4,21.4,0,0,1,1.68,2.84c1.56,3.43,1.1,6.49-2.09,8.75a6.38,6.38,0,0,1-9.1-1.92C289.79,173.83,284.13,161.36,284.31,146.23Z"/></svg>