<?xml version="1.0" encoding="utf-8"?>
<!-- Generator: Adobe Illustrator 22.0.0, SVG Export Plug-In . SVG Version: 6.00 Build 0)  -->
<svg version="1.1" id="Layer_1" xmlns="http://www.w3.org/2000/svg" xmlns:xlink="http://www.w3.org/1999/xlink" x="0px" y="0px"
	 viewBox="0 0 484.1 484.1" style="enable-background:new 0 0 484.1 484.1;" xml:space="preserve">
<style type="text/css">
	.st0{fill:url(#SVGID_1_);}
	.st1{fill:url(#SVGID_2_);}
</style>
<title>Spa</title>
<linearGradient id="SVGID_1_" gradientUnits="userSpaceOnUse" x1="242.0795" y1="3" x2="242.0795" y2="480.3028">
	<stop  offset="0" style="stop-color:#C9A34A"/>
	<stop  offset="0" style="stop-color:#A47715"/>
	<stop  offset="0.2279" style="stop-color:#C7992B"/>
	<stop  offset="0.414" style="stop-color:#DAB461"/>
	<stop  offset="0.586" style="stop-color:#B68F3A"/>
	<stop  offset="0.7721" style="stop-color:#CBA147"/>
	<stop  offset="1" style="stop-color:#FFE084"/>
</linearGradient>
<path class="st0" d="M386.3,480.5c-2.2,0-4.3-0.1-6.5-0.4c-12.3-1.8-20.4-11.7-20.6-25.1c-0.1-7.5-0.1-14.9-0.1-22.6
	c0-3.5,0-7,0-10.5V419H124.9v6.7c0,2.9,0,5.8,0,8.7c0,2.4,0,4.8,0,7.3c0.1,5.5,0.1,11.2-0.4,16.6c-1.1,12.9-10.8,21.8-24,22.1
	c-1.3,0-2.5,0-3.7,0s-2.4,0-3.6,0c-14-0.3-24-10.3-24.3-24.3c-0.2-7.7-0.1-15.4-0.1-23.5c0-3.7,0-7.5,0-11.3v-2.8H54.8
	c-12.6,0-20.8-2.4-25.8-7.5s-7.2-13.4-6.9-26.1c0.4-14.2,11-24.8,25.2-25c2.5,0,5.2-0.1,8.5-0.1h6.4h20.3l-4-4.7
	c-10.7-12.6-15-25.7-13-40s9.6-25.7,23-35l3.5-2.4l-3.4-2.3c-11.3-7.6-18.4-17-21.7-28.8c-3.6-12.8-1.6-26.5,5.5-37.8
	c7.6-12.2,20-20.7,34.1-23.4c4.3-0.8,8.6-1.2,13-1.2c51.3,0,102.6-0.1,153.9-0.1c39,0,78,0,116.9,0c9.6,0,18.3,3.9,23.9,10.5
	c5,6,7.1,13.9,5.6,21.6c-0.7,3.7-2.5,7.4-4.5,11.3c-1,2-2,4.1-3,6.3l-0.7,1.6l1.1,1.3c10.7,13.5,10.5,23.4-0.7,39.3l-1.2,1.6
	l1.2,1.6c11.4,15.9,11.5,25.5,0.5,39.5l-1.1,1.4l0.7,1.6c0.9,1.9,1.8,3.8,2.8,5.5c2,3.9,3.9,7.5,4.7,11.2c0.7,3.6,0.3,7.6-0.1,11.8
	c-0.2,2-0.4,4.1-0.5,6.3l-0.1,3h3h4.3h5.1c2,0,4,0,6,0c14.1,0.3,24.5,10.7,24.8,24.7v1.5c0.2,4.1,0.1,8.1-0.5,12.1
	c-2.1,11.5-12.2,19.8-24.6,20.2c-2,0.1-4.1,0.1-6.7,0.1h-5.6c-2.1,0-4.2,0-6.5,0h-2.8v9.7c0,3,0,6.1,0,9.1c0,6.7,0.1,13.7-0.2,20.5
	c-0.5,12.3-10.5,22.2-22.8,22.6C390.3,480.4,388.2,480.5,386.3,480.5z M80.5,421.5c0,3.3,0,6.6,0,9.9c0,7.9,0,15.3-0.1,22.8
	c-0.1,7.2,2.9,11.8,8.8,13.9c2.2,0.7,4.5,1.1,6.9,1l0,0c4.7,0,11.3-1.4,14.3-5.2c1.3-1.4,2.1-3.1,2.2-5c0.1-9.8,0.1-19.8,0.1-29.5
	v-10.7H80.5V421.5z M370.8,431.5c0,7.9,0,15.6,0,23.3c0,7.5,3.8,12.5,10,13.4c0.6,0.1,1.1,0.2,1.6,0.2c2.2,0.4,4.4,0.6,6.6,0.6
	c5.2,0,9.1-1.8,12.1-5.6c1.2-1.4,1.9-3.2,2-5c0.1-9.6,0.1-19.5,0.1-29v-10.7h-32.4L370.8,431.5z M432.2,406.8c0.5,0,1,0,1.4,0.1
	s1.2,0.1,1.9,0.1c1.2,0,2.4-0.2,3.4-0.7l1-0.5c3.1-1.5,6.6-3.1,8.5-6.2c3.9-6.4,4.3-13.4,1-19.1s-9.5-9-16.9-9H161.1
	c-32.9,0-71.8,0-111.4-0.1c-5,0-11.9,0.9-15.1,8.8c-2.6,6.4-1.4,20,4.3,23.2c4,2.2,8.5,3.3,13,3.3c92.1,0.1,185.6,0.1,264.8,0.1
	L432.2,406.8z M388.5,359.8h1.2h1.3c1.1,0,2.3-0.1,3.4-0.2c7.7-1.1,13.6-7.6,13.8-15.4c0.5-8.1-5.3-15.2-13.3-16.3
	c-1.9-0.3-3.8-0.4-5.7-0.4H132c-1.6,0-3.1-0.1-4.7-0.3c-3.1-0.4-4.6-2.2-4.8-5.3s1.2-5,4.3-5.6c2-0.4,4-0.5,6-0.5h1.3
	c61.2,0,122.4,0,183.6,0h72.2c1.4,0,2.8,0,4.2-0.2c8.4-0.7,14.7-7.9,14.3-16.3c-0.2-9.5-7.2-15.6-17.8-15.6H219h-28.4h-28.4
	c-17.9,0-32.3,0-45.6,0.1c-20,0.1-37.4,14.5-39.6,32.9c-2.3,19.2,9.6,36.2,29,41.4c5,1.2,10.2,1.8,15.4,1.7
	c59.5,0.1,119,0.1,164.3,0.1L388.5,359.8z M195.1,195.9c-20.3,0-47,0-73.6,0.1c-4.9-0.1-9.9,0.4-14.7,1.5c-16.9,4-29.3,18.4-30,34.9
	c-0.7,16.9,10.1,31.8,27,37.1c5.6,1.7,11.4,2.6,17.2,2.6c59.6,0.1,119.1,0.1,164.3,0.1h104c6.4,0,11.5-1.8,14.8-5.2
	c2.9-3,4.4-7.1,4.2-11.3c-0.2-9.9-7.2-15.8-18.9-15.8H244.1H132.2c-1.5,0-3.1,0-4.6-0.2c-3.4-0.4-5.1-2.2-5.1-5.5
	c0-2.2,0.5-5.2,5.4-5.8c1.1-0.1,2.1-0.2,3.2-0.2h1.6h256.5c1.7,0,3.4-0.1,5.1-0.3c8.9-1.1,14.7-8.2,14-17.2s-7.5-14.7-17.9-14.7
	L195.1,195.9L195.1,195.9z"/>
<linearGradient id="SVGID_2_" gradientUnits="userSpaceOnUse" x1="242.1077" y1="3" x2="242.1077" y2="480.3028">
	<stop  offset="0" style="stop-color:#C9A34A"/>
	<stop  offset="0" style="stop-color:#A47715"/>
	<stop  offset="0.2279" style="stop-color:#C7992B"/>
	<stop  offset="0.414" style="stop-color:#DAB461"/>
	<stop  offset="0.586" style="stop-color:#B68F3A"/>
	<stop  offset="0.7721" style="stop-color:#CBA147"/>
	<stop  offset="1" style="stop-color:#FFE084"/>
</linearGradient>
<path class="st1" d="M240.1,146.4c-15,0-27.3-0.5-38.7-1.5c-26.3-2.3-48.4-27.1-49.4-55.2c-0.2-5.3-0.2-10.1-0.1-14.6
	c0.1-3.9,1.9-5.8,5.7-5.8c5.4,0,11.2-0.1,18.4-0.1h12.2h15l0.4-2.3c0.2-1.2,0.5-2.6,0.7-4c0.6-3.2,1.2-6.8,2.1-10.3
	c4.4-18.1,14.2-33.4,29.1-45.4c3.1-2.5,5-3.6,6.5-3.6s3.5,1.1,6.7,3.7c17.5,14.3,27.9,33.2,31,56.2l0.3,2.4l0.4,3.3h26.9
	c6.3,0,12.5,0,18.8,0c3.6,0,5.5,1.5,5.8,4.5c2.3,26.1-4.9,45.5-22.1,59.5c-10.1,8.2-20.5,12.4-30.9,12.6L270,146
	C260.2,146.2,250.1,146.4,240.1,146.4z M164.1,82.7c-2.4,23.9,14.3,46.6,37.2,50.6c7.1,1.3,14.4,1.4,21.5,1.6
	c3.2,0.1,6.6,0.2,9.9,0.3l2.7,0.1l0.2-2.7c2-23.2-13.3-45.1-34.8-49.9c-7.7-1.7-15.7-2-23.5-2.2c-3.4-0.1-6.9-0.2-10.3-0.4l-2.7-0.2
	L164.1,82.7z M304.7,80.5c-19.6,0-36.6,6.8-46.9,18.6c-7.8,8.9-11.2,20.9-9.3,32.7l0.3,2.1l2.1,0.3c4.5,0.6,9,1,13.5,1
	c18.2,0,33.8-5.7,43.7-16.2c8.6-9,12.8-21,12.1-34.8l-0.1-2.3l-2.3-0.3C313.5,80.8,309.1,80.5,304.7,80.5z M240.3,18.4
	c-13.6,12.2-22.3,28.8-24.6,46.9c-0.6,5.2-0.2,11.1,7.2,15.3c3.1,1.8,5.9,4.7,8.6,7.6c0.6,0.6,1.1,1.2,1.7,1.8
	c1.6,1.7,3,3.4,4.3,5.3c0.5,0.7,0.9,1.2,1.3,1.7l1.9,2.3l2.2-2l5.8-5.2c5.6-4.9,10.8-9.6,16.1-14.4c1.7-1.5,3.6-4.3,3.5-7.1
	c-0.7-20.3-8.6-37.4-24.2-52.2l-1.9-1.8L240.3,18.4z"/>
</svg>
