<svg id="Layer_1" data-name="Layer 1" xmlns="http://www.w3.org/2000/svg" viewBox="0 0 484.09 484.09"><defs><style>.cls-1{fill:#f09c1b;}</style></defs><title>Spa</title><path class="cls-1" d="M386.25,480.48a45.82,45.82,0,0,1-6.49-.41c-12.28-1.8-20.37-11.66-20.61-25.11-.14-7.48-.1-14.85-.07-22.65,0-3.47,0-7,0-10.53V419H124.94v6.7c0,2.88,0,5.79,0,8.7,0,2.42,0,4.83,0,7.25.06,5.49.11,11.16-.37,16.62-1.13,12.93-10.79,21.83-24,22.15-1.25,0-2.49.05-3.74.05s-2.37,0-3.55,0c-14-.31-24-10.29-24.32-24.26-.16-7.72-.12-15.39-.08-23.52,0-3.69,0-7.45,0-11.31v-2.83H54.77c-12.58,0-20.77-2.39-25.77-7.52s-7.2-13.44-6.89-26.13c.36-14.24,11-24.75,25.23-25,2.5,0,5.19-.06,8.46-.06l6.38,0H82.49l-4-4.67c-10.74-12.62-15-25.71-13-40s9.55-25.73,23-35L92,277.73l-3.44-2.32c-11.32-7.64-18.42-17-21.72-28.75a47,47,0,0,1,5.47-37.77,51.57,51.57,0,0,1,34.1-23.36,69.33,69.33,0,0,1,13-1.24q77-.06,153.91-.06,58.47,0,116.94,0c9.59,0,18.29,3.85,23.87,10.54a25.93,25.93,0,0,1,5.56,21.6c-.67,3.67-2.52,7.36-4.48,11.27-1,2-2,4.06-3,6.26l-.68,1.57,1.07,1.33c10.72,13.46,10.54,23.39-.74,39.35l-1.17,1.65,1.18,1.64c11.41,15.88,11.54,25.48.55,39.53l-1.06,1.36.72,1.57c.88,1.91,1.84,3.75,2.77,5.53,2,3.87,3.93,7.51,4.68,11.24.71,3.57.3,7.57-.13,11.82-.2,2-.42,4.15-.52,6.33l-.14,3h3l4.33,0,5.07,0c2,0,4,0,6,0,14.07.3,24.51,10.7,24.83,24.73l0,1.47a61,61,0,0,1-.49,12.14c-2.1,11.49-12.21,19.81-24.61,20.22-2,.06-4.09.09-6.67.09l-5.64,0c-2.09,0-4.24,0-6.51,0h-2.83v9.69q0,4.56,0,9.12c0,6.72.08,13.66-.2,20.45a23.65,23.65,0,0,1-22.82,22.62C390.27,480.39,388.23,480.48,386.25,480.48ZM80.52,421.54q0,5,0,9.9c0,7.86,0,15.28-.05,22.8-.09,7.17,2.87,11.83,8.77,13.87a21.4,21.4,0,0,0,6.87,1.05h0c4.7,0,11.26-1.36,14.25-5.22a8.39,8.39,0,0,0,2.21-5c.09-9.82.09-19.82.08-29.49V418.7H80.52Zm290.24,10c0,7.92,0,15.59,0,23.27,0,7.53,3.75,12.53,10,13.38q.83.11,1.65.24a46.4,46.4,0,0,0,6.64.64c5.19,0,9.14-1.84,12.08-5.63a8.82,8.82,0,0,0,2-5.05c.08-9.63.07-19.46.07-29V418.66H370.76Zm61.41-24.79c.47,0,.95,0,1.43.08s1.23.09,1.87.09a7.62,7.62,0,0,0,3.44-.69l1-.49c3.11-1.48,6.62-3.15,8.45-6.19,3.88-6.44,4.25-13.41,1-19.11s-9.53-9-16.94-9H161.07c-32.85,0-71.76,0-111.36-.06-5,0-11.94.91-15.12,8.79-2.56,6.35-1.42,19.95,4.32,23.21a27,27,0,0,0,13,3.29c92.11.11,185.55.12,264.8.12Zm-43.62-47,1.23,0h1.32a23.35,23.35,0,0,0,3.43-.22,16,16,0,0,0,13.79-15.38A15.6,15.6,0,0,0,395,327.82a34,34,0,0,0-5.72-.38H132a33.49,33.49,0,0,1-4.7-.25c-3.05-.44-4.6-2.17-4.75-5.29s1.24-5,4.25-5.64a28.62,28.62,0,0,1,6-.45h1.29q91.82,0,183.57,0H389.9a39,39,0,0,0,4.16-.18,15.53,15.53,0,0,0,14.28-16.32c-.21-9.47-7.19-15.59-17.78-15.6H219l-28.38,0-28.38,0c-17.86,0-32.34,0-45.58.13-20,.12-37.37,14.55-39.59,32.85-2.34,19.23,9.59,36.24,29,41.37a59.93,59.93,0,0,0,15.38,1.74c59.48.06,119,.07,164.27.07ZM195.09,195.87c-20.3,0-47,0-73.61.07a63.32,63.32,0,0,0-14.72,1.48c-16.93,4-29.25,18.36-30,34.92-.73,16.89,10.12,31.8,27,37.1A58.53,58.53,0,0,0,121,272c59.57.09,119.1.1,164.3.1h104c6.35,0,11.47-1.79,14.8-5.18a15.32,15.32,0,0,0,4.18-11.32c-.17-9.9-7.24-15.81-18.9-15.81l-145.24,0H132.23a35.41,35.41,0,0,1-4.57-.22c-3.44-.45-5.08-2.19-5.14-5.46,0-2.19.46-5.17,5.36-5.81a24.39,24.39,0,0,1,3.17-.17l1.59,0H389.17a39.58,39.58,0,0,0,5.11-.26c8.91-1.12,14.67-8.2,14-17.23s-7.51-14.72-17.89-14.73H195.09Z"/><path class="cls-1" d="M240.14,146.39c-15,0-27.31-.47-38.71-1.48C175.17,142.59,153,117.82,152,89.69c-.18-5.35-.21-10.14-.06-14.64.12-3.93,1.94-5.78,5.71-5.82,5.35,0,11.19-.08,18.37-.08l12.17,0h15l.44-2.3c.24-1.24.48-2.58.73-4,.57-3.2,1.21-6.82,2.07-10.31,4.43-18.08,14.23-33.36,29.13-45.41,3.13-2.53,5-3.56,6.49-3.56s3.46,1.08,6.71,3.74c17.53,14.33,27.95,33.22,31,56.15l.31,2.4.41,3.27h26.89c6.29,0,12.53,0,18.77,0,3.59,0,5.55,1.53,5.81,4.52,2.32,26.08-4.92,45.54-22.14,59.49-10.08,8.18-20.49,12.42-30.92,12.61L270,146C260.21,146.18,250.08,146.39,240.14,146.39Zm-76-63.66c-2.36,23.88,14.34,46.58,37.22,50.6,7.07,1.25,14.4,1.43,21.49,1.61,3.23.08,6.57.16,9.87.34l2.74.15.24-2.74c2-23.21-13.28-45.14-34.76-49.93-7.71-1.72-15.73-2-23.49-2.16-3.4-.1-6.91-.19-10.3-.42L164.41,80Zm140.55-2.26c-19.57,0-36.65,6.79-46.88,18.63a39.71,39.71,0,0,0-9.3,32.67l.31,2.1,2.1.29a97.9,97.9,0,0,0,13.46,1c18.24,0,33.77-5.74,43.73-16.18,8.58-9,12.77-21,12.13-34.83l-.11-2.33-2.32-.34A90.45,90.45,0,0,0,304.69,80.47ZM240.32,18.36a75.79,75.79,0,0,0-24.6,46.88c-.59,5.21-.19,11.1,7.23,15.35,3.13,1.79,5.93,4.72,8.64,7.55.57.6,1.14,1.19,1.72,1.78a52.65,52.65,0,0,1,4.32,5.27c.48.65.91,1.24,1.3,1.72l1.86,2.35,2.24-2,5.8-5.16c5.57-4.94,10.83-9.6,16.06-14.45,1.66-1.54,3.57-4.32,3.47-7.08-.7-20.32-8.62-37.38-24.21-52.16l-1.88-1.78Z"/></svg>