<svg xmlns="http://www.w3.org/2000/svg" xmlns:xlink="http://www.w3.org/1999/xlink" viewBox="0 0 22.31 22.31"><defs><style>.cls-1,.cls-13,.cls-8{isolation:isolate;}.cls-1{filter:url(#luminosity-noclip-3);}.cls-2{mask:url(#mask);}.cls-3{mix-blend-mode:multiply;}.cls-4{clip-path:url(#clip-path);}.cls-29,.cls-5{fill:none;}.cls-6{clip-path:url(#clip-path-2);}.cls-7{fill:url(#linear-gradient);}.cls-8{filter:url(#luminosity-noclip-4);}.cls-9{mask:url(#mask-2);}.cls-10{clip-path:url(#clip-path-3);}.cls-11{clip-path:url(#clip-path-4);}.cls-12{fill:url(#linear-gradient-2);}.cls-14{clip-path:url(#clip-path-5);}.cls-15{opacity:0.4;}.cls-16{clip-path:url(#clip-path-6);}.cls-17{clip-path:url(#clip-path-7);}.cls-18{opacity:0.7;mix-blend-mode:soft-light;}.cls-19{clip-path:url(#clip-path-9);}.cls-20{mask:url(#mask-3);}.cls-21{clip-path:url(#clip-path-10);}.cls-22{clip-path:url(#clip-path-11);}.cls-23{fill:url(#linear-gradient-3);}.cls-24{mask:url(#mask-4);}.cls-25{clip-path:url(#clip-path-12);}.cls-26{clip-path:url(#clip-path-13);}.cls-27{fill:url(#linear-gradient-4);}.cls-28{fill:#fff;}.cls-29{stroke:#fff;stroke-miterlimit:10;stroke-width:0.5px;}.cls-30{filter:url(#luminosity-noclip-2);}.cls-31{filter:url(#luminosity-noclip);}</style><filter id="luminosity-noclip" x="-228.2" y="-6095.37" width="379.08" height="32766" filterUnits="userSpaceOnUse" color-interpolation-filters="sRGB"><feFlood flood-color="#fff" result="bg"/><feBlend in="SourceGraphic" in2="bg"/></filter><mask id="mask" x="-228.2" y="-6095.37" width="379.08" height="32766" maskUnits="userSpaceOnUse"><g class="cls-31"/></mask><clipPath id="clip-path"><rect class="cls-5" x="-225.37" y="-378.1" width="375.2" height="668.49"/></clipPath><clipPath id="clip-path-2"><path class="cls-5" d="M60.76-360.84c9.49-12,18.45-17.77,26.82-17.23,10.73.69,20.36,11.74,28.63,32.83,9,22.87,16.67,58.29,22.91,105.29,8.25,62.22,11.76,119.65,10.43,170.69-1.15,44.34-6,85.26-14.43,121.62C120.38,116,97.06,157.42,74.05,192.68c-24.66,37.79-53,65.06-84.19,81.06-27.14,13.92-55.9,19.14-85.49,15.54-61.65-7.51-112.57-52.36-126.19-91.38-6.38-18.3-4.11-34.26,6.39-44.91C-170.94,107.86-134.82,65.2-105,22.54c41.12-58.78,69.56-117,84.51-173C-9.78-190.56,7.05-248.33,26.5-296q18.07-44.31,34.26-64.8M73,192,72,191.31C94.84,156.25,118,115.08,132.69,51.79c8.38-36.19,13.22-76.94,14.37-121.12,1.32-50.91-2.18-108.2-10.42-170.29-6.21-46.8-13.86-82-22.75-104.71C106-364.44,97.1-374.95,87.41-375.58,71-376.64,50.71-348.81,28.82-295.1,9.42-247.51-7.38-189.84-18-149.85-33.09-93.53-61.64-35-102.93,24c-29.92,42.77-66.14,85.55-110.72,130.77-9.8,9.95-11.86,25-5.81,42.34,13.37,38.3,63.45,82.33,124.13,89.72,29.09,3.54,57.36-1.6,84.05-15.28,30.82-15.8,58.82-42.78,83.24-80.21Z"/></clipPath><linearGradient id="linear-gradient" x1="140.31" y1="472.38" x2="141.31" y2="472.38" gradientTransform="matrix(-375.2, 0, 0, 375.2, 52792.58, -177276.87)" gradientUnits="userSpaceOnUse"><stop offset="0" stop-color="#fff"/><stop offset="0.03" stop-color="#d4d3d4"/><stop offset="0.15" stop-color="#231f20"/><stop offset="0.39" stop-color="#fff"/><stop offset="0.63" stop-color="#e6e7e8"/><stop offset="0.86" stop-color="#414042"/><stop offset="1" stop-color="#231f20"/><stop offset="1" stop-color="#231f20"/></linearGradient><filter id="luminosity-noclip-2" x="-207.48" y="-6095.37" width="354.58" height="32766" filterUnits="userSpaceOnUse" color-interpolation-filters="sRGB"><feFlood flood-color="#fff" result="bg"/><feBlend in="SourceGraphic" in2="bg"/></filter><mask id="mask-2" x="-207.48" y="-6095.37" width="354.58" height="32766" maskUnits="userSpaceOnUse"><g class="cls-30"/></mask><clipPath id="clip-path-3"><rect class="cls-5" x="-204.6" y="-347.48" width="346.58" height="618.94"/></clipPath><clipPath id="clip-path-4"><path class="cls-5" d="M62.45-331.64c8.74-11,17-16.34,24.65-15.81,20.67,1.44,36.08,43.15,47.1,127.52C147.1-110.45,144-17.62,124.84,56c-15.51,59.76-38.29,97.3-60.61,129C42,218.32,16.76,242.44-10.89,256.62-35,269-60.54,273.67-86.67,270.49c-18-2.2-45.24-9.35-72.73-31-19.53-15.34-34.58-34.88-41.3-53.61-6.78-18.89-4.66-35.44,5.95-46.6C-116.56,55-40.17-37.74-10.88-144.37c10-36.22,25.46-88.19,42.78-130.06Q48-313.37,62.45-331.64M48.61,202.54q7-8.88,13.69-18.9c22.2-31.51,44.86-68.83,60.27-128.23,19-73.34,22.16-165.88,9.3-275-5.64-43.16-12.62-75.67-20.74-96.6-7.2-18.54-15.34-28.25-24.19-28.86-15-1-32.79,23-52.87,71.57C16.79-231.77,1.32-179.91-8.61-143.75-38-36.64-114.64,56.38-193,140.93c-10,10.51-11.92,26.19-5.46,44.21,6.57,18.32,21.35,37.48,40.54,52.56,14.94,11.73,39.48,26.55,71.57,30.46,25.65,3.12,50.69-1.46,74.42-13.63,21.78-11.17,42.08-28.61,60.57-52"/></clipPath><linearGradient id="linear-gradient-2" x1="140.31" y1="472.38" x2="141.31" y2="472.38" gradientTransform="matrix(-346.58, 0, 0, 346.58, 48769.17, -163751.79)" xlink:href="#linear-gradient"/><clipPath id="clip-path-5"><rect class="cls-5" x="140.31" y="-4665.36" width="1440" height="5137.73"/></clipPath><clipPath id="clip-path-6"><rect class="cls-5" x="-1867.28" y="-1973.25" width="2247.19" height="2872.83"/></clipPath><clipPath id="clip-path-7"><rect class="cls-5" x="-1541.05" y="-354.9" width="1440" height="376.06"/></clipPath><clipPath id="clip-path-9"><rect class="cls-5" x="-1541.05" y="-1007.73" width="1440" height="1028.88"/></clipPath><filter id="luminosity-noclip-3" x="-228.2" y="-378.61" width="379.08" height="671.49" filterUnits="userSpaceOnUse" color-interpolation-filters="sRGB"><feFlood flood-color="#fff" result="bg"/><feBlend in="SourceGraphic" in2="bg"/></filter><mask id="mask-3" x="-228.2" y="-378.61" width="379.08" height="671.49" maskUnits="userSpaceOnUse"><g class="cls-1"><g class="cls-2"><g class="cls-3"><g class="cls-4"><g class="cls-6"><rect class="cls-7" x="-228.2" y="-378.61" width="379.08" height="671.49"/></g></g></g></g></g></mask><clipPath id="clip-path-10"><rect class="cls-5" x="-225.37" y="-378.1" width="375.2" height="668.49"/></clipPath><clipPath id="clip-path-11"><path class="cls-5" d="M60.76-360.84c9.49-12,18.45-17.77,26.82-17.23,10.73.69,20.36,11.74,28.63,32.83,9,22.87,16.67,58.29,22.91,105.29,8.25,62.22,11.76,119.65,10.43,170.69-1.15,44.34-6,85.26-14.43,121.62C120.38,116,97.06,157.42,74.05,192.68c-24.66,37.79-53,65.06-84.19,81.06-27.14,13.92-55.9,19.14-85.49,15.54-61.65-7.51-112.57-52.36-126.19-91.38-6.38-18.3-4.11-34.26,6.39-44.91C-170.94,107.86-134.82,65.2-105,22.54c41.12-58.78,69.56-117,84.51-173C-9.78-190.56,7.05-248.33,26.5-296q18.07-44.31,34.26-64.8M73,192,72,191.31C94.84,156.25,118,115.08,132.69,51.79c8.38-36.19,13.22-76.94,14.37-121.12,1.32-50.91-2.18-108.2-10.42-170.29-6.21-46.8-13.86-82-22.75-104.71C106-364.44,97.1-374.95,87.41-375.58,71-376.64,50.71-348.81,28.82-295.1,9.42-247.51-7.38-189.84-18-149.85-33.09-93.53-61.64-35-102.93,24c-29.92,42.77-66.14,85.55-110.72,130.77-9.8,9.95-11.86,25-5.81,42.34,13.37,38.3,63.45,82.33,124.13,89.72,29.09,3.54,57.36-1.6,84.05-15.28,30.82-15.8,58.82-42.78,83.24-80.21Z"/></clipPath><linearGradient id="linear-gradient-3" x1="140.31" y1="472.37" x2="141.31" y2="472.37" gradientTransform="matrix(0, -668.49, -668.49, 0, 315738, 94083.88)" gradientUnits="userSpaceOnUse"><stop offset="0" stop-color="#f0c89f"/><stop offset="0.15" stop-color="#f0dbb8"/><stop offset="0.39" stop-color="#d2a680"/><stop offset="0.63" stop-color="#a27b5d"/><stop offset="0.86" stop-color="#d2a680"/><stop offset="1" stop-color="#d2a680"/><stop offset="1" stop-color="#d2a680"/></linearGradient><filter id="luminosity-noclip-4" x="-207.48" y="-347.98" width="354.58" height="621.65" filterUnits="userSpaceOnUse" color-interpolation-filters="sRGB"><feFlood flood-color="#fff" result="bg"/><feBlend in="SourceGraphic" in2="bg"/></filter><mask id="mask-4" x="-207.48" y="-347.98" width="354.58" height="621.65" maskUnits="userSpaceOnUse"><g class="cls-8"><g class="cls-9"><g class="cls-3"><g class="cls-10"><g class="cls-11"><rect class="cls-12" x="-207.48" y="-347.98" width="354.58" height="621.65"/></g></g></g></g></g></mask><clipPath id="clip-path-12"><rect class="cls-5" x="-204.6" y="-347.48" width="346.58" height="618.94"/></clipPath><clipPath id="clip-path-13"><path class="cls-5" d="M62.45-331.64c8.74-11,17-16.34,24.65-15.81,20.67,1.44,36.08,43.15,47.1,127.52C147.1-110.46,144-17.62,124.84,56c-15.51,59.76-38.29,97.3-60.61,129C42,218.32,16.76,242.44-10.89,256.62-35,269-60.54,273.67-86.67,270.49c-18-2.2-45.24-9.35-72.73-31-19.53-15.34-34.58-34.88-41.3-53.61-6.78-18.89-4.66-35.44,5.95-46.6C-116.56,55-40.17-37.74-10.88-144.37c10-36.22,25.46-88.19,42.78-130.06Q48-313.37,62.45-331.64M48.61,202.54q7-8.88,13.69-18.9c22.2-31.51,44.86-68.83,60.27-128.23,19-73.34,22.16-165.88,9.3-275-5.64-43.16-12.62-75.67-20.74-96.6-7.2-18.54-15.34-28.25-24.19-28.86-15-1-32.79,23-52.87,71.56C16.79-231.78,1.32-179.91-8.61-143.75-38-36.64-114.64,56.37-193,140.93c-10,10.51-11.92,26.19-5.46,44.21,6.57,18.32,21.35,37.48,40.54,52.56,14.94,11.73,39.48,26.54,71.57,30.46,25.65,3.12,50.69-1.46,74.42-13.63,21.78-11.17,42.08-28.61,60.57-52"/></clipPath><linearGradient id="linear-gradient-4" x1="140.31" y1="472.37" x2="141.31" y2="472.37" gradientTransform="matrix(0, -618.94, -618.94, 0, 292338.74, 87112.85)" xlink:href="#linear-gradient-3"/></defs><g class="cls-13"><g id="Layer_1" data-name="Layer 1"><g class="cls-14"><g class="cls-15"><g class="cls-16"><g class="cls-17"><g class="cls-18"><g class="cls-16"><g class="cls-19"><g class="cls-20"><g class="cls-21"><g class="cls-22"><rect class="cls-23" x="-228.2" y="-378.61" width="379.08" height="671.49"/></g></g></g><g class="cls-24"><g class="cls-25"><g class="cls-26"><rect class="cls-27" x="-207.48" y="-347.98" width="354.58" height="621.65"/></g></g></g></g></g></g></g></g></g></g><path class="cls-28" d="M16.09,10.05l-.28,0a3.09,3.09,0,0,1-2.58-1.4v4.75A3.51,3.51,0,1,1,9.72,9.91h.22v1.73l-.22,0a1.79,1.79,0,1,0,0,3.58,1.84,1.84,0,0,0,1.87-1.77V5.38h1.66A3.07,3.07,0,0,0,16.1,8.13v1.92"/><circle class="cls-29" cx="11.16" cy="11.16" r="10.91"/></g></g></svg>