<svg id="Layer_1" data-name="Layer 1" xmlns="http://www.w3.org/2000/svg" xmlns:xlink="http://www.w3.org/1999/xlink" viewBox="0 0 484.1 484.1"><defs><style>.cls-1,.cls-2,.cls-3{fill:none;stroke-miterlimit:10;stroke-width:8px;}.cls-1{stroke:url(#linear-gradient);}.cls-2{stroke:url(#linear-gradient-2);}.cls-3{stroke:url(#linear-gradient-3);}</style><linearGradient id="linear-gradient" x1="42.51" y1="298.62" x2="459.66" y2="298.62" gradientUnits="userSpaceOnUse"><stop offset="0" stop-color="#c9a34a"/><stop offset="0" stop-color="#a47715"/><stop offset="0.23" stop-color="#c7992b"/><stop offset="0.41" stop-color="#dab461"/><stop offset="0.59" stop-color="#b68f3a"/><stop offset="0.77" stop-color="#cba147"/><stop offset="1" stop-color="#ffe084"/></linearGradient><linearGradient id="linear-gradient-2" x1="75.05" y1="100.8" x2="240.81" y2="100.8" xlink:href="#linear-gradient"/><linearGradient id="linear-gradient-3" x1="298.62" y1="110.12" x2="391.46" y2="110.12" xlink:href="#linear-gradient"/></defs><title>trong-tre</title><path class="cls-1" d="M455.66,295c-1.12.33-1.06,1.46-1.4,2.24-5.93,13.83-23.67,16.25-32.19,3.9-6.46-9.38-11.78-19.56-17.58-29.4-3.63-6.16-7.22-12.34-11.08-18.94-.94,1.69-.59,3.1-.59,4.41q0,78.71,0,157.42c0,8.17-2.36,15-9.59,19.33-12.5,7.53-27.89-.45-29.68-15.31a44.86,44.86,0,0,1-.17-5.19q0-46.54,0-93.09a24.46,24.46,0,0,0-.27-4.77,7.64,7.64,0,0,0-7.72-6.19,7.52,7.52,0,0,0-7.24,6.71,38.74,38.74,0,0,0-.22,5.17c.06,31.57.21,63.13.19,94.7,0,14.81-13.09,24.34-26.64,19.63-8.35-2.9-13.13-10.38-13.12-20.72q.09-55.74.23-111.48c0-16.64,0-33.28,0-50-1.58-.08-1.61,1.48-2.11,2.34-8.35,14.2-16.58,28.47-24.94,42.67-5.85,9.92-15.39,13.12-25.09,8.72a15.76,15.76,0,0,1-5.92-5.18c-6.1-7.94-10.68-16.82-15.75-25.39-6.55-11.06-13-22.2-19.84-33.26-.22,7.5-1,15,0,22.41,4,29.52,8.23,59,12.34,88.53,1.07,7.66-2.71,13.55-10.1,15.26-2.52.58-2.68,1.77-2.67,3.82q.07,26.18,0,52.34c0,10.63-5.47,18.06-14.83,20.59a19.54,19.54,0,0,1-24.27-16.32c-.8-6.24-.34-12.51-.38-18.76-.07-12.52-.14-25,.07-37.56,0-3.11-.9-3.87-3.79-3.61a46.91,46.91,0,0,1-8.38,0c-2.78-.25-3.53.61-3.51,3.44.14,17.58.12,35.16.05,52.74,0,10.07-5.52,17.5-14.53,20-11.71,3.27-24-4.95-24.52-17.16-.59-14.89-.27-29.82-.34-44.73,0-2-.14-4,0-6,.39-4.75.53-8.55-5.9-10-5.12-1.18-7.78-7.44-7-13,3.68-27,7.32-54,11.27-81A179.66,179.66,0,0,0,110,242.49c-1.62.78-2,2.23-2.66,3.36-8.46,14.45-16.81,29-25.31,43.37C75.64,300.07,63.6,303,54.17,296.15a18.19,18.19,0,0,1-6.16-22,82.11,82.11,0,0,1,4.54-8.4c20-34.33,40.1-68.59,59.91-103,4.9-8.51,11.57-12.56,21.38-12.39q23.17.4,46.35,0c9.78-.17,16.56,3.67,21.47,12.23,16.65,29.05,33.63,57.91,50.51,86.82.71,1.23,1.12,2.73,2.63,3.57q22.57-38.76,45.15-77.49a81.36,81.36,0,0,1,5.08-8.09,17.72,17.72,0,0,1,15.07-7.52c16.78.11,33.56.21,50.34,0,8.09-.12,13.91,3.32,17.81,10q32.43,55.38,64.61,110.89a59.38,59.38,0,0,1,2.8,6.37Z"/><path class="cls-2" d="M115.14,100.36c-6.53,7.93-6,16.55-5.28,25.19.13,1.59.5,3.16.58,4.75.27,5.88-2.94,10.13-8.66,11a84.94,84.94,0,0,1-11.92,1A9.79,9.79,0,0,1,80,134.11c-1.36-10.75-1.54-21.53,1.11-32.12,2.9-11.6,14-20.26,27-21.12,4-.26,8.51,1.28,11.77-.23,3.06-1.42,4.5-6,7.11-8.78a42.16,42.16,0,0,1,66.81,6.67c1.36,2.19,2.71,2.72,5.1,2.45,10.83-1.23,20.5,1.34,28.77,8.79,6.48,5.84,7.88,13.66,8.64,21.63a100,100,0,0,1-.28,21.53,10.26,10.26,0,0,1-10.87,9.41,98.93,98.93,0,0,1-10.73-.93c-5.95-.85-9.45-5.11-9-11.12.37-5,1.2-10,.91-15.11a24.49,24.49,0,0,0-5.91-15.1c-.48,13.1-4.93,23.65-14.09,32a41.48,41.48,0,0,1-32.23,11C137.27,141.79,116.58,127.68,115.14,100.36Z"/><path class="cls-3" d="M345.6,67.7c23.5.64,42.53,20.19,41.84,43-.71,23.49-20.27,42.52-43,41.87-23.54-.69-42.36-20.07-41.79-43C303.22,86,322.66,67.06,345.6,67.7Z"/></svg>