<svg id="Layer_1" data-name="Layer 1" xmlns="http://www.w3.org/2000/svg" xmlns:xlink="http://www.w3.org/1999/xlink" viewBox="0 0 484.1 484.1"><defs><style>.cls-1{fill:url(#linear-gradient);}</style><linearGradient id="linear-gradient" x1="31.54" y1="253.08" x2="453.27" y2="253.08" gradientUnits="userSpaceOnUse"><stop offset="0" stop-color="#c9a34a"/><stop offset="0" stop-color="#a47715"/><stop offset="0.23" stop-color="#c7992b"/><stop offset="0.41" stop-color="#dab461"/><stop offset="0.59" stop-color="#b68f3a"/><stop offset="0.77" stop-color="#cba147"/><stop offset="1" stop-color="#ffe084"/></linearGradient></defs><title>xe-dua-don</title><path class="cls-1" d="M108.47,360.47C92,360.41,80,352.57,72.71,337.16c-1.64-3.45-3.93-5-7.68-5.07-14.18-.39-24.15-6.57-30.47-18.9a14.13,14.13,0,0,1-.94-2.78,16.16,16.16,0,0,0-2.08-5.13v-59a24.37,24.37,0,0,0,1.68-3.65,14.76,14.76,0,0,1,1.64-3.38c3.92-5.32,9.13-7.8,16.39-7.8.8,0,1.65,0,2.51.1.37,0,.71,0,1.05,0,4.8,0,7-2.81,8.48-5.25,5.5-9.43,11.17-19,16.65-28.2,7.85-13.21,16-26.87,23.74-40.43,4.76-8.29,11.25-12,21.11-12,57.32.06,114.71.07,158.31.07h132l1.21,0c9.57.36,16.64,6.33,18.45,15.58q3.6,18.43,7.13,36.89,2.39,12.47,4.8,24.92c.07.35.13.69.19,1,.5,2.9,1.2,6.88,5.75,9.14,0,0,.59.33.59,3.11,0,6.92,0,13.85,0,20.78,0,13.86.08,28.19-.11,42.27-.21,15.33-9.25,27.06-24.19,31.37a44.38,44.38,0,0,1-12.34,1.4c-1.62,0-3.24,0-4.86-.07-1.44,0-2.88-.07-4.4-.08-3.8,0-6.12,1.49-7.76,5-7.3,15.53-19.39,23.4-35.91,23.4h-.18c-16.47,0-28.5-7.89-35.77-23.29-1.19-2.5-3-5.07-7.78-5.07q-42.69.07-85.38.07-41.07,0-82.18-.06c-3.82,0-6.16,1.49-7.8,5-7.31,15.51-19.41,23.38-36,23.38Zm.12-71.12h0a31.67,31.67,0,0,0-.25,63.34h.6c16.76,0,31.09-14.34,31.3-31.32a31.77,31.77,0,0,0-31.57-32Zm223.54,29c-1.58,17.82,11.32,32.52,30,34.2.77.07,1.55.1,2.33.1h0c15.24,0,29.24-13,30.58-28.4,1.62-18.48-10.89-33.09-29.73-34.74-.81-.07-1.64-.11-2.46-.11C347.33,289.41,333.55,302.4,332.13,318.36Zm-78.94,5.89a6.77,6.77,0,0,0,5-1.66c1.45-1.46,1.64-3.38,1.63-5.25-.06-9.37-.07-18.91-.07-28.13,0-9.41,0-19.13-.06-28.7v-.57h.09a15.65,15.65,0,0,0,1.59.07c1,0,2-.07,2.92-.14s1.64-.12,2.35-.12a5,5,0,0,1,1.44.15,14.12,14.12,0,0,1-.15,3.92,29.74,29.74,0,0,0-.28,3.65c.07,15.8.13,32.66,0,49.68,0,1.81.16,3.87,1.67,5.39a7,7,0,0,0,5.18,1.7h.26c6.87-.08,14-.13,21.1-.13,7,0,14.19,0,21.45.13h.19c5.6,0,6.55-3.56,6.75-6.65,1.06-16.69,14.22-31.57,31.28-35.39a35.84,35.84,0,0,1,7.91-.87,39.91,39.91,0,0,1,34.48,20.06c3.37,6.06,5,11.49,5.17,17.12.15,5.13,4,5.68,5.62,5.68h.39c1.68-.07,3.41-.07,5.1-.07,2.74,0,5.58,0,8.41-.27,13-1.17,22.32-10.88,22.56-23.61.22-11.18.19-22.53.17-33.51,0-7.11,0-14.46,0-21.69a5.64,5.64,0,0,0-1.46-4.21,5.43,5.43,0,0,0-4-1.41H53.72c-11.06,0-14.26,3.24-14.26,14.44q0,6.75,0,13.48c0,10.25,0,20.84,0,31.26.11,14.1,9.42,24.31,23.19,25.42.35,0,.66,0,1,0,5.17,0,5.47-4.41,5.56-5.86,1.36-20.36,19-36.93,39.34-36.93h.18c20.44.1,38.08,16.56,39.33,36.7.16,2.65,1,6.19,6.46,6.24h.3l2.14,0c9.58,0,10.07-3.18,10.07-12.37q0-6.47,0-12.93c0-12.61,0-25.66-.08-38.5,0-.2,0-.37,0-.51h.11a13.39,13.39,0,0,0,1.46.08,30.87,30.87,0,0,0,3.24-.23,23.09,23.09,0,0,1,2.42-.19,3.14,3.14,0,0,1,1.06.12h0c.39.47.1,3,0,4.19a29,29,0,0,0-.28,3.62c.06,15.69.1,32.52,0,49.27,0,2,.18,4.13,1.72,5.68a7.31,7.31,0,0,0,5.34,1.76h.14c11.26-.08,23.08-.12,35.13-.12C228.59,324.14,240.66,324.18,253.19,324.25ZM159.71,153.64c-5.8.08-11.72.12-18.11.12-5.57,0-11.37,0-17.72-.09h-.22c-5.75,0-9.78,2.33-12.68,7.33-8.11,13.93-16.46,28-24.54,41.69q-5.93,10-11.83,20c-.12.2-.25.39-.39.59a8.47,8.47,0,0,0-1.78,5v3.15h44.16c11.85,0,27.47,0,43.2.09h.12c1.72,0,3.89-.2,5.43-1.76s1.74-3.67,1.73-5.54c-.16-22.58-.16-43.33,0-63.42a7.4,7.4,0,0,0-1.72-5.48,7.12,7.12,0,0,0-5.32-1.73Zm185.69,0c-4.72.06-9.91.09-16.35.09H300.33l-9.59,0c-6.4,0-11.56,0-16.25-.1h-.26a6.65,6.65,0,0,0-5,1.66,7,7,0,0,0-1.65,5.24c.11,20.15.12,41.17,0,64.28a5.8,5.8,0,0,0,6.57,6.74h0c12-.06,24-.09,35.82-.09,12,0,24.13,0,36.06.09a6.59,6.59,0,0,0,4.88-1.63,6.77,6.77,0,0,0,1.61-5.07c-.09-17.73-.16-41.07,0-64.28a7.06,7.06,0,0,0-1.67-5.26c-1.66-1.67-4-1.67-5.18-1.67ZM207.74,231.47H236.5c6.66,0,11.8,0,16.67.08h.21a6.46,6.46,0,0,0,4.83-1.62,6.76,6.76,0,0,0,1.62-5c-.12-21.77-.12-43.53,0-64.68a6.6,6.6,0,0,0-1.61-4.94c-1.42-1.44-3.32-1.63-5.07-1.63h0q-17.9.07-35.78.08c-12.13,0-24.11,0-35.69-.09a5.94,5.94,0,0,0-6.8,6.83c.13,21.53.13,43.15,0,64.27a6.91,6.91,0,0,0,1.67,5.14,6.84,6.84,0,0,0,5.05,1.66h.26c4.71-.06,9.9-.08,16.33-.08Zm183.39,0h26.65c6,0,10.77,0,15.14.07h.29c1.21,0,3.48,0,4.94-1.78,1.32-1.62,1.13-3.66.77-5.44-2.69-13.25-5.32-26.76-7.85-39.83Q429,173.94,427,163.38c-1.31-6.65-4.93-9.63-11.74-9.65q-6.69,0-13.37,0h-13c-6.59,0-14.36,0-22-.07h-.13a6.36,6.36,0,0,0-4.68,1.58,6.57,6.57,0,0,0-1.57,4.9c.08,17.67.14,41,0,64.71A6.92,6.92,0,0,0,362,229.9c1.63,1.64,3.94,1.64,5.06,1.64h.33c4.31-.06,9-.08,14.92-.08Z"/></svg>