<svg xmlns="http://www.w3.org/2000/svg" xmlns:xlink="http://www.w3.org/1999/xlink" viewBox="0 0 22.31 22.31"><defs><style>.cls-1,.cls-13,.cls-8{isolation:isolate;}.cls-1{filter:url(#luminosity-noclip-3);}.cls-2{mask:url(#mask);}.cls-3{mix-blend-mode:multiply;}.cls-4{clip-path:url(#clip-path);}.cls-29,.cls-5{fill:none;}.cls-6{clip-path:url(#clip-path-2);}.cls-7{fill:url(#linear-gradient);}.cls-8{filter:url(#luminosity-noclip-4);}.cls-9{mask:url(#mask-2);}.cls-10{clip-path:url(#clip-path-3);}.cls-11{clip-path:url(#clip-path-4);}.cls-12{fill:url(#linear-gradient-2);}.cls-14{clip-path:url(#clip-path-5);}.cls-15{opacity:0.4;}.cls-16{clip-path:url(#clip-path-6);}.cls-17{clip-path:url(#clip-path-7);}.cls-18{opacity:0.7;mix-blend-mode:soft-light;}.cls-19{clip-path:url(#clip-path-9);}.cls-20{mask:url(#mask-3);}.cls-21{clip-path:url(#clip-path-10);}.cls-22{clip-path:url(#clip-path-11);}.cls-23{fill:url(#linear-gradient-3);}.cls-24{mask:url(#mask-4);}.cls-25{clip-path:url(#clip-path-12);}.cls-26{clip-path:url(#clip-path-13);}.cls-27{fill:url(#linear-gradient-4);}.cls-28{fill:#fff;}.cls-29{stroke:#fff;stroke-miterlimit:10;stroke-width:0.5px;}.cls-30{filter:url(#luminosity-noclip-2);}.cls-31{filter:url(#luminosity-noclip);}</style><filter id="luminosity-noclip" x="-226.2" y="-6150.66" width="379.08" height="32766" filterUnits="userSpaceOnUse" color-interpolation-filters="sRGB"><feFlood flood-color="#fff" result="bg"/><feBlend in="SourceGraphic" in2="bg"/></filter><mask id="mask" x="-226.2" y="-6150.66" width="379.08" height="32766" maskUnits="userSpaceOnUse"><g class="cls-31"/></mask><clipPath id="clip-path"><rect class="cls-5" x="-223.37" y="-322.82" width="375.2" height="668.49"/></clipPath><clipPath id="clip-path-2"><path class="cls-5" d="M62.76-305.55q14.24-18,26.82-17.23c10.73.69,20.37,11.73,28.64,32.83,9,22.86,16.67,58.29,22.9,105.28C149.38-122.45,152.89-65,151.56-14c-1.16,44.35-6,85.26-14.44,121.62C122.38,171.3,99.06,212.7,76.06,248,51.4,285.75,23.07,313-8.14,329c-27.14,13.91-55.9,19.14-85.49,15.54-61.65-7.52-112.57-52.36-126.18-91.38-6.39-18.31-4.12-34.26,6.39-44.92,44.48-45.12,80.61-87.79,110.45-130.44,41.12-58.78,69.55-117,84.51-173,10.69-40.06,27.52-97.83,47-145.55q18.06-44.31,34.25-64.79M75,247.28,74,246.6c22.88-35.07,46.07-76.24,60.73-139.52,8.38-36.2,13.22-76.95,14.37-121.12,1.33-50.91-2.18-108.21-10.42-170.3-6.2-46.8-13.86-82-22.75-104.7C108-309.15,99.1-319.66,89.42-320.29c-16.44-1.06-36.7,26.77-58.6,80.48C11.42-192.22-5.38-134.56-16-94.57c-15,56.33-43.59,114.81-84.88,173.83C-130.85,122-167.06,164.8-211.64,210c-9.81,9.94-11.87,25-5.81,42.33,13.36,38.3,63.44,82.33,124.13,89.73,29.08,3.54,57.35-1.6,84-15.28C21.54,311,49.54,284,74,246.6Z"/></clipPath><linearGradient id="linear-gradient" x1="142.31" y1="527.66" x2="143.31" y2="527.66" gradientTransform="matrix(-375.2, 0, 0, 375.2, 53546.07, -197964.79)" gradientUnits="userSpaceOnUse"><stop offset="0" stop-color="#fff"/><stop offset="0.03" stop-color="#d4d3d4"/><stop offset="0.15" stop-color="#231f20"/><stop offset="0.39" stop-color="#fff"/><stop offset="0.63" stop-color="#e6e7e8"/><stop offset="0.86" stop-color="#414042"/><stop offset="1" stop-color="#231f20"/><stop offset="1" stop-color="#231f20"/></linearGradient><filter id="luminosity-noclip-2" x="-205.48" y="-6150.66" width="354.58" height="32766" filterUnits="userSpaceOnUse" color-interpolation-filters="sRGB"><feFlood flood-color="#fff" result="bg"/><feBlend in="SourceGraphic" in2="bg"/></filter><mask id="mask-2" x="-205.48" y="-6150.66" width="354.58" height="32766" maskUnits="userSpaceOnUse"><g class="cls-30"/></mask><clipPath id="clip-path-3"><rect class="cls-5" x="-202.59" y="-292.2" width="346.58" height="618.94"/></clipPath><clipPath id="clip-path-4"><path class="cls-5" d="M64.46-276.35c8.73-11,17-16.34,24.64-15.81,20.67,1.43,36.08,43.14,47.1,127.52,12.9,109.47,9.75,202.3-9.36,275.93-15.5,59.76-38.29,97.3-60.6,129C44,273.61,18.76,297.72-8.89,311.9-33,324.29-58.54,329-84.67,325.77c-18-2.19-45.24-9.34-72.73-30.94-19.53-15.35-34.58-34.89-41.3-53.61-6.78-18.9-4.66-35.45,6-46.61C-114.56,110.28-38.17,17.54-8.87-89.08c10-36.23,25.45-88.2,42.77-130.07Q50-258.07,64.46-276.35M50.61,257.82q7-8.88,13.69-18.89c22.2-31.52,44.86-68.84,60.27-128.23,19-73.34,22.16-165.88,9.3-275C128.23-207.52,121.25-240,113.13-261c-7.2-18.53-15.33-28.24-24.19-28.86-15-1-32.79,23-52.87,71.57C18.79-176.49,3.32-124.62-6.61-88.46-36,18.65-112.64,111.66-191,196.22c-10,10.5-11.92,26.19-5.46,44.21,6.58,18.32,21.35,37.47,40.54,52.55,14.94,11.74,39.48,26.55,71.57,30.46C-58.73,326.57-33.69,322-10,309.81c21.78-11.16,42.09-28.61,60.57-52"/></clipPath><linearGradient id="linear-gradient-2" x1="142.31" y1="527.66" x2="143.31" y2="527.66" gradientTransform="matrix(-346.58, 0, 0, 346.58, 49465.34, -182857.43)" xlink:href="#linear-gradient"/><clipPath id="clip-path-5"><rect class="cls-5" x="142.31" y="-4610.07" width="1440" height="5137.73"/></clipPath><clipPath id="clip-path-6"><rect class="cls-5" x="-1865.28" y="-1917.96" width="2247.19" height="2872.83"/></clipPath><clipPath id="clip-path-7"><rect class="cls-5" x="-1539.05" y="-299.62" width="1440" height="376.06"/></clipPath><clipPath id="clip-path-9"><rect class="cls-5" x="-1539.05" y="-952.44" width="1440" height="1028.88"/></clipPath><filter id="luminosity-noclip-3" x="-226.2" y="-323.32" width="379.08" height="671.49" filterUnits="userSpaceOnUse" color-interpolation-filters="sRGB"><feFlood flood-color="#fff" result="bg"/><feBlend in="SourceGraphic" in2="bg"/></filter><mask id="mask-3" x="-226.2" y="-323.32" width="379.08" height="671.49" maskUnits="userSpaceOnUse"><g class="cls-1"><g class="cls-2"><g class="cls-3"><g class="cls-4"><g class="cls-6"><rect class="cls-7" x="-226.2" y="-323.32" width="379.08" height="671.49"/></g></g></g></g></g></mask><clipPath id="clip-path-10"><rect class="cls-5" x="-223.37" y="-322.82" width="375.2" height="668.49"/></clipPath><clipPath id="clip-path-11"><path class="cls-5" d="M62.76-305.55q14.24-18,26.82-17.23c10.73.69,20.37,11.73,28.64,32.83,9,22.86,16.67,58.29,22.9,105.28C149.38-122.45,152.89-65,151.56-14c-1.16,44.34-6,85.25-14.44,121.61C122.38,171.3,99.06,212.7,76.06,248,51.4,285.75,23.07,313-8.14,329c-27.14,13.91-55.9,19.14-85.49,15.54-61.65-7.51-112.57-52.36-126.18-91.38-6.39-18.31-4.12-34.26,6.39-44.92,44.48-45.12,80.61-87.79,110.45-130.44,41.12-58.78,69.55-117,84.51-173,10.69-40.06,27.52-97.83,47-145.55q18.06-44.31,34.25-64.79M75,247.28,74,246.6c22.88-35.07,46.07-76.24,60.73-139.52,8.38-36.2,13.22-76.95,14.37-121.12,1.33-50.91-2.18-108.21-10.42-170.3-6.2-46.8-13.86-82-22.75-104.7C108-309.15,99.1-319.66,89.42-320.29c-16.44-1.06-36.7,26.77-58.6,80.48C11.42-192.22-5.38-134.56-16-94.57c-15,56.33-43.59,114.81-84.88,173.83C-130.85,122-167.06,164.8-211.64,210c-9.81,9.95-11.87,25-5.81,42.33,13.36,38.3,63.44,82.33,124.13,89.73,29.08,3.54,57.35-1.6,84-15.28C21.54,311,49.54,284,74,246.6Z"/></clipPath><linearGradient id="linear-gradient-3" x1="142.31" y1="527.66" x2="143.31" y2="527.66" gradientTransform="matrix(0, -668.49, -668.49, 0, 352698.14, 95478.1)" gradientUnits="userSpaceOnUse"><stop offset="0" stop-color="#f0c89f"/><stop offset="0.15" stop-color="#f0dbb8"/><stop offset="0.39" stop-color="#d2a680"/><stop offset="0.63" stop-color="#a27b5d"/><stop offset="0.86" stop-color="#d2a680"/><stop offset="1" stop-color="#d2a680"/><stop offset="1" stop-color="#d2a680"/></linearGradient><filter id="luminosity-noclip-4" x="-205.48" y="-292.69" width="354.58" height="621.65" filterUnits="userSpaceOnUse" color-interpolation-filters="sRGB"><feFlood flood-color="#fff" result="bg"/><feBlend in="SourceGraphic" in2="bg"/></filter><mask id="mask-4" x="-205.48" y="-292.69" width="354.58" height="621.65" maskUnits="userSpaceOnUse"><g class="cls-8"><g class="cls-9"><g class="cls-3"><g class="cls-10"><g class="cls-11"><rect class="cls-12" x="-205.48" y="-292.69" width="354.58" height="621.65"/></g></g></g></g></g></mask><clipPath id="clip-path-12"><rect class="cls-5" x="-202.59" y="-292.2" width="346.58" height="618.94"/></clipPath><clipPath id="clip-path-13"><path class="cls-5" d="M64.46-276.35c8.73-11,17-16.34,24.64-15.81,20.67,1.43,36.08,43.14,47.1,127.52,12.9,109.47,9.75,202.3-9.36,275.93-15.5,59.75-38.29,97.29-60.6,129C44,273.61,18.76,297.72-8.89,311.9-33,324.29-58.54,329-84.67,325.77c-18-2.19-45.24-9.34-72.73-30.94-19.53-15.35-34.58-34.89-41.3-53.61-6.78-18.9-4.66-35.45,6-46.61C-114.56,110.28-38.17,17.54-8.87-89.09c10-36.22,25.45-88.19,42.77-130.06Q50-258.07,64.46-276.35M50.61,257.82q7-8.88,13.69-18.89c22.2-31.52,44.86-68.84,60.27-128.23,19-73.34,22.16-165.88,9.3-275C128.23-207.52,121.25-240,113.13-261c-7.2-18.54-15.33-28.25-24.19-28.86-15-1-32.79,23-52.87,71.57C18.79-176.49,3.32-124.62-6.61-88.46-36,18.65-112.64,111.66-191,196.22c-10,10.5-11.92,26.19-5.46,44.21,6.58,18.32,21.35,37.47,40.54,52.55,14.94,11.74,39.48,26.55,71.57,30.46C-58.73,326.57-33.69,322-10,309.81c21.78-11.16,42.09-28.61,60.57-52"/></clipPath><linearGradient id="linear-gradient-4" x1="142.31" y1="527.66" x2="143.31" y2="527.66" gradientTransform="matrix(0, -618.94, -618.94, 0, 326559.49, 88407.83)" xlink:href="#linear-gradient-3"/></defs><g class="cls-13"><g id="Layer_1" data-name="Layer 1"><g class="cls-14"><g class="cls-15"><g class="cls-16"><g class="cls-17"><g class="cls-18"><g class="cls-16"><g class="cls-19"><g class="cls-20"><g class="cls-21"><g class="cls-22"><rect class="cls-23" x="-226.2" y="-323.32" width="379.08" height="671.49"/></g></g></g><g class="cls-24"><g class="cls-25"><g class="cls-26"><rect class="cls-27" x="-205.48" y="-292.69" width="354.58" height="621.65"/></g></g></g></g></g></g></g></g></g></g><path class="cls-28" d="M16.91,8.9a1.77,1.77,0,0,0-1.77-1.77h-8A1.77,1.77,0,0,0,5.4,8.9v4.51a1.77,1.77,0,0,0,1.77,1.77h8a1.77,1.77,0,0,0,1.77-1.77Zm-3.8,2.48-2.89,1.43c-.12.06-.5,0-.5-.15V9.72c0-.13.39-.21.5-.14L13,11.08c.12.07.24.24.12.3"/><circle class="cls-29" cx="11.16" cy="11.16" r="10.91"/></g></g></svg>