<svg xmlns="http://www.w3.org/2000/svg" xmlns:xlink="http://www.w3.org/1999/xlink" viewBox="0 0 16.47 22.88"><defs><style>.cls-1,.cls-13,.cls-19,.cls-24,.cls-29,.cls-34,.cls-39,.cls-44,.cls-8{isolation:isolate;}.cls-1{filter:url(#luminosity-noclip-11);}.cls-2{mask:url(#mask);}.cls-3{mix-blend-mode:multiply;}.cls-4{clip-path:url(#clip-path);}.cls-5{fill:none;}.cls-6{clip-path:url(#clip-path-2);}.cls-7{fill:url(#linear-gradient);}.cls-8{filter:url(#luminosity-noclip-16);}.cls-9{mask:url(#mask-2);}.cls-10{clip-path:url(#clip-path-3);}.cls-11{clip-path:url(#clip-path-4);}.cls-12{fill:url(#linear-gradient-2);}.cls-13{filter:url(#luminosity-noclip-17);}.cls-14{mask:url(#mask-3);}.cls-15{clip-path:url(#clip-path-5);}.cls-16{clip-path:url(#clip-path-6);}.cls-17{fill:url(#linear-gradient-3);}.cls-18{clip-path:url(#clip-path-7);filter:url(#luminosity-noclip-18);}.cls-20{mask:url(#mask-4);}.cls-21{clip-path:url(#clip-path-8);}.cls-22{clip-path:url(#clip-path-9);}.cls-23{fill:url(#linear-gradient-4);}.cls-24{filter:url(#luminosity-noclip-19);}.cls-25{mask:url(#mask-5);}.cls-26{clip-path:url(#clip-path-10);}.cls-27{clip-path:url(#clip-path-11);}.cls-28{fill:url(#linear-gradient-5);}.cls-29{filter:url(#luminosity-noclip-20);}.cls-30{mask:url(#mask-6);}.cls-31{clip-path:url(#clip-path-12);}.cls-32{clip-path:url(#clip-path-13);}.cls-33{fill:url(#linear-gradient-6);}.cls-34{filter:url(#luminosity-noclip-12);}.cls-35{mask:url(#mask-7);}.cls-36{clip-path:url(#clip-path-14);}.cls-37{clip-path:url(#clip-path-15);}.cls-38{fill:url(#linear-gradient-7);}.cls-39{filter:url(#luminosity-noclip-13);}.cls-40{mask:url(#mask-8);}.cls-41{clip-path:url(#clip-path-16);}.cls-42{clip-path:url(#clip-path-17);}.cls-43{fill:url(#linear-gradient-8);}.cls-44{filter:url(#luminosity-noclip-14);}.cls-45{mask:url(#mask-9);}.cls-46{clip-path:url(#clip-path-18);}.cls-47{clip-path:url(#clip-path-19);}.cls-48{fill:url(#linear-gradient-9);}.cls-49{clip-path:url(#clip-path-20);filter:url(#luminosity-noclip-15);}.cls-50{mask:url(#mask-10);}.cls-51{clip-path:url(#clip-path-21);}.cls-52{clip-path:url(#clip-path-22);}.cls-53{fill:url(#linear-gradient-10);}.cls-54{clip-path:url(#clip-path-23);}.cls-55{clip-path:url(#clip-path-24);}.cls-56{opacity:0.4;}.cls-57{clip-path:url(#clip-path-25);}.cls-58{clip-path:url(#clip-path-26);}.cls-59{opacity:0.7;mix-blend-mode:soft-light;}.cls-60{clip-path:url(#clip-path-28);}.cls-61{clip-path:url(#clip-path-29);}.cls-62{clip-path:url(#clip-path-31);}.cls-63{mask:url(#mask-11);}.cls-64{clip-path:url(#clip-path-32);}.cls-65{clip-path:url(#clip-path-33);}.cls-66{fill:url(#linear-gradient-11);}.cls-67{mask:url(#mask-12);}.cls-68{clip-path:url(#clip-path-34);}.cls-69{clip-path:url(#clip-path-35);}.cls-70{fill:url(#linear-gradient-12);}.cls-71{mask:url(#mask-13);}.cls-72{clip-path:url(#clip-path-36);}.cls-73{clip-path:url(#clip-path-37);}.cls-74{fill:url(#linear-gradient-13);}.cls-75{mask:url(#mask-14);}.cls-76{clip-path:url(#clip-path-38);}.cls-77{clip-path:url(#clip-path-39);}.cls-78{fill:url(#linear-gradient-14);}.cls-79{mask:url(#mask-15);}.cls-80{clip-path:url(#clip-path-40);}.cls-81{clip-path:url(#clip-path-41);}.cls-82{fill:url(#linear-gradient-15);}.cls-83{mask:url(#mask-16);}.cls-84{clip-path:url(#clip-path-42);}.cls-85{clip-path:url(#clip-path-43);}.cls-86{fill:url(#linear-gradient-16);}.cls-87{mask:url(#mask-17);}.cls-88{clip-path:url(#clip-path-44);}.cls-89{clip-path:url(#clip-path-45);}.cls-90{fill:url(#linear-gradient-17);}.cls-91{mask:url(#mask-18);}.cls-92{clip-path:url(#clip-path-46);}.cls-93{clip-path:url(#clip-path-47);}.cls-94{fill:url(#linear-gradient-18);}.cls-95{mask:url(#mask-19);}.cls-96{clip-path:url(#clip-path-48);}.cls-97{clip-path:url(#clip-path-49);}.cls-98{fill:url(#linear-gradient-19);}.cls-99{mask:url(#mask-20);}.cls-100{clip-path:url(#clip-path-50);}.cls-101{clip-path:url(#clip-path-51);}.cls-102{fill:url(#linear-gradient-20);}.cls-103{fill:#2d2d2d;}.cls-104{filter:url(#luminosity-noclip-10);}.cls-105{filter:url(#luminosity-noclip-9);}.cls-106{filter:url(#luminosity-noclip-8);}.cls-107{filter:url(#luminosity-noclip-7);}.cls-108{filter:url(#luminosity-noclip-6);}.cls-109{filter:url(#luminosity-noclip-5);}.cls-110{filter:url(#luminosity-noclip-4);}.cls-111{filter:url(#luminosity-noclip-3);}.cls-112{filter:url(#luminosity-noclip-2);}.cls-113{filter:url(#luminosity-noclip);}</style><filter id="luminosity-noclip" x="-85.76" y="-6861.87" width="369.93" height="32766" filterUnits="userSpaceOnUse" color-interpolation-filters="sRGB"><feFlood flood-color="#fff" result="bg"/><feBlend in="SourceGraphic" in2="bg"/></filter><mask id="mask" x="-85.76" y="-6861.87" width="369.93" height="32766" maskUnits="userSpaceOnUse"><g class="cls-113"/></mask><clipPath id="clip-path"><rect class="cls-5" x="-80.38" y="-107.48" width="363.68" height="729.02"/></clipPath><clipPath id="clip-path-2"><path class="cls-5" d="M73.49,56.26c6.15-7.77,10.93-11.12,14.6-12.07,20.72-5.42,42.63-40.8,63.81-75,24.4-39.4,47.44-76.62,71-76.65,10,0,19.05,6.66,27.62,20.41,25.64,41.12,31.94,118,32.71,175.3,1,70.69-5.94,136.1-10.81,162.81l-1.23-.22,1.23.22c-14.69,80.63-28,151.43-42.14,201.26-14.92,52.6-30.15,80.62-49.39,90.84-11.22,6-23.72,5.76-38.24-.62-20.19-8.86-39.21-9.53-59.86-2.09C64,547.18,45.55,560,26,573.66c-23.67,16.47-50.51,35.15-83.31,46.79-5.5,1.95-10.13,1.27-13.76-2-9.21-8.32-11.59-33.79-7.06-75.7,4-36.83,13.3-85.84,27-141.73C-31.87,321.85-5,234.17,20.56,166.46c23.94-63.33,41-95.11,52.93-110.2m47.26-35.94c-10.7,13.53-21.42,23.51-32,26.28C74.49,50.32,50.5,94.33,22.89,167.34-2.67,235-29.47,322.54-48.78,401.6c-29.27,119.85-37,200.22-20.64,215,2.94,2.65,6.62,3.15,11.26,1.5C-25.68,606.57,1,588,24.55,571.61c39.55-27.53,73.71-51.3,119.08-31.37,13.78,6,25.57,6.27,36.06.7C219,520,239.62,417,269.94,250.6c4.86-26.63,11.73-91.82,10.77-162.33-.77-57-7-133.38-32.33-174C240.31-98.71,232-105,222.88-105,200.73-104.95,177-66.6,154-29.51c-11,17.69-22.11,35.69-33.28,49.83"/></clipPath><linearGradient id="linear-gradient" x1="-1519.43" y1="981.87" x2="-1518.43" y2="981.87" gradientTransform="matrix(-363.68, 0, 0, 363.68, -552305.55, -356830.3)" gradientUnits="userSpaceOnUse"><stop offset="0" stop-color="#fff"/><stop offset="0.03" stop-color="#d4d3d4"/><stop offset="0.15" stop-color="#231f20"/><stop offset="0.39" stop-color="#fff"/><stop offset="0.63" stop-color="#e6e7e8"/><stop offset="0.86" stop-color="#414042"/><stop offset="1" stop-color="#231f20"/><stop offset="1" stop-color="#231f20"/></linearGradient><filter id="luminosity-noclip-2" x="-599.51" y="-6861.87" width="720.36" height="32766" filterUnits="userSpaceOnUse" color-interpolation-filters="sRGB"><feFlood flood-color="#fff" result="bg"/><feBlend in="SourceGraphic" in2="bg"/></filter><mask id="mask-2" x="-599.51" y="-6861.87" width="720.36" height="32766" maskUnits="userSpaceOnUse"><g class="cls-112"/></mask><clipPath id="clip-path-3"><rect class="cls-5" x="-598.31" y="-776.43" width="714.46" height="1091.03"/></clipPath><clipPath id="clip-path-4"><path class="cls-5" d="M-343.8-652.49q4-5.07,8-10c48.21-59.07,91.88-95.65,129.81-108.71,36.24-12.47,66.23-2.84,89.14,28.62,77,95.74,130.29,187.58,169.23,254.63,15.44,26.59,28.78,49.55,40.51,67.49,20.57,31.55,28,86.38,20.31,150.44C105.36-204.56,82.6-139.34,50.75-91-14.71,2.91-73.35,149.74-100.14,246.43c-8.1,29.09-27.29,50-55.5,60.55-49.3,18.39-120.47,2.95-185.73-40.3h0C-407.65,223.25-471,179.77-518,125.59c-25.34-29.21-44.07-59.22-57.27-91.75C-590-2.3-597.47-40.55-598.22-83.11c-1.29-38,11.33-95.61,36.5-166.49,24-67.48,58.56-144.21,97.44-216S-384-601.69-343.8-652.49m225.93,930.32A89.75,89.75,0,0,0-102,245.92C-75.13,149.09-16.39,2,49.19-92.08c31.68-48.06,54.32-113,62.12-178.11,7.61-63.63.32-118-20-149.19-11.76-18-25.11-41-40.57-67.57-38.91-67-92.2-158.76-169.09-254.43-22.39-30.75-51.66-40.15-87-28-37.59,13-81,49.32-129,108.12-42.54,52.15-86.91,120.09-128.26,196.5C-501.44-393-536-316.36-559.94-249-585-178.31-597.61-121-596.33-83.16c.75,42.34,8.2,80.37,22.77,116.29,13.12,32.33,31.75,62.17,56.95,91.22,46.83,54,110.11,97.39,176.28,140.75h0C-275.56,308-205,323.39-156.3,305.2c15.84-5.9,28.78-15.17,38.43-27.37"/></clipPath><linearGradient id="linear-gradient-2" x1="-1519.43" y1="981.87" x2="-1518.43" y2="981.87" gradientTransform="matrix(-714.46, 0, 0, 714.46, -1085453.53, -701734.69)" xlink:href="#linear-gradient"/><filter id="luminosity-noclip-3" x="-547.61" y="-6861.87" width="643.14" height="32766" filterUnits="userSpaceOnUse" color-interpolation-filters="sRGB"><feFlood flood-color="#fff" result="bg"/><feBlend in="SourceGraphic" in2="bg"/></filter><mask id="mask-3" x="-547.61" y="-6861.87" width="643.14" height="32766" maskUnits="userSpaceOnUse"><g class="cls-111"/></mask><clipPath id="clip-path-5"><rect class="cls-5" x="-544.47" y="-717.43" width="636.1" height="968.83"/></clipPath><clipPath id="clip-path-6"><path class="cls-5" d="M-320.42-615.17l.29-.37c41.48-52.39,79.07-85,111.73-96.9,30.24-11,55.38-3.75,74.73,21.65,71.26,80.34,126.56,169.48,167,234.57,12.64,20.38,23.56,38,33.37,52.81C87-372.5,95.53-321.83,90-264.41c-5.65,58.26-25.45,117.8-54.31,163.35C7.77-60.15-20.31-8.13-47.82,53.58-68.51,100-88.3,151-102.12,193.63c-8.12,24.9-25.77,42.72-51,51.54-44.2,15.42-106.91,1.71-163.66-35.78-55.56-36.14-113.36-75.55-155.83-124.8C-495,58.7-511.58,32.08-523.38,3.22c-13.07-32-19.92-65.8-20.92-103.37-3.31-68,42.35-204.95,113.63-340.86,35.38-67.46,73.49-127.67,110.25-174.16M-116.95,218a79.82,79.82,0,0,0,13.17-24.9c13.84-42.64,33.66-93.75,54.37-140.22C-21.86-8.93,6.27-61,34.2-102c28.7-45.31,48.4-104.57,54-162.56,5.53-57-2.86-107.3-23-137.88-9.82-14.84-20.75-32.46-33.4-52.85C-8.56-520.34-63.82-609.4-135-689.68c-18.88-24.78-43.35-31.87-72.79-21.13-32.36,11.81-69.69,44.22-111,96.35l-.29.37c-36.7,46.41-74.75,106.52-110.08,173.89-71.14,135.66-116.73,272.29-113.43,340,1,37.37,7.8,71,20.8,102.77C-510,31.24-493.55,57.7-471.34,83.45c42.33,49.08,100,88.4,155.48,124.48h0c56.31,37.21,118.43,50.85,162.12,35.6,15.24-5.32,27.65-14,36.79-25.54"/></clipPath><linearGradient id="linear-gradient-3" x1="-1519.43" y1="981.87" x2="-1518.43" y2="981.87" gradientTransform="matrix(-636.11, 0, 0, 636.11, -966428.19, -624805.83)" xlink:href="#linear-gradient"/><clipPath id="clip-path-7"><rect class="cls-5" x="-490.69" y="-658.61" width="558.17" height="846.82"/></clipPath><filter id="luminosity-noclip-4" x="-492.44" y="-6861.87" width="562.73" height="32766" filterUnits="userSpaceOnUse" color-interpolation-filters="sRGB"><feFlood flood-color="#fff" result="bg"/><feBlend in="SourceGraphic" in2="bg"/></filter><mask id="mask-4" x="-492.44" y="-6861.87" width="562.73" height="32766" maskUnits="userSpaceOnUse"><g class="cls-110"/></mask><clipPath id="clip-path-8"><rect class="cls-5" x="-490.69" y="-658.62" width="558.17" height="846.83"/></clipPath><clipPath id="clip-path-9"><path class="cls-5" d="M-297.42-577.91c31.95-40.4,61-66,86.55-76,24.26-9.56,44.57-4.57,60.36,14.81,67.85,65.74,127.85,157,171.66,223.55,6.88,10.45,13.37,20.32,19.27,29.13C61-355.65,70.29-310.35,66.73-258.85c-3.59,51.92-20,104.39-46.18,147.75C1.3-82-49.34.64-104.1,140.84c-8.16,20.74-24.31,35.46-46.71,42.57-39.06,12.39-93.27.38-141.45-31.32-45.43-29.26-97.08-64.2-135-108.5C-467.35-3.22-488-55.82-490.38-117.19c-2.06-30.57,6.19-76.06,23.85-131.52,16.82-52.83,40.82-110.84,69.42-167.76,29.53-58.77,61.56-111.44,92.61-152.3q3.57-4.69,7.08-9.14m181.65,736a69.9,69.9,0,0,0,10.19-17.85c8.76-22.43,27-67.61,51.06-118.2,25.2-53.11,50-98.19,73.73-134,26-43.12,42.37-95.33,45.94-147,3.53-51.15-5.72-96.1-26.05-126.57-5.9-8.81-12.4-18.69-19.27-29.14C-23.95-481.22-83.91-572.36-151.65-638l-.06-.07c-15.31-18.81-35-23.65-58.57-14.37-26.74,10.52-58.88,39.78-93,84.61-31,40.78-63,93.37-92.46,152.06C-424.25-358.91-448.22-301-465-248.23c-17.6,55.28-25.82,100.56-23.78,131,2.38,61,22.9,113.3,62.74,159.83,37.79,44.14,89.32,79,134.66,108.19h0c47.79,31.45,101.48,43.38,140.1,31.13,14.81-4.69,26.82-12.78,35.52-23.78"/></clipPath><linearGradient id="linear-gradient-4" x1="-1519.43" y1="981.87" x2="-1518.43" y2="981.87" gradientTransform="matrix(-558.17, 0, 0, 558.17, -848029.32, -548282.12)" xlink:href="#linear-gradient"/><filter id="luminosity-noclip-5" x="-441.27" y="-6861.87" width="497.86" height="32766" filterUnits="userSpaceOnUse" color-interpolation-filters="sRGB"><feFlood flood-color="#fff" result="bg"/><feBlend in="SourceGraphic" in2="bg"/></filter><mask id="mask-5" x="-441.27" y="-6861.87" width="497.86" height="32766" maskUnits="userSpaceOnUse"><g class="cls-109"/></mask><clipPath id="clip-path-10"><rect class="cls-5" x="-436.99" y="-600.1" width="480.7" height="725.14"/></clipPath><clipPath id="clip-path-11"><path class="cls-5" d="M-275.78-539.75c22.68-28.69,44-47.84,62.29-55.86s33.89-5.28,46.15,8.23c67.87,50.24,147.52,167.77,181.53,218C56.59-306.61,53-204.53,5.45-121.15-35.3-57.2-75.17,24.62-99,73.5c-2.52,5.19-4.9,10.06-7.1,14.56-8.21,16.65-22.93,28.28-42.57,33.64-33.9,9.26-79.52-1-119-26.91C-308.27,69-350.17,40-381.88,2.6c-33.85-39.92-51.7-84.68-54.58-136.82-4.81-52.81,23.78-154,72.82-257.82,23.59-49.9,49.4-94.9,74.64-130.13q6.67-9.3,13.22-17.58M-114.16,98.17a59.89,59.89,0,0,0,6.78-10.75c2.2-4.49,4.57-9.36,7.1-14.55C-76.45,24-36.56-57.9,4.22-121.89,51.49-204.78,55.11-306.25,13-368.61-21-418.75-100.56-536.2-168.26-586.27l-.05,0-.05-.05c-11.8-13-26.79-15.72-44.55-7.93-21.58,9.45-47.48,34.68-74.92,73-25.19,35.16-51,80.08-74.51,129.91C-411.28-287.84-439.81-186.93-435-134.33c6.4,115.8,86.55,176.09,168.09,227.91h0c39.2,25.64,84.37,35.89,117.89,26.74,14.66-4,26.52-11.57,34.88-22.15"/></clipPath><linearGradient id="linear-gradient-5" x1="-1519.43" y1="981.87" x2="-1518.43" y2="981.87" gradientTransform="matrix(-480.7, 0, 0, 480.7, -730344.38, -472220.14)" xlink:href="#linear-gradient"/><filter id="luminosity-noclip-6" x="-388.13" y="-6861.87" width="419.2" height="32766" filterUnits="userSpaceOnUse" color-interpolation-filters="sRGB"><feFlood flood-color="#fff" result="bg"/><feBlend in="SourceGraphic" in2="bg"/></filter><mask id="mask-6" x="-388.13" y="-6861.87" width="419.2" height="32766" maskUnits="userSpaceOnUse"><g class="cls-108"/></mask><clipPath id="clip-path-12"><rect class="cls-5" x="-383.47" y="-542.16" width="403.75" height="604.13"/></clipPath><clipPath id="clip-path-13"><path class="cls-5" d="M-255.31-501.67c13.86-17.54,27.07-29.95,38.81-36,12.65-6.55,23.51-5.87,32.28,2,22.48,8.6,52.37,33.94,88.87,75.32,26.58,30.15,57,69.5,83.31,108,42.22,61.78,43.12,144.48,2.39,221.22C-25.25-105.34-41-78.06-56.26-51.68-76-17.56-94.6,14.66-108.09,35.28-119.5,52.59-140.24,62.06-166.49,62c-24.87-.09-52.82-9-76.67-24.47C-298.48,3-322.1-21.17-336.5-38.4c-27.59-33-42.65-69.92-46-112.86-5.59-45.49,14.4-128.42,52.15-216.4,24.12-56.2,50.62-103.08,75.08-134M-111.76,38.17c.91-1.16,1.78-2.35,2.6-3.59C-95.7,14-77.09-18.22-57.38-52.32c15.25-26.39,31-53.68,46.61-79.5C29.71-208.1,28.85-290.3-13.1-351.68c-26.33-38.42-56.67-77.73-83.22-107.83-36.41-41.3-66.18-66.54-88.47-75l-.12-.05-.09-.08c-8.34-7.57-18.74-8.21-30.9-1.9-32.21,16.69-75.63,81.6-113.3,169.41s-57.62,170.46-52.06,215.76c3.37,42.69,18.33,79.37,45.75,112.17s64.05,57.56,93,75.62h0c23.66,15.33,51.35,24.17,76,24.27,23.9.09,43.14-7.87,54.72-22.51"/></clipPath><linearGradient id="linear-gradient-6" x1="-1519.43" y1="981.87" x2="-1518.43" y2="981.87" gradientTransform="matrix(-403.74, 0, 0, 403.74, -613438.07, -396661.77)" xlink:href="#linear-gradient"/><filter id="luminosity-noclip-7" x="-814.17" y="-6861.87" width="1035.95" height="32766" filterUnits="userSpaceOnUse" color-interpolation-filters="sRGB"><feFlood flood-color="#fff" result="bg"/><feBlend in="SourceGraphic" in2="bg"/></filter><mask id="mask-7" x="-814.17" y="-6861.87" width="1035.95" height="32766" maskUnits="userSpaceOnUse"><g class="cls-107"/></mask><clipPath id="clip-path-14"><rect class="cls-5" x="-813.91" y="-1013.3" width="1029.88" height="1580.8"/></clipPath><clipPath id="clip-path-15"><path class="cls-5" d="M-440.16-800.87q20.88-26.4,41.44-49.9c75.15-85.86,143.16-138.34,202.15-156,60.35-18,109.78,1.21,146.93,57.25C63.14-779.37,118.81-655.93,155.64-574.25c16.58,36.76,29.67,65.8,42.17,85.84l-1.06.66,1.06-.66c20.8,33.35,24,108.53,8.28,196.21-16.88,94.36-51.49,182.33-94.94,241.36C51.21,30.58,6,134.74-21.46,207.77c-31.94,85.08-58.4,178.49-70.79,249.86-8,46.08-33.51,79.57-73.77,96.84-69.72,29.92-174.53,7.47-273.55-58.58-46.93-31.31-95.46-63.68-140.14-97.66-49.39-37.55-88.6-73.1-119.87-108.66-37.34-42.46-64.64-86-83.48-133.25-21-52.71-31.11-108.73-30.84-171.27.46-106.82,88.9-332.89,215.07-549.77,51.61-88.71,105.74-169.2,158.67-236.15M-120.3,517c12.87-16.28,21.52-36.36,25.59-59.75,12.41-71.53,38.92-165.1,70.91-250.32C3.67,133.71,49,29.33,109.14-52.32c43.23-58.73,77.67-146.33,94.49-240.32,15.58-87.1,12.54-161.6-7.94-194.45-12.59-20.18-25.71-49.29-42.33-86.14C116.56-654.83,61-778.16-51.72-948.11c-36.47-55-85-73.93-144.14-56.24-58.53,17.5-126.15,69.73-201,155.22-65.63,75-134.73,173.76-199.83,285.67-126,216.53-214.27,442.09-214.73,548.52-.27,62.21,9.76,117.93,30.67,170.33,18.72,46.94,45.88,90.29,83,132.53C-628,367.17-531.51,431.55-438.18,493.81c98.32,65.58,202.23,87.95,271.17,58.37,19-8.17,34.71-20,46.71-35.22"/></clipPath><linearGradient id="linear-gradient-7" x1="-1519.43" y1="981.87" x2="-1518.43" y2="981.87" gradientTransform="matrix(-1029.88, 0, 0, 1029.88, -1564610.03, -1011425.94)" xlink:href="#linear-gradient"/><filter id="luminosity-noclip-8" x="-760.28" y="-6861.87" width="956.76" height="32766" filterUnits="userSpaceOnUse" color-interpolation-filters="sRGB"><feFlood flood-color="#fff" result="bg"/><feBlend in="SourceGraphic" in2="bg"/></filter><mask id="mask-8" x="-760.28" y="-6861.87" width="956.76" height="32766" maskUnits="userSpaceOnUse"><g class="cls-106"/></mask><clipPath id="clip-path-16"><rect class="cls-5" x="-759.98" y="-954" width="950.69" height="1458.27"/></clipPath><clipPath id="clip-path-17"><path class="cls-5" d="M-415.79-763.88q16.52-20.88,32.8-39.73c68.42-79.16,130.35-127.66,184.07-144.16,54.32-16.67,98.89.15,132.48,50C36.13-747.88,91.46-632.32,128.07-555.85c17.19,35.9,30.77,64.25,43.51,84.44,20.57,32.64,24.9,103.44,11.28,184.77-14.57,87.09-46.22,169.37-86.81,225.76C41.12,14.51-1,110.05-26.73,176.93c-30.19,78.57-54.79,161.64-67.5,227.9-8,41.81-31.94,72.15-69.16,87.74-64.6,27.07-161,6.38-251.63-54h0c-85.53-56.88-174-115.69-239.18-190-34.33-39.15-59.5-79.35-76.92-122.88C-750.56,77.14-760,25.55-760-32c-.3-98.79,79.8-307.65,194.79-507.9,48.52-84.49,99.57-161,149.4-224m296,1221.08c11.47-14.5,19.33-32.24,23.28-52.81C-83.8,338-59.16,254.78-28.92,176.09c25.74-67,68-162.76,123.07-238.35,40.38-56.1,71.88-138,86.4-224.77,13.52-80.79,9.33-151-11-183.13-12.81-20.3-26.41-48.71-43.63-84.68C89.37-631.24,34.09-746.7-68.38-896.43c-32.95-48.92-76.64-65.43-129.85-49.09s-114.86,64.62-183,143.44C-441.08-732.82-504-641.75-563.15-538.72-678-338.79-757.93-130.42-757.64-32c0,57.24,9.38,108.54,28.7,156.82,17.32,43.28,42.35,83.25,76.51,122.2,65,74.09,153.3,132.81,238.71,189.6h0c90,59.94,185.53,80.55,249.43,53.78,18.16-7.61,33.1-18.81,44.48-33.21"/></clipPath><linearGradient id="linear-gradient-8" x1="-1519.43" y1="981.87" x2="-1518.43" y2="981.87" gradientTransform="matrix(-950.69, 0, 0, 950.69, -1444321.7, -933680.3)" xlink:href="#linear-gradient"/><filter id="luminosity-noclip-9" x="-706.59" y="-6861.87" width="877.95" height="32766" filterUnits="userSpaceOnUse" color-interpolation-filters="sRGB"><feFlood flood-color="#fff" result="bg"/><feBlend in="SourceGraphic" in2="bg"/></filter><mask id="mask-9" x="-706.59" y="-6861.87" width="877.95" height="32766" maskUnits="userSpaceOnUse"><g class="cls-105"/></mask><clipPath id="clip-path-18"><rect class="cls-5" x="-706.08" y="-894.74" width="871.82" height="1335.79"/></clipPath><clipPath id="clip-path-19"><path class="cls-5" d="M-391.57-726.83q12.24-15.46,24.32-29.66c61.68-72.47,117.52-117,166-132.34,48.28-15.3,88-.89,118,42.82,93,130.59,145.86,234.3,184.44,310,17.51,34.36,31.34,61.5,44.16,81.57,20.67,32.43,26,97.23,14.29,173.33-12.3,79.83-41,156.43-78.69,210.16C-9.53,54.77-74.56,250.88-96.2,352c-8,37.55-30.38,64.75-64.57,78.66-59.5,24.2-147.52,5.27-229.7-49.4-74-49-157.88-104.57-218.34-173.71-31.34-35.84-54.36-72.64-70.37-112.5C-697,50.66-705.82,3.52-706.06-49c-.53-45.55,16.45-115.27,49.1-201.61,31.36-82.95,75.9-176.86,125.42-264.45,45.37-80.26,93.29-152.7,140-211.74M-119.26,397.43c10.05-12.71,17.11-28.1,20.92-45.86C-76.67,250.24-11.51,53.76,79.16-72.2c37.52-53.44,66.06-129.7,78.31-209.21,11.64-75.6,6.42-139.83-14-171.82-12.88-20.15-26.73-47.34-44.27-81.76C60.68-610.65,7.88-714.28-85-844.75c-29.44-42.83-68.31-57-115.57-42-48.06,15.23-103.56,59.53-165,131.67-54.1,63.55-110.83,146.91-164,241.06-49.46,87.49-94,181.3-125.28,264.15-32.55,86.09-49.48,155.53-49,200.81.24,52.28,9,99.15,26.72,143.31,15.93,39.63,38.82,76.23,70,111.88,60.26,68.91,144,124.38,217.91,173.32h0c81.58,54.28,168.81,73.13,227.65,49.2,17.34-7.05,31.56-17.6,42.34-31.23"/></clipPath><linearGradient id="linear-gradient-9" x1="-1519.43" y1="981.87" x2="-1518.43" y2="981.87" gradientTransform="matrix(-871.83, 0, 0, 871.83, -1324513.82, -856245.35)" xlink:href="#linear-gradient"/><clipPath id="clip-path-20"><rect class="cls-5" x="-652.18" y="-835.55" width="792.97" height="1213.37"/></clipPath><filter id="luminosity-noclip-10" x="-653.05" y="-6861.87" width="799.09" height="32766" filterUnits="userSpaceOnUse" color-interpolation-filters="sRGB"><feFlood flood-color="#fff" result="bg"/><feBlend in="SourceGraphic" in2="bg"/></filter><mask id="mask-10" x="-653.05" y="-6861.87" width="799.09" height="32766" maskUnits="userSpaceOnUse"><g class="cls-104"/></mask><clipPath id="clip-path-21"><rect class="cls-5" x="-652.18" y="-835.55" width="792.98" height="1213.37"/></clipPath><clipPath id="clip-path-22"><path class="cls-5" d="M-367.55-689.71q8.06-10.17,16-19.72c54.95-65.77,104.71-106.32,147.91-120.52,42.25-13.9,77.1-1.89,103.57,35.68C-15.7-681.78,37.07-584.69,75.6-513.79c16.61,30.55,30.94,56.93,43.52,76.38,20.46,31.74,26.93,92.26,17.29,161.89C126.37-202.92,100.65-132,65.85-81,30.32-30.89-5.33,37-37.27,115.25c-25.64,62.85-47.84,129.91-60.9,184-8.07,33.31-28.82,57.37-60,69.59-54.4,21.31-134,4.13-207.74-44.84-77.59-51.14-146-98.29-197.5-157.4-28.34-32.52-49.22-65.93-63.83-102.12-16.25-40.28-24.4-83-24.89-130.53-.91-41.78,13.89-105.43,42.8-184,27.66-75.21,67.24-160.52,111.44-240.23,42.15-76,86.89-144.4,130.35-199.37M-118.62,337.64a99.93,99.93,0,0,0,18.46-38.9c13.09-54.16,35.32-121.32,61-184.26C-7.17,36,28.57-31.95,64.17-82.14c34.62-50.77,60.22-121.36,70.22-193.66C144-345,137.6-405,117.4-436.31c-12.62-19.5-27-45.92-43.59-76.51C35.3-583.66-17.43-680.68-101.7-793.06c-25.92-36.78-60-48.53-101.29-35-42.82,14.08-92.27,54.42-147,119.89-48.32,57.85-98.87,133.49-146.15,218.77-44.16,79.62-83.68,164.83-111.31,240C-636.24-171-651-107.65-650.1-66.1c.49,47.3,8.59,89.76,24.75,129.79,14.52,36,35.28,69.2,63.47,101.55,51.33,58.91,119.63,106,197.09,157h0c73.19,48.61,152.07,65.71,205.86,44.64,16.56-6.49,30.11-16.38,40.31-29.28"/></clipPath><linearGradient id="linear-gradient-10" x1="-1519.43" y1="981.87" x2="-1518.43" y2="981.87" gradientTransform="matrix(-792.98, 0, 0, 792.98, -1204732.83, -778827.81)" xlink:href="#linear-gradient"/><clipPath id="clip-path-23"><rect class="cls-5" x="-1519.43" y="-3641.4" width="1440" height="4623.27"/></clipPath><clipPath id="clip-path-24"><rect class="cls-5" x="-1519.43" y="-3641.41" width="1440" height="4623.27"/></clipPath><clipPath id="clip-path-25"><rect class="cls-5" x="-164.3" y="-317.54" width="2247.19" height="2872.82"/></clipPath><clipPath id="clip-path-26"><rect class="cls-5" x="161.93" y="1300.8" width="1440" height="376.06"/></clipPath><clipPath id="clip-path-28"><rect class="cls-5" x="-1845.66" y="-1013.3" width="2247.19" height="2872.83"/></clipPath><clipPath id="clip-path-29"><rect class="cls-5" x="-1519.43" y="605.05" width="1440" height="376.06"/></clipPath><clipPath id="clip-path-31"><rect class="cls-5" x="-1519.43" y="-47.78" width="1440" height="1028.88"/></clipPath><filter id="luminosity-noclip-11" x="-85.76" y="-107.5" width="369.93" height="729.9" filterUnits="userSpaceOnUse" color-interpolation-filters="sRGB"><feFlood flood-color="#fff" result="bg"/><feBlend in="SourceGraphic" in2="bg"/></filter><mask id="mask-11" x="-85.76" y="-107.5" width="369.93" height="729.9" maskUnits="userSpaceOnUse"><g class="cls-1"><g class="cls-2"><g class="cls-3"><g class="cls-4"><g class="cls-6"><rect class="cls-7" x="-85.76" y="-107.5" width="369.93" height="729.9"/></g></g></g></g></g></mask><clipPath id="clip-path-32"><rect class="cls-5" x="-80.38" y="-107.48" width="363.68" height="729.02"/></clipPath><clipPath id="clip-path-33"><path class="cls-5" d="M73.49,56.26c6.15-7.77,10.93-11.12,14.6-12.07,20.72-5.42,42.63-40.8,63.81-75,24.4-39.4,47.44-76.62,71-76.65,10,0,19.05,6.66,27.62,20.41,25.64,41.12,31.94,118,32.71,175.3,1,70.69-5.94,136.1-10.81,162.81l-1.23-.22,1.23.22c-14.69,80.63-28,151.43-42.14,201.26-14.92,52.6-30.15,80.62-49.39,90.84-11.22,6-23.72,5.76-38.24-.62-20.19-8.86-39.21-9.53-59.86-2.09C64,547.18,45.55,560,26,573.66c-23.67,16.47-50.51,35.15-83.31,46.79-5.5,1.95-10.13,1.27-13.76-2-9.21-8.32-11.59-33.79-7.06-75.7,4-36.83,13.3-85.84,27-141.73C-31.87,321.85-5,234.17,20.56,166.46c23.94-63.33,41-95.11,52.93-110.2m47.26-35.94c-10.7,13.53-21.42,23.51-32,26.28C74.49,50.32,50.5,94.33,22.89,167.34-2.67,235-29.47,322.54-48.78,401.6c-29.27,119.85-37,200.22-20.64,215,2.94,2.65,6.62,3.15,11.26,1.5C-25.68,606.57,1,588,24.55,571.61c39.55-27.53,73.71-51.3,119.08-31.37,13.78,6,25.57,6.27,36.06.7C219,520,239.62,417,269.94,250.6c4.86-26.63,11.73-91.82,10.77-162.33-.77-57-7-133.38-32.33-174C240.31-98.71,232-105,222.88-105,200.73-104.95,177-66.6,154-29.51c-11,17.69-22.11,35.69-33.28,49.83"/></clipPath><linearGradient id="linear-gradient-11" x1="-1519.43" y1="981.87" x2="-1518.43" y2="981.87" gradientTransform="matrix(0, -729.02, -729.02, 0, 715902.21, -1107072.54)" gradientUnits="userSpaceOnUse"><stop offset="0" stop-color="#f0c89f"/><stop offset="0.15" stop-color="#f0dbb8"/><stop offset="0.39" stop-color="#d2a680"/><stop offset="0.63" stop-color="#a27b5d"/><stop offset="0.86" stop-color="#d2a680"/><stop offset="1" stop-color="#d2a680"/><stop offset="1" stop-color="#d2a680"/></linearGradient><filter id="luminosity-noclip-12" x="-814.17" y="-1024.79" width="1035.95" height="1609.18" filterUnits="userSpaceOnUse" color-interpolation-filters="sRGB"><feFlood flood-color="#fff" result="bg"/><feBlend in="SourceGraphic" in2="bg"/></filter><mask id="mask-12" x="-814.17" y="-1024.79" width="1035.95" height="1609.18" maskUnits="userSpaceOnUse"><g class="cls-34"><g class="cls-35"><g class="cls-3"><g class="cls-36"><g class="cls-37"><rect class="cls-38" x="-814.17" y="-1024.79" width="1035.95" height="1609.17"/></g></g></g></g></g></mask><clipPath id="clip-path-34"><rect class="cls-5" x="-813.91" y="-1013.3" width="1029.88" height="1580.8"/></clipPath><clipPath id="clip-path-35"><path class="cls-5" d="M-440.16-800.87q20.88-26.4,41.44-49.9c75.15-85.86,143.16-138.34,202.15-156,60.35-18,109.78,1.21,146.93,57.25C63.14-779.37,118.81-655.93,155.64-574.25c16.58,36.76,29.67,65.8,42.17,85.84l-1.06.66,1.06-.66c20.8,33.35,24,108.53,8.28,196.21-16.88,94.36-51.49,182.33-94.94,241.36C51.21,30.58,6,134.74-21.46,207.77c-31.94,85.08-58.4,178.49-70.79,249.86-8,46.08-33.51,79.57-73.77,96.84-69.72,29.92-174.53,7.47-273.55-58.58-46.93-31.31-95.46-63.68-140.14-97.66-49.39-37.55-88.6-73.1-119.87-108.66-37.34-42.46-64.64-86-83.48-133.25-21-52.71-31.11-108.73-30.84-171.27.46-106.82,88.9-332.89,215.07-549.77,51.61-88.71,105.74-169.2,158.67-236.15M-120.3,517c12.87-16.28,21.52-36.36,25.59-59.75C-82.3,385.68-55.79,292.11-23.8,206.9,3.67,133.71,49,29.33,109.14-52.32c43.23-58.73,77.67-146.32,94.49-240.32,15.58-87.1,12.54-161.6-7.94-194.45-12.59-20.18-25.71-49.29-42.33-86.14C116.56-654.83,61-778.16-51.72-948.11c-36.47-55-85-73.93-144.14-56.24-58.53,17.5-126.15,69.73-201,155.22-65.63,75-134.73,173.76-199.83,285.67-126,216.53-214.27,442.09-214.73,548.52-.27,62.22,9.76,117.93,30.67,170.34,18.72,46.93,45.88,90.28,83,132.52C-628,367.17-531.51,431.55-438.18,493.81c98.32,65.58,202.23,87.95,271.17,58.37,19-8.17,34.71-20,46.71-35.22"/></clipPath><linearGradient id="linear-gradient-12" x1="-1519.43" y1="981.87" x2="-1518.43" y2="981.87" gradientTransform="matrix(0, -1580.8, -1580.8, 0, 1551838.19, -2401348.32)" xlink:href="#linear-gradient-11"/><filter id="luminosity-noclip-13" x="-760.28" y="-964.44" width="956.76" height="1484.08" filterUnits="userSpaceOnUse" color-interpolation-filters="sRGB"><feFlood flood-color="#fff" result="bg"/><feBlend in="SourceGraphic" in2="bg"/></filter><mask id="mask-13" x="-760.28" y="-964.44" width="956.76" height="1484.08" maskUnits="userSpaceOnUse"><g class="cls-39"><g class="cls-40"><g class="cls-3"><g class="cls-41"><g class="cls-42"><rect class="cls-43" x="-760.28" y="-964.44" width="956.76" height="1484.08"/></g></g></g></g></g></mask><clipPath id="clip-path-36"><rect class="cls-5" x="-759.98" y="-954" width="950.69" height="1458.27"/></clipPath><clipPath id="clip-path-37"><path class="cls-5" d="M-415.79-763.88q16.52-20.88,32.8-39.73c68.42-79.16,130.35-127.66,184.07-144.16,54.32-16.67,98.89.15,132.48,50C36.13-747.88,91.46-632.32,128.07-555.85c17.19,35.9,30.77,64.25,43.51,84.44,20.58,32.64,24.9,103.44,11.28,184.77-14.57,87.09-46.22,169.37-86.81,225.76C41.12,14.51-1,110.05-26.73,176.93c-30.19,78.57-54.79,161.64-67.5,227.9-8,41.81-31.94,72.15-69.16,87.74-64.6,27.07-161,6.38-251.63-54h0c-85.53-56.88-174-115.69-239.18-190-34.33-39.15-59.5-79.35-76.92-122.88C-750.56,77.14-760,25.55-760-32c-.3-98.79,79.8-307.65,194.79-507.9,48.52-84.49,99.57-161,149.4-224m296,1221.08c11.47-14.5,19.33-32.24,23.28-52.81C-83.8,338-59.16,254.78-28.92,176.09c25.74-67,68-162.76,123.07-238.35,40.38-56.1,71.88-138,86.4-224.77,13.52-80.78,9.33-151-11-183.13-12.81-20.3-26.41-48.71-43.63-84.68C89.37-631.24,34.09-746.7-68.38-896.43c-32.95-48.92-76.64-65.43-129.85-49.09s-114.86,64.62-183,143.44C-441.08-732.82-504-641.75-563.15-538.72-678-338.79-757.93-130.42-757.64-32c0,57.24,9.38,108.54,28.7,156.82,17.32,43.28,42.35,83.25,76.51,122.2,65,74.09,153.3,132.81,238.71,189.6h0c90,59.94,185.53,80.55,249.43,53.78,18.16-7.61,33.1-18.81,44.48-33.21"/></clipPath><linearGradient id="linear-gradient-13" x1="-1519.43" y1="981.87" x2="-1518.43" y2="981.87" gradientTransform="matrix(0, -1458.27, -1458.27, 0, 1431545.66, -2215237.96)" xlink:href="#linear-gradient-11"/><filter id="luminosity-noclip-14" x="-706.59" y="-904.13" width="877.95" height="1359.02" filterUnits="userSpaceOnUse" color-interpolation-filters="sRGB"><feFlood flood-color="#fff" result="bg"/><feBlend in="SourceGraphic" in2="bg"/></filter><mask id="mask-14" x="-706.59" y="-904.13" width="877.95" height="1359.02" maskUnits="userSpaceOnUse"><g class="cls-44"><g class="cls-45"><g class="cls-3"><g class="cls-46"><g class="cls-47"><rect class="cls-48" x="-706.59" y="-904.13" width="877.95" height="1359.02"/></g></g></g></g></g></mask><clipPath id="clip-path-38"><rect class="cls-5" x="-706.08" y="-894.74" width="871.82" height="1335.78"/></clipPath><clipPath id="clip-path-39"><path class="cls-5" d="M-391.57-726.83q12.22-15.46,24.32-29.67c61.68-72.46,117.52-117,166-132.33,48.28-15.3,88-.89,118,42.82,93,130.59,145.86,234.3,184.44,310,17.51,34.36,31.34,61.5,44.16,81.57,20.67,32.43,26,97.23,14.29,173.33-12.3,79.83-41,156.43-78.69,210.15C-9.53,54.77-74.56,250.88-96.2,352c-8,37.55-30.38,64.75-64.57,78.66-59.51,24.2-147.52,5.27-229.7-49.41-74-49-157.88-104.57-218.34-173.7-31.34-35.84-54.36-72.64-70.37-112.5C-697,50.66-705.82,3.52-706.06-49c-.53-45.55,16.45-115.27,49.1-201.61,31.36-82.95,75.9-176.87,125.42-264.46,45.37-80.25,93.29-152.69,140-211.73M-119.26,397.42c10.05-12.7,17.11-28.09,20.92-45.85C-76.67,250.24-11.51,53.76,79.16-72.2c37.52-53.44,66.06-129.7,78.31-209.22,11.64-75.59,6.42-139.82-14-171.81-12.88-20.15-26.73-47.34-44.27-81.76C60.68-610.65,7.88-714.28-85-844.75c-29.43-42.83-68.3-57-115.56-42-48.06,15.23-103.56,59.53-165,131.67-54.1,63.55-110.83,146.9-164,241.06-49.46,87.49-94,181.3-125.28,264.14-32.55,86.1-49.48,155.54-49,200.82.24,52.28,9,99.15,26.72,143.31,15.93,39.63,38.82,76.23,70,111.88,60.26,68.91,144,124.38,217.91,173.32h0c81.58,54.28,168.81,73.13,227.65,49.19,17.34-7,31.56-17.59,42.34-31.23"/></clipPath><linearGradient id="linear-gradient-14" x1="-1519.43" y1="981.87" x2="-1518.43" y2="981.87" gradientTransform="matrix(0, -1335.79, -1335.79, 0, 1311298.7, -2029197.88)" xlink:href="#linear-gradient-11"/><filter id="luminosity-noclip-15" x="-653.05" y="-843.85" width="799.1" height="1233.98" filterUnits="userSpaceOnUse" color-interpolation-filters="sRGB"><feFlood flood-color="#fff" result="bg"/><feBlend in="SourceGraphic" in2="bg"/></filter><mask id="mask-15" x="-653.05" y="-843.85" width="799.1" height="1233.98" maskUnits="userSpaceOnUse"><g class="cls-49"><g class="cls-19"><g class="cls-50"><g class="cls-3"><g class="cls-51"><g class="cls-52"><rect class="cls-53" x="-653.05" y="-843.85" width="799.09" height="1233.98"/></g></g></g></g></g></g></mask><clipPath id="clip-path-40"><rect class="cls-5" x="-652.18" y="-835.55" width="792.97" height="1213.37"/></clipPath><clipPath id="clip-path-41"><path class="cls-5" d="M-367.55-689.71q8-10.17,16-19.72c54.95-65.77,104.71-106.32,147.91-120.52,42.25-13.9,77.1-1.89,103.57,35.68C-15.7-681.78,37.07-584.69,75.6-513.79c16.6,30.55,30.94,56.93,43.52,76.38,20.46,31.74,26.93,92.26,17.29,161.89C126.37-202.92,100.65-132,65.85-81,30.32-30.89-5.33,37-37.27,115.25c-25.64,62.85-47.84,129.91-60.9,184-8.07,33.31-28.82,57.38-60,69.59-54.41,21.31-134,4.13-207.74-44.83-77.59-51.15-146-98.3-197.5-157.41-28.34-32.52-49.22-65.93-63.83-102.12-16.25-40.28-24.4-83-24.89-130.53-.91-41.78,13.89-105.43,42.8-184,27.66-75.21,67.24-160.52,111.44-240.23,42.15-76,86.89-144.39,130.35-199.37M-118.62,337.64a99.93,99.93,0,0,0,18.46-38.9c13.09-54.16,35.32-121.32,61-184.26C-7.17,36,28.57-31.95,64.17-82.14c34.62-50.77,60.22-121.36,70.22-193.66C144-345,137.6-405,117.4-436.31c-12.62-19.5-27-45.92-43.59-76.5C35.3-583.66-17.43-680.68-101.7-793.06c-25.92-36.78-60-48.53-101.29-35-42.82,14.08-92.27,54.42-147,119.89-48.32,57.85-98.87,133.49-146.15,218.77-44.16,79.62-83.68,164.83-111.31,240C-636.24-171-651-107.65-650.1-66.1c.49,47.3,8.59,89.76,24.75,129.79,14.52,36,35.28,69.2,63.47,101.55,51.33,58.91,119.63,106,197.09,157h0c73.19,48.61,152.07,65.71,205.86,44.64,16.55-6.49,30.11-16.38,40.31-29.28"/></clipPath><linearGradient id="linear-gradient-15" x1="-1519.43" y1="981.87" x2="-1518.43" y2="981.87" gradientTransform="matrix(0, -1213.37, -1213.37, 0, 1191112.37, -1843251.66)" xlink:href="#linear-gradient-11"/><filter id="luminosity-noclip-16" x="-599.51" y="-783.62" width="720.36" height="1108.99" filterUnits="userSpaceOnUse" color-interpolation-filters="sRGB"><feFlood flood-color="#fff" result="bg"/><feBlend in="SourceGraphic" in2="bg"/></filter><mask id="mask-16" x="-599.51" y="-783.62" width="720.36" height="1108.99" maskUnits="userSpaceOnUse"><g class="cls-8"><g class="cls-9"><g class="cls-3"><g class="cls-10"><g class="cls-11"><rect class="cls-12" x="-599.51" y="-783.62" width="720.36" height="1108.99"/></g></g></g></g></g></mask><clipPath id="clip-path-42"><rect class="cls-5" x="-598.31" y="-776.43" width="714.46" height="1091.04"/></clipPath><clipPath id="clip-path-43"><path class="cls-5" d="M-343.8-652.49q4-5.07,8-10c48.21-59.07,91.89-95.65,129.81-108.7,36.24-12.48,66.23-2.85,89.14,28.61,77,95.74,130.29,187.58,169.23,254.63,15.44,26.59,28.78,49.55,40.51,67.49,20.57,31.55,28,86.38,20.31,150.44C105.36-204.56,82.6-139.34,50.75-91-14.71,2.91-73.35,149.74-100.14,246.43c-8.1,29.09-27.29,50-55.5,60.55-49.3,18.39-120.47,2.95-185.73-40.29h0C-407.65,223.25-471,179.77-518,125.59c-25.34-29.21-44.07-59.22-57.27-91.75C-590-2.3-597.47-40.55-598.22-83.11c-1.29-38,11.33-95.61,36.5-166.49,24-67.48,58.57-144.21,97.44-216S-384-601.69-343.8-652.49m225.93,930.32A89.75,89.75,0,0,0-102,245.92C-75.13,149.09-16.39,2,49.19-92.08c31.68-48.06,54.32-113,62.12-178.11,7.61-63.63.32-118-20-149.19-11.76-18-25.11-41-40.57-67.57-38.91-67-92.2-158.76-169.09-254.43-22.39-30.75-51.66-40.15-87-28-37.59,12.94-81,49.31-129,108.11-42.54,52.15-86.91,120.09-128.26,196.5C-501.44-393-536-316.36-559.94-249-585-178.31-597.61-121-596.33-83.16c.75,42.34,8.2,80.37,22.77,116.29,13.12,32.33,31.75,62.17,56.95,91.22,46.83,54,110.11,97.39,176.28,140.75h0C-275.56,308-205,323.39-156.3,305.2c15.84-5.9,28.78-15.17,38.43-27.37"/></clipPath><linearGradient id="linear-gradient-16" x1="-1519.43" y1="981.87" x2="-1518.43" y2="981.87" gradientTransform="matrix(0, -1091.03, -1091.03, 0, 1071011.77, -1657437.85)" xlink:href="#linear-gradient-11"/><filter id="luminosity-noclip-17" x="-547.61" y="-723.48" width="643.15" height="984.07" filterUnits="userSpaceOnUse" color-interpolation-filters="sRGB"><feFlood flood-color="#fff" result="bg"/><feBlend in="SourceGraphic" in2="bg"/></filter><mask id="mask-17" x="-547.61" y="-723.48" width="643.15" height="984.07" maskUnits="userSpaceOnUse"><g class="cls-13"><g class="cls-14"><g class="cls-3"><g class="cls-15"><g class="cls-16"><rect class="cls-17" x="-547.61" y="-723.48" width="643.14" height="984.07"/></g></g></g></g></g></mask><clipPath id="clip-path-44"><rect class="cls-5" x="-544.47" y="-717.43" width="636.11" height="968.83"/></clipPath><clipPath id="clip-path-45"><path class="cls-5" d="M-320.42-615.17l.29-.37c41.48-52.39,79.07-85,111.73-96.9,30.24-11,55.38-3.75,74.73,21.65,71.26,80.34,126.56,169.48,167,234.57,12.64,20.38,23.56,38,33.37,52.81C87-372.5,95.53-321.84,90-264.41c-5.65,58.26-25.45,117.79-54.31,163.35C7.77-60.15-20.31-8.13-47.82,53.58-68.51,100-88.3,151-102.12,193.63c-8.12,24.9-25.77,42.72-51,51.54-44.2,15.42-106.91,1.71-163.66-35.79-55.56-36.13-113.36-75.54-155.83-124.79C-495,58.7-511.58,32.08-523.38,3.22c-13.07-32-19.92-65.8-20.92-103.37-3.31-68,42.36-204.95,113.63-340.86,35.38-67.46,73.49-127.67,110.25-174.16M-116.95,218a79.82,79.82,0,0,0,13.17-24.9c13.84-42.64,33.66-93.75,54.37-140.22C-21.86-8.93,6.27-61,34.2-102c28.7-45.3,48.4-104.56,54-162.56,5.53-57-2.86-107.29-23-137.87-9.82-14.84-20.75-32.46-33.4-52.85C-8.55-520.34-63.82-609.41-135-689.68c-18.88-24.78-43.35-31.87-72.79-21.13-32.36,11.8-69.69,44.22-111,96.35l-.29.37c-36.7,46.41-74.75,106.52-110.08,173.89-71.14,135.66-116.73,272.29-113.43,340,1,37.37,7.8,71,20.8,102.77C-510,31.24-493.55,57.7-471.34,83.45c42.33,49.08,100,88.4,155.48,124.48h0c56.31,37.21,118.43,50.85,162.12,35.6,15.24-5.32,27.65-14,36.79-25.54"/></clipPath><linearGradient id="linear-gradient-17" x1="-1519.43" y1="981.87" x2="-1518.43" y2="981.87" gradientTransform="matrix(0, -968.83, -968.83, 0, 951036.78, -1471818.33)" xlink:href="#linear-gradient-11"/><filter id="luminosity-noclip-18" x="-492.44" y="-663.46" width="562.73" height="859.25" filterUnits="userSpaceOnUse" color-interpolation-filters="sRGB"><feFlood flood-color="#fff" result="bg"/><feBlend in="SourceGraphic" in2="bg"/></filter><mask id="mask-18" x="-492.44" y="-663.46" width="562.73" height="859.25" maskUnits="userSpaceOnUse"><g class="cls-18"><g class="cls-19"><g class="cls-20"><g class="cls-3"><g class="cls-21"><g class="cls-22"><rect class="cls-23" x="-492.44" y="-663.46" width="562.73" height="859.25"/></g></g></g></g></g></g></mask><clipPath id="clip-path-46"><rect class="cls-5" x="-490.69" y="-658.61" width="558.17" height="846.82"/></clipPath><clipPath id="clip-path-47"><path class="cls-5" d="M-297.42-577.91c31.95-40.4,61-66,86.55-76,24.26-9.56,44.57-4.57,60.36,14.81,67.85,65.74,127.85,157,171.66,223.55,6.88,10.45,13.37,20.32,19.27,29.13C61-355.65,70.29-310.35,66.73-258.85c-3.59,51.92-20,104.39-46.18,147.75C1.3-82-49.34.64-104.1,140.84c-8.16,20.74-24.31,35.46-46.71,42.57-39.06,12.39-93.27.38-141.45-31.32-45.43-29.26-97.08-64.19-135-108.5C-467.35-3.22-488-55.81-490.38-117.19c-2.06-30.57,6.19-76.06,23.85-131.52,16.82-52.83,40.82-110.84,69.42-167.76,29.53-58.77,61.56-111.44,92.61-152.3q3.57-4.69,7.08-9.14m181.65,736a69.9,69.9,0,0,0,10.19-17.85c8.76-22.43,27-67.61,51.05-118.2,25.21-53.11,50-98.19,73.74-134,26-43.12,42.37-95.33,45.94-147,3.53-51.15-5.72-96.1-26.05-126.57-5.9-8.81-12.4-18.69-19.27-29.14C-23.95-481.22-83.91-572.36-151.65-638l-.06-.07c-15.31-18.81-35-23.65-58.57-14.37-26.74,10.52-58.88,39.78-93,84.61-31,40.79-63,93.37-92.46,152.06C-424.25-358.91-448.22-301-465-248.23c-17.6,55.28-25.82,100.56-23.78,131,2.38,61,22.9,113.3,62.74,159.83,37.79,44.14,89.32,79,134.66,108.19h0c47.79,31.45,101.48,43.38,140.1,31.13,14.81-4.69,26.82-12.78,35.52-23.78"/></clipPath><linearGradient id="linear-gradient-18" x1="-1519.43" y1="981.87" x2="-1518.43" y2="981.87" gradientTransform="matrix(0, -846.82, -846.82, 0, 831256.33, -1286499.63)" xlink:href="#linear-gradient-11"/><filter id="luminosity-noclip-19" x="-441.27" y="-603.66" width="497.86" height="734.62" filterUnits="userSpaceOnUse" color-interpolation-filters="sRGB"><feFlood flood-color="#fff" result="bg"/><feBlend in="SourceGraphic" in2="bg"/></filter><mask id="mask-19" x="-441.27" y="-603.66" width="497.86" height="734.62" maskUnits="userSpaceOnUse"><g class="cls-24"><g class="cls-25"><g class="cls-3"><g class="cls-26"><g class="cls-27"><rect class="cls-28" x="-441.27" y="-603.66" width="497.86" height="734.62"/></g></g></g></g></g></mask><clipPath id="clip-path-48"><rect class="cls-5" x="-436.99" y="-600.1" width="480.7" height="725.14"/></clipPath><clipPath id="clip-path-49"><path class="cls-5" d="M-275.78-539.75c22.68-28.68,44-47.84,62.29-55.86s33.89-5.28,46.15,8.23c67.87,50.24,147.52,167.77,181.53,218C56.59-306.61,53-204.53,5.45-121.15-35.3-57.2-75.17,24.62-99,73.5c-2.53,5.19-4.9,10.06-7.1,14.56-8.21,16.65-22.93,28.28-42.57,33.64-33.9,9.26-79.52-1-119-26.91C-308.27,69-350.17,40-381.88,2.6c-33.85-39.92-51.7-84.68-54.58-136.82-4.81-52.81,23.78-154,72.82-257.82,23.59-49.9,49.4-94.9,74.64-130.13q6.67-9.3,13.22-17.58M-114.16,98.17a59.89,59.89,0,0,0,6.78-10.75c2.2-4.49,4.57-9.36,7.1-14.55C-76.45,24-36.56-57.9,4.22-121.89,51.49-204.78,55.11-306.25,13-368.6c-34-50.15-113.56-167.6-181.26-217.67l-.05,0-.05-.05c-11.8-13-26.79-15.72-44.55-7.93-21.58,9.45-47.48,34.68-74.92,73-25.2,35.16-51,80.08-74.51,129.91C-411.28-287.84-439.82-186.93-435-134.33c6.4,115.8,86.55,176.09,168.09,227.91h0c39.2,25.65,84.37,35.89,117.89,26.74,14.66-4,26.52-11.57,34.88-22.15"/></clipPath><linearGradient id="linear-gradient-19" x1="-1519.43" y1="981.86" x2="-1518.43" y2="981.86" gradientTransform="matrix(0, -725.15, -725.15, 0, 711804.1, -1101688.56)" xlink:href="#linear-gradient-11"/><filter id="luminosity-noclip-20" x="-388.13" y="-544.26" width="419.2" height="606.32" filterUnits="userSpaceOnUse" color-interpolation-filters="sRGB"><feFlood flood-color="#fff" result="bg"/><feBlend in="SourceGraphic" in2="bg"/></filter><mask id="mask-20" x="-388.13" y="-544.26" width="419.2" height="606.32" maskUnits="userSpaceOnUse"><g class="cls-29"><g class="cls-30"><g class="cls-3"><g class="cls-31"><g class="cls-32"><rect class="cls-33" x="-388.13" y="-544.26" width="419.2" height="606.32"/></g></g></g></g></g></mask><clipPath id="clip-path-50"><rect class="cls-5" x="-383.47" y="-542.16" width="403.75" height="604.13"/></clipPath><clipPath id="clip-path-51"><path class="cls-5" d="M-255.31-501.67c13.86-17.54,27.07-29.95,38.81-36,12.65-6.55,23.51-5.87,32.28,2,22.48,8.6,52.37,33.94,88.87,75.32,26.58,30.15,57,69.5,83.31,108,42.22,61.78,43.12,144.48,2.39,221.22C-25.25-105.34-41-78.06-56.26-51.68-76-17.56-94.6,14.66-108.09,35.28-119.5,52.59-140.24,62.06-166.49,62c-24.87-.09-52.82-9-76.67-24.47C-298.48,3-322.1-21.18-336.5-38.4c-27.59-33-42.65-69.92-46-112.86-5.59-45.49,14.4-128.42,52.15-216.4,24.12-56.2,50.62-103.08,75.08-134M-111.76,38.17c.91-1.16,1.78-2.35,2.6-3.59C-95.7,14-77.09-18.22-57.38-52.33c15.25-26.38,31-53.67,46.61-79.49C29.71-208.1,28.85-290.3-13.1-351.68c-26.33-38.42-56.67-77.73-83.22-107.84-36.41-41.29-66.18-66.53-88.47-75l-.12-.05-.09-.08c-8.34-7.57-18.74-8.21-30.9-1.9-32.21,16.69-75.63,81.6-113.31,169.41s-57.61,170.46-52.05,215.76c3.37,42.69,18.33,79.37,45.75,112.17s64.05,57.56,93,75.62h0c23.65,15.34,51.35,24.18,76,24.28,23.9.09,43.14-7.87,54.72-22.51"/></clipPath><linearGradient id="linear-gradient-20" x1="-1519.43" y1="981.86" x2="-1518.43" y2="981.86" gradientTransform="matrix(0, -604.13, -604.13, 0, 592992.03, -917867.95)" xlink:href="#linear-gradient-11"/></defs><g class="cls-19"><g id="Layer_1" data-name="Layer 1"><g class="cls-54"><g class="cls-55"><g class="cls-56"><g class="cls-60"><g class="cls-61"><g class="cls-59"><g class="cls-60"><g class="cls-62"><g class="cls-63"><g class="cls-64"><g class="cls-65"><rect class="cls-66" x="-85.76" y="-107.5" width="369.93" height="729.9"/></g></g></g><g class="cls-67"><g class="cls-68"><g class="cls-69"><rect class="cls-70" x="-814.17" y="-1024.79" width="1035.95" height="1609.17"/></g></g></g><g class="cls-71"><g class="cls-72"><g class="cls-73"><rect class="cls-74" x="-760.28" y="-964.44" width="956.76" height="1484.08"/></g></g></g><g class="cls-75"><g class="cls-76"><g class="cls-77"><rect class="cls-78" x="-706.59" y="-904.13" width="877.95" height="1359.02"/></g></g></g><g class="cls-79"><g class="cls-80"><g class="cls-81"><rect class="cls-82" x="-653.05" y="-843.85" width="799.1" height="1233.98"/></g></g></g><g class="cls-83"><g class="cls-84"><g class="cls-85"><rect class="cls-86" x="-599.51" y="-783.62" width="720.36" height="1108.99"/></g></g></g><g class="cls-87"><g class="cls-88"><g class="cls-89"><rect class="cls-90" x="-547.61" y="-723.48" width="643.14" height="984.07"/></g></g></g><g class="cls-91"><g class="cls-92"><g class="cls-93"><rect class="cls-94" x="-492.44" y="-663.45" width="562.73" height="859.25"/></g></g></g><g class="cls-95"><g class="cls-96"><g class="cls-97"><rect class="cls-98" x="-441.27" y="-603.66" width="497.86" height="734.62"/></g></g></g><g class="cls-99"><g class="cls-100"><g class="cls-101"><rect class="cls-102" x="-388.13" y="-544.26" width="419.2" height="606.32"/></g></g></g></g></g></g></g></g></g></g></g><path class="cls-103" d="M8.23,22.88a.64.64,0,0,1-.53-.29L1.33,12.8A8.42,8.42,0,0,1,0,8.23a8.24,8.24,0,0,1,16.47,0,8.51,8.51,0,0,1-1.33,4.57L8.77,22.59a.65.65,0,0,1-.54.29m0-21.61a7,7,0,0,0-7,7A7.13,7.13,0,0,0,2.4,12.11l5.83,9,5.84-9a7.21,7.21,0,0,0,1.12-3.88,7,7,0,0,0-7-7"/><path class="cls-103" d="M8.23,11.4A3.17,3.17,0,1,1,11.4,8.23,3.18,3.18,0,0,1,8.23,11.4m0-5.06a1.9,1.9,0,1,0,1.9,1.89,1.89,1.89,0,0,0-1.9-1.89"/></g></g></svg>