<svg id="Layer_1" data-name="Layer 1" xmlns="http://www.w3.org/2000/svg" viewBox="0 0 60 40"><defs><style>.cls-1{fill:none;stroke:#fff;stroke-width:0.5px;}</style></defs><title>01</title><path class="cls-1" d="M19.05,39.21a13.6,13.6,0,0,1-6.75-1.64A11.63,11.63,0,0,1,7.74,33,13.6,13.6,0,0,1,6.1,26.26V14.66A13.6,13.6,0,0,1,7.74,7.91,11.72,11.72,0,0,1,12.3,3.34a13.6,13.6,0,0,1,6.75-1.63,13.53,13.53,0,0,1,6.74,1.63,11.85,11.85,0,0,1,4.56,4.57A13.5,13.5,0,0,1,32,14.66v11.6A13.5,13.5,0,0,1,30.35,33a11.76,11.76,0,0,1-4.56,4.56A13.54,13.54,0,0,1,19.05,39.21Zm0-5.73a6.64,6.64,0,0,0,3.45-.91A6.85,6.85,0,0,0,25,30.12a6.69,6.69,0,0,0,.9-3.44V14.21a6.75,6.75,0,0,0-.9-3.47A6.85,6.85,0,0,0,22.5,8.29a7,7,0,0,0-6.9,0,6.85,6.85,0,0,0-2.45,2.45,6.75,6.75,0,0,0-.9,3.47V26.68a6.69,6.69,0,0,0,.9,3.44,6.85,6.85,0,0,0,2.45,2.45A6.64,6.64,0,0,0,19.05,33.48Z"/><path class="cls-1" d="M46.25,38.46V9L39.5,13.16V6.51l6.75-4H52.4v36Z"/></svg>