<svg id="Layer_1" data-name="Layer 1" xmlns="http://www.w3.org/2000/svg" viewBox="0 0 60 40"><defs><style>.cls-1{fill:none;stroke:#fff;stroke-width:0.5px;}</style></defs><title>02</title><path class="cls-1" d="M14.11,38.75a13.6,13.6,0,0,1-6.75-1.64A11.63,11.63,0,0,1,2.8,32.55,13.6,13.6,0,0,1,1.16,25.8V14.2A13.6,13.6,0,0,1,2.8,7.45,11.63,11.63,0,0,1,7.36,2.89a13.6,13.6,0,0,1,6.75-1.64,13.54,13.54,0,0,1,6.74,1.64,11.76,11.76,0,0,1,4.56,4.56,13.5,13.5,0,0,1,1.65,6.75V25.8a13.5,13.5,0,0,1-1.65,6.75,11.76,11.76,0,0,1-4.56,4.56A13.54,13.54,0,0,1,14.11,38.75Zm0-5.73a6.64,6.64,0,0,0,3.45-.91A6.77,6.77,0,0,0,20,29.66a6.65,6.65,0,0,0,.9-3.43V13.75a6.75,6.75,0,0,0-6.8-6.83,6.65,6.65,0,0,0-3.45.92,6.71,6.71,0,0,0-3.35,5.91V26.23a6.65,6.65,0,0,0,.9,3.43,6.77,6.77,0,0,0,2.45,2.45A6.64,6.64,0,0,0,14.11,33Z"/><path class="cls-1" d="M43.38,32.27H58.84V38H34.06V32.7L49.46,19A10.39,10.39,0,0,0,52,16a6.19,6.19,0,0,0,.7-2.75A6.62,6.62,0,0,0,51.89,10a5.83,5.83,0,0,0-2.14-2.24,6,6,0,0,0-3.14-.83,6.27,6.27,0,0,0-3.31.87,6,6,0,0,0-2.24,2.28,5.89,5.89,0,0,0-.75,3.08h-6.2a12,12,0,0,1,1.61-6.28,11.13,11.13,0,0,1,4.45-4.15,14.08,14.08,0,0,1,6.57-1.47,12.45,12.45,0,0,1,6.2,1.54A11.23,11.23,0,0,1,57.26,7a12.15,12.15,0,0,1,1.58,6.23,11.86,11.86,0,0,1-.7,4.33,10.42,10.42,0,0,1-2.09,3.22c-.93,1-2.07,2.08-3.44,3.28Z"/></svg>