<svg id="Layer_1" data-name="Layer 1" xmlns="http://www.w3.org/2000/svg" viewBox="0 0 60 40"><defs><style>.cls-1{fill:none;stroke:#fff;stroke-width:0.5px;}</style></defs><title>03</title><path class="cls-1" d="M14.71,38.75A13.6,13.6,0,0,1,8,37.11,11.63,11.63,0,0,1,3.4,32.55,13.6,13.6,0,0,1,1.76,25.8V14.2A13.6,13.6,0,0,1,3.4,7.45,11.63,11.63,0,0,1,8,2.89a13.6,13.6,0,0,1,6.75-1.64,13.54,13.54,0,0,1,6.74,1.64A11.76,11.76,0,0,1,26,7.45a13.5,13.5,0,0,1,1.65,6.75V25.8A13.5,13.5,0,0,1,26,32.55a11.76,11.76,0,0,1-4.56,4.56A13.54,13.54,0,0,1,14.71,38.75Zm0-5.73a6.72,6.72,0,0,0,6.8-6.79V13.75a6.75,6.75,0,0,0-6.8-6.83,6.7,6.7,0,0,0-3.45.92,6.71,6.71,0,0,0-3.35,5.91V26.23a6.65,6.65,0,0,0,.9,3.43,6.77,6.77,0,0,0,2.45,2.45A6.69,6.69,0,0,0,14.71,33Z"/><path class="cls-1" d="M58.24,26.75a11.4,11.4,0,0,1-1.66,6.1,12,12,0,0,1-4.45,4.26A12.4,12.4,0,0,1,46,38.67a12.58,12.58,0,0,1-5.1-1.05,12.33,12.33,0,0,1-4.17-3,11.44,11.44,0,0,1-2.53-4.55L40,28.52a5.92,5.92,0,0,0,2.29,3.32,6.21,6.21,0,0,0,9-1.93,6.34,6.34,0,0,0,.8-3.16,6.22,6.22,0,0,0-1.73-4.48,5.88,5.88,0,0,0-4.45-1.8,5.8,5.8,0,0,0-1.61.23,7.62,7.62,0,0,0-1.51.62l-2.75-4.75,10.4-8.9H35.57V2H57.64V7.7l-8.1,7.79a10.18,10.18,0,0,1,3.91,1.61A10.47,10.47,0,0,1,57,21.22,12.36,12.36,0,0,1,58.24,26.75Z"/></svg>