<svg id="Layer_1" data-name="Layer 1" xmlns="http://www.w3.org/2000/svg" viewBox="0 0 60 40"><defs><style>.cls-1{fill:none;stroke:#fff;stroke-width:0.5px;}</style></defs><title>04</title><path class="cls-1" d="M13.79,38.88A13.6,13.6,0,0,1,7,37.24a11.59,11.59,0,0,1-4.56-4.57A13.45,13.45,0,0,1,.84,25.92V14.33A13.45,13.45,0,0,1,2.48,7.58,11.65,11.65,0,0,1,7,3a13.6,13.6,0,0,1,6.75-1.63A13.56,13.56,0,0,1,20.53,3a11.78,11.78,0,0,1,4.56,4.57,13.45,13.45,0,0,1,1.65,6.75V25.92a13.45,13.45,0,0,1-1.65,6.75,11.72,11.72,0,0,1-4.56,4.57A13.56,13.56,0,0,1,13.79,38.88Zm0-5.73a6.69,6.69,0,0,0,3.45-.91,6.85,6.85,0,0,0,2.45-2.45,6.69,6.69,0,0,0,.9-3.44V13.88a6.75,6.75,0,0,0-.9-3.47A6.85,6.85,0,0,0,17.24,8a6.69,6.69,0,0,0-3.45-.91A6.64,6.64,0,0,0,10.34,8,6.71,6.71,0,0,0,7,13.88V26.35a6.69,6.69,0,0,0,.9,3.44,6.77,6.77,0,0,0,2.45,2.45A6.64,6.64,0,0,0,13.79,33.15Z"/><path class="cls-1" d="M49.69,38.13v-6H33.74V26.55L45.26,2.13h6.88L40.61,26.55h9.08V17.17h6.1v9.38h3.37v5.62H55.79v6Z"/></svg>