<svg id="Layer_1" data-name="Layer 1" xmlns="http://www.w3.org/2000/svg" viewBox="0 0 60 40"><defs><style>.cls-1{fill:none;stroke:#fff;stroke-width:0.5px;}</style></defs><title>05</title><path class="cls-1" d="M14.35,38.75A13.6,13.6,0,0,1,7.6,37.11,11.63,11.63,0,0,1,3,32.55,13.6,13.6,0,0,1,1.4,25.8V14.2A13.6,13.6,0,0,1,3,7.45,11.63,11.63,0,0,1,7.6,2.89a13.5,13.5,0,0,1,6.75-1.64,13.43,13.43,0,0,1,6.74,1.64,11.76,11.76,0,0,1,4.56,4.56A13.5,13.5,0,0,1,27.3,14.2V25.8a13.5,13.5,0,0,1-1.65,6.75,11.76,11.76,0,0,1-4.56,4.56A13.54,13.54,0,0,1,14.35,38.75Zm0-5.73a6.64,6.64,0,0,0,3.45-.91,6.77,6.77,0,0,0,2.45-2.45,6.67,6.67,0,0,0,.9-3.44V13.75a6.75,6.75,0,0,0-6.8-6.83,6.65,6.65,0,0,0-3.45.92,6.71,6.71,0,0,0-3.35,5.91V26.22a6.67,6.67,0,0,0,.9,3.44,6.77,6.77,0,0,0,2.45,2.45A6.64,6.64,0,0,0,14.35,33Z"/><path class="cls-1" d="M58.6,26.65a11.06,11.06,0,0,1-1.75,6.11,12.94,12.94,0,0,1-4.61,4.36A12.42,12.42,0,0,1,46,38.75a11.68,11.68,0,0,1-5.13-1.14,12.31,12.31,0,0,1-4.09-3.14,12.1,12.1,0,0,1-2.46-4.65l5.8-1.55a5.59,5.59,0,0,0,1.29,2.5,6.65,6.65,0,0,0,2.2,1.63A6.27,6.27,0,0,0,46.2,33a6.18,6.18,0,0,0,3.2-.85,6.36,6.36,0,0,0,2.3-2.28,6.38,6.38,0,0,0,0-6.38,6.36,6.36,0,0,0-2.31-2.27,6.25,6.25,0,0,0-3.18-.84,7.09,7.09,0,0,0-3.44.75,7.23,7.23,0,0,0-2.08,1.6l-5.15-1.65,1.1-19H56.18V7.65H42l-.53,8.83a9.3,9.3,0,0,1,2-1A11.34,11.34,0,0,1,47,14.9a11.5,11.5,0,0,1,6,1.54,11,11,0,0,1,4.1,4.18A12.14,12.14,0,0,1,58.6,26.65Z"/></svg>