<svg id="Layer_1" data-name="Layer 1" xmlns="http://www.w3.org/2000/svg" viewBox="0 0 60 40"><defs><style>.cls-1{fill:none;stroke:#fff;stroke-width:0.5px;}</style></defs><title>06</title><path class="cls-1" d="M13.54,38.75a13.6,13.6,0,0,1-6.75-1.64,11.63,11.63,0,0,1-4.56-4.56A13.5,13.5,0,0,1,.59,25.8V14.2A13.5,13.5,0,0,1,2.23,7.45,11.63,11.63,0,0,1,6.79,2.89a13.5,13.5,0,0,1,6.75-1.64,13.46,13.46,0,0,1,6.74,1.64,11.76,11.76,0,0,1,4.56,4.56,13.5,13.5,0,0,1,1.65,6.75V25.8a13.5,13.5,0,0,1-1.65,6.75,11.76,11.76,0,0,1-4.56,4.56A13.56,13.56,0,0,1,13.54,38.75Zm0-5.73A6.64,6.64,0,0,0,17,32.11a6.77,6.77,0,0,0,2.45-2.45,6.67,6.67,0,0,0,.9-3.44V13.75a6.75,6.75,0,0,0-6.8-6.83,6.65,6.65,0,0,0-3.45.92,6.71,6.71,0,0,0-3.35,5.91V26.22a6.67,6.67,0,0,0,.9,3.44,6.77,6.77,0,0,0,2.45,2.45A6.64,6.64,0,0,0,13.54,33Z"/><path class="cls-1" d="M57.91,20.61a11.17,11.17,0,0,0-4.1-4.2,11.6,11.6,0,0,0-6-1.54,10.6,10.6,0,0,0-4.55,1,10.73,10.73,0,0,0-2.62,1.7V13.92a7,7,0,0,1,.86-3.42,6.81,6.81,0,0,1,2.44-2.59,6.74,6.74,0,0,1,3.67-1,6.58,6.58,0,0,1,2.86.65,7,7,0,0,1,2.32,1.78l4.35-4.23a11.58,11.58,0,0,0-4.35-2.91,14.71,14.71,0,0,0-5.18-.91A14,14,0,0,0,40.72,3a11.53,11.53,0,0,0-4.59,4.67,14.67,14.67,0,0,0-1.64,7.13v11a13.61,13.61,0,0,0,1.65,6.77,12.08,12.08,0,0,0,4.46,4.62,12.88,12.88,0,0,0,12.56,0,12.71,12.71,0,0,0,4.54-4.35,11.34,11.34,0,0,0,1.71-6.12A12.16,12.16,0,0,0,57.91,20.61Zm-5.46,9.25A6.31,6.31,0,0,1,46.94,33a6,6,0,0,1-3.19-.86,6.36,6.36,0,0,1-2.28-2.3,6.4,6.4,0,0,1,0-6.34,6.44,6.44,0,0,1,2.3-2.31A6.16,6.16,0,0,1,47,20.3a6.09,6.09,0,0,1,3.18.86,6.5,6.5,0,0,1,2.29,2.31,6.21,6.21,0,0,1,.85,3.2A6.13,6.13,0,0,1,52.45,29.86Z"/></svg>