<svg id="Layer_1" data-name="Layer 1" xmlns="http://www.w3.org/2000/svg" viewBox="0 0 60 40"><defs><style>.cls-1{fill:none;stroke:#fff;stroke-width:0.5px;}</style></defs><title>07</title><path class="cls-1" d="M15.66,38.88a13.6,13.6,0,0,1-6.75-1.64,11.59,11.59,0,0,1-4.56-4.57,13.55,13.55,0,0,1-1.64-6.75V14.33A13.55,13.55,0,0,1,4.35,7.58,11.65,11.65,0,0,1,8.91,3a13.6,13.6,0,0,1,6.75-1.63A13.53,13.53,0,0,1,22.4,3,11.78,11.78,0,0,1,27,7.58a13.45,13.45,0,0,1,1.65,6.75V25.92A13.45,13.45,0,0,1,27,32.67a11.72,11.72,0,0,1-4.56,4.57A13.54,13.54,0,0,1,15.66,38.88Zm0-5.73a6.64,6.64,0,0,0,3.45-.91,6.77,6.77,0,0,0,2.45-2.45,6.69,6.69,0,0,0,.9-3.44V13.88A6.71,6.71,0,0,0,19.11,8a6.64,6.64,0,0,0-3.45-.91A6.69,6.69,0,0,0,12.21,8a6.85,6.85,0,0,0-2.45,2.45,6.75,6.75,0,0,0-.9,3.47V26.35a6.69,6.69,0,0,0,.9,3.44,6.85,6.85,0,0,0,2.45,2.45A6.69,6.69,0,0,0,15.66,33.15Z"/><path class="cls-1" d="M38.44,38.13l12.4-30.3H35.11V2.13H57.29v5.7L44.94,38.13Z"/></svg>