<svg id="Layer_1" data-name="Layer 1" xmlns="http://www.w3.org/2000/svg" viewBox="0 0 60 40"><defs><style>.cls-1{fill:none;stroke:#fff;stroke-width:0.5px;}</style></defs><title>08</title><path class="cls-1" d="M13.94,38.75a13.6,13.6,0,0,1-6.75-1.64,11.65,11.65,0,0,1-4.57-4.56A13.6,13.6,0,0,1,1,25.8V14.2A13.6,13.6,0,0,1,2.62,7.45,11.65,11.65,0,0,1,7.19,2.89a13.6,13.6,0,0,1,6.75-1.64,13.5,13.5,0,0,1,6.73,1.64,11.78,11.78,0,0,1,4.57,4.56,13.5,13.5,0,0,1,1.65,6.75V25.8a13.5,13.5,0,0,1-1.65,6.75,11.78,11.78,0,0,1-4.57,4.56A13.5,13.5,0,0,1,13.94,38.75Zm0-5.72a6.73,6.73,0,0,0,6.8-6.8V13.75a6.73,6.73,0,0,0-6.8-6.82A6.74,6.74,0,0,0,8,10.29a6.71,6.71,0,0,0-.9,3.46V26.23a6.75,6.75,0,0,0,6.8,6.8Z"/><path class="cls-1" d="M57.62,21.84a10,10,0,0,0-2.69-3.17,10,10,0,0,0,2-2.62A9.67,9.67,0,0,0,58,11.43a9.78,9.78,0,0,0-1.46-5.38,10,10,0,0,0-4-3.54,13.17,13.17,0,0,0-5.88-1.26,13.11,13.11,0,0,0-5.88,1.26,9.93,9.93,0,0,0-4,3.54,9.7,9.7,0,0,0-1.46,5.38,9.39,9.39,0,0,0,1.13,4.63,10.8,10.8,0,0,0,2,2.6,10.05,10.05,0,0,0-2.69,3.19,11.43,11.43,0,0,0-1.38,5.53A11.11,11.11,0,0,0,36,33.28a11,11,0,0,0,4.35,4,13.45,13.45,0,0,0,6.35,1.45A13.57,13.57,0,0,0,53,37.3a10.81,10.81,0,0,0,6-9.92A11.5,11.5,0,0,0,57.62,21.84ZM43.07,8a5.56,5.56,0,0,1,3.59-1.11A5.62,5.62,0,0,1,50.27,8a4.1,4.1,0,0,1,1.39,3.39,4.09,4.09,0,0,1-1.39,3.38,5.56,5.56,0,0,1-3.61,1.12,5.51,5.51,0,0,1-3.59-1.12,4.06,4.06,0,0,1-1.39-3.38A4.07,4.07,0,0,1,43.07,8ZM51,31.63a6.36,6.36,0,0,1-4.31,1.45,6.21,6.21,0,0,1-4.28-1.45,5.42,5.42,0,0,1-1.62-4.25,5.47,5.47,0,0,1,1.62-4.27,6.17,6.17,0,0,1,4.28-1.46A6.29,6.29,0,0,1,51,23.11a5.42,5.42,0,0,1,1.65,4.27A5.34,5.34,0,0,1,51,31.63Z"/></svg>