<svg id="Layer_1" data-name="Layer 1" xmlns="http://www.w3.org/2000/svg" viewBox="0 0 60 40"><defs><style>.cls-1{fill:none;stroke:#fff;stroke-width:0.5px;}</style></defs><title>09</title><path class="cls-1" d="M14,38.75a13.6,13.6,0,0,1-6.75-1.64,11.63,11.63,0,0,1-4.56-4.56A13.6,13.6,0,0,1,1,25.8V14.2A13.6,13.6,0,0,1,2.65,7.45,11.63,11.63,0,0,1,7.21,2.89,13.6,13.6,0,0,1,14,1.25,13.54,13.54,0,0,1,20.7,2.89a11.76,11.76,0,0,1,4.56,4.56,13.5,13.5,0,0,1,1.65,6.75V25.8a13.5,13.5,0,0,1-1.65,6.75,11.76,11.76,0,0,1-4.56,4.56A13.54,13.54,0,0,1,14,38.75ZM14,33a6.72,6.72,0,0,0,6.8-6.79V13.75A6.75,6.75,0,0,0,14,6.92a6.7,6.7,0,0,0-3.45.92,6.71,6.71,0,0,0-3.35,5.91V26.23a6.65,6.65,0,0,0,.9,3.43,6.77,6.77,0,0,0,2.45,2.45A6.69,6.69,0,0,0,14,33Z"/><path class="cls-1" d="M57.35,7.56A12,12,0,0,0,52.89,3a12.88,12.88,0,0,0-12.56,0,12.71,12.71,0,0,0-4.54,4.35,11.42,11.42,0,0,0-1.7,6.12,12.14,12.14,0,0,0,1.49,6,11.15,11.15,0,0,0,4.1,4.22,11.55,11.55,0,0,0,6,1.55,10.95,10.95,0,0,0,7.2-2.74v3.69a7,7,0,0,1-3.33,6,6.74,6.74,0,0,1-3.67,1A6.55,6.55,0,0,1,43,32.46a6.88,6.88,0,0,1-2.34-1.76l-4.32,4.23a12.16,12.16,0,0,0,4.35,2.88,15,15,0,0,0,12.05-.71,11.5,11.5,0,0,0,4.58-4.69A14.64,14.64,0,0,0,59,25.3v-11A13.6,13.6,0,0,0,57.35,7.56Zm-5.35,9a6.45,6.45,0,0,1-2.31,2.3,6.25,6.25,0,0,1-3.2.85,6.18,6.18,0,0,1-3.18-.85A6.36,6.36,0,0,1,41,16.58a6.3,6.3,0,0,1-.84-3.2A6.21,6.21,0,0,1,41,10.19a6.47,6.47,0,0,1,2.3-2.29,6.21,6.21,0,0,1,3.2-.85,6,6,0,0,1,3.19.88A6.58,6.58,0,0,1,52,10.24a6.27,6.27,0,0,1,0,6.34Z"/></svg>