<svg id="Layer_1" data-name="Layer 1" xmlns="http://www.w3.org/2000/svg" viewBox="0 0 60 40"><defs><style>.cls-1{fill:none;stroke:#fff;stroke-width:0.5px;}</style></defs><title>10</title><path class="cls-1" d="M11.35,38.13V8.7L4.6,12.83V6.17l6.75-4H17.5v36Z"/><path class="cls-1" d="M41,38.88a13.6,13.6,0,0,1-6.75-1.64,11.59,11.59,0,0,1-4.56-4.57A13.55,13.55,0,0,1,28,25.92V14.33a13.55,13.55,0,0,1,1.64-6.75A11.65,11.65,0,0,1,34.2,3,13.6,13.6,0,0,1,41,1.38,13.53,13.53,0,0,1,47.69,3a11.78,11.78,0,0,1,4.56,4.57,13.45,13.45,0,0,1,1.65,6.75V25.92a13.45,13.45,0,0,1-1.65,6.75,11.72,11.72,0,0,1-4.56,4.57A13.54,13.54,0,0,1,41,38.88Zm0-5.73a6.64,6.64,0,0,0,3.45-.91,6.85,6.85,0,0,0,2.45-2.45,6.69,6.69,0,0,0,.9-3.44V13.88a6.75,6.75,0,0,0-.9-3.47A6.85,6.85,0,0,0,44.4,8a7,7,0,0,0-6.9,0,6.85,6.85,0,0,0-2.45,2.45,6.75,6.75,0,0,0-.9,3.47V26.35a6.69,6.69,0,0,0,.9,3.44,6.85,6.85,0,0,0,2.45,2.45A6.64,6.64,0,0,0,41,33.15Z"/></svg>