<svg id="Layer_1" data-name="Layer 1" xmlns="http://www.w3.org/2000/svg" viewBox="0 0 150 150"><defs><style>.cls-1{fill:#286863;}</style></defs><title>calendar</title><path class="cls-1" d="M21.49,146.27a9.93,9.93,0,0,1-4.39-1c-4.21-2.08-6.26-5.5-6.25-10.47q0-40.86,0-81.72V24.65c0-.46,0-.93,0-1.39a10.53,10.53,0,0,1,8.92-9.86,23.75,23.75,0,0,1,3.53-.22c.61,0,1.22,0,1.82,0l1.81,0h.62c2.53,0,2.53,0,2.54-2.5a6.63,6.63,0,0,1,4.29-6.59l.16-.06c.17-.05.22-.08.23-.17l0-.17h4.06c2.82,1,4.4,2.51,5,4.77a9.51,9.51,0,0,1,.2,3.38A1.43,1.43,0,0,0,44.32,13c.18.2.54.28,1.18.28l29.06,0q14.89,0,29.79,0h0c.73,0,1.12-.09,1.32-.31s.24-.58.18-1.21c-.38-3.9,1.23-6.54,4.77-7.84l0-.08.16-.08h3.61c3.27,1,5,2.92,5.37,5.88a11.34,11.34,0,0,1,0,2.54c0,.47,0,.75.14.9s.36.2.75.2h.16c1-.05,2.05-.06,3.07-.06h2.22l1.93,0a10.4,10.4,0,0,1,4.67.92c4.3,2.06,6.39,5.51,6.38,10.53q0,41.33,0,82.65v27.55c0,.37,0,.74,0,1.12a10.54,10.54,0,0,1-10.63,10.27h-107Zm-5.95-10.16a5.64,5.64,0,0,0,1.61,3.77A6.78,6.78,0,0,0,22,141.7H127.93c4.21,0,6.63-2.4,6.64-6.58,0-4.62,0-9.23,0-13.84v-7.61l-5.77,5.76c-5.09,5.07-9.89,9.87-14.75,14.79a12.14,12.14,0,0,1-9,3.75l-40.88,0h-41C20.5,138,17.91,137.81,15.54,136.11Zm.86-88.57a1.14,1.14,0,0,0-.8.19c-.13.13-.19.38-.19.84q0,24.95,0,49.88v28.4c0,4.09,2.45,6.52,6.55,6.52h80c3.26,0,5.06-1.78,5.07-5,0-2.34,0-4.68,0-7v-5.75c0-5.89,3.82-9.72,9.71-9.75h12.22c4,0,5.63-1.62,5.63-5.58V88.87q0-20,0-40a1.56,1.56,0,0,0-.26-1.1c-.18-.18-.5-.25-1.15-.25q-29.47,0-58.95,0h-27c-1.49,0-3.48-.23-3.5-2.26a2,2,0,0,1,.54-1.48A4,4,0,0,1,47.24,43h86.59a.84.84,0,0,0,.6-.14,1.07,1.07,0,0,0,.17-.72c0-3.21,0-6.42,0-9.62,0-2.86,0-5.71,0-8.57a5.89,5.89,0,0,0-6-6.14q-3.63,0-7.26,0H111.11c-.32,0-.5,0-.6.14a.89.89,0,0,0-.12.61c0,.95,0,1.89,0,2.84v1.88c0,1.7.38,2.11,2.14,2.46a2.28,2.28,0,1,1-.45,4.54,6.46,6.46,0,0,1-6.21-5.87,40.53,40.53,0,0,1,0-5.16,1.56,1.56,0,0,0-.2-1.17c-.19-.2-.56-.29-1.22-.29q-20.76,0-41.48,0H38.08l-1.6,0q-.52,0-1,0h-.14a.65.65,0,0,0-.46.13.86.86,0,0,0-.13.62c0,1,0,1.93,0,2.89,0,.57,0,1.13,0,1.69,0,1.77.44,2.28,2.17,2.6A2.3,2.3,0,0,1,39,28.21a2.25,2.25,0,0,1-2.49,2,6.52,6.52,0,0,1-6.3-6.42c-.07-1.76-.06-3.35,0-4.87,0-.54,0-.83-.19-1a1,1,0,0,0-.76-.21h-.17c-.93,0-1.86.06-2.78.06l-1.89,0H22.1c-4.23,0-6.66,2.47-6.67,6.72v6c0,3.77,0,7.54,0,11.31,0,.52.06.8.21.95a1.29,1.29,0,0,0,.91.22c3.34,0,6.65,0,10,0H37.12A5.83,5.83,0,0,1,38,43a2.25,2.25,0,0,1,0,4.47,7.78,7.78,0,0,1-1,.05H26.6q-5.09,0-10.17,0l0-.2Zm106,62.85q-3.18,0-6.38,0a4.38,4.38,0,0,0-4.38,4.55c0,3.67,0,7.35,0,10.9v3.8l19.27-19.27ZM112.78,8.29c-1.7,0-2.35.67-2.38,2.45,0,1.24,0,1.93.23,2.2s1,.28,2.17.28,2,0,2.26-.28.25-.94.23-2.15c0-1.8-.73-2.5-2.48-2.5v-.2Zm-75.59,0c-1.68,0-2.42.7-2.48,2.33-.05,1.31-.07,2,.2,2.31s1,.29,2.25.29,1.93,0,2.2-.28.26-.95.24-2.17l.2-.14h-.2c0-1.65-.72-2.32-2.35-2.34l-.06-.2Z"/><path class="cls-1" d="M35,3.93h3.89c2.3.82,4.14,2.12,4.84,4.63a9.19,9.19,0,0,1,.19,3.3c-.12,1.29.32,1.59,1.58,1.58q29.41-.06,58.83,0c1.42,0,1.84-.35,1.7-1.74-.36-3.7,1.1-6.36,4.71-7.66,0,0,0-.08,0-.12h3.61c2.85.88,4.79,2.61,5.18,5.7a12.29,12.29,0,0,1,0,2.5c-.09,1,.14,1.36,1.24,1.32,2.41-.1,4.81,0,7.22,0a10.46,10.46,0,0,1,4.59.9C137,16.4,139,19.89,139,24.67q0,55.1,0,110.2c0,.37,0,.74,0,1.11a10.31,10.31,0,0,1-10.43,10.08q-53.49,0-107,0a9.63,9.63,0,0,1-4.3-.93c-4.26-2.1-6.15-5.57-6.14-10.29q0-55.09,0-110.2c0-.46,0-.92,0-1.38a10.3,10.3,0,0,1,8.75-9.67,59.07,59.07,0,0,1,7.76-.17c2.71,0,2.72,0,2.73-2.7a6.43,6.43,0,0,1,4.17-6.42C34.71,4.23,35,4.22,35,3.93ZM90.13,43.19h43.3c.76,0,1.38.13,1.37-1.07-.06-6.06,0-12.12-.05-18.18a6.11,6.11,0,0,0-6.15-6.34c-5.83-.09-11.66,0-17.49,0-.75,0-.94.25-.92.95,0,1.58,0,3.15,0,4.72,0,1.81.45,2.29,2.3,2.65A2.09,2.09,0,1,1,112,30a6.24,6.24,0,0,1-6-5.68,42,42,0,0,1,0-5.14c.09-1.32-.27-1.67-1.64-1.67q-33.17.07-66.34,0c-.88,0-1.76.05-2.64,0s-1,.22-.94.95c0,1.52,0,3.05,0,4.58,0,1.86.51,2.45,2.33,2.79a2.09,2.09,0,0,1,1.91,2.3A2.06,2.06,0,0,1,36.41,30a6.34,6.34,0,0,1-6-6.22c-.06-1.62-.07-3.25,0-4.86,0-1-.16-1.46-1.33-1.41-2.31.11-4.63,0-6.94,0-4.34,0-6.86,2.55-6.87,6.92,0,5.78,0,11.57,0,17.35,0,1.08.26,1.38,1.36,1.37,6.66-.06,13.33,0,20,0a9.05,9.05,0,0,1,1.38.05,2,2,0,0,1,0,4.07,10.77,10.77,0,0,1-1.39,0c-6.71,0-13.41,0-20.12,0-1,0-1.22.28-1.22,1.23q0,39.15,0,78.28c0,4.19,2.56,6.72,6.75,6.72q40,0,80,0c3.35,0,5.26-1.89,5.27-5.22,0-4.25,0-8.51,0-12.77,0-5.82,3.69-9.52,9.51-9.55,4.08,0,8.15,0,12.22,0s5.83-1.69,5.83-5.78c0-17.12,0-34.24,0-51.35,0-1.33-.41-1.56-1.62-1.55q-43,0-85.91,0C45,47.36,44,46.71,44,45.3s1-2.11,3.26-2.11Zm44.64,70c-7.15,7.15-14,14-20.87,20.9a11.87,11.87,0,0,1-8.92,3.69q-40.11-.06-80.22,0c-3.27,0-6.56.22-9.43-2.05,0,3.74,2.75,6.2,6.71,6.2H127.93c4.3,0,6.83-2.5,6.84-6.78q0-9.78,0-19.57Zm-3.44-3c-5,0-10.19,0-15.36,0a4.58,4.58,0,0,0-4.58,4.75c0,5.17,0,10.34,0,15.18ZM37.16,13.42c2.68,0,2.68,0,2.64-2.65v-.14c0-1.77-.8-2.52-2.55-2.54s-2.67.76-2.74,2.52C34.41,13.42,34.41,13.42,37.16,13.42Zm75.64,0c2.74,0,2.74,0,2.69-2.63,0-1.91-.84-2.71-2.71-2.7s-2.55.77-2.58,2.64C110.15,13.42,110.15,13.42,112.8,13.42Zm19,96.81.1-.09-.09-.09-.1.13Z"/><path class="cls-1" d="M131.78,110.23l-.09,0,.1-.13.09.09Z"/><path class="cls-1" d="M131.78,110.23l-.09,0,.1-.13.09.09Z"/><path class="cls-1" d="M89.18,74c-1.61,0-3.23,0-4.84,0A4.13,4.13,0,0,1,80,69.69c-.1-3.35-.1-6.71,0-10a4.09,4.09,0,0,1,4.29-4.19q2.48-.06,5-.06c1.66,0,3.31,0,4.9.06a4.17,4.17,0,0,1,4.26,4.37c0,1.1,0,2.21,0,3.32,0,.51,0,1,0,1.53v1.42c0,1.1,0,2.2,0,3.3a4.21,4.21,0,0,1-4.45,4.47C92.33,74,90.76,74,89.18,74Zm0-4.61q1.91,0,3.81,0h0a.91.91,0,0,0,.64-.15,1,1,0,0,0,.13-.68c0-.91,0-1.82,0-2.74V64.67c0-.37,0-.74,0-1.11,0-.86,0-1.76,0-2.63,0-.38,0-.61-.14-.73A.89.89,0,0,0,93,60c-1.28,0-2.5,0-3.71,0l-4,0h0c-.42,0-.61,0-.71.15a.88.88,0,0,0-.15.62c.05,2.45.05,5,0,7.75a1,1,0,0,0,.15.67.91.91,0,0,0,.62.15Z"/><path class="cls-1" d="M98.16,64.73c0,1.57,0,3.15,0,4.72a4,4,0,0,1-4.25,4.27q-4.78.09-9.57,0a3.93,3.93,0,0,1-4.19-4q-.15-5,0-10a3.89,3.89,0,0,1,4.1-4c3.28-.08,6.56-.09,9.84,0a4,4,0,0,1,4.06,4.17C98.2,61.5,98.16,63.12,98.16,64.73ZM94,64.67c0-1.24,0-2.49,0-3.73,0-.84-.2-1.13-1.08-1.11-2.53.06-5.07,0-7.6,0-.74,0-1.08.13-1.07,1,0,2.58,0,5.17,0,7.75,0,.78.23,1,1,1,2.58,0,5.17,0,7.75,0,.82,0,1-.29,1-1C94,67.25,94,66,94,64.67Z"/><path class="cls-1" d="M57.91,74l-1.74,0c-2.77-.07-4.46-1.71-4.51-4.4-.07-3.29-.07-6.56,0-9.71a4.07,4.07,0,0,1,4.17-4.3c1.66-.05,3.36-.07,5.07-.07s3.27,0,4.92.07a4.12,4.12,0,0,1,4.25,4.37c.07,3.48.07,6.66,0,9.71a4.17,4.17,0,0,1-4.32,4.32q-1,0-1.92,0l-2.89,0h-3ZM56.78,60a.66.66,0,0,0-.47.12.61.61,0,0,0-.11.46c0,2.77,0,5.51,0,8.16a.68.68,0,0,0,.12.48.62.62,0,0,0,.46.12c1.39,0,2.76,0,4.13,0H65a.63.63,0,0,0,.45-.11.79.79,0,0,0,.12-.52c0-2.68,0-5.35,0-8a.82.82,0,0,0-.13-.55.69.69,0,0,0-.48-.12c-.6,0-1.13,0-1.67,0H58.58l-1.75,0,0-.2Z"/><path class="cls-1" d="M60.75,73.74c-1.53,0-3,0-4.58,0-2.65-.06-4.26-1.58-4.31-4.2-.07-3.24-.07-6.47,0-9.71a3.88,3.88,0,0,1,4-4.1q5-.15,10,0a3.93,3.93,0,0,1,4.06,4.18c.06,3.23.07,6.47,0,9.7a4,4,0,0,1-4.13,4.12c-1.66.06-3.33,0-5,0ZM61,59.85c-1.38,0-2.77,0-4.15,0-.57,0-.84.16-.83.78q0,4.08,0,8.16c0,.6.21.8.8.8q4.08,0,8.16,0c.63,0,.78-.28.78-.84,0-2.68,0-5.35,0-8,0-.67-.22-.9-.88-.88C63.56,59.88,62.27,59.85,61,59.85Z"/><path class="cls-1" d="M117.53,74c-1.68,0-3.37,0-5,0a4,4,0,0,1-4.21-4c-.13-3.35-.14-6.85,0-10.4a4,4,0,0,1,4.15-4c1.73-.06,3.46-.08,5.17-.08s3.23,0,4.82.07c2.61.07,4.2,1.76,4.24,4.51,0,1.09,0,2.19,0,3.28V66.2c0,1.09,0,2.18,0,3.26a4.17,4.17,0,0,1-4.31,4.45C120.73,74,119.13,74,117.53,74Zm0-4.61c1.28,0,2.55,0,3.82,0h0a.8.8,0,0,0,.56-.13c.1-.1.13-.29.12-.64,0-.91,0-1.83,0-2.74V63.56c0-1,0-1.9,0-2.85a.52.52,0,0,0-.64-.67l-4.06,0-4,0h0a.71.71,0,0,0-.51.13.84.84,0,0,0-.13.58c0,3.1,0,5.61,0,7.89a.81.81,0,0,0,.14.6.85.85,0,0,0,.58.14Z"/><path class="cls-1" d="M126.45,64.75c0,1.57,0,3.14,0,4.71a4,4,0,0,1-4.11,4.25q-4.92.11-9.84,0a3.82,3.82,0,0,1-4-3.77c-.14-3.46-.13-6.93,0-10.39a3.81,3.81,0,0,1,4-3.83c3.32-.09,6.65-.1,10,0,2.55.07,4,1.72,4,4.31C126.47,61.6,126.45,63.17,126.45,64.75Zm-4.17,0c0-1.34,0-2.68,0-4,0-.66-.2-.89-.87-.88q-4,0-8,0c-.69,0-.84.28-.84.91,0,2.63,0,5.26,0,7.89,0,.74.25,1,1,.94,2.63,0,5.26,0,7.89,0,.78,0,.91-.3.89-1C122.25,67.31,122.28,66,122.28,64.73Z"/><path class="cls-1" d="M117.49,100.34c-1.66,0-3.33,0-5,0a4.07,4.07,0,0,1-4.25-4.08c-.12-3.41-.12-6.87,0-10.27a4,4,0,0,1,4.13-4c1.73-.05,3.44-.07,5.09-.07s3.4,0,5,.08a4.12,4.12,0,0,1,4.13,4.33v6.41c0,1.1,0,2.2,0,3.31a4.18,4.18,0,0,1-4.29,4.33C120.73,100.32,119.11,100.34,117.49,100.34Zm.09-4.61c1.28,0,2.55,0,3.83,0h0a.8.8,0,0,0,.56-.13c.1-.1.13-.29.12-.65,0-.91,0-1.83,0-2.75V89.92c0-.94,0-1.89,0-2.84a.52.52,0,0,0-.64-.67l-4.08,0c-1.33,0-2.65,0-4,0h0a.75.75,0,0,0-.51.13c-.09.09-.13.27-.13.59,0,3.19,0,5.63,0,7.89a.8.8,0,0,0,.14.59c.09.1.28.14.58.14Z"/><path class="cls-1" d="M126.45,91.1c0,1.62,0,3.24,0,4.85a4,4,0,0,1-4.1,4.14c-3.28.07-6.56.06-9.84,0a3.86,3.86,0,0,1-4-3.88q-.18-5.13,0-10.25a3.81,3.81,0,0,1,3.94-3.85c3.37-.09,6.74-.1,10.11,0a3.92,3.92,0,0,1,3.94,4.14V91.1Zm-4.17,0c0-1.34,0-2.68,0-4,0-.66-.21-.88-.87-.88-2.68,0-5.35,0-8,0-.7,0-.84.3-.84.92,0,2.63,0,5.26,0,7.89,0,.75.26.94,1,.93,2.62,0,5.26,0,7.88,0,.79,0,.91-.32.89-1C122.25,93.68,122.28,92.39,122.28,91.1Z"/><path class="cls-1" d="M29.59,74l-1.8,0a4.22,4.22,0,0,1-4.43-4.49c0-3,0-6.21,0-9.43a4.2,4.2,0,0,1,4.4-4.51c1.59,0,3.17,0,4.76,0s3.21,0,4.81,0c2.77.06,4.44,1.79,4.47,4.62s0,5.92,0,9.15c0,2.9-1.7,4.59-4.57,4.66l-1.78,0H29.59ZM28.51,60a.71.71,0,0,0-.49.12.73.73,0,0,0-.11.47c0,2.82,0,5.57,0,8.17a.67.67,0,0,0,.11.47.62.62,0,0,0,.43.11c.62,0,1.19,0,1.75,0h4.66c.56,0,1.12,0,1.68,0h0a.85.85,0,0,0,.57-.13.74.74,0,0,0,.13-.52c0-2.66,0-5.36,0-8a.53.53,0,0,0-.67-.66l-4,0-4.06,0,0-.2Z"/><path class="cls-1" d="M32.51,73.74c-1.57,0-3.15,0-4.71,0a4,4,0,0,1-4.24-4.29q-.06-4.71,0-9.42c0-2.65,1.56-4.26,4.2-4.32q4.79-.11,9.57,0c2.68.06,4.24,1.71,4.27,4.42q0,4.58,0,9.15a4.11,4.11,0,0,1-4.38,4.46C35.65,73.77,34.08,73.74,32.51,73.74Zm0-4.17c1.34,0,2.68,0,4,0,.62,0,.92-.15.91-.85,0-2.68,0-5.35,0-8,0-.68-.26-.86-.89-.86q-4,0-8,0c-.58,0-.82.17-.82.79q0,4.08,0,8.16c0,.61.21.8.8.79C29.85,69.54,31.19,69.57,32.52,69.57Z"/><path class="cls-1" d="M57.81,99.68l-1.92,0a4,4,0,0,1-4.19-4c-.1-3.35-.1-6.85,0-10.4a4.08,4.08,0,0,1,4.14-4c1.64,0,3.32-.07,5-.07s3.32,0,5,.07a4.17,4.17,0,0,1,4.24,4.26c.08,3.19.08,6.5,0,9.85a4.2,4.2,0,0,1-4.47,4.3H57.81Zm-.94-13.91a.77.77,0,0,0-.54.13c-.1.1-.14.29-.14.63,0,2.52,0,5.18,0,7.9,0,.32,0,.49.12.57a.65.65,0,0,0,.47.12l4,0,4.11,0h0c.3,0,.47,0,.55-.13s.12-.25.11-.53c0-1,0-1.9,0-2.85V89.29c0-.92,0-1.83,0-2.75,0-.34,0-.53-.13-.63a.7.7,0,0,0-.53-.14l-4,0-4,0,0-.2Z"/><path class="cls-1" d="M60.88,99.47c-1.66,0-3.32,0-5,0a3.84,3.84,0,0,1-4-3.77c-.1-3.46-.1-6.93,0-10.39a3.85,3.85,0,0,1,3.94-3.85q5-.14,10,0a4,4,0,0,1,4,4.07q.12,4.92,0,9.84a4,4,0,0,1-4.26,4.1C64,99.48,62.46,99.47,60.88,99.47Zm4.84-9c0-1.3,0-2.59,0-3.89,0-.67-.13-1-.91-1-2.63,0-5.27,0-7.9,0-.76,0-.94.26-.93,1,0,2.63,0,5.27,0,7.9,0,.63.12.9.83.89,2.68,0,5.36,0,8,0,.66,0,.9-.19.87-.86C65.69,93.11,65.72,91.77,65.72,90.43Z"/><path class="cls-1" d="M86.07,99.68l-1.94,0A4,4,0,0,1,80,95.93,84.94,84.94,0,0,1,80,85.1a4,4,0,0,1,4.16-3.85c1.69,0,3.38-.07,5.07-.07s3.34,0,4.92.07a4.16,4.16,0,0,1,4.18,4.32c.07,3.48.07,6.7,0,9.84A4.16,4.16,0,0,1,94,99.66H86.07Zm-.95-13.91c-.3,0-.44,0-.52.12a.78.78,0,0,0-.13.55c0,2.42,0,5,0,8,0,.28,0,.44.11.52a.6.6,0,0,0,.43.11l4,0,4.15,0h0c.26,0,.41,0,.48-.11a.68.68,0,0,0,.11-.46c0-3,0-5.63,0-8.05a.85.85,0,0,0-.14-.59.71.71,0,0,0-.51-.13h-.11c-.53,0-1.07,0-1.6,0l-2.26,0-2.37,0q-.84,0-1.68,0Z"/><path class="cls-1" d="M89.12,99.47c-1.66,0-3.32,0-5,0a3.8,3.8,0,0,1-3.91-3.55,86.48,86.48,0,0,1,0-10.8,3.82,3.82,0,0,1,4-3.66c3.32-.08,6.65-.09,10,0a4,4,0,0,1,4,4.12c.06,3.28.07,6.56,0,9.84a4,4,0,0,1-4.17,4C92.36,99.48,90.74,99.47,89.12,99.47Zm0-13.89c-1.35,0-2.69,0-4,0-.67,0-.88.21-.87.87q0,4,0,8c0,.57.13.84.76.83,2.73,0,5.46,0,8.18,0,.59,0,.8-.16.8-.78,0-2.68,0-5.36,0-8,0-.74-.26-.95-1-.92C91.75,85.62,90.46,85.58,89.17,85.58Z"/><path class="cls-1" d="M57.84,125.46H56a4.13,4.13,0,0,1-4.34-4.12c-.1-3.46-.09-6.92,0-10.27A4,4,0,0,1,56,107c1.61,0,3.21,0,4.81,0l4.9,0a4.15,4.15,0,0,1,4.38,4.11c.1,3.25.1,6.66,0,10.14a4.21,4.21,0,0,1-4.45,4.19H57.84Zm-1.53-13.8a16.61,16.61,0,0,0-.11,3.15c0,.53,0,1.06,0,1.58a13.21,13.21,0,0,1-.1,1.36c-.11,1.17-.24,2.38.26,2.91a1.66,1.66,0,0,0,1.31.42h0A11.44,11.44,0,0,0,59,121a10.94,10.94,0,0,1,1.21-.1l.3,0,2.64,0q.84,0,1.65,0h.13a.71.71,0,0,0,.51-.14c.11-.11.15-.32.14-.68,0-.82,0-1.63,0-2.44v-1.58c0-.47,0-1,.08-1.47.1-1.12.2-2.28-.28-2.8a1.81,1.81,0,0,0-1.4-.44,11.45,11.45,0,0,0-1.4.11,12.42,12.42,0,0,1-1.46.11h-.85c-.87,0-1.73,0-2.59,0Z"/><path class="cls-1" d="M60.75,125.25c-1.57,0-3.14,0-4.71,0a3.93,3.93,0,0,1-4.15-3.93q-.15-5.13,0-10.25A3.88,3.88,0,0,1,56,107.22c3.23,0,6.46,0,9.7,0a4,4,0,0,1,4.18,3.92c.1,3.37.1,6.75,0,10.12a4,4,0,0,1-4.25,4C64,125.27,62.37,125.25,60.75,125.25Zm-.3-4.17c1.63,0,3,0,4.3,0,.82,0,1-.27,1-1-.06-1.34,0-2.68,0-4,0-1.51.51-3.56-.26-4.4s-2.94-.25-4.5-.28-3.21.05-4.82.08a31.24,31.24,0,0,0-.13,4.93c0,1.52-.56,3.59.21,4.41S59.18,121,60.45,121.08Z"/><path class="cls-1" d="M29.54,99.68l-1.92,0a4.09,4.09,0,0,1-4.23-4.08c-.07-3.21-.07-6.52,0-10.13a4.07,4.07,0,0,1,4.13-4.19c1.68-.05,3.36-.08,5-.08s3.45,0,5.13.08a4.15,4.15,0,0,1,4.13,4.23c.09,3.56.09,6.83,0,10a4.2,4.2,0,0,1-4.44,4.18H29.54ZM28.48,85.77a.62.62,0,0,0-.46.12.69.69,0,0,0-.11.48c0,1,0,1.93,0,2.89v2.3c0,1,0,1.91,0,2.86A.87.87,0,0,0,28,95a.66.66,0,0,0,.47.12l3.93,0,4.16,0h0c.31,0,.48,0,.56-.12a.82.82,0,0,0,.12-.53c0-2.6,0-5.18,0-8,0-.3,0-.46-.11-.54a.6.6,0,0,0-.42-.11c-1.38,0-2.74,0-4.1,0s-2.74,0-4.11,0l0-.2Z"/><path class="cls-1" d="M32.61,99.47c-1.66,0-3.33,0-5,0a3.88,3.88,0,0,1-4-3.88c-.08-3.37-.07-6.75,0-10.12a3.89,3.89,0,0,1,3.94-4c3.37-.1,6.75-.1,10.11,0a4,4,0,0,1,3.95,4c.08,3.32.09,6.65,0,10a4,4,0,0,1-4.25,4C35.75,99.48,34.18,99.47,32.61,99.47Zm-4.89-9.08c0,1.35,0,2.69,0,4,0,.6.07.91.81.9,2.68,0,5.36,0,8,0,.64,0,.9-.16.89-.85,0-2.68,0-5.36,0-8,0-.55-.1-.85-.75-.85q-4.09,0-8.19,0c-.61,0-.8.21-.79.8C27.74,87.71,27.72,89.05,27.72,90.39Z"/><path class="cls-1" d="M29.54,125.46l-1.87,0a4.16,4.16,0,0,1-4.28-4.18c-.07-3.43-.07-6.84,0-10.13A4.09,4.09,0,0,1,27.6,107c1.61,0,3.23,0,4.84,0s3.34,0,5,0a4.07,4.07,0,0,1,4.28,3.89c.14,3.43.15,7,0,10.55a4.14,4.14,0,0,1-4.36,4l-1.87,0h-6Zm-1.09-13.9a.64.64,0,0,0-.44.1.75.75,0,0,0-.1.49c0,2.8,0,5.55,0,8.17a.76.76,0,0,0,.1.48.58.58,0,0,0,.41.1c.65,0,1.24,0,1.83,0H35c.56,0,1.13,0,1.7,0h0a.67.67,0,0,0,.47-.11.74.74,0,0,0,.11-.48c0-2.76,0-5.51,0-8.18a.7.7,0,0,0-.11-.46c-.07-.08-.22-.11-.47-.11l-4.15,0-4.05,0,0-.2Z"/><path class="cls-1" d="M32.53,125.25c-1.62,0-3.24,0-4.86,0a3.94,3.94,0,0,1-4.08-4q-.11-5.06,0-10.12a3.89,3.89,0,0,1,4-3.91c3.28,0,6.56,0,9.84,0a3.88,3.88,0,0,1,4.09,3.7c.15,3.51.14,7,0,10.53a4,4,0,0,1-4.16,3.79C35.76,125.27,34.14,125.25,32.53,125.25Zm.11-4.17c1.34,0,2.68,0,4,0,.59,0,.79-.18.79-.78q0-4.09,0-8.17c0-.62-.22-.79-.81-.78-2.72,0-5.44,0-8.16,0-.62,0-.78.2-.77.79q0,4.08,0,8.17c0,.6.17.79.78.78C29.87,121.06,31.26,121.08,32.64,121.08Z"/><path class="cls-1" d="M86,125.46c-.65,0-1.29,0-1.93,0A4.2,4.2,0,0,1,80,121.51,2.17,2.17,0,0,1,81.5,119a2.72,2.72,0,0,1,.82-.14,2,2,0,0,1,1.94,1.38c.21.53.39.62.85.62l4.26,0c1.23,0,2.45,0,3.68,0h0c.35,0,.52,0,.62-.13s.14-.31.13-.69c0-2.6,0-5.17,0-7.63a1.1,1.1,0,0,0-.14-.76.84.84,0,0,0-.59-.15c-1.32,0-2.56,0-3.79,0s-2.63,0-3.94,0h-.1c-.37,0-.59,0-.69.16a.92.92,0,0,0-.1.66,9,9,0,0,1,0,2.12,2,2,0,0,1-2.07,1.87h-.17A2,2,0,0,1,80,114.61a11.47,11.47,0,0,1,.11-4.63,4.1,4.1,0,0,1,3.92-3c1.77,0,3.54,0,5.31,0,1.61,0,3.22,0,4.82,0a4.08,4.08,0,0,1,4.13,4c.09,3.39.09,6.85,0,10.27a4.12,4.12,0,0,1-4.24,4.09c-.63,0-1.27,0-1.91,0H86Z"/><path class="cls-1" d="M89.09,125.25c-1.67,0-3.33,0-5,0a4,4,0,0,1-3.92-3.74,2,2,0,0,1,1.39-2.27,1.88,1.88,0,0,1,2.51,1.13,1,1,0,0,0,1.07.74c2.64,0,5.27,0,7.91,0,.83,0,1-.28,1-1q-.06-3.83,0-7.63c0-.79-.11-1.13-1-1.11-2.54.08-5.08.06-7.62,0-.82,0-1.19.14-1.1,1a8.52,8.52,0,0,1-.05,2.08,1.84,1.84,0,0,1-1.88,1.69,1.82,1.82,0,0,1-2.1-1.58,11.25,11.25,0,0,1,.11-4.55,3.9,3.9,0,0,1,3.72-2.8c3.38,0,6.75-.06,10.13,0a3.88,3.88,0,0,1,3.93,3.85q.13,5.13,0,10.26a3.94,3.94,0,0,1-4,3.9C92.42,125.28,90.75,125.25,89.09,125.25Z"/></svg>