<svg id="Layer_1" data-name="Layer 1" xmlns="http://www.w3.org/2000/svg" viewBox="0 0 400 400"><defs><style>.cls-1{fill:#c59754;}</style></defs><title>coc</title><path class="cls-1" d="M199.85,380.6q-73.5,0-147,0c-15.54,0-27.35-8.52-31.5-22.15-1.06-3.48-.93-6.95-.93-10.44,0-40.21.1-80.42-.07-120.63-.09-22.6-.9-45.19-.93-67.79,0-20.55,7.25-36.9,28.17-44.29,3.24-1.15,3.27-3.5,3.36-6.27.3-8.74-.68-17.49,1-26.25C55.59,64.46,70.92,51.1,89.49,51c21.53-.13,43.07-.28,64.6.05,16.76.26,28.73,8.5,35.32,23.92,2.07,4.86,4.7,7.79,10.13,8.89,16.25,3.3,29.76,11.41,40,24.62,2.62,3.38,5.7,4.78,10.12,4.78,11,0,21.88-.31,32.87.77,16.31,1.6,26.72,10.42,32.68,24.8,2,4.83,4.4,5.93,9.17,6,10.71.14,21.52-1.42,32.15,1.09,15,3.53,24,14.82,24,30.37q.07,86,0,172c0,19.36-13.14,32.23-33,32.26Q273.68,380.68,199.85,380.6Zm-10-219c-48.79,0-97.58.09-146.37-.13-5.71,0-7.46,1.35-7.42,7.28.27,40.66.14,81.32.14,122,0,18.68,0,37.37,0,56.05,0,10.54,4,15.11,14.18,17.18a49,49,0,0,0,9.79.84H340.43c1.54,0,3.08.06,4.62,0,14.28-.64,19.65-6.26,19.67-20.55,0-11.65-.25-23.3.11-34.94.17-5.2-1.41-6.65-6.63-6.71-17.54-.19-35.09,1-52.64-.86-21.7-2.35-35.51-19.35-34.51-43.33.77-18.55,17.82-34.52,37.27-34.69q25.38-.21,50.77.05c4.2,0,5.8-1.08,5.72-5.53-.26-13.18,0-26.37-.12-39.55-.07-9.47-5.46-15-14.77-17.25-5.42-1.31-10.44.29-15.64.28C286.15,161.5,238,161.57,189.89,161.57ZM67.79,113.8c0,8.13.35,16.28-.12,24.38-.31,5.47,1.8,6.66,6.8,6.51,11-.32,22-.4,32.94,0,5.31.22,7.21-1.73,8.17-6.69,3.29-17.09,12.4-30.69,26.07-41.3a63,63,0,0,1,28.46-12.9c4-.68,5.17-2,2.58-6C167.91,70.44,161,67.13,152.74,67c-20.42-.34-40.86-.4-61.29,0C77,67.26,68,77,67.81,91.39,67.73,98.86,67.8,106.33,67.79,113.8Zm116.92,30.79c16,0,32-.16,48.06.09,5.17.08,6.07-2,4.87-6.35-1.82-6.63-4.47-12.83-9-18.07-13.71-15.74-30.81-24.39-51.76-21.19-22.79,3.48-37.75,17.12-44.69,39.38-1.49,4.76-.56,6.28,4.49,6.21C152.67,144.46,168.69,144.59,184.71,144.59Zm149.68,141.2c8.57,0,17.15-.08,25.71,0,3.31.05,4.72-1,4.67-4.55q-.22-18.46,0-36.93c.05-3.73-1.28-5-5-4.93-16.92.17-33.86-.17-50.77.25a22.69,22.69,0,0,0-22.13,23.14c.1,12.78,10,22.7,23.08,22.94C318.13,285.9,326.26,285.78,334.39,285.79ZM299.14,144.57c-2.64-9.08-9.27-14.27-18.42-14.5-7.47-.18-15-.15-22.42,0-2.07,0-6.19-1.16-5.35,2.51,1,4.13-1.28,11.35,5.38,11.74C271.84,145.12,285.43,144.57,299.14,144.57ZM50.43,131.88c-6.2,2.6-10.34,6.12-11.93,12.35C51.47,145.26,51.47,145.26,50.43,131.88Z"/><path class="cls-1" d="M263.18,98.36a39.49,39.49,0,0,1-.21-79,39.49,39.49,0,1,1,.21,79Zm22.59-39.07c.07-13.78-8.85-22.44-22.27-23.19-14.19-.8-23.89,12.45-23.93,22.94,0,12,11.1,23.54,23.28,23.29C277.05,82,287,70.12,285.77,59.29Z"/><path class="cls-1" d="M325.61,271.05c-4.83,0-9.66.15-14.48-.05-5.28-.23-9.22-3.11-9.21-8.38s4-8.19,9.27-8.31c9.43-.22,18.88-.32,28.3,0,7,.25,9.93,3.37,9.5,9.06-.48,6.36-5,7.6-10.22,7.65C334.39,271.09,330,271.05,325.61,271.05Z"/></svg>