<svg id="Layer_1" data-name="Layer 1" xmlns="http://www.w3.org/2000/svg" viewBox="0 0 400 400"><defs><style>.cls-1{fill:#c59754;}</style></defs><title>dien-tich</title><path class="cls-1" d="M199.53,376.13q-54.79,0-109.58-.05c-37,0-66-29.05-66-66.06-.05-73.37-.05-147.42,0-220.08C23.94,53,53,24,90,23.9q21.36,0,42.72,0l67.7,0H309.31c16.23,0,31,5.1,42.82,14.73s19.69,23.1,22.88,39A62.31,62.31,0,0,1,376.12,90q0,40.53,0,81.07c0,45.56,0,92.68,0,139,0,37-29,66-66,66Q254.78,376.13,199.53,376.13ZM202,41.79H90.62c-28.27,0-48.8,20.57-48.81,48.89q0,37.94,0,75.87v66.85q0,37.93,0,75.87c0,28.33,20.54,48.9,48.8,48.9l110.72,0,108.24,0c27.71,0,48.61-20.95,48.62-48.71q0-109.47,0-219c0-27.77-20.91-48.71-48.61-48.71Z"/><path class="cls-1" d="M271.09,316.41h-36a10.81,10.81,0,0,1-7.81-2.94,8.34,8.34,0,0,1-2.36-6.14c.1-5.35,4.08-8.81,10.15-8.82h49.75L101.5,115.15v19.46c0,10.22,0,20.79,0,31.21a9,9,0,0,1-6.16,8.8,8.7,8.7,0,0,1-2.67.41,9.16,9.16,0,0,1-7.48-4,8.86,8.86,0,0,1-1.58-5.28V137.22q0-23.77,0-47.55c0-4.08,2-6.06,6-6.07q19.52,0,39.05,0,18.53,0,37,0a8.94,8.94,0,1,1,.08,17.86c-6.06,0-12.12,0-18.13,0H115.66L295.6,281.42l2.09-1.77a3.71,3.71,0,0,0,.92-4c-.05-.22-.13-.59-.14-.72q0-11.37,0-22.74,0-8.6,0-17.18c0-6,3.57-10,8.87-10.08h.11c5.25,0,8.91,4.21,8.92,10.24q0,37.13,0,74.24c0,5.27-1.72,7-7,7Z"/></svg>