<svg id="Layer_1" data-name="Layer 1" xmlns="http://www.w3.org/2000/svg" xmlns:xlink="http://www.w3.org/1999/xlink" viewBox="0 0 98.7 595.3"><defs><style>.cls-1{fill:none;}.cls-2{opacity:0.06;}.cls-3{clip-path:url(#clip-path);}.cls-4{fill:#fff;}</style><clipPath id="clip-path" transform="translate(-2.7)"><rect class="cls-1" x="-26" y="-40.9" width="156.7" height="668.94"/></clipPath></defs><title>hoa-van</title><g class="cls-2"><g class="cls-3"><rect class="cls-4" x="9.5" y="530.4" width="10.4" height="22.28" transform="translate(-381.3 169) rotate(-45)"/><rect class="cls-4" x="1.4" y="533.5" width="11.4" height="0.98" transform="translate(-378.2 161.5) rotate(-45)"/><rect class="cls-4" x="16.5" y="548.6" width="11.4" height="0.98" transform="translate(-384.5 176.5) rotate(-45)"/><rect class="cls-4" x="34.7" y="555.4" width="10.4" height="22.28" transform="translate(-391.6 194.1) rotate(-45)"/><rect class="cls-4" x="26.6" y="558.5" width="11.4" height="0.98" transform="translate(-388.5 186.6) rotate(-45)"/><rect class="cls-4" x="41.7" y="573.6" width="11.4" height="0.98" transform="translate(-394.8 201.7) rotate(-45)"/><rect class="cls-4" x="28.7" y="536.4" width="22.3" height="10.4" transform="translate(-374 186.8) rotate(-45)"/><rect class="cls-4" x="46.9" y="528.3" width="1" height="11.38" transform="translate(-366.4 189.9) rotate(-45)"/><rect class="cls-4" x="31.8" y="543.4" width="1" height="11.38" transform="translate(-381.5 183.7) rotate(-45)"/><rect class="cls-4" x="3.5" y="561.4" width="22.3" height="10.4" transform="translate(-399 176.3) rotate(-45)"/><rect class="cls-4" x="21.7" y="553.3" width="1" height="11.38" transform="translate(-391.5 179.4) rotate(-45)"/><rect class="cls-4" x="6.6" y="568.4" width="1" height="11.38" transform="translate(-406.6 173.1) rotate(-45)"/><polygon class="cls-4" points="0.4 587 8.7 595.3 23.4 595.3 7.8 579.6 0.4 587"/><rect class="cls-4" x="1.4" y="583.2" width="11.4" height="0.98" transform="translate(-413.3 176) rotate(-45)"/><polygon class="cls-4" points="22.2 595.3 23.6 595.3 23.9 595 23.2 594.3 22.2 595.3"/><polygon class="cls-4" points="25.7 595.3 40.4 595.3 48.7 587 41.4 579.6 25.7 595.3"/><rect class="cls-4" x="46.9" y="578" width="1" height="11.38" transform="translate(-401.5 204.4) rotate(-45)"/><polygon class="cls-4" points="25.2 595 25.5 595.3 26.9 595.3 25.9 594.3 25.2 595"/><rect class="cls-4" x="9.5" y="480.8" width="10.4" height="22.28" transform="translate(-346.3 154.5) rotate(-45)"/><rect class="cls-4" x="1.4" y="483.9" width="11.4" height="0.98" transform="translate(-343.1 146.9) rotate(-45)"/><rect class="cls-4" x="16.5" y="499" width="11.4" height="0.98" transform="translate(-349.4 162) rotate(-45)"/><rect class="cls-4" x="34.7" y="505.7" width="10.4" height="22.28" transform="translate(-356.5 179.6) rotate(-45)"/><rect class="cls-4" x="26.6" y="508.9" width="11.4" height="0.98" transform="translate(-353.4 172.1) rotate(-45)"/><rect class="cls-4" x="41.7" y="523.9" width="11.4" height="0.98" transform="translate(-359.7 187.1) rotate(-45)"/><rect class="cls-4" x="28.7" y="486.8" width="22.3" height="10.4" transform="translate(-338.9 172.3) rotate(-45)"/><rect class="cls-4" x="46.9" y="478.7" width="1" height="11.38" transform="translate(-331.4 175.4) rotate(-45)"/><rect class="cls-4" x="31.8" y="493.8" width="1" height="11.38" transform="translate(-346.4 169.1) rotate(-45)"/><rect class="cls-4" x="3.5" y="511.8" width="22.3" height="10.4" transform="translate(-364 161.7) rotate(-45)"/><rect class="cls-4" x="21.7" y="503.7" width="1" height="11.38" transform="translate(-356.4 164.9) rotate(-45)"/><rect class="cls-4" x="6.6" y="518.8" width="1" height="11.38" transform="translate(-371.5 158.6) rotate(-45)"/><rect class="cls-4" x="59.1" y="555.3" width="10.4" height="22.28" transform="translate(-384.4 211.4) rotate(-45)"/><rect class="cls-4" x="51.1" y="558.4" width="11.4" height="0.98" transform="translate(-381.3 203.9) rotate(-45)"/><rect class="cls-4" x="66.1" y="573.5" width="11.4" height="0.98" transform="translate(-387.5 218.9) rotate(-45)"/><polygon class="cls-4" points="75.2 587.1 83.4 595.3 98.1 595.3 82.6 579.8 75.2 587.1"/><rect class="cls-4" x="76.3" y="583.3" width="11.4" height="0.98" transform="translate(-391.6 229) rotate(-45)"/><polygon class="cls-4" points="97.2 595.3 98.6 595.3 98.7 595.2 98 594.5 97.2 595.3"/><rect class="cls-4" x="78.3" y="561.2" width="22.3" height="10.4" transform="translate(-377 229.2) rotate(-45)"/><rect class="cls-4" x="96.5" y="553.2" width="1" height="11.38" transform="translate(-369.5 232.3) rotate(-45)"/><rect class="cls-4" x="81.5" y="568.3" width="1" height="11.38" transform="translate(-384.5 226) rotate(-45)"/><polygon class="cls-4" points="50.3 595.3 65 595.3 73.1 587.2 65.7 579.9 50.3 595.3"/><rect class="cls-4" x="71.3" y="578.2" width="1" height="11.38" transform="translate(-394.5 221.7) rotate(-45)"/><polygon class="cls-4" points="49.6 595.3 51 595.3 50.3 594.6 49.6 595.3"/><rect class="cls-4" x="59.1" y="505.7" width="10.4" height="22.28" transform="translate(-349.3 196.8) rotate(-45)"/><rect class="cls-4" x="51.1" y="508.8" width="11.4" height="0.98" transform="translate(-346.2 189.3) rotate(-45)"/><rect class="cls-4" x="66.1" y="523.9" width="11.4" height="0.98" transform="translate(-352.5 204.4) rotate(-45)"/><rect class="cls-4" x="84.3" y="530.6" width="10.4" height="22.28" transform="translate(-359.6 221.9) rotate(-45)"/><rect class="cls-4" x="76.3" y="533.7" width="11.4" height="0.98" transform="translate(-356.5 214.4) rotate(-45)"/><rect class="cls-4" x="91.3" y="548.8" width="11.4" height="0.98" transform="translate(-362.7 229.5) rotate(-45)"/><rect class="cls-4" x="78.3" y="511.6" width="22.3" height="10.4" transform="translate(-341.9 214.6) rotate(-45)"/><rect class="cls-4" x="96.5" y="503.6" width="1" height="11.38" transform="translate(-334.4 217.8) rotate(-45)"/><rect class="cls-4" x="81.5" y="518.6" width="1" height="11.38" transform="translate(-349.5 211.5) rotate(-45)"/><rect class="cls-4" x="53.1" y="536.6" width="22.3" height="10.4" transform="translate(-367 204.1) rotate(-45)"/><rect class="cls-4" x="71.3" y="528.6" width="1" height="11.38" transform="translate(-359.5 207.2) rotate(-45)"/><rect class="cls-4" x="56.2" y="543.6" width="1" height="11.38" transform="translate(-374.5 201) rotate(-45)"/><rect class="cls-4" x="9.5" y="431.2" width="10.4" height="22.28" transform="translate(-311.2 139.9) rotate(-45)"/><rect class="cls-4" x="1.4" y="434.3" width="11.4" height="0.98" transform="translate(-308.1 132.4) rotate(-45)"/><rect class="cls-4" x="16.5" y="449.4" width="11.4" height="0.98" transform="translate(-314.3 147.4) rotate(-45)"/><rect class="cls-4" x="34.7" y="456.1" width="10.4" height="22.28" transform="translate(-321.4 165.1) rotate(-45)"/><rect class="cls-4" x="26.6" y="459.3" width="11.4" height="0.98" transform="translate(-318.3 157.5) rotate(-45)"/><rect class="cls-4" x="41.7" y="474.3" width="11.4" height="0.98" transform="translate(-324.6 172.6) rotate(-45)"/><rect class="cls-4" x="28.7" y="437.2" width="22.3" height="10.4" transform="translate(-303.8 157.8) rotate(-45)"/><rect class="cls-4" x="46.9" y="429.1" width="1" height="11.38" transform="translate(-296.3 160.9) rotate(-45)"/><rect class="cls-4" x="31.8" y="444.2" width="1" height="11.38" transform="translate(-311.3 154.6) rotate(-45)"/><rect class="cls-4" x="3.5" y="462.2" width="22.3" height="10.4" transform="translate(-328.9 147.2) rotate(-45)"/><rect class="cls-4" x="21.7" y="454.1" width="1" height="11.38" transform="translate(-321.4 150.3) rotate(-45)"/><rect class="cls-4" x="6.6" y="469.2" width="1" height="11.38" transform="translate(-336.4 144.1) rotate(-45)"/><rect class="cls-4" x="9.5" y="381.6" width="10.4" height="22.28" transform="translate(-276.1 125.4) rotate(-45)"/><rect class="cls-4" x="1.4" y="384.7" width="11.4" height="0.98" transform="translate(-273 117.8) rotate(-45)"/><rect class="cls-4" x="16.5" y="399.8" width="11.4" height="0.98" transform="translate(-279.2 132.9) rotate(-45)"/><rect class="cls-4" x="34.7" y="406.5" width="10.4" height="22.28" transform="translate(-286.4 150.5) rotate(-45)"/><rect class="cls-4" x="26.6" y="409.6" width="11.4" height="0.98" transform="translate(-283.2 143) rotate(-45)"/><rect class="cls-4" x="41.7" y="424.7" width="11.4" height="0.98" transform="translate(-289.5 158) rotate(-45)"/><rect class="cls-4" x="28.7" y="387.5" width="22.3" height="10.4" transform="translate(-268.7 143.2) rotate(-45)"/><rect class="cls-4" x="46.9" y="379.5" width="1" height="11.38" transform="translate(-261.2 146.3) rotate(-45)"/><rect class="cls-4" x="31.8" y="394.6" width="1" height="11.38" transform="translate(-276.3 140.1) rotate(-45)"/><rect class="cls-4" x="3.5" y="412.5" width="22.3" height="10.4" transform="translate(-293.8 132.7) rotate(-45)"/><rect class="cls-4" x="21.7" y="404.5" width="1" height="11.38" transform="translate(-286.3 135.8) rotate(-45)"/><rect class="cls-4" x="6.6" y="419.6" width="1" height="11.38" transform="translate(-301.3 129.6) rotate(-45)"/><rect class="cls-4" x="59.1" y="456" width="10.4" height="22.28" transform="translate(-314.2 182.3) rotate(-45)"/><rect class="cls-4" x="51.1" y="459.2" width="11.4" height="0.98" transform="translate(-311.1 174.8) rotate(-45)"/><rect class="cls-4" x="66.1" y="474.2" width="11.4" height="0.98" transform="translate(-317.4 189.8) rotate(-45)"/><rect class="cls-4" x="84.3" y="481" width="10.4" height="22.28" transform="translate(-324.5 207.4) rotate(-45)"/><rect class="cls-4" x="76.3" y="484.1" width="11.4" height="0.98" transform="translate(-321.4 199.9) rotate(-45)"/><rect class="cls-4" x="91.3" y="499.2" width="11.4" height="0.98" transform="translate(-327.6 214.9) rotate(-45)"/><rect class="cls-4" x="78.3" y="462" width="22.3" height="10.4" transform="translate(-306.8 200.1) rotate(-45)"/><rect class="cls-4" x="96.5" y="454" width="1" height="11.38" transform="translate(-299.3 203.2) rotate(-45)"/><rect class="cls-4" x="81.5" y="469" width="1" height="11.38" transform="translate(-314.4 197) rotate(-45)"/><rect class="cls-4" x="53.1" y="487" width="22.3" height="10.4" transform="translate(-331.9 189.6) rotate(-45)"/><rect class="cls-4" x="71.3" y="479" width="1" height="11.38" transform="translate(-324.4 192.7) rotate(-45)"/><rect class="cls-4" x="56.2" y="494" width="1" height="11.38" transform="translate(-339.5 186.5) rotate(-45)"/><rect class="cls-4" x="59.1" y="406.4" width="10.4" height="22.28" transform="translate(-279.1 167.8) rotate(-45)"/><rect class="cls-4" x="51.1" y="409.6" width="11.4" height="0.98" transform="translate(-276 160.2) rotate(-45)"/><rect class="cls-4" x="66.1" y="424.6" width="11.4" height="0.98" transform="translate(-282.3 175.3) rotate(-45)"/><rect class="cls-4" x="84.3" y="431.4" width="10.4" height="22.28" transform="translate(-289.4 192.9) rotate(-45)"/><rect class="cls-4" x="76.3" y="434.5" width="11.4" height="0.98" transform="translate(-286.3 185.3) rotate(-45)"/><rect class="cls-4" x="91.3" y="449.6" width="11.4" height="0.98" transform="translate(-292.5 200.4) rotate(-45)"/><rect class="cls-4" x="78.3" y="412.4" width="22.3" height="10.4" transform="translate(-271.8 185.6) rotate(-45)"/><rect class="cls-4" x="96.5" y="404.4" width="1" height="11.38" transform="translate(-264.2 188.7) rotate(-45)"/><rect class="cls-4" x="81.5" y="419.4" width="1" height="11.38" transform="translate(-279.3 182.5) rotate(-45)"/><rect class="cls-4" x="53.1" y="437.4" width="22.3" height="10.4" transform="translate(-296.9 175.1) rotate(-45)"/><rect class="cls-4" x="71.3" y="429.4" width="1" height="11.38" transform="translate(-289.3 178.2) rotate(-45)"/><rect class="cls-4" x="56.2" y="444.4" width="1" height="11.38" transform="translate(-304.4 171.9) rotate(-45)"/><rect class="cls-4" x="9.5" y="332" width="10.4" height="22.28" transform="translate(-241 110.9) rotate(-45)"/><rect class="cls-4" x="1.4" y="335.1" width="11.4" height="0.98" transform="translate(-237.9 103.3) rotate(-45)"/><rect class="cls-4" x="16.5" y="350.2" width="11.4" height="0.98" transform="translate(-244.1 118.4) rotate(-45)"/><rect class="cls-4" x="34.7" y="356.9" width="10.4" height="22.28" transform="translate(-251.3 136) rotate(-45)"/><rect class="cls-4" x="26.6" y="360" width="11.4" height="0.98" transform="translate(-248.2 128.5) rotate(-45)"/><rect class="cls-4" x="41.7" y="375.1" width="11.4" height="0.98" transform="translate(-254.4 143.5) rotate(-45)"/><rect class="cls-4" x="28.7" y="337.9" width="22.3" height="10.4" transform="translate(-233.7 128.7) rotate(-45)"/><rect class="cls-4" x="46.9" y="329.9" width="1" height="11.38" transform="translate(-226.1 131.8) rotate(-45)"/><rect class="cls-4" x="31.8" y="345" width="1" height="11.38" transform="translate(-241.2 125.5) rotate(-45)"/><rect class="cls-4" x="3.5" y="362.9" width="22.3" height="10.4" transform="translate(-258.7 118.1) rotate(-45)"/><rect class="cls-4" x="21.7" y="354.9" width="1" height="11.39" transform="translate(-251.2 121.3) rotate(-45)"/><rect class="cls-4" x="6.6" y="370" width="1" height="11.38" transform="translate(-266.2 115) rotate(-45)"/><rect class="cls-4" x="9.5" y="282.3" width="10.4" height="22.28" transform="translate(-205.9 96.3) rotate(-45)"/><rect class="cls-4" x="1.4" y="285.5" width="11.4" height="0.98" transform="translate(-202.8 88.8) rotate(-45)"/><rect class="cls-4" x="16.5" y="300.5" width="11.4" height="0.98" transform="translate(-209.1 103.9) rotate(-45)"/><rect class="cls-4" x="34.7" y="307.3" width="10.4" height="22.28" transform="translate(-216.2 121.5) rotate(-45)"/><rect class="cls-4" x="26.6" y="310.4" width="11.4" height="0.98" transform="translate(-213.1 113.9) rotate(-45)"/><rect class="cls-4" x="41.7" y="325.5" width="11.4" height="0.98" transform="translate(-219.3 129) rotate(-45)"/><rect class="cls-4" x="28.7" y="288.3" width="22.3" height="10.4" transform="translate(-198.6 114.2) rotate(-45)"/><rect class="cls-4" x="46.9" y="280.3" width="1" height="11.38" transform="translate(-191 117.3) rotate(-45)"/><rect class="cls-4" x="31.8" y="295.3" width="1" height="11.38" transform="translate(-206.1 111) rotate(-45)"/><rect class="cls-4" x="3.5" y="313.3" width="22.3" height="10.4" transform="translate(-223.6 103.6) rotate(-45)"/><rect class="cls-4" x="21.7" y="305.3" width="1" height="11.38" transform="translate(-216.1 106.7) rotate(-45)"/><rect class="cls-4" x="6.6" y="320.3" width="1" height="11.38" transform="translate(-231.2 100.5) rotate(-45)"/><rect class="cls-4" x="59.1" y="356.8" width="10.4" height="22.28" transform="translate(-244.1 153.2) rotate(-45)"/><rect class="cls-4" x="51.1" y="359.9" width="11.4" height="0.98" transform="translate(-241 145.7) rotate(-45)"/><rect class="cls-4" x="66.1" y="375" width="11.4" height="0.98" transform="translate(-247.2 160.8) rotate(-45)"/><rect class="cls-4" x="84.3" y="381.7" width="10.4" height="22.28" transform="translate(-254.3 178.4) rotate(-45)"/><rect class="cls-4" x="76.3" y="384.9" width="11.4" height="0.98" transform="translate(-251.2 170.8) rotate(-45)"/><rect class="cls-4" x="91.3" y="399.9" width="11.4" height="0.98" transform="translate(-257.4 185.9) rotate(-45)"/><rect class="cls-4" x="78.3" y="362.8" width="22.3" height="10.4" transform="translate(-236.7 171) rotate(-45)"/><rect class="cls-4" x="96.5" y="354.7" width="1" height="11.39" transform="translate(-229.1 174.1) rotate(-45)"/><rect class="cls-4" x="81.5" y="369.8" width="1" height="11.38" transform="translate(-244.2 167.9) rotate(-45)"/><rect class="cls-4" x="53.1" y="387.8" width="22.3" height="10.4" transform="translate(-261.8 160.5) rotate(-45)"/><rect class="cls-4" x="71.3" y="379.7" width="1" height="11.39" transform="translate(-254.2 163.6) rotate(-45)"/><rect class="cls-4" x="56.2" y="394.8" width="1" height="11.39" transform="translate(-269.3 157.4) rotate(-45)"/><rect class="cls-4" x="59.1" y="307.2" width="10.4" height="22.28" transform="translate(-209 138.7) rotate(-45)"/><rect class="cls-4" x="51.1" y="310.3" width="11.4" height="0.98" transform="translate(-205.9 131.2) rotate(-45)"/><rect class="cls-4" x="66.1" y="325.4" width="11.4" height="0.98" transform="translate(-212.1 146.3) rotate(-45)"/><rect class="cls-4" x="84.3" y="332.1" width="10.4" height="22.28" transform="translate(-219.2 163.8) rotate(-45)"/><rect class="cls-4" x="76.3" y="335.3" width="11.4" height="0.98" transform="translate(-216.1 156.3) rotate(-45)"/><rect class="cls-4" x="91.3" y="350.3" width="11.4" height="0.98" transform="translate(-222.4 171.4) rotate(-45)"/><rect class="cls-4" x="78.3" y="313.2" width="22.3" height="10.4" transform="translate(-201.6 156.5) rotate(-45)"/><rect class="cls-4" x="96.5" y="305.1" width="1" height="11.38" transform="translate(-194.1 159.6) rotate(-45)"/><rect class="cls-4" x="81.5" y="320.2" width="1" height="11.38" transform="translate(-209.1 153.4) rotate(-45)"/><rect class="cls-4" x="53.1" y="338.2" width="22.3" height="10.4" transform="translate(-226.7 146) rotate(-45)"/><rect class="cls-4" x="71.3" y="330.1" width="1" height="11.38" transform="translate(-219.1 149.1) rotate(-45)"/><rect class="cls-4" x="56.2" y="345.2" width="1" height="11.38" transform="translate(-234.2 142.8) rotate(-45)"/><rect class="cls-4" x="9.5" y="232.7" width="10.4" height="22.28" transform="translate(-170.8 81.8) rotate(-45)"/><rect class="cls-4" x="1.4" y="235.9" width="11.4" height="0.98" transform="translate(-167.7 74.3) rotate(-45)"/><rect class="cls-4" x="16.5" y="250.9" width="11.4" height="0.98" transform="translate(-174 89.3) rotate(-45)"/><rect class="cls-4" x="34.7" y="257.7" width="10.4" height="22.28" transform="translate(-181.1 106.9) rotate(-45)"/><rect class="cls-4" x="26.6" y="260.8" width="11.4" height="0.98" transform="translate(-178 99.4) rotate(-45)"/><rect class="cls-4" x="41.7" y="275.9" width="11.4" height="0.98" transform="translate(-184.2 114.5) rotate(-45)"/><rect class="cls-4" x="28.7" y="238.7" width="22.3" height="10.4" transform="translate(-163.5 99.6) rotate(-45)"/><rect class="cls-4" x="46.9" y="230.7" width="1" height="11.38" transform="translate(-156 102.7) rotate(-45)"/><rect class="cls-4" x="31.8" y="245.7" width="1" height="11.38" transform="translate(-171 96.5) rotate(-45)"/><rect class="cls-4" x="3.5" y="263.7" width="22.3" height="10.4" transform="translate(-188.6 89.1) rotate(-45)"/><rect class="cls-4" x="21.7" y="255.7" width="1" height="11.38" transform="translate(-181 92.2) rotate(-45)"/><rect class="cls-4" x="6.6" y="270.7" width="1" height="11.38" transform="translate(-196.1 86) rotate(-45)"/><rect class="cls-4" x="9.5" y="183.1" width="10.4" height="22.28" transform="translate(-135.8 67.3) rotate(-45)"/><rect class="cls-4" x="1.4" y="186.2" width="11.4" height="0.98" transform="translate(-132.7 59.7) rotate(-45)"/><rect class="cls-4" x="16.5" y="201.3" width="11.4" height="0.98" transform="translate(-138.9 74.8) rotate(-45)"/><rect class="cls-4" x="34.7" y="208.1" width="10.4" height="22.28" transform="translate(-146 92.4) rotate(-45)"/><rect class="cls-4" x="26.6" y="211.2" width="11.4" height="0.98" transform="translate(-142.9 84.9) rotate(-45)"/><rect class="cls-4" x="41.7" y="226.3" width="11.4" height="0.98" transform="translate(-149.2 99.9) rotate(-45)"/><rect class="cls-4" x="28.7" y="189.1" width="22.3" height="10.4" transform="translate(-128.4 85.1) rotate(-45)"/><rect class="cls-4" x="46.9" y="181" width="1" height="11.38" transform="translate(-120.9 88.2) rotate(-45)"/><rect class="cls-4" x="31.8" y="196.1" width="1" height="11.38" transform="translate(-135.9 82) rotate(-45)"/><rect class="cls-4" x="3.5" y="214.1" width="22.3" height="10.4" transform="translate(-153.5 74.6) rotate(-45)"/><rect class="cls-4" x="21.7" y="206" width="1" height="11.38" transform="translate(-145.9 77.7) rotate(-45)"/><rect class="cls-4" x="6.6" y="221.1" width="1" height="11.38" transform="translate(-161 71.4) rotate(-45)"/><rect class="cls-4" x="59.1" y="257.6" width="10.4" height="22.28" transform="translate(-173.9 124.2) rotate(-45)"/><rect class="cls-4" x="51.1" y="260.7" width="11.4" height="0.98" transform="translate(-170.8 116.6) rotate(-45)"/><rect class="cls-4" x="66.1" y="275.8" width="11.4" height="0.98" transform="translate(-177 131.7) rotate(-45)"/><rect class="cls-4" x="84.3" y="282.5" width="10.4" height="22.28" transform="translate(-184.1 149.3) rotate(-45)"/><rect class="cls-4" x="76.3" y="285.7" width="11.4" height="0.98" transform="translate(-181 141.8) rotate(-45)"/><rect class="cls-4" x="91.3" y="300.7" width="11.4" height="0.98" transform="translate(-187.3 156.8) rotate(-45)"/><rect class="cls-4" x="78.3" y="263.5" width="22.3" height="10.4" transform="translate(-166.5 142) rotate(-45)"/><rect class="cls-4" x="96.5" y="255.5" width="1" height="11.38" transform="translate(-159 145.1) rotate(-45)"/><rect class="cls-4" x="81.5" y="270.6" width="1" height="11.38" transform="translate(-174 138.8) rotate(-45)"/><rect class="cls-4" x="53.1" y="288.5" width="22.3" height="10.4" transform="translate(-191.6 131.5) rotate(-45)"/><rect class="cls-4" x="71.3" y="280.5" width="1" height="11.38" transform="translate(-184.1 134.6) rotate(-45)"/><rect class="cls-4" x="56.2" y="295.6" width="1" height="11.38" transform="translate(-199.1 128.3) rotate(-45)"/><rect class="cls-4" x="59.1" y="208" width="10.4" height="22.28" transform="translate(-138.8 109.6) rotate(-45)"/><rect class="cls-4" x="51.1" y="211.1" width="11.4" height="0.98" transform="translate(-135.7 102.1) rotate(-45)"/><rect class="cls-4" x="66.1" y="226.2" width="11.4" height="0.98" transform="translate(-141.9 117.2) rotate(-45)"/><rect class="cls-4" x="84.3" y="232.9" width="10.4" height="22.28" transform="translate(-149.1 134.8) rotate(-45)"/><rect class="cls-4" x="76.3" y="236" width="11.4" height="0.98" transform="translate(-146 127.2) rotate(-45)"/><rect class="cls-4" x="91.3" y="251.1" width="11.4" height="0.98" transform="translate(-152.2 142.3) rotate(-45)"/><rect class="cls-4" x="78.3" y="213.9" width="22.3" height="10.4" transform="translate(-131.4 127.4) rotate(-45)"/><rect class="cls-4" x="96.5" y="205.9" width="1" height="11.38" transform="translate(-123.9 130.6) rotate(-45)"/><rect class="cls-4" x="81.5" y="221" width="1" height="11.38" transform="translate(-139 124.3) rotate(-45)"/><rect class="cls-4" x="53.1" y="238.9" width="22.3" height="10.4" transform="translate(-156.5 116.9) rotate(-45)"/><rect class="cls-4" x="71.3" y="230.9" width="1" height="11.38" transform="translate(-149 120) rotate(-45)"/><rect class="cls-4" x="56.2" y="246" width="1" height="11.38" transform="translate(-164 113.8) rotate(-45)"/><rect class="cls-4" x="9.5" y="133.5" width="10.4" height="22.28" transform="translate(-100.7 52.7) rotate(-45)"/><rect class="cls-4" x="1.4" y="136.6" width="11.4" height="0.98" transform="translate(-97.6 45.2) rotate(-45)"/><rect class="cls-4" x="16.5" y="151.7" width="11.4" height="0.98" transform="translate(-103.8 60.3) rotate(-45)"/><rect class="cls-4" x="34.7" y="158.4" width="10.4" height="22.28" transform="translate(-110.9 77.9) rotate(-45)"/><rect class="cls-4" x="26.6" y="161.6" width="11.4" height="0.98" transform="translate(-107.8 70.3) rotate(-45)"/><rect class="cls-4" x="41.7" y="176.6" width="11.4" height="0.98" transform="translate(-114.1 85.4) rotate(-45)"/><rect class="cls-4" x="28.7" y="139.5" width="22.3" height="10.4" transform="translate(-93.3 70.6) rotate(-45)"/><rect class="cls-4" x="46.9" y="131.4" width="1" height="11.38" transform="translate(-85.8 73.7) rotate(-45)"/><rect class="cls-4" x="31.8" y="146.5" width="1" height="11.38" transform="translate(-100.9 67.4) rotate(-45)"/><rect class="cls-4" x="3.5" y="164.5" width="22.3" height="10.4" transform="translate(-118.4 60) rotate(-45)"/><rect class="cls-4" x="21.7" y="156.4" width="1" height="11.38" transform="translate(-110.9 63.1) rotate(-45)"/><rect class="cls-4" x="6.6" y="171.5" width="1" height="11.38" transform="translate(-125.9 56.9) rotate(-45)"/><rect class="cls-4" x="9.5" y="83.9" width="10.4" height="22.28" transform="translate(-65.6 38.2) rotate(-45)"/><rect class="cls-4" x="1.4" y="87" width="11.4" height="0.98" transform="translate(-62.5 30.7) rotate(-45)"/><rect class="cls-4" x="16.5" y="102.1" width="11.4" height="0.98" transform="translate(-68.7 45.7) rotate(-45)"/><rect class="cls-4" x="34.7" y="108.8" width="10.4" height="22.28" transform="translate(-75.9 63.3) rotate(-45)"/><rect class="cls-4" x="26.6" y="112" width="11.4" height="0.98" transform="translate(-72.8 55.8) rotate(-45)"/><rect class="cls-4" x="41.7" y="127" width="11.4" height="0.98" transform="translate(-79 70.9) rotate(-45)"/><rect class="cls-4" x="28.7" y="89.9" width="22.3" height="10.4" transform="translate(-58.2 56) rotate(-45)"/><rect class="cls-4" x="46.9" y="81.8" width="1" height="11.38" transform="translate(-50.7 59.1) rotate(-45)"/><rect class="cls-4" x="31.8" y="96.9" width="1" height="11.38" transform="translate(-65.8 52.9) rotate(-45)"/><rect class="cls-4" x="3.5" y="114.9" width="22.3" height="10.4" transform="translate(-83.3 45.5) rotate(-45)"/><rect class="cls-4" x="21.7" y="106.8" width="1" height="11.39" transform="translate(-75.8 48.6) rotate(-45)"/><rect class="cls-4" x="6.6" y="121.9" width="1" height="11.38" transform="translate(-90.8 42.4) rotate(-45)"/><rect class="cls-4" x="59.1" y="158.4" width="10.4" height="22.28" transform="translate(-103.7 95.1) rotate(-45)"/><rect class="cls-4" x="51.1" y="161.5" width="11.4" height="0.98" transform="translate(-100.6 87.6) rotate(-45)"/><rect class="cls-4" x="66.1" y="176.6" width="11.4" height="0.98" transform="translate(-106.9 102.6) rotate(-45)"/><rect class="cls-4" x="84.3" y="183.3" width="10.4" height="22.28" transform="translate(-114 120.2) rotate(-45)"/><rect class="cls-4" x="76.3" y="186.4" width="11.4" height="0.98" transform="translate(-110.9 112.7) rotate(-45)"/><rect class="cls-4" x="91.3" y="201.5" width="11.4" height="0.98" transform="translate(-117.1 127.7) rotate(-45)"/><rect class="cls-4" x="78.3" y="164.3" width="22.3" height="10.4" transform="translate(-96.4 112.9) rotate(-45)"/><rect class="cls-4" x="96.5" y="156.3" width="1" height="11.38" transform="translate(-88.8 116) rotate(-45)"/><rect class="cls-4" x="81.5" y="171.3" width="1" height="11.38" transform="translate(-103.9 109.8) rotate(-45)"/><rect class="cls-4" x="53.1" y="189.3" width="22.3" height="10.4" transform="translate(-121.4 102.4) rotate(-45)"/><rect class="cls-4" x="71.3" y="181.3" width="1" height="11.38" transform="translate(-113.9 105.5) rotate(-45)"/><rect class="cls-4" x="56.2" y="196.4" width="1" height="11.38" transform="translate(-129 99.3) rotate(-45)"/><rect class="cls-4" x="59.1" y="108.7" width="10.4" height="22.28" transform="translate(-68.6 80.6) rotate(-45)"/><rect class="cls-4" x="51.1" y="111.9" width="11.4" height="0.98" transform="translate(-65.5 73) rotate(-45)"/><rect class="cls-4" x="66.1" y="126.9" width="11.4" height="0.98" transform="translate(-71.8 88.1) rotate(-45)"/><rect class="cls-4" x="84.3" y="133.7" width="10.4" height="22.28" transform="translate(-78.9 105.7) rotate(-45)"/><rect class="cls-4" x="76.3" y="136.8" width="11.4" height="0.98" transform="translate(-75.8 98.2) rotate(-45)"/><rect class="cls-4" x="91.3" y="151.9" width="11.4" height="0.98" transform="translate(-82 113.2) rotate(-45)"/><rect class="cls-4" x="78.3" y="114.7" width="22.3" height="10.4" transform="translate(-61.3 98.4) rotate(-45)"/><rect class="cls-4" x="96.5" y="106.7" width="1" height="11.39" transform="translate(-53.7 101.5) rotate(-45)"/><rect class="cls-4" x="81.5" y="121.7" width="1" height="11.38" transform="translate(-68.8 95.3) rotate(-45)"/><rect class="cls-4" x="53.1" y="139.7" width="22.3" height="10.4" transform="translate(-86.4 87.9) rotate(-45)"/><rect class="cls-4" x="71.3" y="131.7" width="1" height="11.39" transform="translate(-78.8 91) rotate(-45)"/><rect class="cls-4" x="56.2" y="146.7" width="1" height="11.39" transform="translate(-93.9 84.7) rotate(-45)"/><rect class="cls-4" x="9.5" y="34.3" width="10.4" height="22.28" transform="translate(-30.5 23.7) rotate(-45)"/><rect class="cls-4" x="1.4" y="37.4" width="11.4" height="0.98" transform="translate(-27.4 16.1) rotate(-45)"/><rect class="cls-4" x="16.5" y="52.5" width="11.4" height="0.98" transform="translate(-33.7 31.2) rotate(-45)"/><rect class="cls-4" x="34.7" y="59.2" width="10.4" height="22.28" transform="translate(-40.8 48.8) rotate(-45)"/><rect class="cls-4" x="26.6" y="62.3" width="11.4" height="0.98" transform="translate(-37.7 41.3) rotate(-45)"/><rect class="cls-4" x="41.7" y="77.4" width="11.4" height="0.98" transform="translate(-43.9 56.3) rotate(-45)"/><rect class="cls-4" x="28.7" y="40.2" width="22.3" height="10.4" transform="translate(-23.2 41.5) rotate(-45)"/><rect class="cls-4" x="46.9" y="32.2" width="1" height="11.38" transform="translate(-15.6 44.6) rotate(-45)"/><rect class="cls-4" x="31.8" y="47.3" width="1" height="11.38" transform="translate(-30.7 38.4) rotate(-45)"/><rect class="cls-4" x="3.5" y="65.2" width="22.3" height="10.4" transform="translate(-48.2 31) rotate(-45)"/><rect class="cls-4" x="21.7" y="57.2" width="1" height="11.38" transform="translate(-40.7 34.1) rotate(-45)"/><rect class="cls-4" x="6.6" y="72.3" width="1" height="11.38" transform="translate(-55.8 27.8) rotate(-45)"/><polygon class="cls-4" points="8.8 0 16.2 7.4 23.5 0 23.5 0 8.8 0"/><polygon class="cls-4" points="22.2 0 15.1 7 15.8 7.7 23.5 0 22.2 0"/><rect class="cls-4" x="34.7" y="9.6" width="10.4" height="22.28" transform="translate(-5.7 34.3) rotate(-45)"/><rect class="cls-4" x="26.6" y="12.7" width="11.4" height="0.98" transform="translate(-2.6 26.7) rotate(-45)"/><rect class="cls-4" x="41.7" y="27.8" width="11.4" height="0.98" transform="translate(-8.8 41.8) rotate(-45)"/><polygon class="cls-4" points="25.6 0 25.6 0 33 7.4 40.3 0 25.6 0"/><polygon class="cls-4" points="25.6 0 33.3 7.7 34 7 27 0 25.6 0"/><rect class="cls-4" x="3.5" y="15.6" width="22.3" height="10.4" transform="translate(-13.1 16.4) rotate(-45)"/><rect class="cls-4" x="21.7" y="7.6" width="1" height="11.38" transform="translate(-5.6 19.5) rotate(-45)"/><rect class="cls-4" x="6.6" y="22.7" width="1" height="11.38" transform="translate(-20.7 13.3) rotate(-45)"/><rect class="cls-4" x="59.1" y="59.1" width="10.4" height="22.28" transform="translate(-33.6 66) rotate(-45)"/><rect class="cls-4" x="51.1" y="62.3" width="11.4" height="0.98" transform="translate(-30.5 58.5) rotate(-45)"/><rect class="cls-4" x="66.1" y="77.3" width="11.4" height="0.98" transform="translate(-36.7 73.6) rotate(-45)"/><rect class="cls-4" x="84.3" y="84.1" width="10.4" height="22.28" transform="translate(-43.8 91.2) rotate(-45)"/><rect class="cls-4" x="76.3" y="87.2" width="11.4" height="0.98" transform="translate(-40.7 83.6) rotate(-45)"/><rect class="cls-4" x="91.3" y="102.3" width="11.4" height="0.98" transform="translate(-46.9 98.7) rotate(-45)"/><rect class="cls-4" x="78.3" y="65.1" width="22.3" height="10.4" transform="translate(-26.2 83.9) rotate(-45)"/><rect class="cls-4" x="96.5" y="57.1" width="1" height="11.38" transform="translate(-18.7 87) rotate(-45)"/><rect class="cls-4" x="81.5" y="72.1" width="1" height="11.38" transform="translate(-33.7 80.7) rotate(-45)"/><rect class="cls-4" x="53.1" y="90.1" width="22.3" height="10.4" transform="translate(-51.3 73.3) rotate(-45)"/><rect class="cls-4" x="71.3" y="82.1" width="1" height="11.38" transform="translate(-43.7 76.4) rotate(-45)"/><rect class="cls-4" x="56.2" y="97.1" width="1" height="11.38" transform="translate(-58.8 70.2) rotate(-45)"/><rect class="cls-4" x="59.1" y="9.5" width="10.4" height="22.28" transform="translate(1.5 51.5) rotate(-45)"/><rect class="cls-4" x="51.1" y="12.6" width="11.4" height="0.98" transform="translate(4.6 44) rotate(-45)"/><rect class="cls-4" x="66.1" y="27.7" width="11.4" height="0.98" transform="translate(-1.6 59.1) rotate(-45)"/><rect class="cls-4" x="84.3" y="34.4" width="10.4" height="22.28" transform="translate(-8.7 76.6) rotate(-45)"/><rect class="cls-4" x="76.3" y="37.6" width="11.4" height="0.98" transform="translate(-5.6 69.1) rotate(-45)"/><rect class="cls-4" x="91.3" y="52.7" width="11.4" height="0.98" transform="translate(-11.9 84.2) rotate(-45)"/><rect class="cls-4" x="78.3" y="15.5" width="22.3" height="10.4" transform="translate(8.9 69.3) rotate(-45)"/><rect class="cls-4" x="96.5" y="7.4" width="1" height="11.38" transform="translate(16.4 72.4) rotate(-45)"/><rect class="cls-4" x="81.5" y="22.5" width="1" height="11.38" transform="translate(1.4 66.2) rotate(-45)"/><rect class="cls-4" x="53.1" y="40.5" width="22.3" height="10.4" transform="translate(-16.2 58.8) rotate(-45)"/><rect class="cls-4" x="71.3" y="32.4" width="1" height="11.38" transform="translate(-8.7 61.9) rotate(-45)"/><rect class="cls-4" x="56.2" y="47.5" width="1" height="11.38" transform="translate(-23.7 55.7) rotate(-45)"/><polygon class="cls-4" points="83.5 0 91 7.5 98.3 0.2 98.2 0 83.5 0"/><polygon class="cls-4" points="97.1 0 89.9 7.2 90.6 7.9 98.5 0 97.1 0"/><polygon class="cls-4" points="50.2 0 50 0.3 57.3 7.6 65 0 50.2 0"/><polygon class="cls-4" points="49.7 0 57.7 8 58.4 7.3 51.1 0 49.7 0"/></g></g></svg>