<svg xmlns="http://www.w3.org/2000/svg" width="14.511" height="20.502" viewBox="0 0 14.511 20.502">
  <g id="Group_44" data-name="Group 44" transform="translate(-169.408 -802.429)">
    <g id="Group_37" data-name="Group 37" transform="translate(175.231 805.013)">
      <g id="Group_36" data-name="Group 36">
        <path id="Path_2009" data-name="Path 2009" d="M221.308,27.488l-.952-.927a.48.48,0,0,0-.671,0l-.952.927a.48.48,0,0,0,.335.825h1.9a.48.48,0,0,0,.335-.825Zm-2.008.25.721-.7.721.7Z" transform="translate(-218.589 -26.425)" fill="#078281"/>
      </g>
    </g>
    <g id="Group_43" data-name="Group 43" transform="translate(169.858 802.879)">
      <g id="Group_42" data-name="Group 42">
        <path id="Path_2012" data-name="Path 2012" d="M90.969,4.863V1.184A1.186,1.186,0,0,0,89.785,0H88.679a.287.287,0,0,0,0,.574h1.105a.611.611,0,0,1,.61.61V4.856h-2.27a1.065,1.065,0,0,0-1.023.8,2.119,2.119,0,0,1-4.113,0,1.062,1.062,0,0,0-1.023-.8h-2.27V1.184a.611.611,0,0,1,.61-.61h7.226a.287.287,0,0,0,0-.574H80.3A1.186,1.186,0,0,0,79.12,1.184V4.863a1,1,0,0,0-.881.989V18.606a1,1,0,0,0,1,1H90.854a1,1,0,0,0,1-1V5.853A1,1,0,0,0,90.969,4.863Zm.307,13.743h0a.422.422,0,0,1-.422.422H79.235a.422.422,0,0,1-.422-.422V5.853a.422.422,0,0,1,.422-.422h2.73a.476.476,0,0,1,.466.359,2.685,2.685,0,0,0,.63,1.177,2.717,2.717,0,0,0,1.984.869A2.686,2.686,0,0,0,87.659,5.79a.476.476,0,0,1,.466-.359h2.73a.422.422,0,0,1,.422.422Z" transform="translate(-78.239)" fill="#078281" stroke="#078281" stroke-width="0.9"/>
      </g>
    </g>
    <g id="Path_2013" data-name="Path 2013" transform="translate(174 813)" fill="none">
      <path d="M2.5,0A2.5,2.5,0,1,1,0,2.5,2.5,2.5,0,0,1,2.5,0Z" stroke="none"/>
      <path d="M 2.5 1.200000047683716 C 1.783179998397827 1.200000047683716 1.200000047683716 1.783179998397827 1.200000047683716 2.5 C 1.200000047683716 3.216820001602173 1.783179998397827 3.799999952316284 2.5 3.799999952316284 C 3.216820001602173 3.799999952316284 3.799999952316284 3.216820001602173 3.799999952316284 2.5 C 3.799999952316284 1.783179998397827 3.216820001602173 1.200000047683716 2.5 1.200000047683716 M 2.5 0 C 3.880710124969482 0 5 1.119290113449097 5 2.5 C 5 3.880710124969482 3.880710124969482 5 2.5 5 C 1.119290113449097 5 0 3.880710124969482 0 2.5 C 0 1.119290113449097 1.119290113449097 0 2.5 0 Z" stroke="none" fill="#078281"/>
    </g>
  </g>
</svg>
