<svg id="Layer_1" data-name="Layer 1" xmlns="http://www.w3.org/2000/svg" viewBox="0 0 400 400"><defs><style>.cls-1{fill:#c59754;}</style></defs><title>nguoi</title><path class="cls-1" d="M387.35,347.12c-8-41.43-29.25-75-61.9-101.23-25.87-20.78-55.38-33-88.72-36.07-17.91-1.64-35.78-.74-53.66-1-30.75-.37-59.82,6.55-86.27,22.25-55,32.62-84.92,80.68-87.27,145.08-.44,12.16,2.34,14.68,14.63,14.68H359.42c6.54,0,13.09.16,19.61,0,8.17-.25,11.49-3.72,11.48-11.78A169.38,169.38,0,0,0,387.35,347.12ZM364.56,372H36.15c-8.31,0-8.6-.05-7.59-7.89,4.2-32.34,16.27-61.14,38.2-85.68,24.44-27.35,54.95-43.38,90.86-49,21.73-3.41,43.78-2.12,65.66-1.55C269.44,229,307.24,248,337,283.3c19.77,23.43,30.62,50.5,34.4,80.67C372.35,371.39,371.93,372,364.56,372Z"/><path class="cls-1" d="M290.53,100.92c.86,49.77-41.73,90.29-91.08,90.3-50.65,0-90.85-43.92-90.36-91.26.51-48.67,39.28-91,90.7-90.89S291.54,50.5,290.53,100.92Zm-18.79-.62c1.63-37.36-30.06-72.52-72.53-72.41a71.63,71.63,0,0,0-71.58,71.8c-.09,42.09,33.11,72.23,72,72.53S273.19,140.18,271.74,100.3Z"/></svg>