<svg xmlns="http://www.w3.org/2000/svg" width="19.5" height="19.5" viewBox="0 0 19.5 19.5">
  <path id="outline-user-2" d="M9.7,15.75h4.6v-1.5H9.7Zm4.6,0A2.952,2.952,0,0,1,17.25,18.7h1.5A4.452,4.452,0,0,0,14.3,14.25Zm-4.6-1.5A4.452,4.452,0,0,0,5.25,18.7h1.5A2.952,2.952,0,0,1,9.7,15.75ZM14.25,9A2.25,2.25,0,0,1,12,11.25v1.5A3.75,3.75,0,0,0,15.75,9ZM12,11.25A2.25,2.25,0,0,1,9.75,9H8.25A3.75,3.75,0,0,0,12,12.75ZM9.75,9A2.25,2.25,0,0,1,12,6.75V5.25A3.75,3.75,0,0,0,8.25,9ZM12,6.75A2.25,2.25,0,0,1,14.25,9h1.5A3.75,3.75,0,0,0,12,5.25ZM20.25,12A8.25,8.25,0,0,1,12,20.25v1.5A9.75,9.75,0,0,0,21.75,12ZM12,20.25A8.25,8.25,0,0,1,3.75,12H2.25A9.75,9.75,0,0,0,12,21.75ZM3.75,12A8.25,8.25,0,0,1,12,3.75V2.25A9.75,9.75,0,0,0,2.25,12ZM12,3.75A8.25,8.25,0,0,1,20.25,12h1.5A9.75,9.75,0,0,0,12,2.25Z" transform="translate(-2.25 -2.25)" fill="#078281"/>
</svg>
