<svg id="Layer_1" data-name="Layer 1" xmlns="http://www.w3.org/2000/svg" viewBox="0 0 150 150"><defs><style>.cls-1{fill:#286863;}</style></defs><title>people</title><path class="cls-1" d="M145.16,130.07c-3-15.49-10.93-28.07-23.17-37.87A60.92,60.92,0,0,0,88.8,78.69c-6.7-.6-13.4-.26-20.1-.38a60.77,60.77,0,0,0-32.3,8.31c-20.58,12.2-31.77,30.2-32.67,54.3-.15,4.57.86,5.51,5.47,5.51H134.64c2.43,0,4.9.07,7.34,0,3.06-.08,4.3-1.39,4.3-4.42A61.29,61.29,0,0,0,145.16,130.07Zm-8.54,9.28H13.72c-3.1,0-3.21,0-2.84-2.95a58.24,58.24,0,0,1,14.3-32.08A55.57,55.57,0,0,1,59.19,86c8.13-1.28,16.4-.79,24.59-.57,17.29.45,31.44,7.56,42.55,20.77a56.52,56.52,0,0,1,12.88,30.21C139.54,139.13,139.39,139.35,136.62,139.35Z"/><path class="cls-1" d="M108.93,37.93c.34,18.64-15.61,33.8-34.09,33.8-19,0-34-16.43-33.83-34.17C41.19,19.33,55.71,3.5,75,3.54A33.75,33.75,0,0,1,108.93,37.93Zm-7-.26c.6-14-11.26-27.13-27.13-27.09A26.81,26.81,0,0,0,48,37.45,26.8,26.8,0,0,0,74.91,64.58C89.43,64.69,102.42,52.6,101.89,37.67Z"/></svg>