<svg id="Layer_1" data-name="Layer 1" xmlns="http://www.w3.org/2000/svg" viewBox="0 0 150 150"><defs><style>.cls-1{fill:#286863;}</style></defs><title>room</title><path class="cls-1" d="M5.35,133.1A3.57,3.57,0,0,1,1.81,131V37.3c.27-.46.47-.9.67-1.33A6.41,6.41,0,0,1,3.9,33.76.29.29,0,0,0,4,33.54a.33.33,0,0,0-.11-.25A7.18,7.18,0,0,1,2.63,31a10.14,10.14,0,0,0-.82-1.65V25l.05,0c.29-.14.33-.39.38-.68a2.21,2.21,0,0,1,.08-.37A9.8,9.8,0,0,1,10.75,17a12.79,12.79,0,0,1,1.49-.09,9.54,9.54,0,0,1,8.42,4.88,9.64,9.64,0,0,1-.15,10.87c-.43.68-.55,1,0,1.67a7.17,7.17,0,0,1,1.68,5c0,1.32,0,2.65,0,4v1.58c.92-.09,1.81-.14,2.66-.14a16.69,16.69,0,0,1,13.59,6.25c2,2.46,4.25,4.85,6.38,7.17.83.9,1.66,1.8,2.48,2.71A14.07,14.07,0,0,1,50.84,67c.23,1,.64,1.28,1.72,1.28q16,0,32.08,0h27.87c4.71,0,10.19,0,15.58.14a29.83,29.83,0,0,1,12.83,3.07,12.24,12.24,0,0,1,7.23,11.37c.07,12,.06,24.22,0,36v10.94c0,2.18-1.14,3.29-3.39,3.3h-8.57c-2.64,0-3.59-.84-3.91-3.45a42,42,0,0,0-2.89-11,21.58,21.58,0,0,0-2.9-5,2.65,2.65,0,0,0-2.33-1.09l-41.2,0H58a9.47,9.47,0,0,1-1.23-.06,2.9,2.9,0,0,1-.34-5.7,9.26,9.26,0,0,1,2-.15H91.67q24.51,0,49,0h0a1.87,1.87,0,0,0,1.35-.33c.22-.23.29-.61.26-1.36-.07-1.91-.06-3.86,0-5.76,0-.76,0-1.54,0-2.31a25,25,0,0,1-3.79.23H55a10.08,10.08,0,0,1-4.65-.74,7.64,7.64,0,0,1-4.61-6.52c-.15-2.19-.12-4.44-.09-6.61v-.38c0-.54-.05-.82-.22-1a1.2,1.2,0,0,0-.9-.24l-17.8,0q-9,0-17.9,0h0a1.25,1.25,0,0,0-.91.23c-.16.16-.22.42-.21,1,0,8.35,0,15.77,0,22.69a1.27,1.27,0,0,0,.22.9c.15.15.41.21.92.21,3.83,0,7.63,0,11.42,0h11.1a7.4,7.4,0,0,1,.94,0,3,3,0,0,1,2.72,3,2.9,2.9,0,0,1-3,2.88c-1.12,0-2.25.06-3.37.06s-1.94,0-2.91-.06h-.16a2.55,2.55,0,0,0-2.17,1.12c-2.7,3.42-4,7.52-4.88,11.08a41.35,41.35,0,0,0-.94,5.17c-.28,2.28-1.26,3.13-3.61,3.14H8.93c-1.11,0-2.23,0-3.33,0Zm127.78-20.33a3.42,3.42,0,0,0,.19.42,40.79,40.79,0,0,1,4,10.8c.65,2.8.75,3.22,2.63,3.22.43,0,.93,0,1.55,0h.34a.41.41,0,0,0,.32-.1.71.71,0,0,0,.14-.51q0-6.63,0-13.27a.78.78,0,0,0-.15-.57.74.74,0,0,0-.54-.15l-4.07,0h-4.48ZM8.72,112.55a1.13,1.13,0,0,0-.82.22,1.51,1.51,0,0,0-.22,1c0,2.81,0,5.66,0,8.42v3.14c0,1.78,0,1.78,1.74,1.78,2.53,0,2.53,0,3.06-2.44A43.36,43.36,0,0,1,17,112.58l-2.37,0H12.28c-1.15,0-2.28,0-3.41-.06ZM132,91.26h7.47c2.08,0,2.78-.72,2.79-2.84v-.32c0-1.6,0-3.21,0-4.82a7,7,0,0,0-4.38-6.75A28.51,28.51,0,0,0,126,74.18q-16.83,0-33.67,0l-39.8,0a1.1,1.1,0,0,0-.82.22c-.17.17-.2.46-.2.94,0,3,0,6.06,0,9.09v3.46c0,3,.5,3.43,3.5,3.43h77ZM10.11,37.31c-1.95,0-2.4.47-2.4,2.45V61.44c0,4.46,0,8.93,0,13.39a1.16,1.16,0,0,0,.18.83,1,1,0,0,0,.68.18h.12q1.63-.06,3.27-.06c1.1,0,2.2,0,3.3,0h.12a1.06,1.06,0,0,0,.77-.21,1.23,1.23,0,0,0,.2-.87c0-3.3,0-6.59,0-9.89V39.69c0-1.83-.53-2.36-2.36-2.38H10.11ZM22.23,69.66c0,1.93,0,3.72,0,5.52a.74.74,0,0,0,.13.51.83.83,0,0,0,.58.13h6.73l-7.43-8.25Zm2.41-19.1a2.25,2.25,0,0,0-2.34,2.06c-.4,3.9.45,6.82,2.66,9.17,2.82,3,5.82,6.34,9.45,10.49a10,10,0,0,0,8,3.52l.81,0a2.23,2.23,0,0,0,2.21-2,8,8,0,0,0,.11-1.23c0-.13,0-.25,0-.36a9.35,9.35,0,0,0-2.5-7.21c-1.35-1.52-2.72-3-4.08-4.54-1.89-2.09-3.84-4.25-5.73-6.4-2-2.34-4.78-3.43-8.58-3.43v-.1ZM12,22.81a4.29,4.29,0,0,0-.11,8.57H12a4.43,4.43,0,0,0,4.3-4.28,4.34,4.34,0,0,0-4.22-4.29L12,22.71Z"/><path class="cls-1" d="M1.9,25c.47-.22.37-.73.51-1.1a9.74,9.74,0,0,1,8.35-6.83,9.5,9.5,0,0,1,9.82,4.74,9.61,9.61,0,0,1-.16,10.77c-.43.68-.58,1.08,0,1.78a7.15,7.15,0,0,1,1.66,4.89c0,1.89,0,3.79,0,5.65,6.53-.69,12,.92,16.28,6.06,2.82,3.41,5.89,6.61,8.86,9.88A14.09,14.09,0,0,1,50.74,67c.26,1.07.73,1.36,1.83,1.36q26.57-.06,53.11,0c7.47,0,14.94,0,22.41.13a29.63,29.63,0,0,1,12.78,3.06c4.63,2.33,7.14,6.15,7.18,11.28.1,15.66,0,31.31,0,47,0,2.14-1.1,3.19-3.29,3.2h-8.57c-2.61,0-3.5-.8-3.81-3.36a42.17,42.17,0,0,0-2.89-11,21.71,21.71,0,0,0-2.92-5,2.77,2.77,0,0,0-2.42-1.13q-32.84.06-65.67,0a13.89,13.89,0,0,1-1.71-.06,2.81,2.81,0,0,1-.32-5.51,9.34,9.34,0,0,1,2-.14q41.12,0,82.23,0c1.5,0,1.77-.43,1.71-1.79-.1-2.7,0-5.42,0-8.19a36,36,0,0,1-5.75.24H55a9.87,9.87,0,0,1-4.6-.73,7.56,7.56,0,0,1-4.56-6.43c-.16-2.32-.12-4.66-.08-7,0-.94-.17-1.32-1.23-1.32q-17.85.06-35.69,0c-1,0-1.23.33-1.22,1.29,0,7.56,0,15.13,0,22.69,0,1,.33,1.22,1.28,1.21,7.33,0,14.65,0,22,0a11.33,11.33,0,0,1,1.43,0,2.85,2.85,0,0,1,2.63,2.86,2.81,2.81,0,0,1-2.85,2.78c-2.09.07-4.19.09-6.28,0a2.66,2.66,0,0,0-2.41,1.16c-2.59,3.29-3.89,7.14-4.89,11.12a41.06,41.06,0,0,0-.95,5.18c-.28,2.24-1.25,3-3.51,3.05-2.8,0-5.61-.07-8.42,0A3.55,3.55,0,0,1,1.9,131V37.3c.72-1.14,1-2.53,2.07-3.46a.39.39,0,0,0,0-.62C3,32.1,2.71,30.55,1.9,29.3ZM96.82,91.35h25.4c5.75,0,11.51,0,17.26,0,2.15,0,2.88-.77,2.89-2.94,0-1.71,0-3.42,0-5.14a7,7,0,0,0-4.44-6.84A28.62,28.62,0,0,0,126,74.08Q89.27,74,52.53,74c-1,0-1.13.42-1.12,1.26,0,4.18,0,8.37,0,12.55,0,3,.54,3.53,3.6,3.53ZM7.61,57.15c0,5.9,0,11.79,0,17.68,0,.87.2,1.13,1.09,1.11,2.18-.07,4.37-.07,6.55,0,.93,0,1.21-.21,1.2-1.17-.05-4.47,0-8.94,0-13.4q0-10.84,0-21.67c0-1.9-.57-2.46-2.45-2.48-1.29,0-2.57,0-3.85,0-2,0-2.5.53-2.5,2.56C7.6,45.56,7.61,51.36,7.61,57.15Zm38.06,15a9.48,9.48,0,0,0-2.52-7.29c-3.26-3.66-6.58-7.25-9.81-10.94C31,51.26,28,50.45,24.64,50.46a2.35,2.35,0,0,0-2.44,2.15c-.35,3.43.18,6.58,2.68,9.25,3.22,3.43,6.36,6.94,9.45,10.49a10.4,10.4,0,0,0,8.92,3.53,2.33,2.33,0,0,0,2.3-2.13A11.7,11.7,0,0,0,45.67,72.15Zm87.23,40.33a7.21,7.21,0,0,0,.33.76,40.7,40.7,0,0,1,4,10.77c.79,3.4.77,3.41,4.29,3.25a.65.65,0,0,1,.14,0c.53.07.75-.12.75-.7q0-6.63,0-13.27c0-.61-.19-.82-.82-.82C138.74,112.5,135.9,112.48,132.9,112.48Zm-115.75,0c-2.95,0-5.61.07-8.27,0-1.15,0-1.31.36-1.3,1.37.06,3.85,0,7.71,0,11.56,0,1.88,0,1.88,1.84,1.88,2.59,0,2.61,0,3.15-2.52A43.39,43.39,0,0,1,17.15,112.48Zm-5-89.76a4.39,4.39,0,0,0-4.49,4.34,4.45,4.45,0,0,0,4.29,4.42,4.51,4.51,0,0,0,4.51-4.37A4.45,4.45,0,0,0,12.1,22.72ZM29.88,75.91,22.12,67.3c0,2.88,0,5.38,0,7.87,0,.69.31.76.86.75C25.14,75.9,27.32,75.91,29.88,75.91Z"/><path class="cls-1" d="M44.56,112.56a2.86,2.86,0,0,1-2.87-2.93,2.93,2.93,0,0,1,2.9-2.93,3,3,0,0,1,2.14.91,2.92,2.92,0,0,1-2.11,5Z"/><path class="cls-1" d="M44.56,112.46a2.76,2.76,0,0,1-2.77-2.83,2.82,2.82,0,0,1,2.8-2.83,2.86,2.86,0,0,1,2.86,2.93A2.82,2.82,0,0,1,44.56,112.46Z"/></svg>