<svg id="Layer_1" data-name="Layer 1" xmlns="http://www.w3.org/2000/svg" viewBox="0 0 200 200"><defs><style>.cls-1{fill:#ed1c24;opacity:0.08;isolation:isolate;}.cls-2{fill:#af1225;}</style></defs><title>room-phu</title><circle class="cls-1" cx="99.99" cy="100.45" r="97.95"/><path class="cls-2" d="M30.34,103.28c.37-.09.28-.42.35-.66,2.16-7.38,7.42-11.32,15.1-11.32H154.6c7.26,0,13,4.37,14.65,11.18a14,14,0,0,1,.41,3.36q0,20.06,0,40.12a3,3,0,0,1-1.77,3.1,2.75,2.75,0,0,1-2.94-.39,3.09,3.09,0,0,1-1.08-2.66c0-2.41,0-4.81,0-7.21,0-.85-.24-1.17-1.07-1.05a5.14,5.14,0,0,1-.68,0q-62.16,0-124.31,0c-1.47,0-1.81.42-1.73,1.79.11,2.08,0,4.17,0,6.25,0,1.85-.63,3-1.92,3.38a2.88,2.88,0,0,1-3.51-1.35c-.06-.09-.23-.12-.35-.17ZM100,126.13H37.84c-.32,0-.64,0-1,0-.6-.06-.79.18-.77.77a23.79,23.79,0,0,1,0,3.27c-.15,1.38.27,1.78,1.73,1.78q62.16-.06,124.32,0c.31,0,.63,0,1,0,.6.05.78-.22.77-.8a29.7,29.7,0,0,1,0-3.53c.12-1.19-.24-1.49-1.46-1.49Q131.22,126.18,100,126.13Z"/><path class="cls-2" d="M158,65.63c0,5.39,0,10.79,0,16.18,0,2.65-1.05,3.7-3.7,3.71-4.17,0-8.35,0-12.85,0,2.53-1.38,2.18-3.3,1.56-5.35S142,76,141.38,74a8.17,8.17,0,0,0-7.7-5.85c-6.43-.1-12.87-.14-19.3,0-5.06.09-8.44,3.76-8.59,9,0,1.55,0,3.09,0,4.63a3.71,3.71,0,0,0,1.64,3.49c.19,0,.36,0,.38.26H92.69c-.26,0-.52,0-.82.08.18-.35.47-.28.71-.34a3.64,3.64,0,0,0,1.63-3.48c-.1-2.48.3-5-.43-7.43A8.25,8.25,0,0,0,86,68.19c-6.61-.11-13.23-.15-19.85,0a7.79,7.79,0,0,0-7.46,5.56A82.88,82.88,0,0,0,56.53,82c-.35,1.52.49,2.58,2,3.49-4.7,0-9.12.06-13.52,0-2,0-3-1.21-3-3.26,0-5.94-.09-11.88.05-17.82A14.36,14.36,0,0,1,55.66,50.73c.55,0,1.09,0,1.63,0h85.42c6.74,0,11.95,3.34,14.28,9.09A15.44,15.44,0,0,1,158,65.63Z"/></svg>