<svg id="Layer_1" data-name="Layer 1" xmlns="http://www.w3.org/2000/svg" xmlns:xlink="http://www.w3.org/1999/xlink" viewBox="0 0 595.28 127.9"><defs><style>.cls-1{fill:none;}.cls-2{fill:#1a5b61;}.cls-3{clip-path:url(#clip-path);}.cls-4{opacity:0.3;}</style><clipPath id="clip-path"><rect class="cls-1" x="253.13" y="-2.41" width="91.33" height="91.33"/></clipPath></defs><title>header-pdf_1</title><rect class="cls-2" x="299.04" y="1.49" width="1.64" height="2.49"/><rect class="cls-2" x="299.04" y="8.09" width="1.64" height="3.49"/><rect class="cls-2" x="299.04" y="4.39" width="1.64" height="3.3"/><rect class="cls-2" x="299.04" y="11.98" width="1.64" height="3.3"/><rect class="cls-2" x="299.04" y="15.69" width="1.64" height="3.3"/><rect class="cls-2" x="299.04" y="19.38" width="1.64" height="3.3"/><rect class="cls-2" x="299.04" y="23.1" width="1.64" height="3.3"/><rect class="cls-2" x="299.04" y="26.8" width="1.64" height="3.49"/><rect class="cls-2" x="299.04" y="30.71" width="1.64" height="3.27"/><rect class="cls-2" x="299.04" y="34.39" width="1.64" height="3.49"/><rect class="cls-2" x="299.04" y="38.31" width="1.64" height="3.49"/><rect class="cls-2" x="299.04" y="42.21" width="1.64" height="3.49"/><rect class="cls-2" x="299.04" y="46.12" width="1.64" height="3.49"/><rect class="cls-2" x="299.04" y="50.03" width="1.64" height="3.49"/><rect class="cls-2" x="299.04" y="53.93" width="1.64" height="3.49"/><rect class="cls-2" x="299.04" y="57.83" width="1.64" height="3.49"/><rect class="cls-2" x="299.04" y="61.75" width="1.64" height="3.49"/><rect class="cls-2" x="302.32" y="13.85" width="1.64" height="3.5"/><rect class="cls-2" x="302.32" y="17.73" width="1.64" height="3.3"/><rect class="cls-2" x="302.32" y="63.79" width="1.64" height="1.44"/><rect class="cls-2" x="302.32" y="12.61" width="1.64" height="0.82"/><rect class="cls-2" x="302.32" y="59.89" width="1.64" height="3.49"/><rect class="cls-2" x="302.32" y="55.99" width="1.64" height="3.49"/><rect class="cls-2" x="302.32" y="52.1" width="1.64" height="3.49"/><rect class="cls-2" x="302.32" y="48.17" width="1.64" height="3.49"/><rect class="cls-2" x="302.32" y="44.27" width="1.64" height="3.49"/><rect class="cls-2" x="302.32" y="40.37" width="1.64" height="3.49"/><rect class="cls-2" x="302.32" y="36.66" width="1.64" height="3.29"/><rect class="cls-2" x="302.32" y="32.76" width="1.64" height="3.49"/><rect class="cls-2" x="302.32" y="28.85" width="1.64" height="3.49"/><rect class="cls-2" x="302.32" y="25.16" width="1.64" height="3.27"/><rect class="cls-2" x="302.32" y="21.47" width="1.64" height="3.27"/><rect class="cls-2" x="308.71" y="25.56" width="1.64" height="3.3"/><rect class="cls-2" x="308.71" y="29.24" width="1.64" height="3.3"/><rect class="cls-2" x="308.71" y="24.13" width="1.64" height="1.02"/><rect class="cls-2" x="308.71" y="64.21" width="1.64" height="1.02"/><rect class="cls-2" x="308.71" y="60.1" width="1.64" height="3.49"/><rect class="cls-2" x="308.71" y="56.19" width="1.64" height="3.49"/><rect class="cls-2" x="308.71" y="52.29" width="1.64" height="3.49"/><rect class="cls-2" x="308.71" y="48.38" width="1.64" height="3.5"/><rect class="cls-2" x="308.71" y="44.47" width="1.64" height="3.5"/><rect class="cls-2" x="308.71" y="40.79" width="1.64" height="3.28"/><rect class="cls-2" x="308.71" y="36.87" width="1.64" height="3.48"/><rect class="cls-2" x="308.71" y="32.98" width="1.64" height="3.47"/><rect class="cls-2" x="311.78" y="30.92" width="1.64" height="3.3"/><rect class="cls-2" x="311.78" y="34.6" width="1.64" height="3.3"/><rect class="cls-2" x="311.78" y="61.74" width="1.64" height="3.5"/><rect class="cls-2" x="313.13" y="63.6" width="16.53" height="1.64"/><rect class="cls-2" x="311.78" y="57.65" width="1.64" height="3.69"/><rect class="cls-2" x="311.78" y="53.74" width="1.64" height="3.5"/><rect class="cls-2" x="311.78" y="49.83" width="1.64" height="3.5"/><rect class="cls-2" x="311.78" y="46.14" width="1.64" height="3.28"/><rect class="cls-2" x="311.78" y="42.23" width="1.64" height="3.48"/><rect class="cls-2" x="311.78" y="38.34" width="1.64" height="3.47"/><rect class="cls-2" x="305.41" y="19.39" width="1.64" height="3.3"/><rect class="cls-2" x="305.41" y="23.09" width="1.64" height="3.28"/><rect class="cls-2" x="305.41" y="18.37" width="1.64" height="0.62"/><rect class="cls-2" x="305.41" y="61.75" width="1.64" height="3.49"/><rect class="cls-2" x="305.41" y="57.85" width="1.64" height="3.49"/><rect class="cls-2" x="305.41" y="53.92" width="1.64" height="3.49"/><rect class="cls-2" x="305.41" y="50.02" width="1.64" height="3.49"/><rect class="cls-2" x="305.41" y="46.13" width="1.64" height="3.49"/><rect class="cls-2" x="305.41" y="42.22" width="1.64" height="3.48"/><rect class="cls-2" x="305.41" y="38.31" width="1.64" height="3.49"/><rect class="cls-2" x="305.41" y="34.61" width="1.64" height="3.49"/><rect class="cls-2" x="305.41" y="30.7" width="1.64" height="3.49"/><rect class="cls-2" x="305.41" y="26.81" width="1.64" height="3.46"/><rect class="cls-2" x="295.75" y="13.85" width="1.64" height="3.5"/><rect class="cls-2" x="295.75" y="17.73" width="1.64" height="3.3"/><rect class="cls-2" x="295.75" y="63.79" width="1.64" height="1.44"/><rect class="cls-2" x="295.75" y="12.61" width="1.64" height="0.82"/><rect class="cls-2" x="295.75" y="59.89" width="1.64" height="3.49"/><rect class="cls-2" x="295.75" y="55.99" width="1.64" height="3.49"/><rect class="cls-2" x="295.75" y="52.1" width="1.64" height="3.49"/><rect class="cls-2" x="295.75" y="48.17" width="1.64" height="3.49"/><rect class="cls-2" x="295.75" y="44.27" width="1.64" height="3.49"/><rect class="cls-2" x="295.75" y="40.37" width="1.64" height="3.49"/><rect class="cls-2" x="295.75" y="36.66" width="1.64" height="3.29"/><rect class="cls-2" x="295.75" y="32.76" width="1.64" height="3.49"/><rect class="cls-2" x="295.75" y="28.85" width="1.64" height="3.49"/><rect class="cls-2" x="295.75" y="25.16" width="1.64" height="3.27"/><rect class="cls-2" x="295.75" y="21.47" width="1.64" height="3.27"/><rect class="cls-2" x="289.36" y="25.56" width="1.64" height="3.3"/><rect class="cls-2" x="289.36" y="29.24" width="1.64" height="3.3"/><rect class="cls-2" x="289.36" y="24.13" width="1.64" height="1.02"/><rect class="cls-2" x="289.36" y="64.21" width="1.64" height="1.02"/><rect class="cls-2" x="289.36" y="60.1" width="1.64" height="3.49"/><rect class="cls-2" x="289.36" y="56.19" width="1.64" height="3.49"/><rect class="cls-2" x="289.36" y="52.29" width="1.64" height="3.49"/><rect class="cls-2" x="289.36" y="48.38" width="1.64" height="3.5"/><rect class="cls-2" x="289.36" y="44.47" width="1.64" height="3.5"/><rect class="cls-2" x="289.36" y="40.79" width="1.64" height="3.28"/><rect class="cls-2" x="289.36" y="36.87" width="1.64" height="3.48"/><rect class="cls-2" x="289.36" y="32.98" width="1.64" height="3.47"/><rect class="cls-2" x="286.29" y="30.92" width="1.64" height="3.3"/><rect class="cls-2" x="286.29" y="34.6" width="1.64" height="3.3"/><rect class="cls-2" x="286.29" y="61.74" width="1.64" height="3.5"/><rect class="cls-2" x="270.05" y="63.6" width="16.53" height="1.64"/><rect class="cls-2" x="286.29" y="57.65" width="1.64" height="3.69"/><rect class="cls-2" x="286.29" y="53.74" width="1.64" height="3.5"/><rect class="cls-2" x="286.29" y="49.83" width="1.64" height="3.5"/><rect class="cls-2" x="286.29" y="46.14" width="1.64" height="3.28"/><rect class="cls-2" x="286.29" y="42.23" width="1.64" height="3.48"/><rect class="cls-2" x="286.29" y="38.34" width="1.64" height="3.47"/><rect class="cls-2" x="292.66" y="19.39" width="1.64" height="3.3"/><rect class="cls-2" x="292.66" y="23.09" width="1.64" height="3.28"/><rect class="cls-2" x="292.66" y="18.37" width="1.64" height="0.62"/><rect class="cls-2" x="292.66" y="61.75" width="1.64" height="3.49"/><rect class="cls-2" x="292.66" y="57.85" width="1.64" height="3.49"/><rect class="cls-2" x="292.66" y="53.92" width="1.64" height="3.49"/><rect class="cls-2" x="292.66" y="50.02" width="1.64" height="3.49"/><rect class="cls-2" x="292.66" y="46.13" width="1.64" height="3.49"/><rect class="cls-2" x="292.66" y="42.22" width="1.64" height="3.48"/><rect class="cls-2" x="292.66" y="38.31" width="1.64" height="3.49"/><rect class="cls-2" x="292.66" y="34.61" width="1.64" height="3.49"/><rect class="cls-2" x="292.66" y="30.7" width="1.64" height="3.49"/><rect class="cls-2" x="292.66" y="26.81" width="1.64" height="3.46"/><g class="cls-3"><path class="cls-2" d="M277,72.2v4.52a.75.75,0,0,1-.35.65h1.2s-.41-.09-.41-.87V74.07l2.17,3.28L282,73.89v2.75s0,.57-.44.73H283s-.43-.2-.43-1.15V72.38l-2.67,3.76Z"/><path class="cls-2" d="M302.13,77.42a3.28,3.28,0,0,1-1.71-.5,2.36,2.36,0,0,1-1-1.71,2.62,2.62,0,0,1,.52-2.1,2.58,2.58,0,0,1,1.45-.88,3.45,3.45,0,0,1,2.06.09,2.2,2.2,0,0,1,1.46,1.6,2.87,2.87,0,0,1-.29,2.25A2.38,2.38,0,0,1,303,77.28a8.68,8.68,0,0,1-.89.14m-2-3a3.05,3.05,0,0,0,.25,1.21A2,2,0,0,0,301.86,77a1.75,1.75,0,0,0,2.28-1.42,3.42,3.42,0,0,0-.13-1.74,1.91,1.91,0,0,0-2.11-1.44,1.85,1.85,0,0,0-1.38.63,2.06,2.06,0,0,0-.4,1.41"/><path class="cls-2" d="M294.27,77.42a2.88,2.88,0,0,1-1.81-.62,2.44,2.44,0,0,1-.86-1.73,2.68,2.68,0,0,1,.56-2,2.36,2.36,0,0,1,1.3-.81,3.21,3.21,0,0,1,2.2.13,2.15,2.15,0,0,1,1.23,1.46,3,3,0,0,1-.28,2.38,2.28,2.28,0,0,1-1.5,1.06,7.74,7.74,0,0,1-.84.14m2-2.4a5.67,5.67,0,0,0-.05-.58,2.67,2.67,0,0,0-.54-1.36,1.79,1.79,0,0,0-1.65-.66A1.68,1.68,0,0,0,292.35,74a3.2,3.2,0,0,0,.33,2,1.9,1.9,0,0,0,1.95,1.15A1.57,1.57,0,0,0,296,76.2a2.66,2.66,0,0,0,.24-1.18"/><path class="cls-2" d="M287.44,74.46c.26.05.49.08.72.14.71.19,1,.59,1,1.19a1.35,1.35,0,0,1-1.1,1.39,3.14,3.14,0,0,1-.75.09c-.61,0-1.22,0-1.87,0,.31-.31.23-.67.23-1,0-1.13,0-2.27,0-3.41a1,1,0,0,0-.29-.65h.28c.5,0,1,0,1.48,0a3.51,3.51,0,0,1,.79.12.92.92,0,0,1,.68,1.24,1.29,1.29,0,0,1-1,.85l-.23,0m-1,.2a.25.25,0,0,0,0,.07c0,.6,0,1.19,0,1.78a1.1,1.1,0,0,0,0,.18.38.38,0,0,0,.31.32,1.68,1.68,0,0,0,.45,0,1.15,1.15,0,0,0,1.1-.7,1.53,1.53,0,0,0,.06-.82A.83.83,0,0,0,288,75a2.57,2.57,0,0,0-1.52-.29m0-.23c.26,0,.5-.05.73-.11a1,1,0,0,0,.67-1.38.86.86,0,0,0-.3-.33,1.53,1.53,0,0,0-1-.15s-.08.07-.08.11c0,.22,0,.44,0,.65v1.21"/><path class="cls-2" d="M265.13,74.46c.27.05.5.08.72.14.71.19,1,.59,1,1.19a1.35,1.35,0,0,1-1.1,1.39,3.2,3.2,0,0,1-.75.09c-.62,0-1.23,0-1.88,0,.31-.31.23-.67.23-1,0-1.13,0-2.27,0-3.41a1,1,0,0,0-.3-.65h.29c.49,0,1,0,1.47,0a3.43,3.43,0,0,1,.79.12.91.91,0,0,1,.68,1.24,1.29,1.29,0,0,1-1,.85l-.23,0m-1,.2a.2.2,0,0,0,0,.07v1.78a.57.57,0,0,0,0,.18.37.37,0,0,0,.3.32,1.71,1.71,0,0,0,.45,0,1.15,1.15,0,0,0,1.1-.7,1.44,1.44,0,0,0,.06-.82.85.85,0,0,0-.4-.57,2.62,2.62,0,0,0-1.53-.29m0-.23a7.05,7.05,0,0,0,.73-.11,1,1,0,0,0,.67-1.38.86.86,0,0,0-.3-.33,1.53,1.53,0,0,0-1-.15s-.08.07-.08.11c0,.22,0,.44,0,.65Z"/><path class="cls-2" d="M322.1,77.26H321s-.18-.47-.26-.72c-.15-.4-.08-.17-.22-.57,0-.08-.28,0-.36,0h-1.58s-.32,0-.33,0c-.16.42-.24.61-.24.61-.06.22-.25.68-.25.68H317a3.85,3.85,0,0,0,.91-1.59c.56-1.27,1.1-2.55,1.64-3.83l0-.06c.17.39.33.76.48,1.13.47,1.14.94,2.28,1.4,3.42a3.55,3.55,0,0,0,.21.44,3.28,3.28,0,0,0,.43.49m-1.68-1.59c-.26-.64-.78-2-1-2.69-.26.66-.8,2.06-1.05,2.69Z"/><path class="cls-2" d="M274.3,77.26h-1.1l-.26-.72c-.15-.4-.08-.17-.22-.57,0-.08-.28,0-.36,0h-1.57c-.05,0-.33,0-.34,0-.15.42-.23.61-.23.61-.07.22-.26.68-.26.68h-.77a3.85,3.85,0,0,0,.91-1.59c.56-1.27,1.1-2.55,1.64-3.83l0-.06c.17.39.33.76.48,1.13l1.41,3.42a2.48,2.48,0,0,0,.2.44,3.28,3.28,0,0,0,.43.49m-1.68-1.59c-.26-.64-.78-2-1-2.69-.26.66-.8,2.06-1.05,2.69Z"/><path class="cls-2" d="M335.22,77.26h-1.1l-.26-.72c-.15-.4-.08-.17-.21-.57,0-.08-.29,0-.37,0h-1.57s-.33,0-.34,0c-.15.42-.23.61-.23.61-.07.22-.25.68-.25.68h-.78a3.85,3.85,0,0,0,.91-1.59c.56-1.27,1.1-2.55,1.64-3.83l0-.06c.17.39.33.76.48,1.13l1.41,3.42a2.48,2.48,0,0,0,.2.44,4,4,0,0,0,.43.49m-1.68-1.59c-.26-.64-.78-2-1-2.69-.26.66-.8,2.06-1.05,2.69Z"/><path class="cls-2" d="M324.53,72.18a10.69,10.69,0,0,1,2.19.1,1.2,1.2,0,0,1,1,1.19,1.22,1.22,0,0,1-.87,1.28,2.91,2.91,0,0,1-1.13.14h-.27v.18c0,.6,0,1.21,0,1.81a1.64,1.64,0,0,0,.12.4h-1a2.6,2.6,0,0,0,.15-1.1c0-1.12,0-2.24,0-3.37a1,1,0,0,0-.22-.63m.92,2.36a2,2,0,0,0,1-.09.82.82,0,0,0,.54-.64,1.85,1.85,0,0,0,0-.47.86.86,0,0,0-.63-.81,2,2,0,0,0-.9,0Z"/><path class="cls-2" d="M314.5,72.67v.72c-.23-.36-.6-.89-1-.94a1,1,0,0,0-1,.48.71.71,0,0,0,.19,1,8.35,8.35,0,0,0,.77.43c.2.11.41.21.6.33a1.31,1.31,0,0,1,.62,1.3,1.36,1.36,0,0,1-.87,1.22,2.82,2.82,0,0,1-1.9.07l-.29-.08v-.85c0,.06.06.11.09.16a1.38,1.38,0,0,0,1.08.57,1.23,1.23,0,0,0,.71-.11,1,1,0,0,0,.21-1.54,4.3,4.3,0,0,0-.85-.52l-.52-.28a1.39,1.39,0,0,1-.24-2.22,2.17,2.17,0,0,1,1.63-.21,1.4,1.4,0,0,1,.79.51"/><polygon class="cls-2" points="289.65 84.96 289.65 83.22 288.77 83.22 288.77 84.96 288.14 84.96 288.14 81.02 288.77 81.02 288.77 82.66 289.65 82.66 289.65 81.02 290.29 81.02 290.29 84.96 289.65 84.96"/><polygon class="cls-2" points="300.41 81.5 300.41 84.96 299.78 84.96 299.78 81.5 298.81 81.5 299.06 81.02 301.39 81.02 301.14 81.5 300.41 81.5"/><polygon class="cls-2" points="304.75 84.96 304.75 81.02 306.7 81.02 306.45 81.58 305.37 81.58 305.37 82.72 306.38 82.72 306.13 83.18 305.37 83.18 305.37 84.5 306.7 84.5 306.45 84.96 304.75 84.96"/><polygon class="cls-2" points="310.06 84.96 310.06 81.02 310.69 81.02 310.69 84.5 312.19 84.5 311.94 84.96 310.06 84.96"/><path class="cls-2" d="M295.14,80.85h-.64a.8.8,0,0,0-.8.8v2.51a.8.8,0,0,0,.8.8h.64a.8.8,0,0,0,.8-.8V81.65a.8.8,0,0,0-.8-.8m.2,3.28a.41.41,0,0,1-.41.41h-.22a.41.41,0,0,1-.41-.41V81.68a.41.41,0,0,1,.41-.41h.22a.41.41,0,0,1,.41.41Z"/></g><g class="cls-4"><path class="cls-2" d="M49.29,125.59c-.54-.56-1.07-1.15-1.64-1.68-.33-.32-.38-.46,0-.84a37.88,37.88,0,0,0,3.64-3.75c.17-.21.26-.11.37,0,.6.58,1.18,1.17,1.77,1.76.23.23,0,.29-.14.44-1.22,1.18-2.43,2.39-3.62,3.6a1.76,1.76,0,0,0-.25.47Z"/><path class="cls-2" d="M58,125.59a.65.65,0,0,0-.25-.59c-1.22-1.15-2.31-2.43-3.6-3.5-.26-.22-.14-.32,0-.47.52-.52,1.05-1,1.56-1.57.24-.24.34-.23.61.06,1.16,1.24,2.34,2.46,3.6,3.6.4.37.27.47,0,.73a17.06,17.06,0,0,0-1.66,1.74Z"/><path class="cls-2" d="M129.4,125.59a15.13,15.13,0,0,0-1.7-1.79c-.25-.26-.32-.34,0-.67,1.27-1.17,2.47-2.4,3.64-3.66.26-.28.34-.25.55,0l1.61,1.62c.15.15.2.22,0,.44-1.24,1.16-2.43,2.38-3.65,3.57a.61.61,0,0,0-.19.54Z"/><path class="cls-2" d="M76,125.59a16.83,16.83,0,0,0-1.74-1.84c-.22-.23-.27-.3,0-.59,1.26-1.17,2.48-2.4,3.66-3.65.26-.28.36-.31.6-.06.5.51,1,1,1.52,1.52.19.19.28.27,0,.54-1.23,1.15-2.4,2.36-3.59,3.54a.58.58,0,0,0-.2.54Z"/><path class="cls-2" d="M102.74,125.59,101,123.77c-.22-.22-.28-.31,0-.6a40.86,40.86,0,0,0,3.74-3.82c.2-.24.29-.13.41,0,.58.57,1.14,1.14,1.71,1.72.17.17.15.22-.07.42-1.25,1.18-2.46,2.42-3.67,3.64a1.71,1.71,0,0,0-.23.47Z"/><path class="cls-2" d="M125,125.59a2.15,2.15,0,0,0-.69-.89c-1.12-1.06-2.1-2.26-3.32-3.22-.24-.19-.12-.29,0-.41l1.66-1.67c.2-.2.27-.16.49.07,1.2,1.27,2.42,2.52,3.7,3.71.3.28.27.35,0,.58a21.73,21.73,0,0,0-1.76,1.83Z"/><path class="cls-2" d="M138.28,125.59A2,2,0,0,0,138,125c-1.1-1.09-2.19-2.19-3.28-3.28-.16-.15-.35-.26-.63-.47l2-1.92c.15-.14.23-.11.41.08,1.23,1.29,2.48,2.57,3.78,3.8.27.25.19.32,0,.49l-1.82,1.87Z"/><path class="cls-2" d="M4.59,125.59c0-.31-.15-.49-.35-.68-1.16-1.15-2.31-2.31-3.48-3.44-.19-.18-.19-.26,0-.42l1.67-1.66c.17-.17.29-.14.48.06,1.24,1.28,2.5,2.55,3.79,3.79.29.27.1.36,0,.52a25.34,25.34,0,0,0-1.76,1.83Z"/><path class="cls-2" d="M71.51,125.59a2.27,2.27,0,0,0-.45-.66c-1.2-1.14-2.28-2.41-3.56-3.47-.24-.21-.08-.3,0-.42l1.61-1.62c.18-.17.27-.23.52,0,1.21,1.29,2.46,2.55,3.75,3.76.29.28.18.36,0,.55l-1.77,1.83Z"/><path class="cls-2" d="M9.17,125.59a19.5,19.5,0,0,0-1.66-1.74c-.27-.27-.39-.38,0-.74,1.26-1.15,2.44-2.37,3.61-3.61.27-.29.39-.25.62,0q.72.75,1.47,1.47c.22.22.28.32,0,.6-1.23,1.14-2.4,2.35-3.58,3.54a3.64,3.64,0,0,0-.31.51Z"/><path class="cls-2" d="M84.83,125.59a1.56,1.56,0,0,0-.47-.71c-1.19-1.12-2.23-2.39-3.52-3.4-.25-.19,0-.32,0-.43.53-.55,1.07-1.09,1.61-1.63.18-.17.27-.21.51,0,1.2,1.27,2.43,2.52,3.7,3.72.28.26.29.34,0,.59-.6.59-1.19,1.21-1.78,1.82Z"/><path class="cls-2" d="M62.62,125.59a20.26,20.26,0,0,0-1.76-1.83c-.23-.24-.25-.32,0-.59,1.26-1.18,2.48-2.39,3.65-3.65.31-.34.41-.27.65,0,.49.49,1,1,1.47,1.47.23.22.26.31,0,.58-1.23,1.14-2.39,2.35-3.57,3.54a2.4,2.4,0,0,0-.31.51Z"/><path class="cls-2" d="M18.06,125.59a2.4,2.4,0,0,0-.54-.76c-1.16-1.12-2.29-2.26-3.46-3.37-.21-.2-.11-.29,0-.42l1.61-1.62c.18-.18.29-.21.53,0,1.22,1.27,2.46,2.53,3.74,3.75.29.27.18.36,0,.55l-1.77,1.83Z"/><path class="cls-2" d="M-4.16,125.59c-.59-.61-1.17-1.23-1.77-1.83-.21-.22-.24-.31,0-.56,1.26-1.21,2.5-2.45,3.7-3.72.26-.26.38-.23.59,0,.51.51,1,1,1.52,1.52.23.22.22.32,0,.56-1.2,1.14-2.36,2.32-3.53,3.5a2.65,2.65,0,0,0-.35.56Z"/><path class="cls-2" d="M116.07,125.59a20.31,20.31,0,0,0-1.76-1.83c-.21-.23-.28-.3,0-.59q1.92-1.78,3.7-3.71c.27-.3.36-.21.54,0,.53.52,1,1.06,1.58,1.57.24.24.16.3-.08.53-1.23,1.17-2.43,2.39-3.62,3.6a2,2,0,0,0-.26.46Z"/><path class="cls-2" d="M22.63,125.59l-1.82-1.79c-.25-.25-.25-.4.05-.69q1.84-1.76,3.61-3.62c.23-.24.34-.29.57-.06.52.53,1,1,1.57,1.57.2.2.19.28-.05.5-1.2,1.15-2.36,2.33-3.54,3.5a.7.7,0,0,0-.25.59Z"/><path class="cls-2" d="M31.38,125.59a1.61,1.61,0,0,0-.43-.67c-1.15-1.12-2.28-2.27-3.45-3.38-.21-.2-.18-.32,0-.48l1.61-1.62c.16-.16.25-.21.47,0,1.24,1.29,2.5,2.56,3.79,3.79.3.29.07.37-.06.51-.58.62-1.18,1.22-1.77,1.83Z"/><path class="cls-2" d="M111.49,125.59c.05-.32-.16-.49-.35-.68-1.21-1.13-2.26-2.42-3.57-3.45-.2-.16-.09-.27,0-.38l1.71-1.71c.15-.15.25-.16.42,0a37.4,37.4,0,0,0,3.88,3.88c.3.25,0,.34-.1.45a25.37,25.37,0,0,0-1.74,1.85Z"/><path class="cls-2" d="M44.71,125.59a.75.75,0,0,0-.32-.63c-1.19-1.15-2.27-2.41-3.55-3.47-.26-.21-.12-.33,0-.47l1.56-1.57c.18-.18.28-.23.52,0,1.2,1.27,2.42,2.52,3.68,3.72.28.27.28.38,0,.61l-1.81,1.79Z"/><path class="cls-2" d="M98.16,125.59a.74.74,0,0,0-.28-.58c-1.21-1.17-2.31-2.44-3.6-3.52-.22-.18-.16-.28,0-.42.55-.56,1.1-1.11,1.66-1.66.12-.13.21-.22.41,0a53.64,53.64,0,0,0,3.84,3.85c.31.29,0,.38-.08.51-.59.61-1.19,1.21-1.79,1.82Z"/><path class="cls-2" d="M151.61,125.59a.9.9,0,0,0-.39-.67c-1.19-1.15-2.26-2.42-3.55-3.46-.21-.16-.09-.27,0-.37l1.71-1.72c.15-.15.22-.13.4.06,1.23,1.29,2.49,2.57,3.79,3.8.28.27.16.34,0,.49-.61.63-1.23,1.25-1.84,1.87Z"/><path class="cls-2" d="M142.86,125.59,141,123.72c-.21-.2-.24-.27,0-.53,1.26-1.18,2.48-2.41,3.66-3.67.25-.26.33-.33.58-.07.5.52,1,1,1.52,1.53.18.18.29.25,0,.53-1.25,1.15-2.43,2.39-3.64,3.59a.64.64,0,0,0-.17.49Z"/><path class="cls-2" d="M89.41,125.59c-.59-.61-1.18-1.22-1.78-1.82-.22-.22-.28-.31,0-.59,1.26-1.18,2.47-2.42,3.66-3.67.22-.23.31-.31.54-.07.52.54,1,1.06,1.57,1.58.2.2.17.27-.06.49-1.23,1.15-2.4,2.36-3.59,3.54a.71.71,0,0,0-.22.54Z"/><path class="cls-2" d="M36,125.59c-.56-.58-1.11-1.16-1.68-1.73-.26-.26-.4-.38,0-.75,1.25-1.15,2.44-2.38,3.61-3.61.21-.21.29-.29.51-.07.51.53,1,1,1.56,1.57.21.21.18.29-.05.51-1.2,1.14-2.36,2.33-3.54,3.49a.79.79,0,0,0-.26.59Z"/><path class="cls-2" d="M129.48,112.42c.12,0,.14.08.2.15a49,49,0,0,0,3.89,3.87c.22.19.12.29,0,.42l-1.7,1.71c-.14.14-.23.2-.42,0a32,32,0,0,0-3.85-3.87c-.17-.14-.21-.21-.07-.36l1.81-1.8s.11-.07.15-.1"/><path class="cls-2" d="M125,112.42a1.25,1.25,0,0,1,.19.15c.58.57,1.15,1.14,1.72,1.72.15.15.16.22,0,.4a33,33,0,0,0-3.83,3.83c-.22.27-.3.17-.45,0-.56-.55-1.11-1.11-1.66-1.67-.15-.15-.22-.24,0-.46,1.34-1.19,2.58-2.48,3.81-3.79.07-.07.07-.21.24-.2"/><path class="cls-2" d="M102.82,105.82c.11,0,.14.08.2.14a46.06,46.06,0,0,0,3.89,3.89c.18.15.16.25,0,.38L105.19,112c-.15.14-.24.15-.41-.06A35.6,35.6,0,0,0,101,108.1c-.14-.13-.25-.19-.1-.35l1.86-1.86a1.05,1.05,0,0,1,.11-.07"/><path class="cls-2" d="M76.16,105.79a1.46,1.46,0,0,0,.16.19,38.57,38.57,0,0,0,3.82,3.85c.23.21.2.28,0,.44l-1.67,1.67c-.14.14-.22.23-.44,0a52.4,52.4,0,0,0-3.79-3.81c-.15-.14-.29-.22-.11-.4.59-.61,1.2-1.21,1.8-1.8a.7.7,0,0,1,.2-.12"/><path class="cls-2" d="M40.22,101c0,.14-.09.16-.15.21-1.33,1.23-2.63,2.5-3.84,3.86-.21.24-.33.14-.48,0l-1.61-1.62c-.12-.13-.26-.21,0-.43a37.29,37.29,0,0,0,3.88-4c.13-.16.23-.11.33,0l1.81,1.81a.49.49,0,0,1,.09.15"/><path class="cls-2" d="M49.42,105.8l.14.16a54.77,54.77,0,0,0,3.89,3.88c.24.22.12.33,0,.48-.53.54-1.06,1.08-1.61,1.62-.13.13-.25.31-.47,0a41.08,41.08,0,0,0-3.74-3.84c-.22-.21-.26-.31-.06-.51L49.2,106a2.09,2.09,0,0,1,.22-.16"/><path class="cls-2" d="M73.94,114.4c.62-.6,1.26-1.21,1.9-1.84.19-.19.25-.12.44.07,1.22,1.28,2.46,2.53,3.74,3.75.21.21.3.29.09.5l-1.66,1.66c-.17.17-.26.19-.46,0-1.24-1.43-2.62-2.73-4-4.1"/><path class="cls-2" d="M133.77,110.05a2.07,2.07,0,0,1-.19.25c-.53.54-1.08,1.07-1.6,1.62-.25.26-.31.14-.53-.08-1.2-1.27-2.42-2.51-3.7-3.7-.29-.27-.24-.35,0-.54l1.61-1.62c.15-.14.24-.26.46,0a46.61,46.61,0,0,0,3.75,3.82c.07.08.2.1.24.24"/><path class="cls-2" d="M151.72,112.37a3.2,3.2,0,0,1,.27.22l1.61,1.62c.13.13.29.24,0,.46a37.5,37.5,0,0,0-3.88,3.89c-.21.24-.29.09-.4,0-.56-.55-1.11-1.11-1.66-1.67-.13-.13-.25-.23,0-.43a36.27,36.27,0,0,0,3.9-3.94l.16-.13"/><path class="cls-2" d="M18.15,105.84l.18.15,1.57,1.58c.16.16.29.28,0,.53A35.6,35.6,0,0,0,16.14,112c-.18.23-.32.09-.44,0L14,110.29c-.16-.17-.17-.28,0-.48,1.29-1.25,2.55-2.53,3.81-3.8.07-.07.09-.2.27-.17"/><path class="cls-2" d="M71.57,105.83a1.83,1.83,0,0,1,.26.21c.51.5,1,1,1.52,1.52.17.18.3.28,0,.56a42.24,42.24,0,0,0-3.76,3.81c-.22.26-.33.14-.47,0l-1.61-1.62c-.18-.18-.21-.27,0-.51,1.3-1.23,2.54-2.52,3.8-3.79.06,0,0-.18.23-.17"/><path class="cls-2" d="M69.42,98.88c1.35,1.41,2.63,2.77,4,4.09.24.24.23.33.05.51-.53.55-1.07,1.09-1.61,1.62-.19.19-.28.19-.51,0q-1.83-1.92-3.74-3.76c-.19-.18-.28-.25-.08-.44l1.93-2"/><path class="cls-2" d="M82.67,99.05c.18,0,.21.08.29.16A47.85,47.85,0,0,0,86.81,103c.22.19.15.28,0,.42-.55.56-1.11,1.11-1.66,1.66-.19.2-.28.18-.5-.06-1.22-1.28-2.47-2.54-3.75-3.75-.24-.24-.22-.31,0-.5l1.57-1.56a2.84,2.84,0,0,1,.23-.19"/><path class="cls-2" d="M54,116.64c0-.12.1-.15.17-.21q2-1.83,3.83-3.84c.18-.2.26-.19.41,0l1.7,1.71c.15.15.14.26,0,.43a44.65,44.65,0,0,0-3.82,3.84c-.12.15-.21.23-.37.08-.6-.6-1.2-1.2-1.79-1.81,0,0-.06-.12-.08-.16"/><path class="cls-2" d="M51.57,99c.07.06.19.13.28.22.51.5,1,1,1.52,1.52.23.22.22.3,0,.54q-1.9,1.8-3.71,3.72c-.26.28-.36.22-.56,0L47.5,103.5c-.14-.14-.3-.26,0-.48a52.4,52.4,0,0,0,3.83-3.77c.08-.07.1-.2.28-.21"/><path class="cls-2" d="M100.76,103.25c0-.11.06-.15.13-.2a40.7,40.7,0,0,0,3.88-3.89c.19-.21.3-.12.44,0l1.66,1.66c.17.17.19.24,0,.45a52.4,52.4,0,0,0-3.79,3.81c-.17.18-.26.24-.41.09-.61-.6-1.21-1.21-1.8-1.81a.47.47,0,0,1-.07-.12"/><path class="cls-2" d="M111.65,112.41a19.55,19.55,0,0,1,2,2c0,.11-.06.15-.13.21a36.44,36.44,0,0,0-3.87,3.89c-.21.24-.3.11-.42,0-.56-.55-1.12-1.1-1.67-1.66-.15-.16-.2-.25,0-.47,1.33-1.19,2.58-2.48,3.81-3.78.07-.08,0-.23.21-.22"/><path class="cls-2" d="M15.9,99.06c.18,0,.22.12.29.19,1.25,1.28,2.45,2.61,3.82,3.76.24.21.14.33,0,.48l-1.56,1.57c-.25.25-.36.21-.62-.06-1.2-1.27-2.44-2.49-3.7-3.71-.19-.18-.26-.26-.07-.45l1.62-1.61a1,1,0,0,1,.23-.17"/><path class="cls-2" d="M26.8,116.67a.65.65,0,0,1-.11.19L25,118.57c-.16.16-.26.15-.42,0a49,49,0,0,0-3.72-3.77c-.3-.29-.24-.4,0-.62.51-.5,1-1,1.52-1.52.19-.19.27-.22.5,0,1.22,1.28,2.49,2.51,3.74,3.76.08.07.21.08.22.27"/><path class="cls-2" d="M136.28,99a.79.79,0,0,0,.1.21,41.79,41.79,0,0,0,3.89,3.87c.23.2.11.29,0,.41l-1.66,1.67c-.19.18-.27.19-.5-.06a50.19,50.19,0,0,0-3.78-3.8c-.14-.12-.26-.17-.1-.34L136,99.11a2.18,2.18,0,0,1,.27-.15"/><path class="cls-2" d="M125,105.79c.08.07.16.12.22.18l1.66,1.67c.15.16.2.24,0,.46a39.56,39.56,0,0,0-3.82,3.84c-.18.22-.26.17-.41,0-.57-.57-1.14-1.14-1.7-1.72-.12-.11-.21-.24,0-.39a37.11,37.11,0,0,0,4-4,1.12,1.12,0,0,1,.16-.1"/><path class="cls-2" d="M.57,116.66c0-.15.12-.18.2-.26,1.25-1.25,2.51-2.49,3.75-3.76.18-.19.26-.27.46-.07l1.61,1.62c.25.24.13.35-.09.57C5.25,116,4,117.16,2.82,118.49c-.14.17-.24.28-.42.1-.59-.58-1.17-1.17-1.75-1.77a.35.35,0,0,1-.08-.16"/><path class="cls-2" d="M-4.07,105.84c.15,0,.16.13.24.2,1.25,1.25,2.48,2.52,3.76,3.74.27.25.22.38,0,.58l-1.56,1.57c-.18.18-.27.18-.47,0-1.25-1.28-2.52-2.54-3.8-3.8-.13-.13-.23-.25-.1-.38.59-.62,1.2-1.21,1.8-1.82a.39.39,0,0,1,.11-.06"/><path class="cls-2" d="M94.11,116.67c0-.14.09-.17.17-.25,1.33-1.23,2.62-2.5,3.82-3.85.2-.22.28-.14.41,0,.56.55,1.11,1.11,1.66,1.67.15.15.23.24,0,.46a49.69,49.69,0,0,0-3.84,3.84c-.1.11-.16.24-.29.11-.63-.61-1.24-1.23-1.85-1.85a.45.45,0,0,1-.06-.12"/><path class="cls-2" d="M6.74,107.81c0,.21-.13.23-.22.32-1.25,1.25-2.51,2.49-3.74,3.77-.2.21-.29.2-.46,0L.75,110.35c-.2-.2-.24-.32,0-.57,1.27-1.23,2.51-2.49,3.75-3.76.15-.16.23-.26.41-.08l1.71,1.72s.06.11.09.15"/><path class="cls-2" d="M89.38,112.42c.14,0,.15.09.2.15,1.23,1.34,2.5,2.63,3.85,3.84.24.22.18.32,0,.47-.54.56-1.1,1.11-1.65,1.67-.18.18-.25.16-.45-.06-1.22-1.28-2.47-2.53-3.73-3.76-.16-.16-.36-.23-.14-.45.57-.59,1.16-1.17,1.75-1.76a1,1,0,0,1,.15-.1"/><path class="cls-2" d="M147.05,116.67a.89.89,0,0,1-.09.16l-1.76,1.75c-.12.11-.19.18-.36,0a38.51,38.51,0,0,0-3.88-3.89c-.21-.19-.16-.28,0-.42q.84-.86,1.71-1.71c.13-.14.2-.2.4,0a51.4,51.4,0,0,0,3.82,3.85c.08.07.2.1.18.25"/><path class="cls-2" d="M149.53,99c.11,0,.15.07.21.14a40.38,40.38,0,0,0,3.84,3.9c.19.18.21.24,0,.4l-1.71,1.71c-.16.16-.24.19-.44,0a43.26,43.26,0,0,0-3.83-3.83c-.22-.19-.16-.27,0-.4.58-.59,1.17-1.17,1.75-1.75a1.67,1.67,0,0,1,.16-.12"/><path class="cls-2" d="M116.19,105.82c.15,0,.14.12.2.18,1.2,1.33,2.48,2.59,3.79,3.81.2.18.28.26.09.45L118.56,112c-.14.15-.21.17-.4,0a46.5,46.5,0,0,0-3.84-3.85c-.16-.14-.2-.24-.08-.37l1.81-1.81a.8.8,0,0,1,.14-.09"/><path class="cls-2" d="M9.24,105.84c.16,0,.19.11.26.18,1.26,1.27,2.51,2.54,3.8,3.79.2.19.22.3,0,.48L11.65,112c-.15.14-.22.1-.37-.06q-1.81-2-3.83-3.84c-.23-.21-.17-.33,0-.48.54-.56,1.1-1.11,1.65-1.66.05,0,.11-.08.15-.12"/><path class="cls-2" d="M111.67,105.82a1.74,1.74,0,0,1,.22.19c.53.52,1,1,1.57,1.57.19.19.26.27,0,.55-1.28,1.18-2.5,2.43-3.71,3.69-.21.22-.28.35-.53.09-.51-.54-1-1-1.56-1.58-.18-.18-.27-.27,0-.55,1.29-1.21,2.51-2.49,3.76-3.74.07-.07,0-.23.25-.22"/><path class="cls-2" d="M40.14,116.71s-.07.11-.13.18l-1.66,1.66c-.14.14-.23.19-.42,0a49.69,49.69,0,0,0-3.84-3.84c-.24-.22-.13-.34,0-.49l1.61-1.62c.17-.17.25-.19.46,0,1.25,1.29,2.52,2.54,3.8,3.8.07.08.19.11.17.3"/><path class="cls-2" d="M62.72,105.83c.14,0,.15.09.21.15q1.83,2,3.83,3.84c.23.21.2.31,0,.47L65.14,112c-.18.18-.25.14-.44-.06-1.24-1.29-2.51-2.55-3.79-3.79-.18-.17-.24-.27-.09-.42l1.75-1.76a1,1,0,0,1,.15-.1"/><path class="cls-2" d="M40.67,116.68c0-.16.1-.19.18-.26,1.27-1.26,2.55-2.52,3.79-3.81.21-.22.29-.19.45,0l1.62,1.62c.18.19.2.29,0,.52-1.28,1.22-2.52,2.48-3.77,3.74-.12.13-.17.34-.38.13-.59-.58-1.18-1.17-1.76-1.76a.4.4,0,0,1-.09-.15"/><path class="cls-2" d="M29.25,99.06c.2,0,.22.15.3.24,1.25,1.25,2.49,2.5,3.77,3.73.22.21.19.29,0,.46-.54.53-1.07,1.07-1.61,1.61-.19.18-.29.2-.52,0-1.22-1.28-2.48-2.52-3.73-3.76-.13-.13-.35-.18-.14-.4.58-.59,1.17-1.17,1.76-1.75a.4.4,0,0,1,.15-.09"/><path class="cls-2" d="M58.25,105.83l.23.21c.49.49,1,1,1.48,1.47.29.28.26.39-.07.7-1.26,1.18-2.47,2.41-3.65,3.67-.24.26-.32.2-.49,0l-1.57-1.57c-.15-.16-.28-.26,0-.52,1.3-1.24,2.55-2.53,3.81-3.8.08-.07.09-.21.27-.18"/><path class="cls-2" d="M26.89,110.06c-.06.07-.12.16-.2.24-.53.54-1.07,1.08-1.61,1.61-.13.13-.22.29-.46,0a50.6,50.6,0,0,0-3.87-3.88c-.22-.19-.1-.31,0-.43.54-.56,1.1-1.12,1.65-1.67.16-.15.27-.21.47,0a45,45,0,0,0,3.75,3.82c.07.07.2.09.24.24"/><path class="cls-2" d="M122.86,99l.16.18a44.77,44.77,0,0,0,3.82,3.85c.25.21.16.31,0,.46-.53.55-1.06,1.1-1.6,1.63-.16.17-.24.24-.49,0-1.21-1.29-2.47-2.54-3.74-3.77-.17-.16-.32-.21-.1-.43l1.75-1.76.19-.13"/><path class="cls-2" d="M-6.1,103.22c1.3-1.3,2.6-2.57,3.86-3.88.28-.29.41-.32.67,0,.49.5,1,1,1.48,1.47.21.21.24.31,0,.56Q-2,103.11-3.78,105c-.29.31-.42.3-.67,0a17.7,17.7,0,0,1-1.65-1.8"/><path class="cls-2" d="M118.31,99c.09.08.18.14.26.22.54.54,1.07,1.08,1.62,1.62.24.23.16.3-.08.52-1.27,1.21-2.51,2.44-3.69,3.72-.28.3-.37.21-.55,0l-1.54-1.59c-.14-.14-.28-.25,0-.47a39.48,39.48,0,0,0,3.86-3.9l.15-.15"/><path class="cls-2" d="M138.36,105.81a1.28,1.28,0,0,1,.23.19l1.62,1.62c.24.23.18.27-.08.51-1.27,1.19-2.51,2.43-3.69,3.72-.27.29-.32.24-.52,0l-1.61-1.62c-.13-.14-.27-.21,0-.45a49.82,49.82,0,0,0,3.84-3.85c0-.06.07-.15.21-.16"/><path class="cls-2" d="M87.42,103.27c0-.16.12-.16.19-.23,1.2-1.18,2.47-2.29,3.54-3.57.54-.64.7-.32,1,0s.89.89,1.33,1.33c.15.16.22.24,0,.45a41.08,41.08,0,0,0-3.79,3.79c-.15.16-.22.28-.4.11-.61-.59-1.2-1.2-1.8-1.8a.67.67,0,0,1-.07-.11"/><path class="cls-2" d="M62.66,105.23a2.9,2.9,0,0,1-.22-.19c-.51-.51-1-1-1.52-1.53-.14-.15-.33-.26,0-.52a39.67,39.67,0,0,0,3.81-3.86c.2-.23.29-.09.41,0l1.66,1.67c.16.16.2.23,0,.45-1.29,1.23-2.54,2.51-3.8,3.78-.07.08-.08.21-.27.17"/><path class="cls-2" d="M102.8,112.39a.88.88,0,0,1,.15.12,36.18,36.18,0,0,0,3.89,3.94c.21.19.08.31,0,.44l-1.66,1.66c-.18.19-.25.14-.44-.07a36.26,36.26,0,0,0-3.83-3.81c-.18-.15-.17-.25-.05-.38q.89-.9,1.8-1.8a.45.45,0,0,1,.18-.1"/><path class="cls-2" d="M7.27,103.26a1.13,1.13,0,0,1,.15-.21c1.33-1.23,2.57-2.54,3.8-3.87.22-.23.36-.08.5.06.52.52,1,1,1.57,1.57.15.15.23.24,0,.46q-1.93,1.86-3.79,3.8c-.18.19-.27.19-.42,0l-1.61-1.62c-.06-.06-.11-.14-.19-.23"/><path class="cls-2" d="M80.71,116.64c0-.11.07-.14.14-.2a33.85,33.85,0,0,0,3.87-3.89c.19-.23.29-.13.42,0,.58.57,1.15,1.14,1.71,1.72.14.14.18.23,0,.42A35.7,35.7,0,0,0,83,118.51c-.13.14-.18.25-.34.1l-1.85-1.86a.41.41,0,0,1-.07-.11"/><path class="cls-2" d="M151.73,105.8l.23.18c.54.54,1.07,1.08,1.62,1.62.22.22.18.28-.08.52q-1.92,1.78-3.7,3.71c-.23.24-.27.32-.51.08-.54-.56-1.1-1.11-1.66-1.66-.17-.18-.17-.24.06-.44a48.4,48.4,0,0,0,3.79-3.79c.07-.07.07-.21.25-.22"/><path class="cls-2" d="M-4.12,112.41a.31.31,0,0,1,.22.16A30.11,30.11,0,0,0,0,116.44c.2.16.13.25,0,.36l-1.75,1.76c-.17.16-.23.12-.4-.07a33.82,33.82,0,0,0-3.78-3.79c-.17-.15-.3-.24-.13-.4.58-.62,1.19-1.21,1.8-1.81,0,0,.12-.06.16-.08"/><path class="cls-2" d="M134.13,116.61a.88.88,0,0,1,.12-.15,45.6,45.6,0,0,0,3.47-3.34,1.57,1.57,0,0,0,.42-.51c.14-.31.28-.23.44-.06l1.71,1.71c.12.13.21.22,0,.41a33.68,33.68,0,0,0-3.87,3.87c-.15.18-.22.18-.35,0l-1.8-1.8a.81.81,0,0,1-.12-.18"/><path class="cls-2" d="M98.3,105.81a1.59,1.59,0,0,1,.22.18l1.62,1.61c.16.17.25.26,0,.5a38.54,38.54,0,0,0-3.78,3.78c-.2.23-.26.24-.43.06l-1.71-1.7c-.13-.14-.21-.22,0-.41A34.49,34.49,0,0,0,98.06,106c.06-.07.09-.15.24-.15"/><path class="cls-2" d="M109.51,99c0,.07.11.13.16.19a36.45,36.45,0,0,0,3.8,3.86c.23.21.19.3,0,.46-.55.56-1.11,1.11-1.66,1.66-.14.14-.23.19-.42,0a47.72,47.72,0,0,0-3.82-3.84c-.15-.14-.21-.23-.08-.36.59-.62,1.19-1.22,1.79-1.82a2.05,2.05,0,0,1,.2-.12"/><path class="cls-2" d="M33.53,114.46c0,.11-.09.15-.16.21a32.07,32.07,0,0,0-3.86,3.87c-.21.24-.29.1-.41,0-.53-.52-1-1-1.57-1.56-.24-.24-.22-.36,0-.62a41.23,41.23,0,0,0,3.69-3.79c.14-.17.24-.2.37-.07l1.81,1.81a.48.48,0,0,1,.08.16"/><path class="cls-2" d="M140.85,103.24c0-.15.12-.14.18-.2,1.2-1.17,2.46-2.3,3.56-3.56.51-.58.68-.4,1,0s1,1,1.49,1.55c-.49.47-1,.92-1.46,1.41a24.56,24.56,0,0,0-2.58,2.72.19.19,0,0,1-.33,0c-.61-.6-1.21-1.21-1.81-1.81a.65.65,0,0,1-.09-.15"/><path class="cls-2" d="M46.84,103.3a2,2,0,0,1-.15.18l-1.61,1.62c-.24.24-.31.14-.54-.11a39.91,39.91,0,0,0-3.75-3.72c-.25-.22-.19-.28,0-.44.57-.57,1.13-1.14,1.71-1.71.1-.1.2-.23.37,0A45.74,45.74,0,0,0,46.65,103c.07.08.21.09.19.27"/><path class="cls-2" d="M44.78,105.81a14.65,14.65,0,0,1,2.07,2c0,.19-.13.19-.22.27a42.36,42.36,0,0,0-3.77,3.81c-.18.2-.24.2-.39.06-.58-.57-1.14-1.15-1.71-1.72a.24.24,0,0,1,0-.4,35.48,35.48,0,0,0,3.89-4s.11-.06.13-.08"/><path class="cls-2" d="M49.29,112.42c.14,0,.18,0,.23.12a39.68,39.68,0,0,0,3.8,3.87c.22.21.18.32,0,.48l-1.66,1.67c-.13.13-.2.18-.39,0a34.72,34.72,0,0,0-3.83-3.84c-.2-.17-.21-.26-.07-.41l1.76-1.76a.46.46,0,0,1,.14-.09"/><path class="cls-2" d="M94,101a1.47,1.47,0,0,1,.18-.23c.53-.54,1.07-1.07,1.61-1.61.21-.21.26-.23.52,0,1.18,1.28,2.43,2.51,3.69,3.72.22.22.34.29.08.54-.54.51-1.05,1-1.57,1.56-.19.18-.27.28-.54,0a39.88,39.88,0,0,0-3.79-3.79c-.06,0-.18,0-.18-.21"/><path class="cls-2" d="M74.07,103.25c0-.17.14-.17.22-.24a46.27,46.27,0,0,0,3.79-3.88c.16-.2.25-.14.36,0l1.71,1.71c.13.14.18.24,0,.43a49.69,49.69,0,0,0-3.83,3.85c-.14.16-.23.2-.37.06-.59-.58-1.17-1.17-1.76-1.76a1.19,1.19,0,0,1-.09-.15"/><path class="cls-2" d="M131.68,99l.27.21,1.57,1.57c.23.24.22.32-.06.59q-1.91,1.8-3.69,3.72c-.24.27-.31.21-.49,0l-.05,0-1.69-1.72c.52-.55,1-1.09,1.56-1.64a28.19,28.19,0,0,0,2.44-2.57.92.92,0,0,1,.14-.15"/><path class="cls-2" d="M6.84,103.11a2.94,2.94,0,0,1-.26.37L5,105.05c-.19.2-.29.21-.51,0-1.21-1.26-2.45-2.5-3.7-3.71-.22-.21-.27-.3-.06-.51.52-.5,1-1,1.52-1.52.23-.24.35-.25.63,0A41.57,41.57,0,0,0,6.59,103a1.45,1.45,0,0,0,.25.11"/><path class="cls-2" d="M71.6,112.42l.18.16,1.67,1.66c.24.24.11.29-.1.48a45.77,45.77,0,0,0-3.72,3.78c-.16.19-.22.25-.39.08l-1.76-1.77c-.11-.11-.2-.2,0-.37a42.06,42.06,0,0,0,3.85-3.82c.07-.08.08-.21.26-.2"/><path class="cls-2" d="M24.85,99a2.53,2.53,0,0,1,.27.18l1.52,1.52c.16.17.26.29,0,.53a52.12,52.12,0,0,0-3.77,3.81c-.16.18-.26.21-.43,0l-1.66-1.66c-.1-.11-.21-.21,0-.38,1.36-1.26,2.68-2.56,3.92-3.94a.7.7,0,0,1,.18-.11"/><path class="cls-2" d="M87.42,107.86l.2-.23L89.24,106c.18-.18.24-.23.48,0a40.11,40.11,0,0,0,3.74,3.75c.25.23.25.29.05.48-.55.55-1.1,1.11-1.66,1.66-.16.16-.22.22-.44,0a45.06,45.06,0,0,0-3.77-3.8c-.07-.07-.22-.06-.22-.24"/><path class="cls-2" d="M33.52,107.92a.86.86,0,0,1-.13.14A29,29,0,0,0,29.48,112c-.18.21-.28.05-.38,0l-1.71-1.71c-.21-.2-.11-.25.09-.43A45.88,45.88,0,0,0,31.23,106c.14-.16.18-.3.38-.11l1.81,1.81a1,1,0,0,1,.1.18"/><path class="cls-2" d="M60.61,114.48c.08-.09.14-.18.22-.26l1.61-1.61c.18-.17.24-.25.49,0a37.57,37.57,0,0,0,3.79,3.78c.21.18.2.25,0,.4L65,118.58c-.1.09-.21.19-.34,0a28.36,28.36,0,0,0-3.94-4,.84.84,0,0,1-.13-.17"/><path class="cls-2" d="M116.13,112.41c.16,0,.15.15.22.22a50.45,50.45,0,0,0,3.81,3.79c.19.16.23.22.07.39l-1.76,1.76c-.23.23-.26.05-.41-.12-1.2-1.3-2.44-2.57-3.76-3.75-.14-.13-.33-.17-.13-.37l1.81-1.82a1.3,1.3,0,0,1,.15-.1"/><path class="cls-2" d="M169.56,125.59a15,15,0,0,0-1.69-1.79c-.25-.26-.33-.34,0-.67,1.27-1.17,2.48-2.4,3.65-3.66.26-.28.34-.25.54,0L173.7,121c.16.15.21.22,0,.44-1.24,1.16-2.43,2.38-3.64,3.57a.62.62,0,0,0-.2.54Z"/><path class="cls-2" d="M165.12,125.59a2.21,2.21,0,0,0-.68-.89c-1.12-1.06-2.1-2.26-3.32-3.22-.25-.19-.13-.29,0-.41l1.66-1.67c.2-.2.28-.16.5.07,1.19,1.27,2.42,2.52,3.69,3.71.3.28.27.35.05.58a21.85,21.85,0,0,0-1.77,1.83Z"/><path class="cls-2" d="M178.45,125.59a1.81,1.81,0,0,0-.33-.57c-1.1-1.09-2.18-2.19-3.28-3.28-.15-.15-.35-.26-.62-.47.66-.65,1.31-1.29,2-1.92.15-.14.23-.11.41.08,1.24,1.29,2.49,2.57,3.79,3.8.27.25.18.32,0,.49l-1.83,1.87Z"/><path class="cls-2" d="M156.23,125.59a19,19,0,0,0-1.76-1.83c-.21-.23-.28-.3,0-.59q1.92-1.78,3.7-3.71c.28-.3.36-.21.55,0,.52.52,1,1.06,1.57,1.57.25.24.17.3-.07.53-1.24,1.17-2.43,2.39-3.63,3.6a1.69,1.69,0,0,0-.25.46Z"/><path class="cls-2" d="M191.78,125.59a1,1,0,0,0-.39-.67c-1.2-1.15-2.27-2.42-3.56-3.46-.2-.16-.09-.27,0-.37.56-.58,1.13-1.15,1.7-1.72.15-.15.22-.13.4.06,1.24,1.29,2.49,2.57,3.79,3.8.28.27.16.34,0,.49-.61.63-1.23,1.25-1.84,1.87Z"/><path class="cls-2" d="M183,125.59c-.62-.62-1.23-1.25-1.84-1.87-.2-.2-.23-.27.05-.53,1.26-1.18,2.47-2.41,3.65-3.67.25-.26.34-.33.59-.07.49.52,1,1,1.51,1.53.18.18.29.25,0,.53-1.25,1.15-2.43,2.39-3.64,3.59a.64.64,0,0,0-.17.49Z"/><path class="cls-2" d="M169.64,112.42c.13,0,.15.08.2.15a50.73,50.73,0,0,0,3.89,3.87c.22.19.12.29,0,.42L172,118.57c-.14.14-.23.2-.41,0a32.81,32.81,0,0,0-3.86-3.87c-.16-.14-.21-.21-.06-.36l1.8-1.8a1,1,0,0,1,.15-.1"/><path class="cls-2" d="M165.2,112.42l.19.15,1.71,1.72c.15.15.17.22,0,.4a32.22,32.22,0,0,0-3.83,3.83c-.22.27-.31.17-.46,0l-1.66-1.67c-.15-.15-.22-.24,0-.46,1.34-1.19,2.58-2.48,3.81-3.79.07-.07.07-.21.25-.2"/><path class="cls-2" d="M191.89,112.37c.09.08.18.14.26.22.54.53,1.08,1.07,1.61,1.62.13.13.29.24,0,.46a37.4,37.4,0,0,0-3.87,3.89c-.21.24-.3.09-.41,0-.56-.55-1.11-1.11-1.66-1.67-.12-.13-.25-.23,0-.43a35.39,35.39,0,0,0,3.9-3.94l.17-.13"/><path class="cls-2" d="M187.22,116.67a1,1,0,0,1-.1.16l-1.76,1.75c-.11.11-.19.18-.36,0a38.41,38.41,0,0,0-3.87-3.89c-.21-.19-.17-.28,0-.42l1.71-1.71c.13-.14.2-.2.4,0a49.69,49.69,0,0,0,3.83,3.85c.08.07.19.1.18.25"/><path class="cls-2" d="M174.29,116.61a.93.93,0,0,1,.13-.15,47.4,47.4,0,0,0,3.46-3.34,1.75,1.75,0,0,0,.43-.51c.13-.31.27-.23.44-.06l1.7,1.71c.13.13.21.22,0,.41a33.76,33.76,0,0,0-3.88,3.87c-.15.18-.22.18-.35,0l-1.8-1.8-.12-.18"/><path class="cls-2" d="M156.29,112.41c.17,0,.16.15.22.22a50.45,50.45,0,0,0,3.81,3.79c.19.16.24.22.07.39l-1.75,1.76c-.23.23-.26.05-.42-.12-1.2-1.3-2.43-2.57-3.75-3.75-.15-.13-.34-.17-.13-.37.59-.61,1.2-1.21,1.8-1.82l.15-.1"/><path class="cls-2" d="M36.05,105.83c.16,0,.14.18.21.25A52.92,52.92,0,0,0,40,109.81c.23.2.25.26.07.44-.56.55-1.11,1.11-1.67,1.67-.18.18-.24.21-.47-.06a42.81,42.81,0,0,0-3.75-3.75c-.15-.14-.31-.18-.11-.38l1.8-1.81s.12-.06.16-.09"/><path class="cls-2" d="M142.94,105.8a1,1,0,0,1,.15.13,29.87,29.87,0,0,0,3.56,3.64c.55.51.4.68,0,1.05s-.87.85-1.29,1.28c-.2.19-.25.27-.52,0a44.23,44.23,0,0,0-3.75-3.75c-.15-.14-.32-.18-.12-.38.6-.6,1.2-1.21,1.81-1.81l.17-.12"/><path class="cls-2" d="M173.65,110.05a2,2,0,0,1-.18.25c-.54.54-1.08,1.07-1.61,1.62-.25.26-.31.14-.52-.08-1.2-1.27-2.43-2.51-3.7-3.7-.29-.27-.24-.35,0-.54.54-.54,1.07-1.08,1.62-1.62.14-.14.23-.26.45,0a48.28,48.28,0,0,0,3.75,3.82c.08.08.2.1.24.24"/><path class="cls-2" d="M176.16,99a.85.85,0,0,0,.11.21,41.68,41.68,0,0,0,3.88,3.87c.24.2.11.29,0,.41l-1.66,1.67c-.18.18-.26.19-.49-.06a52.26,52.26,0,0,0-3.79-3.8c-.13-.12-.26-.17-.1-.34l1.8-1.81a1.36,1.36,0,0,1,.26-.15"/><path class="cls-2" d="M164.88,105.79l.22.18,1.65,1.67c.16.16.21.24,0,.46a39.46,39.46,0,0,0-3.81,3.84c-.18.22-.27.17-.41,0l-1.71-1.72c-.11-.11-.21-.24,0-.39a39.06,39.06,0,0,0,4-4s.1-.06.16-.1"/><path class="cls-2" d="M189.41,99c.12,0,.15.07.21.14a41.69,41.69,0,0,0,3.85,3.9c.19.18.2.24.05.4l-1.71,1.71c-.16.16-.24.19-.45,0a41.84,41.84,0,0,0-3.82-3.83c-.23-.19-.16-.27,0-.4.58-.59,1.17-1.17,1.76-1.75a1.58,1.58,0,0,1,.15-.12"/><path class="cls-2" d="M156.08,105.82c.14,0,.14.12.19.18,1.21,1.33,2.48,2.59,3.8,3.81.19.18.28.26.09.45L158.45,112c-.15.15-.22.17-.4,0a48.1,48.1,0,0,0-3.84-3.85c-.16-.14-.21-.24-.08-.37.59-.61,1.2-1.21,1.8-1.81a.85.85,0,0,1,.15-.09"/><path class="cls-2" d="M162.75,99l.16.18a44.77,44.77,0,0,0,3.82,3.85c.24.21.16.31,0,.46-.53.55-1.06,1.1-1.6,1.63-.17.17-.25.24-.5,0-1.2-1.29-2.46-2.54-3.73-3.77-.17-.16-.33-.21-.11-.43l1.76-1.76a1.46,1.46,0,0,1,.19-.13"/><path class="cls-2" d="M158.2,99c.09.08.18.14.26.22l1.61,1.62c.24.23.16.3-.08.52-1.26,1.21-2.51,2.44-3.69,3.72-.28.3-.36.21-.54,0l-1.55-1.59c-.14-.14-.28-.25,0-.47a39.37,39.37,0,0,0,3.85-3.9,1.2,1.2,0,0,1,.16-.15"/><path class="cls-2" d="M178.25,105.81a2.84,2.84,0,0,1,.23.19l1.62,1.62c.23.23.17.27-.08.51-1.28,1.19-2.52,2.43-3.7,3.72-.26.29-.31.24-.51,0l-1.61-1.62c-.14-.14-.28-.21,0-.45A46.5,46.5,0,0,0,178,106c.06-.06.08-.15.22-.16"/><path class="cls-2" d="M191.62,105.8l.23.18,1.61,1.62c.22.22.19.28-.07.52q-1.92,1.78-3.7,3.71c-.23.24-.28.32-.51.08l-1.66-1.66c-.18-.18-.17-.24,0-.44a48.53,48.53,0,0,0,3.8-3.79c.07-.07.06-.21.25-.22"/><path class="cls-2" d="M180.74,103.24c0-.15.12-.14.18-.2,1.2-1.17,2.46-2.3,3.56-3.56.5-.58.67-.4,1,0s1,1,1.49,1.55c-.49.47-1,.92-1.47,1.41a24.47,24.47,0,0,0-2.57,2.72.2.2,0,0,1-.34,0l-1.81-1.81a1.15,1.15,0,0,1-.08-.15"/><path class="cls-2" d="M171.56,99l.28.21,1.56,1.57c.24.24.23.32-.06.59q-1.91,1.8-3.68,3.72c-.25.27-.32.21-.5,0l0,0-1.7-1.72c.52-.55,1.05-1.09,1.56-1.64a25.69,25.69,0,0,0,2.44-2.57l.14-.15"/><path class="cls-2" d="M182.83,105.8s.11.08.15.13a29.79,29.79,0,0,0,3.55,3.64c.55.51.4.68,0,1.05s-.86.85-1.29,1.28c-.19.19-.24.27-.51,0a44.23,44.23,0,0,0-3.75-3.75c-.16-.14-.32-.18-.12-.38l1.8-1.81.18-.12"/><path class="cls-2" d="M18,112.36a2.78,2.78,0,0,1,.32.25L20,114.22c.2.2.2.27,0,.49a38.63,38.63,0,0,0-3.76,3.81c-.19.24-.27.15-.4,0l-1.7-1.71c-.11-.11-.25-.2,0-.37a30.73,30.73,0,0,0,3.91-3.91,1.65,1.65,0,0,0,.1-.19"/><path class="cls-2" d="M80.67,110l.14-.14a32.82,32.82,0,0,0,3.9-3.92c.17-.2.27-.1.37,0l1.76,1.76c.14.14.13.22,0,.36A33.76,33.76,0,0,0,82.94,112c-.15.18-.23.16-.36,0l-1.8-1.81a1.42,1.42,0,0,1-.11-.18"/><path class="cls-2" d="M13.44,116.66a1.34,1.34,0,0,1-.11.14c-.59.59-1.17,1.18-1.76,1.76-.15.15-.22.14-.39-.06a44,44,0,0,0-3.71-3.77c-.26-.24-.28-.31,0-.53.53-.52,1-1,1.56-1.57.21-.21.26-.22.52.05,1.18,1.28,2.44,2.49,3.68,3.72.08.08.28,0,.26.26"/><path class="cls-2" d="M249.86,125.59c-.54-.56-1.07-1.15-1.63-1.68-.34-.32-.39-.46,0-.84a37.88,37.88,0,0,0,3.64-3.75c.17-.21.26-.11.37,0,.6.58,1.18,1.17,1.77,1.76.23.23,0,.29-.14.44-1.22,1.18-2.43,2.39-3.62,3.6a1.76,1.76,0,0,0-.25.47Z"/><path class="cls-2" d="M258.61,125.59a.65.65,0,0,0-.25-.59c-1.22-1.15-2.31-2.43-3.6-3.5-.26-.22-.14-.32,0-.47.52-.52,1.05-1,1.57-1.57.23-.24.33-.23.6.06,1.16,1.24,2.34,2.46,3.6,3.6.4.37.27.47,0,.73a17.06,17.06,0,0,0-1.66,1.74Z"/><path class="cls-2" d="M330,125.59a15.13,15.13,0,0,0-1.7-1.79c-.25-.26-.32-.34,0-.67,1.27-1.17,2.47-2.4,3.64-3.66.26-.28.34-.25.55,0l1.61,1.62c.15.15.21.22,0,.44-1.24,1.16-2.43,2.38-3.64,3.57a.59.59,0,0,0-.2.54Z"/><path class="cls-2" d="M276.52,125.59a16.83,16.83,0,0,0-1.74-1.84c-.22-.23-.27-.3,0-.59,1.26-1.17,2.48-2.4,3.66-3.65.26-.28.36-.31.6-.06.5.51,1,1,1.52,1.52.19.19.28.27,0,.54-1.23,1.15-2.4,2.36-3.59,3.54a.58.58,0,0,0-.2.54Z"/><path class="cls-2" d="M303.31,125.59c-.59-.61-1.17-1.22-1.77-1.82-.22-.22-.28-.31,0-.6a40.86,40.86,0,0,0,3.74-3.82c.2-.24.29-.13.41,0,.58.57,1.14,1.14,1.71,1.72.17.17.15.22-.07.42-1.25,1.18-2.46,2.42-3.67,3.64a1.71,1.71,0,0,0-.23.47Z"/><path class="cls-2" d="M325.53,125.59a2.15,2.15,0,0,0-.69-.89c-1.12-1.06-2.1-2.26-3.32-3.22-.24-.19-.12-.29,0-.41l1.66-1.67c.2-.2.27-.16.49.07,1.2,1.27,2.42,2.52,3.7,3.71.3.28.27.35,0,.58a21.73,21.73,0,0,0-1.76,1.83Z"/><path class="cls-2" d="M338.85,125.59a1.78,1.78,0,0,0-.32-.57l-3.28-3.28c-.16-.15-.35-.26-.63-.47.67-.65,1.32-1.29,2-1.92.15-.14.23-.11.41.08,1.23,1.29,2.48,2.57,3.78,3.8.27.25.19.32,0,.49L339,125.59Z"/><path class="cls-2" d="M205.16,125.59c.05-.31-.15-.49-.34-.68-1.17-1.15-2.32-2.31-3.49-3.44-.19-.18-.19-.26,0-.42l1.67-1.66c.17-.17.29-.14.48.06,1.24,1.28,2.5,2.55,3.79,3.79.29.27.1.36,0,.52a25.34,25.34,0,0,0-1.76,1.83Z"/><path class="cls-2" d="M272.08,125.59a2.27,2.27,0,0,0-.45-.66c-1.2-1.14-2.28-2.41-3.56-3.47-.24-.21-.08-.3,0-.42l1.61-1.62c.18-.17.27-.23.52,0,1.21,1.29,2.46,2.55,3.75,3.76.29.28.18.36,0,.55l-1.77,1.83Z"/><path class="cls-2" d="M209.74,125.59a19.5,19.5,0,0,0-1.66-1.74c-.27-.27-.39-.38,0-.74,1.25-1.15,2.43-2.37,3.6-3.61.27-.29.39-.25.62,0q.72.75,1.47,1.47c.22.22.28.32,0,.6-1.23,1.14-2.4,2.35-3.58,3.54a3.64,3.64,0,0,0-.31.51Z"/><path class="cls-2" d="M285.4,125.59a1.56,1.56,0,0,0-.47-.71c-1.19-1.12-2.23-2.39-3.52-3.4-.24-.19-.05-.32,0-.43.53-.55,1.07-1.09,1.61-1.63.18-.17.27-.21.51,0,1.2,1.27,2.43,2.52,3.7,3.72.28.26.29.34,0,.59-.6.59-1.19,1.21-1.78,1.82Z"/><path class="cls-2" d="M263.19,125.59a20.26,20.26,0,0,0-1.76-1.83c-.23-.24-.25-.32,0-.59,1.26-1.18,2.48-2.39,3.65-3.65.31-.34.41-.27.65,0l1.47,1.47c.23.22.26.31,0,.58-1.23,1.14-2.39,2.35-3.57,3.54a2.4,2.4,0,0,0-.31.51Z"/><path class="cls-2" d="M218.63,125.59a2.4,2.4,0,0,0-.54-.76c-1.16-1.12-2.29-2.26-3.46-3.37-.21-.2-.11-.29,0-.42l1.61-1.62c.18-.18.29-.21.53,0,1.22,1.27,2.46,2.53,3.74,3.75.29.27.18.36,0,.55l-1.77,1.83Z"/><path class="cls-2" d="M196.41,125.59c-.59-.61-1.17-1.23-1.77-1.83-.21-.22-.24-.31,0-.56,1.26-1.21,2.5-2.45,3.7-3.72.26-.26.38-.23.59,0l1.52,1.52c.23.22.22.32,0,.56-1.2,1.14-2.36,2.32-3.53,3.5a2.65,2.65,0,0,0-.35.56Z"/><path class="cls-2" d="M316.64,125.59a20.31,20.31,0,0,0-1.76-1.83c-.21-.23-.28-.3,0-.59q1.92-1.78,3.7-3.71c.27-.3.36-.21.54,0,.53.52,1.05,1.06,1.58,1.57.24.24.16.3-.08.53-1.23,1.17-2.43,2.39-3.62,3.6a2,2,0,0,0-.26.46Z"/><path class="cls-2" d="M223.2,125.59l-1.82-1.79c-.25-.25-.25-.4.05-.69q1.84-1.76,3.61-3.62c.23-.24.34-.29.57-.06.52.53,1,1,1.57,1.57.2.2.19.28,0,.5-1.21,1.15-2.37,2.33-3.55,3.5a.7.7,0,0,0-.25.59Z"/><path class="cls-2" d="M232,125.59a1.61,1.61,0,0,0-.43-.67c-1.15-1.12-2.28-2.27-3.45-3.38-.21-.2-.18-.32,0-.48l1.61-1.62c.16-.16.25-.21.47,0,1.24,1.29,2.5,2.56,3.79,3.79.3.29.07.37-.06.51-.58.62-1.18,1.22-1.77,1.83Z"/><path class="cls-2" d="M312.06,125.59c.05-.32-.16-.49-.35-.68-1.21-1.13-2.26-2.42-3.57-3.45-.2-.16-.09-.27,0-.38l1.71-1.71c.15-.15.25-.16.42,0a37.4,37.4,0,0,0,3.88,3.88c.31.25,0,.34-.1.45a25.37,25.37,0,0,0-1.74,1.85Z"/><path class="cls-2" d="M245.28,125.59A.75.75,0,0,0,245,125c-1.19-1.15-2.27-2.41-3.55-3.47-.26-.21-.12-.33,0-.47l1.56-1.57c.18-.18.28-.23.52,0,1.2,1.27,2.42,2.52,3.68,3.72.28.27.28.38.05.61l-1.82,1.79Z"/><path class="cls-2" d="M298.73,125.59a.74.74,0,0,0-.28-.58c-1.21-1.17-2.31-2.44-3.6-3.52-.22-.18-.16-.28,0-.42l1.66-1.66c.12-.13.21-.22.41,0a53.64,53.64,0,0,0,3.84,3.85c.31.29,0,.38-.08.51-.59.61-1.19,1.21-1.79,1.82Z"/><path class="cls-2" d="M352.18,125.59a.9.9,0,0,0-.39-.67c-1.19-1.15-2.26-2.42-3.55-3.46-.21-.16-.09-.27,0-.37l1.71-1.72c.15-.15.22-.13.4.06,1.23,1.29,2.49,2.57,3.79,3.8.28.27.16.34,0,.49-.61.63-1.23,1.25-1.84,1.87Z"/><path class="cls-2" d="M343.43,125.59l-1.83-1.87c-.21-.2-.24-.27,0-.53,1.26-1.18,2.48-2.41,3.66-3.67.25-.26.33-.33.59-.07.49.52,1,1,1.51,1.53.18.18.29.25,0,.53-1.25,1.15-2.43,2.39-3.64,3.59a.64.64,0,0,0-.17.49Z"/><path class="cls-2" d="M290,125.59c-.59-.61-1.18-1.22-1.78-1.82-.22-.22-.28-.31,0-.59,1.26-1.18,2.47-2.42,3.66-3.67.22-.23.31-.31.54-.07.52.54,1,1.06,1.57,1.58.2.2.17.27-.06.49-1.23,1.15-2.4,2.36-3.59,3.54a.71.71,0,0,0-.22.54Z"/><path class="cls-2" d="M236.53,125.59c-.56-.58-1.11-1.16-1.68-1.73-.26-.26-.4-.38,0-.75,1.25-1.15,2.44-2.38,3.61-3.61.21-.21.29-.29.51-.07.51.53,1,1,1.56,1.57.21.21.18.29-.05.51-1.2,1.14-2.36,2.33-3.53,3.49a.76.76,0,0,0-.27.59Z"/><path class="cls-2" d="M330.05,112.42c.12,0,.14.08.2.15a49,49,0,0,0,3.89,3.87c.22.19.12.29,0,.42l-1.7,1.71c-.14.14-.23.2-.42,0a32,32,0,0,0-3.85-3.87c-.17-.14-.21-.21-.07-.36l1.81-1.8s.11-.07.15-.1"/><path class="cls-2" d="M325.6,112.42a1.25,1.25,0,0,1,.19.15c.58.57,1.15,1.14,1.72,1.72.15.15.16.22-.05.4a33,33,0,0,0-3.83,3.83c-.22.27-.3.17-.45,0-.56-.55-1.11-1.11-1.66-1.67-.15-.15-.22-.24,0-.46,1.34-1.19,2.58-2.48,3.81-3.79.07-.07.07-.21.24-.2"/><path class="cls-2" d="M274.51,114.4c.62-.6,1.26-1.21,1.9-1.84.19-.19.25-.12.44.07,1.22,1.28,2.46,2.53,3.74,3.75.21.21.3.29.09.5L279,118.54c-.17.17-.26.19-.46,0-1.24-1.43-2.62-2.73-4.05-4.1"/><path class="cls-2" d="M352.29,112.37a3.2,3.2,0,0,1,.27.22l1.61,1.62c.13.13.29.24,0,.46a37.5,37.5,0,0,0-3.88,3.89c-.21.24-.29.09-.4,0-.56-.55-1.11-1.11-1.66-1.67-.13-.13-.25-.23,0-.43a36.27,36.27,0,0,0,3.9-3.94l.16-.13"/><path class="cls-2" d="M254.57,116.64c0-.12.1-.15.17-.21q2-1.83,3.83-3.84c.18-.2.26-.19.41,0l1.7,1.71c.15.15.14.26-.05.43a44.65,44.65,0,0,0-3.82,3.84c-.12.15-.21.23-.37.08-.6-.6-1.2-1.2-1.79-1.81a.6.6,0,0,1-.08-.16"/><path class="cls-2" d="M312.22,112.41a19.55,19.55,0,0,1,2,2c0,.11-.06.15-.13.21a36.44,36.44,0,0,0-3.87,3.89c-.21.24-.3.11-.42,0-.56-.55-1.12-1.1-1.67-1.66-.15-.16-.2-.25,0-.47,1.33-1.19,2.58-2.48,3.81-3.78.07-.08.05-.23.21-.22"/><path class="cls-2" d="M227.37,116.67a.65.65,0,0,1-.11.19l-1.71,1.71c-.16.16-.26.15-.42,0a49,49,0,0,0-3.72-3.77c-.3-.29-.24-.4,0-.62.51-.5,1-1,1.52-1.52.19-.19.27-.22.5,0,1.22,1.28,2.49,2.51,3.74,3.76.08.07.21.08.22.27"/><path class="cls-2" d="M201.14,116.66c0-.15.12-.18.2-.26,1.25-1.25,2.52-2.49,3.75-3.76.18-.19.26-.27.46-.07l1.61,1.62c.25.24.13.35-.09.57-1.25,1.22-2.54,2.4-3.68,3.73-.14.17-.24.28-.42.1-.59-.58-1.17-1.17-1.75-1.77a.35.35,0,0,1-.08-.16"/><path class="cls-2" d="M294.68,116.67c0-.14.09-.17.17-.25,1.33-1.23,2.62-2.5,3.82-3.85.2-.22.28-.14.41,0,.56.55,1.11,1.11,1.66,1.67.15.15.23.24,0,.46a49.69,49.69,0,0,0-3.84,3.84c-.1.11-.16.24-.29.11-.63-.61-1.24-1.23-1.85-1.85a.45.45,0,0,1-.06-.12"/><path class="cls-2" d="M290,112.42c.14,0,.15.09.2.15,1.23,1.34,2.5,2.63,3.85,3.84.24.22.18.32,0,.47l-1.66,1.67c-.18.18-.25.16-.45-.06-1.21-1.28-2.47-2.53-3.73-3.76-.16-.16-.36-.23-.14-.45.57-.59,1.16-1.17,1.75-1.76a1,1,0,0,1,.15-.1"/><path class="cls-2" d="M347.62,116.67a.89.89,0,0,1-.09.16l-1.76,1.75c-.12.11-.19.18-.36,0a38.51,38.51,0,0,0-3.88-3.89c-.21-.19-.16-.28,0-.42l1.71-1.71c.13-.14.2-.2.4,0a51.4,51.4,0,0,0,3.82,3.85c.08.07.2.1.18.25"/><path class="cls-2" d="M240.71,116.71s-.07.11-.13.18l-1.66,1.66c-.14.14-.23.19-.42,0a49.69,49.69,0,0,0-3.84-3.84c-.24-.22-.13-.34,0-.49l1.61-1.62c.17-.17.25-.19.46,0,1.25,1.29,2.52,2.54,3.8,3.8.07.08.19.11.17.3"/><path class="cls-2" d="M241.24,116.68c0-.16.1-.19.18-.26,1.27-1.26,2.55-2.52,3.79-3.81.21-.22.29-.19.45,0l1.62,1.62c.18.19.2.29,0,.52-1.28,1.22-2.52,2.48-3.77,3.74-.12.13-.17.34-.38.13-.59-.58-1.18-1.17-1.76-1.76a.4.4,0,0,1-.09-.15"/><path class="cls-2" d="M303.37,112.39a.88.88,0,0,1,.15.12,36.18,36.18,0,0,0,3.89,3.94c.21.19.08.31,0,.44l-1.66,1.66c-.18.19-.25.14-.44-.07a36.26,36.26,0,0,0-3.83-3.81c-.18-.15-.17-.25-.05-.38q.89-.9,1.8-1.8a.45.45,0,0,1,.18-.1"/><path class="cls-2" d="M281.28,116.64c0-.11.07-.14.14-.2a33.85,33.85,0,0,0,3.87-3.89c.19-.23.29-.13.42,0,.58.57,1.15,1.14,1.71,1.72.14.14.18.23,0,.42a35.7,35.7,0,0,0-3.85,3.83c-.13.14-.18.25-.34.1l-1.85-1.86a.41.41,0,0,1-.07-.11"/><path class="cls-2" d="M196.45,112.41a.31.31,0,0,1,.22.16,30.11,30.11,0,0,0,3.87,3.87c.2.16.13.25,0,.36l-1.75,1.76c-.17.16-.23.12-.4-.07a33.82,33.82,0,0,0-3.78-3.79c-.17-.15-.3-.24-.13-.4.58-.62,1.19-1.21,1.8-1.81,0,0,.12-.06.16-.08"/><path class="cls-2" d="M334.7,116.61a.88.88,0,0,1,.12-.15,45.6,45.6,0,0,0,3.47-3.34,1.57,1.57,0,0,0,.42-.51c.14-.31.28-.23.44-.06l1.71,1.71c.12.13.21.22,0,.41a34.49,34.49,0,0,0-3.87,3.87c-.15.18-.22.18-.35,0l-1.8-1.8a.81.81,0,0,1-.12-.18"/><path class="cls-2" d="M234.1,114.46c0,.11-.09.15-.16.21a32.07,32.07,0,0,0-3.86,3.87c-.21.24-.29.1-.41,0-.52-.52-1-1-1.57-1.56-.24-.24-.22-.36.05-.62a41.23,41.23,0,0,0,3.69-3.79c.14-.17.25-.2.38-.07l1.8,1.81a.48.48,0,0,1,.08.16"/><path class="cls-2" d="M249.86,112.42c.14,0,.18,0,.23.12a39.68,39.68,0,0,0,3.8,3.87c.22.21.18.32,0,.48l-1.66,1.67c-.13.13-.2.18-.39,0a34.72,34.72,0,0,0-3.83-3.84c-.2-.17-.21-.26-.07-.41.58-.59,1.17-1.18,1.76-1.76a.46.46,0,0,1,.14-.09"/><path class="cls-2" d="M272.17,112.42l.18.16,1.67,1.66c.24.24.11.29-.1.48a45.77,45.77,0,0,0-3.72,3.78c-.16.19-.22.25-.39.08l-1.76-1.77c-.11-.11-.2-.2,0-.37a40.83,40.83,0,0,0,3.85-3.82c.07-.08.08-.21.26-.2"/><path class="cls-2" d="M261.18,114.48c.08-.09.14-.18.22-.26.54-.53,1.07-1.07,1.61-1.61.18-.17.24-.25.49,0a37.57,37.57,0,0,0,3.79,3.78c.21.18.2.25,0,.4l-1.75,1.76c-.1.09-.21.19-.34,0a28.36,28.36,0,0,0-3.94-4,.84.84,0,0,1-.13-.17"/><path class="cls-2" d="M316.7,112.41c.16,0,.15.15.22.22a50.45,50.45,0,0,0,3.81,3.79c.19.16.23.22.07.39L319,118.57c-.23.23-.26.05-.41-.12-1.2-1.3-2.44-2.57-3.75-3.75-.15-.13-.34-.17-.14-.37l1.81-1.82a1.3,1.3,0,0,1,.15-.1"/><path class="cls-2" d="M370.13,125.59a15,15,0,0,0-1.69-1.79c-.25-.26-.33-.34,0-.67,1.27-1.17,2.48-2.4,3.65-3.66.26-.28.34-.25.54,0l1.61,1.62c.16.15.21.22,0,.44-1.24,1.16-2.43,2.38-3.64,3.57a.62.62,0,0,0-.2.54Z"/><path class="cls-2" d="M365.69,125.59a2.21,2.21,0,0,0-.68-.89c-1.12-1.06-2.1-2.26-3.32-3.22-.25-.19-.12-.29,0-.41l1.66-1.67c.2-.2.28-.16.5.07,1.19,1.27,2.42,2.52,3.69,3.71.3.28.27.35,0,.58a21.85,21.85,0,0,0-1.77,1.83Z"/><path class="cls-2" d="M379,125.59a1.81,1.81,0,0,0-.33-.57c-1.1-1.09-2.18-2.19-3.28-3.28-.15-.15-.35-.26-.62-.47.66-.65,1.31-1.29,2-1.92.15-.14.23-.11.41.08,1.24,1.29,2.49,2.57,3.79,3.8.27.25.18.32,0,.49l-1.83,1.87Z"/><path class="cls-2" d="M356.8,125.59a19,19,0,0,0-1.76-1.83c-.21-.23-.28-.3,0-.59q1.92-1.78,3.7-3.71c.28-.3.36-.21.55,0,.52.52,1,1.06,1.57,1.57.25.24.17.3-.07.53-1.24,1.17-2.43,2.39-3.63,3.6a1.69,1.69,0,0,0-.25.46Z"/><path class="cls-2" d="M392.35,125.59a1,1,0,0,0-.39-.67c-1.2-1.15-2.27-2.42-3.56-3.46-.2-.16-.09-.27,0-.37.56-.58,1.13-1.15,1.7-1.72.15-.15.22-.13.4.06,1.24,1.29,2.49,2.57,3.79,3.8.28.27.16.34,0,.49-.61.63-1.22,1.25-1.84,1.87Z"/><path class="cls-2" d="M383.6,125.59c-.62-.62-1.23-1.25-1.84-1.87-.2-.2-.23-.27.05-.53,1.26-1.18,2.47-2.41,3.65-3.67.25-.26.34-.33.59-.07.49.52,1,1,1.51,1.53.18.18.29.25,0,.53-1.25,1.15-2.43,2.39-3.64,3.59a.64.64,0,0,0-.17.49Z"/><path class="cls-2" d="M370.22,112.42c.12,0,.14.08.2.15a48.86,48.86,0,0,0,3.88,3.87c.22.19.12.29,0,.42l-1.71,1.71c-.14.14-.23.2-.41,0a32.07,32.07,0,0,0-3.86-3.87c-.16-.14-.21-.21-.06-.36l1.8-1.8a.7.7,0,0,1,.16-.1"/><path class="cls-2" d="M365.77,112.42l.19.15,1.71,1.72c.15.15.17.22,0,.4a32.22,32.22,0,0,0-3.83,3.83c-.22.27-.31.17-.46,0l-1.66-1.67c-.15-.15-.22-.24,0-.46,1.34-1.19,2.58-2.48,3.81-3.79.07-.07.07-.21.25-.2"/><path class="cls-2" d="M392.46,112.37c.09.08.18.14.26.22.54.53,1.08,1.07,1.61,1.62.13.13.29.24,0,.46a37.4,37.4,0,0,0-3.87,3.89c-.21.24-.3.09-.41,0-.56-.55-1.11-1.11-1.66-1.67-.12-.13-.25-.23,0-.43a35.39,35.39,0,0,0,3.9-3.94l.17-.13"/><path class="cls-2" d="M387.79,116.67a1,1,0,0,1-.1.16l-1.76,1.75c-.11.11-.19.18-.36,0a38.41,38.41,0,0,0-3.87-3.89c-.21-.19-.17-.28,0-.42l1.71-1.71c.14-.14.2-.2.4,0a49.69,49.69,0,0,0,3.83,3.85c.08.07.19.1.18.25"/><path class="cls-2" d="M374.86,116.61c.05,0,.08-.11.13-.15a47.4,47.4,0,0,0,3.46-3.34,1.61,1.61,0,0,0,.43-.51c.13-.31.27-.23.44-.06l1.7,1.71c.13.13.21.22,0,.41a32.9,32.9,0,0,0-3.87,3.87c-.16.18-.23.18-.36,0l-1.8-1.8c0-.05-.07-.11-.12-.18"/><path class="cls-2" d="M356.86,112.41c.17,0,.16.15.23.22a48.53,48.53,0,0,0,3.8,3.79c.19.16.24.22.07.39l-1.75,1.76c-.23.23-.26.05-.42-.12-1.2-1.3-2.43-2.57-3.75-3.75-.15-.13-.34-.17-.13-.37.59-.61,1.2-1.21,1.8-1.82l.15-.1"/><path class="cls-2" d="M218.61,112.36a2.78,2.78,0,0,1,.32.25l1.61,1.61c.2.2.2.27,0,.49a38.63,38.63,0,0,0-3.76,3.81c-.19.24-.27.15-.4,0l-1.7-1.71c-.11-.11-.25-.2,0-.37a30.73,30.73,0,0,0,3.91-3.91,1.65,1.65,0,0,0,.1-.19"/><path class="cls-2" d="M214,116.66a1.34,1.34,0,0,1-.11.14c-.59.59-1.17,1.18-1.76,1.76-.15.15-.22.14-.39-.06a44,44,0,0,0-3.71-3.77c-.26-.24-.28-.31,0-.53.53-.52,1-1,1.56-1.57.21-.21.26-.22.52.05,1.18,1.28,2.44,2.49,3.68,3.72.08.08.28,0,.26.26"/><path class="cls-2" d="M450.43,125.59c-.54-.56-1.07-1.15-1.63-1.68-.34-.32-.39-.46,0-.84a39.15,39.15,0,0,0,3.65-3.75c.16-.21.26-.11.37,0,.59.58,1.17,1.17,1.76,1.76.23.23,0,.29-.14.44-1.22,1.18-2.43,2.39-3.62,3.6a1.76,1.76,0,0,0-.25.47Z"/><path class="cls-2" d="M459.18,125.59a.65.65,0,0,0-.25-.59c-1.22-1.15-2.31-2.43-3.6-3.5-.26-.22-.14-.32,0-.47.52-.52,1.05-1,1.57-1.57.23-.24.33-.23.6.06,1.16,1.24,2.34,2.46,3.6,3.6.41.37.27.47,0,.73a17.06,17.06,0,0,0-1.66,1.74Z"/><path class="cls-2" d="M530.54,125.59a15.13,15.13,0,0,0-1.7-1.79c-.25-.26-.32-.34,0-.67,1.27-1.17,2.47-2.4,3.64-3.66.26-.28.34-.25.55,0l1.61,1.62c.15.15.21.22,0,.44-1.24,1.16-2.43,2.38-3.64,3.57a.59.59,0,0,0-.2.54Z"/><path class="cls-2" d="M477.09,125.59a15.92,15.92,0,0,0-1.74-1.84c-.21-.23-.27-.3,0-.59,1.26-1.17,2.48-2.4,3.66-3.65.26-.28.36-.31.6-.06.5.51,1,1,1.52,1.52.19.19.28.27,0,.54-1.23,1.15-2.4,2.36-3.59,3.54a.61.61,0,0,0-.2.54Z"/><path class="cls-2" d="M503.88,125.59c-.59-.61-1.17-1.22-1.77-1.82-.22-.22-.28-.31,0-.6a40.86,40.86,0,0,0,3.74-3.82c.2-.24.29-.13.41,0,.58.57,1.14,1.14,1.71,1.72.17.17.15.22-.07.42-1.25,1.18-2.46,2.42-3.67,3.64a1.71,1.71,0,0,0-.23.47Z"/><path class="cls-2" d="M526.1,125.59a2.15,2.15,0,0,0-.69-.89c-1.12-1.06-2.1-2.26-3.32-3.22-.24-.19-.12-.29,0-.41l1.66-1.67c.2-.2.28-.16.49.07,1.2,1.27,2.42,2.52,3.7,3.71.3.28.27.35,0,.58a21.73,21.73,0,0,0-1.76,1.83Z"/><path class="cls-2" d="M539.43,125.59a2,2,0,0,0-.33-.57c-1.1-1.09-2.18-2.19-3.28-3.28-.16-.15-.35-.26-.62-.47.66-.65,1.31-1.29,2-1.92.15-.14.23-.11.41.08,1.23,1.29,2.48,2.57,3.78,3.8.27.25.19.32,0,.49l-1.82,1.87Z"/><path class="cls-2" d="M405.73,125.59c0-.31-.15-.49-.34-.68-1.17-1.15-2.32-2.31-3.49-3.44-.19-.18-.19-.26,0-.42l1.66-1.66c.17-.17.29-.14.48.06,1.24,1.28,2.5,2.55,3.79,3.79.29.27.1.36,0,.52-.57.62-1.24,1.15-1.76,1.83Z"/><path class="cls-2" d="M472.65,125.59a2.09,2.09,0,0,0-.45-.66c-1.2-1.14-2.28-2.41-3.56-3.47-.24-.21-.08-.3,0-.42l1.61-1.62c.18-.17.27-.23.52,0,1.21,1.29,2.46,2.55,3.75,3.76.29.28.18.36,0,.55l-1.77,1.83Z"/><path class="cls-2" d="M410.31,125.59a19.5,19.5,0,0,0-1.66-1.74c-.27-.27-.39-.38,0-.74,1.25-1.15,2.43-2.37,3.6-3.61.27-.29.39-.25.62,0q.72.75,1.47,1.47c.22.22.28.32,0,.6-1.23,1.14-2.4,2.35-3.58,3.54a2.85,2.85,0,0,0-.3.51Z"/><path class="cls-2" d="M486,125.59a1.66,1.66,0,0,0-.48-.71c-1.19-1.12-2.23-2.39-3.52-3.4-.24-.19-.05-.32,0-.43.53-.55,1.07-1.09,1.61-1.63.18-.17.27-.21.51,0,1.2,1.27,2.43,2.52,3.7,3.72.28.26.29.34,0,.59-.6.59-1.19,1.21-1.78,1.82Z"/><path class="cls-2" d="M463.76,125.59a20.26,20.26,0,0,0-1.76-1.83c-.23-.24-.25-.32,0-.59,1.26-1.18,2.48-2.39,3.65-3.65.31-.34.41-.27.65,0l1.47,1.47c.23.22.26.31,0,.58-1.23,1.14-2.39,2.35-3.57,3.54a2,2,0,0,0-.3.51Z"/><path class="cls-2" d="M419.2,125.59a2.4,2.4,0,0,0-.54-.76c-1.15-1.12-2.29-2.26-3.45-3.37-.22-.2-.12-.29,0-.42l1.61-1.62c.18-.18.3-.21.53,0,1.22,1.27,2.46,2.53,3.74,3.75.29.27.18.36,0,.55l-1.77,1.83Z"/><path class="cls-2" d="M397,125.59c-.59-.61-1.17-1.23-1.77-1.83-.21-.22-.24-.31,0-.56,1.26-1.21,2.5-2.45,3.7-3.72.26-.26.38-.23.59,0,.51.51,1,1,1.52,1.52.23.22.22.32,0,.56-1.2,1.14-2.36,2.32-3.53,3.5a2.65,2.65,0,0,0-.35.56Z"/><path class="cls-2" d="M517.21,125.59a20.31,20.31,0,0,0-1.76-1.83c-.21-.23-.28-.3,0-.59q1.92-1.78,3.7-3.71c.27-.3.36-.21.55,0,.52.52,1,1.06,1.57,1.57.24.24.16.3-.08.53-1.23,1.17-2.43,2.39-3.62,3.6a1.69,1.69,0,0,0-.25.46Z"/><path class="cls-2" d="M423.77,125.59,422,123.8c-.25-.25-.25-.4.05-.69q1.85-1.76,3.61-3.62c.23-.24.34-.29.57-.06.52.53,1,1,1.57,1.57.2.2.19.28,0,.5-1.21,1.15-2.37,2.33-3.55,3.5a.7.7,0,0,0-.25.59Z"/><path class="cls-2" d="M432.53,125.59a1.74,1.74,0,0,0-.44-.67c-1.15-1.12-2.28-2.27-3.45-3.38-.21-.2-.18-.32,0-.48l1.61-1.62c.16-.16.25-.21.47,0,1.24,1.29,2.5,2.56,3.79,3.79.3.29.08.37-.06.51-.58.62-1.18,1.22-1.77,1.83Z"/><path class="cls-2" d="M512.63,125.59c0-.32-.16-.49-.35-.68-1.21-1.13-2.26-2.42-3.57-3.45-.2-.16-.09-.27,0-.38l1.71-1.71c.15-.15.25-.16.43,0a36.35,36.35,0,0,0,3.87,3.88c.31.25,0,.34-.1.45a25.37,25.37,0,0,0-1.74,1.85Z"/><path class="cls-2" d="M445.85,125.59a.74.74,0,0,0-.31-.63c-1.2-1.15-2.28-2.41-3.56-3.47-.26-.21-.12-.33,0-.47l1.56-1.57c.18-.18.28-.23.52,0,1.2,1.27,2.42,2.52,3.68,3.72.28.27.28.38.05.61L446,125.59Z"/><path class="cls-2" d="M499.3,125.59A.74.74,0,0,0,499,125c-1.21-1.17-2.31-2.44-3.6-3.52-.22-.18-.16-.28,0-.42l1.66-1.66c.12-.13.21-.22.41,0a53.64,53.64,0,0,0,3.84,3.85c.31.29,0,.38-.08.51-.59.61-1.19,1.21-1.79,1.82Z"/><path class="cls-2" d="M552.75,125.59a.9.9,0,0,0-.39-.67c-1.19-1.15-2.26-2.42-3.55-3.46-.21-.16-.09-.27,0-.37.56-.58,1.13-1.15,1.7-1.72.15-.15.22-.13.4.06,1.23,1.29,2.49,2.57,3.79,3.8.28.27.16.34,0,.49-.61.63-1.23,1.25-1.84,1.87Z"/><path class="cls-2" d="M544,125.59l-1.83-1.87c-.21-.2-.24-.27,0-.53,1.26-1.18,2.48-2.41,3.66-3.67.25-.26.33-.33.59-.07.49.52,1,1,1.51,1.53.18.18.29.25,0,.53-1.25,1.15-2.43,2.39-3.64,3.59a.64.64,0,0,0-.17.49Z"/><path class="cls-2" d="M490.55,125.59c-.59-.61-1.18-1.22-1.78-1.82-.22-.22-.28-.31,0-.59,1.26-1.18,2.47-2.42,3.66-3.67.22-.23.31-.31.54-.07.52.54,1,1.06,1.57,1.58.2.2.17.27-.06.49-1.23,1.15-2.4,2.36-3.59,3.54a.71.71,0,0,0-.22.54Z"/><path class="cls-2" d="M437.1,125.59c-.56-.58-1.11-1.16-1.68-1.73-.26-.26-.4-.38,0-.75,1.26-1.15,2.44-2.38,3.61-3.61.21-.21.29-.29.51-.07l1.56,1.57c.21.21.18.29,0,.51-1.2,1.14-2.36,2.33-3.53,3.49a.76.76,0,0,0-.27.59Z"/><path class="cls-2" d="M530.62,112.42c.12,0,.14.08.2.15a49,49,0,0,0,3.89,3.87c.22.19.12.29,0,.42l-1.7,1.71c-.14.14-.23.2-.42,0a32,32,0,0,0-3.85-3.87c-.17-.14-.21-.21-.07-.36l1.81-1.8s.11-.07.15-.1"/><path class="cls-2" d="M526.17,112.42a1.25,1.25,0,0,1,.19.15c.58.57,1.15,1.14,1.72,1.72.15.15.16.22-.05.4a33,33,0,0,0-3.83,3.83c-.22.27-.3.17-.45,0-.56-.55-1.11-1.11-1.66-1.67-.15-.15-.22-.24,0-.46,1.34-1.19,2.58-2.48,3.81-3.79.07-.07.07-.21.24-.2"/><path class="cls-2" d="M475.08,114.4c.62-.6,1.26-1.21,1.9-1.84.19-.19.25-.12.44.07q1.83,1.92,3.74,3.75c.21.21.3.29.09.5l-1.66,1.66c-.17.17-.26.19-.46,0-1.24-1.43-2.61-2.73-4.05-4.1"/><path class="cls-2" d="M552.86,112.37a3.2,3.2,0,0,1,.27.22l1.61,1.62c.13.13.29.24,0,.46a37.5,37.5,0,0,0-3.88,3.89c-.21.24-.29.09-.4,0-.56-.55-1.11-1.11-1.66-1.67-.13-.13-.25-.23,0-.43a36.27,36.27,0,0,0,3.9-3.94l.16-.13"/><path class="cls-2" d="M455.14,116.64c0-.12.1-.15.17-.21q2-1.83,3.83-3.84c.18-.2.26-.19.41,0l1.7,1.71c.15.15.14.26-.05.43a44.65,44.65,0,0,0-3.82,3.84c-.12.15-.21.23-.36.08-.61-.6-1.21-1.2-1.8-1.81a.6.6,0,0,1-.08-.16"/><path class="cls-2" d="M512.79,112.41a19.55,19.55,0,0,1,2,2c0,.11-.06.15-.13.21a36.44,36.44,0,0,0-3.87,3.89c-.21.24-.3.11-.42,0-.56-.55-1.12-1.1-1.67-1.66-.15-.16-.2-.25,0-.47,1.33-1.19,2.58-2.48,3.81-3.78.07-.08,0-.23.21-.22"/><path class="cls-2" d="M427.94,116.67a.65.65,0,0,1-.11.19l-1.71,1.71c-.16.16-.26.15-.42,0a49,49,0,0,0-3.72-3.77c-.3-.29-.24-.4,0-.62.51-.5,1-1,1.52-1.52.19-.19.27-.22.5,0,1.22,1.28,2.49,2.51,3.74,3.76.08.07.21.08.22.27"/><path class="cls-2" d="M401.71,116.66c0-.15.12-.18.2-.26,1.25-1.25,2.52-2.49,3.75-3.76.18-.19.26-.27.46-.07l1.61,1.62c.25.24.13.35-.09.57-1.25,1.22-2.54,2.4-3.68,3.73-.14.17-.24.28-.42.1-.59-.58-1.17-1.17-1.75-1.77a.35.35,0,0,1-.08-.16"/><path class="cls-2" d="M495.25,116.67c0-.14.09-.17.17-.25,1.33-1.23,2.62-2.5,3.82-3.85.2-.22.28-.14.41,0,.56.55,1.11,1.11,1.66,1.67.15.15.23.24,0,.46a49.69,49.69,0,0,0-3.84,3.84c-.1.11-.16.24-.29.11-.63-.61-1.24-1.23-1.85-1.85a.45.45,0,0,1-.06-.12"/><path class="cls-2" d="M490.52,112.42c.14,0,.15.09.21.15a53.5,53.5,0,0,0,3.84,3.84c.24.22.18.32,0,.47l-1.66,1.67c-.18.18-.25.16-.45-.06-1.21-1.28-2.47-2.53-3.73-3.76-.16-.16-.36-.23-.14-.45l1.75-1.76a1,1,0,0,1,.15-.1"/><path class="cls-2" d="M548.19,116.67a.89.89,0,0,1-.09.16l-1.76,1.75c-.12.11-.19.18-.36,0a37.5,37.5,0,0,0-3.88-3.89c-.21-.19-.16-.28,0-.42l1.71-1.71c.13-.14.2-.2.4,0a49.69,49.69,0,0,0,3.83,3.85c.07.07.19.1.17.25"/><path class="cls-2" d="M441.28,116.71s-.07.11-.13.18l-1.66,1.66c-.14.14-.23.19-.42,0a49.69,49.69,0,0,0-3.84-3.84c-.24-.22-.13-.34,0-.49l1.61-1.62c.17-.17.25-.19.46,0,1.25,1.29,2.52,2.54,3.8,3.8.07.08.19.11.17.3"/><path class="cls-2" d="M441.81,116.68c0-.16.1-.19.18-.26,1.27-1.26,2.55-2.52,3.79-3.81.21-.22.29-.19.46,0l1.61,1.62c.18.19.2.29,0,.52-1.28,1.22-2.52,2.48-3.76,3.74-.13.13-.18.34-.39.13-.59-.58-1.18-1.17-1.76-1.76a.4.4,0,0,1-.09-.15"/><path class="cls-2" d="M503.94,112.39a.88.88,0,0,1,.15.12,36.18,36.18,0,0,0,3.89,3.94c.21.19.08.31,0,.44l-1.66,1.66c-.18.19-.24.14-.44-.07a36.26,36.26,0,0,0-3.83-3.81c-.18-.15-.17-.25-.05-.38q.89-.9,1.8-1.8a.45.45,0,0,1,.18-.1"/><path class="cls-2" d="M481.85,116.64c0-.11.07-.14.14-.2a33.85,33.85,0,0,0,3.87-3.89c.19-.23.29-.13.42,0,.58.57,1.15,1.14,1.71,1.72.14.14.18.23,0,.42a35.7,35.7,0,0,0-3.85,3.83c-.13.14-.18.25-.34.1l-1.85-1.86a.41.41,0,0,1-.07-.11"/><path class="cls-2" d="M397,112.41a.31.31,0,0,1,.22.16,30.11,30.11,0,0,0,3.87,3.87c.2.16.13.25,0,.36l-1.75,1.76c-.17.16-.23.12-.39-.07a34.78,34.78,0,0,0-3.79-3.79c-.17-.15-.3-.24-.13-.4.59-.62,1.19-1.21,1.8-1.81,0,0,.12-.06.16-.08"/><path class="cls-2" d="M535.27,116.61a.88.88,0,0,1,.12-.15,45.6,45.6,0,0,0,3.47-3.34,1.57,1.57,0,0,0,.42-.51c.14-.31.28-.23.44-.06l1.71,1.71c.13.13.21.22,0,.41a34.49,34.49,0,0,0-3.87,3.87c-.15.18-.22.18-.35,0l-1.8-1.8a1.4,1.4,0,0,1-.12-.18"/><path class="cls-2" d="M434.67,114.46c0,.11-.09.15-.16.21a32.07,32.07,0,0,0-3.86,3.87c-.21.24-.29.1-.41,0-.52-.52-1-1-1.57-1.56-.24-.24-.22-.36.05-.62a41.23,41.23,0,0,0,3.69-3.79c.14-.17.25-.2.38-.07l1.8,1.81a.48.48,0,0,1,.08.16"/><path class="cls-2" d="M450.43,112.42c.14,0,.18,0,.24.12a38.47,38.47,0,0,0,3.79,3.87c.22.21.18.32,0,.48l-1.66,1.67c-.13.13-.2.18-.39,0a34.72,34.72,0,0,0-3.83-3.84c-.2-.17-.21-.26-.07-.41.58-.59,1.17-1.18,1.76-1.76a.46.46,0,0,1,.14-.09"/><path class="cls-2" d="M472.74,112.42l.18.16,1.67,1.66c.24.24.11.29-.1.48a45.77,45.77,0,0,0-3.72,3.78c-.16.19-.22.25-.39.08l-1.76-1.77c-.11-.11-.2-.2,0-.37a40.83,40.83,0,0,0,3.85-3.82c.07-.08.08-.21.26-.2"/><path class="cls-2" d="M461.75,114.48c.08-.09.14-.18.22-.26.54-.53,1.08-1.07,1.61-1.61.18-.17.24-.25.49,0a37.57,37.57,0,0,0,3.79,3.78c.21.18.2.25.05.4l-1.75,1.76c-.1.09-.21.19-.34,0a28.36,28.36,0,0,0-3.94-4,.84.84,0,0,1-.13-.17"/><path class="cls-2" d="M517.27,112.41c.16,0,.15.15.22.22a50.45,50.45,0,0,0,3.81,3.79c.19.16.23.22.07.39l-1.76,1.76c-.23.23-.26.05-.41-.12-1.2-1.3-2.44-2.57-3.75-3.75-.15-.13-.34-.17-.14-.37l1.81-1.82a1.3,1.3,0,0,1,.15-.1"/><path class="cls-2" d="M570.7,125.59A15,15,0,0,0,569,123.8c-.25-.26-.32-.34,0-.67,1.27-1.17,2.48-2.4,3.65-3.66.26-.28.34-.25.54,0l1.61,1.62c.16.15.21.22,0,.44-1.24,1.16-2.43,2.38-3.64,3.57a.62.62,0,0,0-.2.54Z"/><path class="cls-2" d="M566.26,125.59a2.21,2.21,0,0,0-.68-.89c-1.12-1.06-2.1-2.26-3.32-3.22-.25-.19-.12-.29,0-.41l1.66-1.67c.2-.2.28-.16.5.07,1.19,1.27,2.42,2.52,3.69,3.71.3.28.27.35,0,.58a21.85,21.85,0,0,0-1.77,1.83Z"/><path class="cls-2" d="M579.59,125.59a1.81,1.81,0,0,0-.33-.57c-1.1-1.09-2.18-2.19-3.28-3.28-.15-.15-.35-.26-.62-.47.66-.65,1.31-1.29,2-1.92.15-.14.24-.11.41.08,1.24,1.29,2.49,2.57,3.79,3.8.27.25.18.32,0,.49l-1.83,1.87Z"/><path class="cls-2" d="M557.37,125.59a17.88,17.88,0,0,0-1.76-1.83c-.21-.23-.28-.3,0-.59q1.92-1.78,3.7-3.71c.28-.3.36-.21.55,0,.52.52,1,1.06,1.57,1.57.25.24.17.3-.07.53-1.24,1.17-2.43,2.39-3.63,3.6a1.69,1.69,0,0,0-.25.46Z"/><path class="cls-2" d="M592.92,125.59a.93.93,0,0,0-.39-.67c-1.2-1.15-2.27-2.42-3.56-3.46-.2-.16-.09-.27,0-.37.56-.58,1.13-1.15,1.7-1.72.15-.15.22-.13.4.06,1.24,1.29,2.49,2.57,3.79,3.8.28.27.16.34,0,.49-.61.63-1.22,1.25-1.84,1.87Z"/><path class="cls-2" d="M584.17,125.59c-.62-.62-1.23-1.25-1.84-1.87-.2-.2-.23-.27,0-.53,1.26-1.18,2.47-2.41,3.65-3.67.25-.26.34-.33.59-.07.49.52,1,1,1.51,1.53.18.18.29.25,0,.53-1.25,1.15-2.43,2.39-3.64,3.59a.64.64,0,0,0-.17.49Z"/><path class="cls-2" d="M570.79,112.42c.12,0,.14.08.2.15a48.86,48.86,0,0,0,3.88,3.87c.22.19.12.29,0,.42l-1.71,1.71c-.14.14-.23.2-.41,0a32.07,32.07,0,0,0-3.86-3.87c-.16-.14-.21-.21-.06-.36l1.8-1.8a.7.7,0,0,1,.16-.1"/><path class="cls-2" d="M566.34,112.42l.19.15,1.71,1.72c.15.15.17.22,0,.4a32.22,32.22,0,0,0-3.83,3.83c-.22.27-.31.17-.46,0l-1.66-1.67c-.15-.15-.22-.24,0-.46,1.34-1.19,2.58-2.48,3.81-3.79.07-.07.08-.21.25-.2"/><path class="cls-2" d="M593,112.37c.09.08.18.14.26.22.54.53,1.08,1.07,1.61,1.62.13.13.29.24,0,.46a38.41,38.41,0,0,0-3.87,3.89c-.21.24-.3.09-.41,0-.56-.55-1.11-1.11-1.66-1.67-.12-.13-.25-.23,0-.43a35.39,35.39,0,0,0,3.9-3.94l.17-.13"/><path class="cls-2" d="M588.36,116.67a1,1,0,0,1-.1.16l-1.76,1.75c-.11.11-.19.18-.36,0a38.41,38.41,0,0,0-3.87-3.89c-.21-.19-.17-.28,0-.42l1.71-1.71c.14-.14.21-.2.4,0a49.69,49.69,0,0,0,3.83,3.85c.08.07.19.1.18.25"/><path class="cls-2" d="M575.43,116.61c.05,0,.08-.11.13-.15a47.4,47.4,0,0,0,3.46-3.34,1.61,1.61,0,0,0,.43-.51c.13-.31.27-.23.44-.06l1.7,1.71c.13.13.21.22,0,.41a32.9,32.9,0,0,0-3.87,3.87c-.16.18-.22.18-.36,0l-1.8-1.8-.12-.18"/><path class="cls-2" d="M557.43,112.41c.17,0,.16.15.23.22a48.53,48.53,0,0,0,3.8,3.79c.19.16.24.22.07.39l-1.75,1.76c-.23.23-.26.05-.42-.12-1.2-1.3-2.43-2.57-3.75-3.75-.15-.13-.34-.17-.13-.37l1.8-1.82.15-.1"/><path class="cls-2" d="M419.18,112.36a2.78,2.78,0,0,1,.32.25c.54.54,1.07,1.08,1.61,1.61.2.2.2.27,0,.49a38.63,38.63,0,0,0-3.76,3.81c-.19.24-.27.15-.4,0l-1.7-1.71c-.11-.11-.25-.2,0-.37a30.73,30.73,0,0,0,3.91-3.91,1.65,1.65,0,0,0,.1-.19"/><path class="cls-2" d="M414.58,116.66a1.34,1.34,0,0,1-.11.14c-.59.59-1.17,1.18-1.76,1.76-.15.15-.22.14-.39-.06a42.57,42.57,0,0,0-3.71-3.77c-.26-.24-.28-.31-.05-.53.53-.52,1-1,1.56-1.57.21-.21.26-.22.52.05,1.18,1.28,2.44,2.49,3.68,3.72.08.08.28,0,.26.26"/><path class="cls-2" d="M56.06,99l.12.13A38.41,38.41,0,0,0,60,103c.25.23.12.33,0,.48l-1.56,1.57c-.19.18-.27.21-.5,0-1.22-1.28-2.48-2.52-3.75-3.75-.16-.16-.27-.23-.09-.41l1.75-1.76.19-.12"/><path class="cls-2" d="M302.85,105.82c.11,0,.14.08.2.14a46.06,46.06,0,0,0,3.89,3.89c.18.15.16.25,0,.38L305.22,112c-.15.14-.23.15-.41-.06A36.45,36.45,0,0,0,301,108.1c-.15-.13-.26-.19-.1-.35l1.85-1.86s.08,0,.11-.07"/><path class="cls-2" d="M276.19,105.79l.16.19a39.67,39.67,0,0,0,3.82,3.85c.23.21.2.28,0,.44l-1.66,1.67c-.15.14-.23.23-.45,0-1.19-1.34-2.47-2.6-3.78-3.81-.16-.14-.29-.22-.12-.4.59-.61,1.2-1.21,1.8-1.8a.87.87,0,0,1,.2-.12"/><path class="cls-2" d="M240.26,101c0,.14-.1.16-.16.21a53.65,53.65,0,0,0-3.83,3.86c-.22.24-.34.14-.49,0l-1.61-1.62c-.12-.13-.26-.21,0-.43a38.38,38.38,0,0,0,3.89-4c.12-.16.22-.11.32,0,.61.6,1.21,1.21,1.81,1.81a1,1,0,0,1,.1.15"/><path class="cls-2" d="M249.45,105.8l.15.16c1.23,1.35,2.52,2.65,3.88,3.88.24.22.12.33,0,.48l-1.62,1.62c-.13.13-.25.31-.47,0a41.08,41.08,0,0,0-3.74-3.84c-.22-.21-.26-.31-.06-.51l1.66-1.66a2.09,2.09,0,0,1,.22-.16"/><path class="cls-2" d="M333.8,110.05a1.38,1.38,0,0,1-.19.25c-.53.54-1.08,1.07-1.6,1.62-.25.26-.31.14-.52-.08-1.21-1.27-2.43-2.51-3.71-3.7-.28-.27-.24-.35,0-.54l1.61-1.62c.15-.14.24-.26.46,0a46.61,46.61,0,0,0,3.75,3.82c.07.08.2.1.24.24"/><path class="cls-2" d="M218.18,105.84l.19.15,1.56,1.58c.16.16.29.28,0,.53a36.55,36.55,0,0,0-3.78,3.89c-.18.23-.31.09-.44,0-.56-.55-1.12-1.11-1.67-1.67-.16-.17-.17-.28,0-.48,1.29-1.25,2.55-2.53,3.81-3.8.07-.07.1-.2.27-.17"/><path class="cls-2" d="M271.6,105.83a1.83,1.83,0,0,1,.26.21c.51.5,1,1,1.52,1.52.17.18.3.28,0,.56a42.24,42.24,0,0,0-3.76,3.81c-.22.26-.33.14-.47,0l-1.61-1.62c-.18-.18-.21-.27,0-.51,1.29-1.23,2.53-2.52,3.79-3.79.06,0,.05-.18.23-.17"/><path class="cls-2" d="M269.45,98.88c1.35,1.41,2.63,2.77,4,4.09.23.24.22.33,0,.51-.53.55-1.07,1.09-1.61,1.62-.19.19-.28.19-.51,0q-1.83-1.92-3.74-3.76c-.19-.18-.28-.25-.08-.44l1.93-2"/><path class="cls-2" d="M282.7,99.05c.18,0,.21.08.29.16a47.85,47.85,0,0,0,3.85,3.82c.22.19.15.28,0,.42-.55.56-1.1,1.11-1.66,1.66-.19.2-.28.18-.5-.06-1.22-1.28-2.46-2.54-3.74-3.75-.25-.24-.23-.31-.05-.5l1.57-1.56a2.84,2.84,0,0,1,.23-.19"/><path class="cls-2" d="M251.6,99c.07.06.19.13.28.22.51.5,1,1,1.53,1.52.22.22.21.3,0,.54q-1.91,1.8-3.71,3.72c-.26.28-.36.22-.56,0l-1.56-1.57c-.14-.14-.3-.26,0-.48a52.4,52.4,0,0,0,3.83-3.77c.08-.07.1-.2.28-.21"/><path class="cls-2" d="M300.79,103.25c0-.11.07-.15.13-.2a42,42,0,0,0,3.89-3.89c.18-.21.29-.12.43,0l1.66,1.66c.17.17.19.24,0,.45a52.4,52.4,0,0,0-3.79,3.81c-.16.18-.26.24-.41.09-.61-.6-1.2-1.21-1.8-1.81a.47.47,0,0,1-.07-.12"/><path class="cls-2" d="M215.93,99.06c.18,0,.22.12.29.19,1.25,1.28,2.45,2.61,3.82,3.76.25.21.15.33,0,.48l-1.56,1.57c-.25.25-.36.21-.62-.06-1.2-1.27-2.44-2.49-3.7-3.71-.19-.18-.26-.26-.07-.45l1.62-1.61a1.33,1.33,0,0,1,.23-.17"/><path class="cls-2" d="M336.31,99a1.31,1.31,0,0,0,.1.21A43.05,43.05,0,0,0,340.3,103c.23.2.11.29,0,.41l-1.66,1.67c-.19.18-.27.19-.49-.06a52.26,52.26,0,0,0-3.79-3.8c-.14-.12-.26-.17-.1-.34L336,99.11a2.18,2.18,0,0,1,.27-.15"/><path class="cls-2" d="M325,105.79l.21.18,1.66,1.67c.15.16.21.24,0,.46a38.36,38.36,0,0,0-3.81,3.84c-.19.22-.27.17-.42,0l-1.7-1.72c-.11-.11-.21-.24,0-.39a37.11,37.11,0,0,0,4-4,1.28,1.28,0,0,1,.17-.1"/><path class="cls-2" d="M196,105.84c.15,0,.17.13.24.2,1.25,1.25,2.48,2.52,3.76,3.74.27.25.23.38,0,.58l-1.56,1.57c-.18.18-.27.18-.47,0-1.25-1.28-2.52-2.54-3.8-3.8-.13-.13-.22-.25-.1-.38.59-.62,1.2-1.21,1.8-1.82a.39.39,0,0,1,.11-.06"/><path class="cls-2" d="M206.77,107.81c0,.21-.13.23-.22.32-1.25,1.25-2.51,2.49-3.74,3.77-.2.21-.29.2-.46,0l-1.57-1.58c-.2-.2-.24-.32,0-.57,1.28-1.23,2.52-2.49,3.75-3.76.15-.16.23-.26.41-.08l1.71,1.72a.85.85,0,0,1,.09.15"/><path class="cls-2" d="M349.56,99c.11,0,.15.07.21.14a41.58,41.58,0,0,0,3.84,3.9c.19.18.21.24.05.4L352,105.14c-.16.16-.23.19-.44,0a42,42,0,0,0-3.83-3.83c-.22-.19-.16-.27,0-.4l1.75-1.75a1.67,1.67,0,0,1,.16-.12"/><path class="cls-2" d="M316.22,105.82c.15,0,.14.12.2.18,1.21,1.33,2.48,2.59,3.79,3.81.2.18.28.26.09.45L318.6,112c-.15.15-.22.17-.41,0a45,45,0,0,0-3.84-3.85c-.16-.14-.2-.24-.08-.37l1.81-1.81a.8.8,0,0,1,.14-.09"/><path class="cls-2" d="M209.28,105.84c.15,0,.18.11.25.18,1.26,1.27,2.52,2.54,3.8,3.79.2.19.23.3,0,.48l-1.7,1.71c-.14.14-.22.1-.36-.06q-1.83-2-3.84-3.84c-.23-.21-.16-.33,0-.48l1.66-1.66a.88.88,0,0,1,.15-.12"/><path class="cls-2" d="M311.7,105.82a2.84,2.84,0,0,1,.23.19l1.56,1.57c.19.19.27.27,0,.55-1.27,1.18-2.5,2.43-3.71,3.69-.21.22-.28.35-.53.09-.51-.54-1-1-1.56-1.58-.18-.18-.26-.27,0-.55,1.29-1.21,2.51-2.49,3.76-3.74.07-.07.05-.23.25-.22"/><path class="cls-2" d="M262.75,105.83c.14,0,.15.09.21.15q1.83,2,3.84,3.84c.22.21.19.31,0,.47L265.18,112c-.19.18-.26.14-.45-.06-1.24-1.29-2.51-2.55-3.79-3.79-.18-.17-.24-.27-.09-.42.58-.59,1.17-1.18,1.76-1.76a.61.61,0,0,1,.14-.1"/><path class="cls-2" d="M229.28,99.06c.21,0,.22.15.31.24,1.24,1.25,2.49,2.5,3.76,3.73.22.21.19.29,0,.46l-1.62,1.61c-.19.18-.29.2-.52,0-1.22-1.28-2.47-2.52-3.73-3.76-.13-.13-.35-.18-.14-.4.58-.59,1.17-1.17,1.76-1.75a.4.4,0,0,1,.15-.09"/><path class="cls-2" d="M258.28,105.83l.23.21c.49.49,1,1,1.48,1.47.3.28.26.39-.07.7-1.26,1.18-2.46,2.41-3.64,3.67-.25.26-.33.2-.5,0-.53-.52-1.05-1-1.57-1.57-.15-.16-.28-.26,0-.52,1.29-1.24,2.54-2.53,3.8-3.8.08-.07.09-.21.27-.18"/><path class="cls-2" d="M226.92,110.06l-.19.24-1.62,1.61c-.13.13-.21.29-.46,0a50.6,50.6,0,0,0-3.87-3.88c-.22-.19-.09-.31,0-.43.55-.56,1.1-1.12,1.66-1.67.15-.15.26-.21.46,0a45,45,0,0,0,3.75,3.82c.07.07.2.09.24.24"/><path class="cls-2" d="M322.89,99l.16.18a44.88,44.88,0,0,0,3.83,3.85c.24.21.15.31,0,.46l-1.6,1.63c-.17.17-.25.24-.5,0-1.2-1.29-2.47-2.54-3.73-3.77-.18-.16-.33-.21-.11-.43l1.75-1.76.19-.13"/><path class="cls-2" d="M193.93,103.22c1.3-1.3,2.61-2.57,3.86-3.88.28-.29.41-.32.67,0,.49.5,1,1,1.48,1.47.21.21.24.31,0,.56q-1.89,1.79-3.67,3.66c-.29.31-.42.3-.67,0a18.94,18.94,0,0,1-1.65-1.8"/><path class="cls-2" d="M318.34,99c.09.08.18.14.26.22.54.54,1.07,1.08,1.62,1.62.24.23.16.3-.08.52-1.27,1.21-2.51,2.44-3.69,3.72-.28.3-.37.21-.55,0l-1.54-1.59c-.14-.14-.28-.25,0-.47a38.41,38.41,0,0,0,3.86-3.9l.15-.15"/><path class="cls-2" d="M338.39,105.81a1.8,1.8,0,0,1,.24.19l1.61,1.62c.24.23.18.27-.08.51-1.27,1.19-2.51,2.43-3.69,3.72-.27.29-.32.24-.52,0l-1.61-1.62c-.13-.14-.27-.21,0-.45a48.1,48.1,0,0,0,3.84-3.85c.06-.06.07-.15.21-.16"/><path class="cls-2" d="M287.45,103.27c0-.16.12-.16.19-.23,1.2-1.18,2.47-2.29,3.54-3.57.54-.64.7-.32,1,0s.89.89,1.33,1.33c.16.16.22.24,0,.45a40,40,0,0,0-3.8,3.79c-.14.16-.22.28-.4.11-.61-.59-1.2-1.2-1.8-1.8a.67.67,0,0,1-.07-.11"/><path class="cls-2" d="M262.69,105.23c-.05,0-.14-.11-.22-.19-.51-.51-1-1-1.52-1.53-.14-.15-.33-.26,0-.52a39.67,39.67,0,0,0,3.81-3.86c.2-.23.29-.09.41,0l1.66,1.67c.16.16.2.23,0,.45-1.29,1.23-2.54,2.51-3.8,3.78-.07.08-.08.21-.27.17"/><path class="cls-2" d="M207.31,103.26a1.1,1.1,0,0,1,.14-.21c1.33-1.23,2.57-2.54,3.8-3.87.22-.23.36-.08.5.06.53.52,1.05,1,1.57,1.57.15.15.23.24,0,.46q-1.94,1.86-3.79,3.8c-.18.19-.27.19-.42,0l-1.61-1.62a2.67,2.67,0,0,1-.18-.23"/><path class="cls-2" d="M351.76,105.8c.06,0,.16.11.23.18l1.62,1.62c.22.22.18.28-.08.52-1.27,1.19-2.51,2.43-3.7,3.71-.23.24-.27.32-.51.08-.54-.56-1.1-1.11-1.66-1.66-.17-.18-.17-.24.06-.44a48.4,48.4,0,0,0,3.79-3.79c.07-.07.07-.21.25-.22"/><path class="cls-2" d="M298.33,105.81l.23.18,1.61,1.61c.16.17.25.26,0,.5a37.57,37.57,0,0,0-3.79,3.78c-.2.23-.25.24-.43.06l-1.71-1.7c-.13-.14-.21-.22,0-.41a35.26,35.26,0,0,0,3.86-3.87c.06-.07.09-.15.24-.15"/><path class="cls-2" d="M309.54,99l.16.19a36.45,36.45,0,0,0,3.8,3.86c.23.21.19.3,0,.46-.55.56-1.11,1.11-1.66,1.66-.14.14-.23.19-.42,0a49.3,49.3,0,0,0-3.81-3.84c-.16-.14-.22-.23-.09-.36.59-.62,1.19-1.22,1.79-1.82l.2-.12"/><path class="cls-2" d="M340.89,103.24c0-.15.12-.14.17-.2,1.2-1.17,2.46-2.3,3.56-3.56.51-.58.68-.4,1,0s1,1,1.49,1.55c-.49.47-1,.92-1.46,1.41a25.53,25.53,0,0,0-2.58,2.72.19.19,0,0,1-.33,0L341,103.39a1.15,1.15,0,0,1-.08-.15"/><path class="cls-2" d="M246.87,103.3a2,2,0,0,1-.15.18l-1.61,1.62c-.24.24-.31.14-.53-.11a42.46,42.46,0,0,0-3.75-3.72c-.26-.22-.2-.28-.05-.44l1.71-1.71c.1-.1.2-.23.37,0a45.74,45.74,0,0,0,3.82,3.93c.07.08.21.09.19.27"/><path class="cls-2" d="M244.81,105.81a14.72,14.72,0,0,1,2.08,2c0,.19-.14.19-.23.27a42.36,42.36,0,0,0-3.77,3.81c-.18.2-.24.2-.39.06l-1.71-1.72a.24.24,0,0,1,0-.4,35.48,35.48,0,0,0,3.89-4s.11-.06.13-.08"/><path class="cls-2" d="M294.07,101a1.47,1.47,0,0,1,.18-.23c.53-.54,1.08-1.07,1.61-1.61.21-.21.27-.23.52,0,1.18,1.28,2.43,2.51,3.69,3.72.22.22.34.29.08.54-.53.51-1,1-1.57,1.56-.19.18-.27.28-.54,0a38.74,38.74,0,0,0-3.79-3.79c-.06,0-.18,0-.18-.21"/><path class="cls-2" d="M274.1,103.25c0-.17.14-.17.22-.24a46.27,46.27,0,0,0,3.79-3.88c.16-.2.25-.14.36,0l1.71,1.71c.13.14.18.24,0,.43a49.69,49.69,0,0,0-3.83,3.85c-.14.16-.23.2-.37.06l-1.76-1.76a1.19,1.19,0,0,1-.09-.15"/><path class="cls-2" d="M331.71,99c.1.08.2.14.27.21.53.52,1,1,1.57,1.57.24.24.22.32-.06.59q-1.9,1.8-3.69,3.72c-.24.27-.31.21-.49,0l-.05,0-1.69-1.72c.52-.55,1.05-1.09,1.56-1.64a28.19,28.19,0,0,0,2.44-2.57.92.92,0,0,1,.14-.15"/><path class="cls-2" d="M206.88,103.11a4.1,4.1,0,0,1-.27.37l-1.56,1.57c-.19.2-.29.21-.51,0q-1.81-1.89-3.7-3.71c-.22-.21-.27-.3-.05-.51.51-.5,1-1,1.51-1.52.23-.24.35-.25.63,0a41.57,41.57,0,0,0,3.69,3.7,1.56,1.56,0,0,0,.26.11"/><path class="cls-2" d="M224.88,99a2.53,2.53,0,0,1,.27.18l1.52,1.52c.16.17.26.29,0,.53a52.26,52.26,0,0,0-3.78,3.81c-.16.18-.26.21-.42,0-.56-.55-1.11-1.11-1.66-1.66-.11-.11-.22-.21,0-.38,1.36-1.26,2.68-2.56,3.92-3.94a.94.94,0,0,1,.18-.11"/><path class="cls-2" d="M287.45,107.86l.21-.23,1.61-1.62c.18-.18.24-.23.48,0a40.11,40.11,0,0,0,3.74,3.75c.25.23.25.29.06.48l-1.67,1.66c-.15.16-.22.22-.44,0a42.24,42.24,0,0,0-3.77-3.8c-.07-.07-.21-.06-.22-.24"/><path class="cls-2" d="M233.55,107.92a.86.86,0,0,1-.13.14,29,29,0,0,0-3.91,3.93c-.17.21-.28.05-.38,0l-1.71-1.71c-.2-.2-.11-.25.09-.43a45.88,45.88,0,0,0,3.75-3.76c.14-.16.19-.3.38-.11.6.6,1.21,1.2,1.81,1.81a1,1,0,0,1,.1.18"/><path class="cls-2" d="M236.08,105.83c.16,0,.14.18.21.25a51,51,0,0,0,3.77,3.73c.22.2.24.26.06.44-.56.55-1.11,1.11-1.66,1.67-.19.18-.25.21-.48-.06a44.12,44.12,0,0,0-3.74-3.75c-.16-.14-.32-.18-.12-.38.6-.6,1.2-1.21,1.81-1.81a1.19,1.19,0,0,1,.15-.09"/><path class="cls-2" d="M343,105.8a1.79,1.79,0,0,1,.14.13,29.87,29.87,0,0,0,3.56,3.64c.55.51.4.68,0,1.05s-.87.85-1.29,1.28c-.2.19-.25.27-.52,0a44.23,44.23,0,0,0-3.75-3.75c-.15-.14-.31-.18-.12-.38l1.81-1.81.18-.12"/><path class="cls-2" d="M373.69,110.05a2.07,2.07,0,0,1-.19.25c-.53.54-1.08,1.07-1.61,1.62-.24.26-.3.14-.52-.08-1.2-1.27-2.43-2.51-3.7-3.7-.29-.27-.24-.35-.05-.54l1.62-1.62c.14-.14.23-.26.45,0a48.28,48.28,0,0,0,3.75,3.82c.08.08.2.1.25.24"/><path class="cls-2" d="M376.19,99a.85.85,0,0,0,.11.21,41.68,41.68,0,0,0,3.88,3.87c.24.2.11.29,0,.41l-1.66,1.67c-.18.18-.26.19-.49-.06q-1.8-2-3.78-3.8c-.14-.12-.27-.17-.11-.34l1.8-1.81a1.82,1.82,0,0,1,.26-.15"/><path class="cls-2" d="M364.91,105.79l.22.18,1.65,1.67c.16.16.21.24,0,.46a38.46,38.46,0,0,0-3.82,3.84c-.18.22-.27.17-.41,0l-1.71-1.72c-.11-.11-.21-.24,0-.39a37.11,37.11,0,0,0,4-4s.1-.06.16-.1"/><path class="cls-2" d="M389.45,99c.11,0,.14.07.2.14a41.69,41.69,0,0,0,3.85,3.9c.19.18.2.24.05.4l-1.71,1.71c-.16.16-.24.19-.45,0a41.84,41.84,0,0,0-3.82-3.83c-.23-.19-.16-.27,0-.4.58-.59,1.16-1.17,1.75-1.75a1.67,1.67,0,0,1,.16-.12"/><path class="cls-2" d="M356.11,105.82c.14,0,.14.12.19.18,1.21,1.33,2.48,2.59,3.8,3.81.19.18.28.26.09.45L358.48,112c-.15.15-.22.17-.4,0a48.1,48.1,0,0,0-3.84-3.85c-.16-.14-.21-.24-.08-.37.59-.61,1.2-1.21,1.8-1.81l.15-.09"/><path class="cls-2" d="M362.78,99l.16.18a44.77,44.77,0,0,0,3.82,3.85c.24.21.16.31,0,.46-.53.55-1.06,1.1-1.6,1.63-.16.17-.25.24-.49,0-1.21-1.29-2.47-2.54-3.74-3.77-.17-.16-.32-.21-.11-.43.59-.58,1.17-1.17,1.76-1.76,0,0,.11-.07.19-.13"/><path class="cls-2" d="M358.23,99c.09.08.18.14.26.22l1.61,1.62c.25.23.16.3-.07.52-1.27,1.21-2.51,2.44-3.7,3.72-.28.3-.36.21-.54,0l-1.55-1.59c-.13-.14-.27-.25,0-.47a39.37,39.37,0,0,0,3.85-3.9s.1-.09.16-.15"/><path class="cls-2" d="M378.28,105.81a2.84,2.84,0,0,1,.23.19c.54.54,1.07,1.08,1.62,1.62.23.23.17.27-.08.51-1.28,1.19-2.52,2.43-3.69,3.72-.27.29-.32.24-.52,0l-1.61-1.62c-.14-.14-.28-.21,0-.45a46.5,46.5,0,0,0,3.84-3.85c.06-.06.08-.15.22-.16"/><path class="cls-2" d="M391.65,105.8l.23.18,1.61,1.62c.23.22.19.28-.07.52q-1.92,1.78-3.7,3.71c-.23.24-.28.32-.51.08-.55-.56-1.11-1.11-1.66-1.66-.18-.18-.17-.24.06-.44A50.19,50.19,0,0,0,391.4,106c.07-.07.07-.21.25-.22"/><path class="cls-2" d="M380.77,103.24c0-.15.12-.14.18-.2,1.2-1.17,2.46-2.3,3.56-3.56.5-.58.67-.4,1,0s1,1,1.49,1.55c-.49.47-1,.92-1.47,1.41a24.47,24.47,0,0,0-2.57,2.72.2.2,0,0,1-.34,0l-1.8-1.81a.65.65,0,0,1-.09-.15"/><path class="cls-2" d="M371.6,99l.27.21,1.56,1.57c.24.24.23.32-.05.59q-1.9,1.8-3.69,3.72c-.25.27-.32.21-.5,0l0,0-1.7-1.72c.52-.55,1.05-1.09,1.56-1.64a27,27,0,0,0,2.45-2.57.92.92,0,0,1,.14-.15"/><path class="cls-2" d="M382.86,105.8c.05,0,.11.08.15.13a29.15,29.15,0,0,0,3.56,3.64c.55.51.4.68,0,1.05s-.86.85-1.29,1.28c-.19.19-.24.27-.51,0a44.23,44.23,0,0,0-3.75-3.75c-.16-.14-.32-.18-.12-.38.6-.6,1.2-1.21,1.81-1.81a1.56,1.56,0,0,1,.17-.12"/><path class="cls-2" d="M280.7,110l.14-.14a33.66,33.66,0,0,0,3.91-3.92c.16-.2.26-.1.37,0l1.75,1.76c.14.14.13.22,0,.36A34.59,34.59,0,0,0,283,112c-.15.18-.23.16-.35,0-.61-.6-1.21-1.21-1.81-1.81a1.42,1.42,0,0,1-.11-.18"/><path class="cls-2" d="M256.09,99l.12.13a39.48,39.48,0,0,0,3.86,3.9c.25.23.12.33,0,.48l-1.56,1.57c-.19.18-.27.21-.5,0-1.22-1.28-2.48-2.52-3.75-3.75-.16-.16-.26-.23-.09-.41l1.75-1.76.19-.12"/><path class="cls-2" d="M502.58,105.82c.1,0,.13.08.19.14a46.18,46.18,0,0,0,3.9,3.89c.17.15.15.25,0,.38L504.94,112c-.14.14-.23.15-.41-.06a35.51,35.51,0,0,0-3.82-3.84c-.15-.13-.25-.19-.1-.35l1.86-1.86a1.05,1.05,0,0,1,.11-.07"/><path class="cls-2" d="M475.92,105.79l.15.19a40.84,40.84,0,0,0,3.82,3.85c.24.21.2.28,0,.44l-1.66,1.67c-.15.14-.22.23-.45,0a52.26,52.26,0,0,0-3.78-3.81c-.16-.14-.29-.22-.12-.4q.9-.92,1.8-1.8a1,1,0,0,1,.21-.12"/><path class="cls-2" d="M440,101c0,.14-.09.16-.15.21a53.78,53.78,0,0,0-3.84,3.86c-.22.24-.33.14-.48,0-.55-.54-1.08-1.08-1.62-1.62-.12-.13-.25-.21,0-.43a37.39,37.39,0,0,0,3.89-4c.13-.16.23-.11.33,0l1.81,1.81a.85.85,0,0,1,.09.15"/><path class="cls-2" d="M449.18,105.8l.14.16c1.23,1.35,2.52,2.65,3.88,3.88.25.22.12.33,0,.48l-1.61,1.62c-.14.13-.25.31-.47,0a42.37,42.37,0,0,0-3.74-3.84c-.22-.21-.27-.31-.07-.51L449,106a1.52,1.52,0,0,1,.23-.16"/><path class="cls-2" d="M533.52,110.05a2,2,0,0,1-.18.25c-.54.54-1.08,1.07-1.61,1.62-.24.26-.3.14-.52-.08-1.2-1.27-2.43-2.51-3.7-3.7-.29-.27-.24-.35,0-.54.54-.54,1.07-1.08,1.62-1.62.14-.14.23-.26.45,0a48.28,48.28,0,0,0,3.75,3.82c.08.08.2.1.24.24"/><path class="cls-2" d="M417.91,105.84l.18.15,1.57,1.58c.16.16.28.28,0,.53a35.7,35.7,0,0,0-3.79,3.89c-.17.23-.31.09-.44,0-.56-.55-1.11-1.11-1.66-1.67-.17-.17-.18-.28,0-.48,1.29-1.25,2.55-2.53,3.81-3.8.08-.07.1-.2.28-.17"/><path class="cls-2" d="M471.33,105.83a1.84,1.84,0,0,1,.25.21c.51.5,1,1,1.52,1.52.18.18.31.28,0,.56a45.07,45.07,0,0,0-3.76,3.81c-.22.26-.32.14-.47,0l-1.61-1.62c-.18-.18-.21-.27,0-.51,1.29-1.23,2.54-2.52,3.79-3.79.06,0,.05-.18.24-.17"/><path class="cls-2" d="M469.17,98.88c1.36,1.41,2.64,2.77,4,4.09.24.24.22.33,0,.51-.53.55-1.07,1.09-1.61,1.62-.18.19-.28.19-.51,0-1.21-1.28-2.47-2.53-3.74-3.76-.19-.18-.27-.25-.08-.44l1.93-2"/><path class="cls-2" d="M482.43,99.05c.17,0,.21.08.28.16a46.38,46.38,0,0,0,3.86,3.82c.22.19.14.28,0,.42-.55.56-1.1,1.11-1.66,1.66-.19.2-.27.18-.5-.06-1.21-1.28-2.46-2.54-3.74-3.75-.25-.24-.23-.31,0-.5l1.57-1.56a1.77,1.77,0,0,1,.23-.19"/><path class="cls-2" d="M451.32,99c.08.06.19.13.29.22l1.52,1.52c.22.22.21.3-.05.54-1.27,1.2-2.51,2.44-3.7,3.72-.27.28-.37.22-.56,0l-1.57-1.57c-.14-.14-.3-.26,0-.48,1.38-1.15,2.57-2.49,3.83-3.77.07-.07.09-.2.27-.21"/><path class="cls-2" d="M500.52,103.25c0-.11.06-.15.12-.2a42,42,0,0,0,3.89-3.89c.19-.21.3-.12.43,0l1.67,1.66c.16.17.18.24-.05.45-1.32,1.21-2.59,2.47-3.79,3.81-.16.18-.25.24-.41.09l-1.8-1.81a.45.45,0,0,1-.06-.12"/><path class="cls-2" d="M415.66,99.06c.18,0,.21.12.29.19a50.21,50.21,0,0,0,3.82,3.76c.24.21.14.33,0,.48l-1.56,1.57c-.24.25-.36.21-.61-.06-1.21-1.27-2.45-2.49-3.7-3.71-.19-.18-.27-.26-.07-.45.54-.54,1.07-1.08,1.61-1.61a1.36,1.36,0,0,1,.24-.17"/><path class="cls-2" d="M536,99a.85.85,0,0,0,.11.21A41.68,41.68,0,0,0,540,103c.24.2.11.29,0,.41l-1.66,1.67c-.18.18-.26.19-.49-.06a52.26,52.26,0,0,0-3.79-3.8c-.13-.12-.26-.17-.1-.34l1.8-1.81A1.36,1.36,0,0,1,536,99"/><path class="cls-2" d="M524.75,105.79l.22.18,1.65,1.67c.16.16.21.24,0,.46a39.46,39.46,0,0,0-3.81,3.84c-.18.22-.27.17-.41,0l-1.71-1.72c-.11-.11-.21-.24,0-.39a39.06,39.06,0,0,0,4-4s.1-.06.16-.1"/><path class="cls-2" d="M395.69,105.84c.14,0,.16.13.23.2,1.25,1.25,2.49,2.52,3.76,3.74.27.25.23.38,0,.58-.52.53-1,1-1.57,1.57-.17.18-.27.18-.47,0-1.24-1.28-2.52-2.54-3.79-3.8-.14-.13-.23-.25-.1-.38.59-.62,1.19-1.21,1.79-1.82a.45.45,0,0,1,.12-.06"/><path class="cls-2" d="M406.49,107.81c0,.21-.12.23-.21.32-1.26,1.25-2.52,2.49-3.74,3.77-.21.21-.3.2-.47,0l-1.56-1.58c-.2-.2-.25-.32,0-.57,1.28-1.23,2.52-2.49,3.75-3.76.16-.16.24-.26.42-.08.56.58,1.13,1.15,1.7,1.72a.49.49,0,0,1,.09.15"/><path class="cls-2" d="M549.28,99c.12,0,.15.07.21.14a41.69,41.69,0,0,0,3.85,3.9c.19.18.2.24,0,.4l-1.71,1.71c-.16.16-.24.19-.45,0a41.84,41.84,0,0,0-3.82-3.83c-.23-.19-.16-.27,0-.4l1.76-1.75s.11-.08.15-.12"/><path class="cls-2" d="M516,105.82c.14,0,.14.12.19.18,1.21,1.33,2.48,2.59,3.8,3.81.19.18.28.26.09.45L518.32,112c-.15.15-.22.17-.4,0a48.1,48.1,0,0,0-3.84-3.85c-.16-.14-.21-.24-.08-.37.59-.61,1.2-1.21,1.8-1.81l.15-.09"/><path class="cls-2" d="M409,105.84c.16,0,.18.11.26.18,1.26,1.27,2.51,2.54,3.79,3.79.2.19.23.3.06.48L411.4,112c-.14.14-.22.1-.36-.06q-1.83-2-3.83-3.84c-.23-.21-.17-.33,0-.48l1.66-1.66s.11-.08.15-.12"/><path class="cls-2" d="M511.43,105.82c.05.05.14.11.22.19.52.52,1.05,1,1.57,1.57.19.19.26.27,0,.55-1.28,1.18-2.51,2.43-3.72,3.69-.21.22-.27.35-.52.09-.51-.54-1-1-1.56-1.58-.19-.18-.27-.27,0-.55,1.29-1.21,2.52-2.49,3.76-3.74.07-.07.05-.23.26-.22"/><path class="cls-2" d="M462.48,105.83c.14,0,.15.09.2.15q1.83,2,3.84,3.84c.23.21.19.31,0,.47-.54.56-1.1,1.11-1.65,1.67-.19.18-.26.14-.45-.06-1.24-1.29-2.51-2.55-3.79-3.79-.17-.17-.23-.27-.08-.42.58-.59,1.16-1.18,1.75-1.76,0-.05.11-.07.15-.1"/><path class="cls-2" d="M429,99.06c.2,0,.21.15.3.24,1.25,1.25,2.49,2.5,3.77,3.73.21.21.19.29,0,.46l-1.62,1.61c-.18.18-.28.2-.51,0-1.22-1.28-2.48-2.52-3.74-3.76-.13-.13-.34-.18-.13-.4.58-.59,1.17-1.17,1.75-1.75a.53.53,0,0,1,.16-.09"/><path class="cls-2" d="M458,105.83l.23.21c.5.49,1,1,1.48,1.47.3.28.26.39-.06.7-1.26,1.18-2.47,2.41-3.65,3.67-.24.26-.32.2-.5,0-.52-.52-1.05-1-1.56-1.57-.16-.16-.28-.26,0-.52,1.3-1.24,2.55-2.53,3.81-3.8.07-.07.09-.21.26-.18"/><path class="cls-2" d="M426.65,110.06c-.06.07-.12.16-.2.24-.54.54-1.07,1.08-1.61,1.61-.14.13-.22.29-.47,0a50.6,50.6,0,0,0-3.87-3.88c-.22-.19-.09-.31,0-.43.55-.56,1.1-1.12,1.66-1.67.16-.15.26-.21.47,0a46.48,46.48,0,0,0,3.74,3.82c.08.07.2.09.25.24"/><path class="cls-2" d="M522.62,99l.16.18A44.77,44.77,0,0,0,526.6,103c.24.21.16.31,0,.46-.53.55-1.06,1.1-1.6,1.63-.17.17-.25.24-.5,0-1.2-1.29-2.46-2.54-3.73-3.77-.17-.16-.33-.21-.11-.43.59-.58,1.17-1.17,1.76-1.76a1.46,1.46,0,0,1,.19-.13"/><path class="cls-2" d="M393.65,103.22c1.31-1.3,2.61-2.57,3.86-3.88.28-.29.41-.32.68,0q.72.75,1.47,1.47c.22.21.25.31,0,.56-1.25,1.19-2.48,2.41-3.66,3.66-.29.31-.42.3-.68,0a18.94,18.94,0,0,1-1.65-1.8"/><path class="cls-2" d="M518.07,99c.09.08.18.14.26.22l1.61,1.62c.24.23.16.3-.08.52-1.26,1.21-2.51,2.44-3.69,3.72-.28.3-.36.21-.54,0l-1.55-1.59c-.14-.14-.28-.25,0-.47a39.37,39.37,0,0,0,3.85-3.9,1.2,1.2,0,0,1,.16-.15"/><path class="cls-2" d="M538.12,105.81a2.84,2.84,0,0,1,.23.19c.54.54,1.07,1.08,1.62,1.62.23.23.17.27-.08.51-1.28,1.19-2.52,2.43-3.7,3.72-.26.29-.31.24-.51,0l-1.61-1.62c-.14-.14-.28-.21,0-.45A46.5,46.5,0,0,0,537.9,106c.06-.06.08-.15.22-.16"/><path class="cls-2" d="M487.18,103.27c0-.16.12-.16.19-.23,1.19-1.18,2.46-2.29,3.54-3.57.54-.64.69-.32,1,0s.88.89,1.32,1.33c.16.16.22.24,0,.45a39.88,39.88,0,0,0-3.79,3.79c-.15.16-.23.28-.4.11-.61-.59-1.21-1.2-1.81-1.8a.6.6,0,0,1-.06-.11"/><path class="cls-2" d="M462.42,105.23a2.84,2.84,0,0,1-.23-.19c-.5-.51-1-1-1.51-1.53-.15-.15-.33-.26,0-.52a39.57,39.57,0,0,0,3.8-3.86c.2-.23.3-.09.42,0l1.66,1.67c.15.16.2.23,0,.45-1.3,1.23-2.55,2.51-3.8,3.78-.08.08-.09.21-.27.17"/><path class="cls-2" d="M407,103.26a1.13,1.13,0,0,1,.15-.21c1.32-1.23,2.57-2.54,3.8-3.87.21-.23.35-.08.49.06l1.57,1.57c.15.15.23.24,0,.46-1.29,1.24-2.55,2.51-3.8,3.8-.18.19-.26.19-.41,0l-1.62-1.62a2.67,2.67,0,0,1-.18-.23"/><path class="cls-2" d="M551.49,105.8l.23.18,1.61,1.62c.22.22.19.28-.07.52q-1.92,1.78-3.7,3.71c-.23.24-.28.32-.51.08-.55-.56-1.11-1.11-1.66-1.66-.18-.18-.17-.24.05-.44a48.53,48.53,0,0,0,3.8-3.79c.07-.07.06-.21.25-.22"/><path class="cls-2" d="M498.06,105.81l.22.18c.54.54,1.08,1.07,1.61,1.61.17.17.26.26,0,.5a37.57,37.57,0,0,0-3.79,3.78c-.2.23-.25.24-.42.06-.57-.56-1.15-1.13-1.71-1.7-.13-.14-.22-.22,0-.41a35.35,35.35,0,0,0,3.87-3.87.26.26,0,0,1,.24-.15"/><path class="cls-2" d="M509.27,99l.15.19a38.48,38.48,0,0,0,3.8,3.86c.24.21.19.3,0,.46-.55.56-1.1,1.11-1.66,1.66-.14.14-.22.19-.41,0a49.43,49.43,0,0,0-3.82-3.84c-.15-.14-.22-.23-.09-.36.59-.62,1.19-1.22,1.79-1.82.05,0,.12-.06.21-.12"/><path class="cls-2" d="M540.61,103.24c0-.15.12-.14.18-.2,1.2-1.17,2.46-2.3,3.56-3.56.5-.58.67-.4,1,0s1,1,1.49,1.55c-.49.47-1,.92-1.47,1.41a24.47,24.47,0,0,0-2.57,2.72.2.2,0,0,1-.34,0c-.61-.6-1.21-1.21-1.81-1.81a1.15,1.15,0,0,1-.08-.15"/><path class="cls-2" d="M446.59,103.3a1,1,0,0,1-.14.18l-1.62,1.62c-.24.24-.31.14-.53-.11a41.14,41.14,0,0,0-3.75-3.72c-.26-.22-.2-.28,0-.44l1.7-1.71c.11-.1.21-.23.37,0A45.74,45.74,0,0,0,446.4,103c.08.08.22.09.19.27"/><path class="cls-2" d="M444.54,105.81a14.65,14.65,0,0,1,2.07,2c0,.19-.13.19-.23.27a43.74,43.74,0,0,0-3.77,3.81c-.17.2-.24.2-.39.06l-1.7-1.72c-.12-.12-.17-.25,0-.4a37.31,37.31,0,0,0,3.89-4s.1-.06.13-.08"/><path class="cls-2" d="M493.79,101l.18-.23,1.62-1.61c.2-.21.26-.23.52,0,1.18,1.28,2.42,2.51,3.68,3.72.22.22.35.29.08.54-.53.51-1,1-1.57,1.56-.18.18-.26.28-.54,0a39.77,39.77,0,0,0-3.78-3.79c-.07,0-.18,0-.19-.21"/><path class="cls-2" d="M473.83,103.25c0-.17.14-.17.21-.24a44.76,44.76,0,0,0,3.79-3.88c.16-.2.25-.14.37,0l1.7,1.71c.13.14.18.24,0,.43a48,48,0,0,0-3.83,3.85c-.14.16-.23.2-.37.06-.59-.58-1.18-1.17-1.76-1.76a.4.4,0,0,1-.09-.15"/><path class="cls-2" d="M531.43,99l.28.21,1.56,1.57c.24.24.23.32-.06.59q-1.9,1.8-3.68,3.72c-.25.27-.32.21-.5,0l0,0-1.7-1.72c.52-.55,1.05-1.09,1.56-1.64a25.69,25.69,0,0,0,2.44-2.57l.14-.15"/><path class="cls-2" d="M406.6,103.11c-.14.19-.19.29-.26.37-.52.53-1,1-1.57,1.57-.19.2-.28.21-.51,0q-1.81-1.89-3.7-3.71c-.22-.21-.26-.3-.05-.51.51-.5,1-1,1.52-1.52.23-.24.35-.25.63,0a41.57,41.57,0,0,0,3.69,3.7,1.45,1.45,0,0,0,.25.11"/><path class="cls-2" d="M424.6,99a1.41,1.41,0,0,1,.27.18l1.52,1.52c.17.17.26.29,0,.53a50.19,50.19,0,0,0-3.77,3.81c-.16.18-.27.21-.43,0l-1.66-1.66c-.11-.11-.22-.21,0-.38,1.36-1.26,2.69-2.56,3.92-3.94a.94.94,0,0,1,.18-.11"/><path class="cls-2" d="M487.18,107.86a1.92,1.92,0,0,1,.2-.23L489,106c.19-.18.25-.23.48,0a40.11,40.11,0,0,0,3.74,3.75c.26.23.26.29.06.48l-1.67,1.66c-.15.16-.21.22-.43,0a45.06,45.06,0,0,0-3.77-3.8c-.08-.07-.22-.06-.22-.24"/><path class="cls-2" d="M433.28,107.92a1.85,1.85,0,0,1-.14.14,29,29,0,0,0-3.91,3.93c-.17.21-.27.05-.37,0l-1.72-1.71c-.2-.2-.1-.25.09-.43A44.35,44.35,0,0,0,431,106c.14-.16.19-.3.38-.11.61.6,1.21,1.2,1.81,1.81a.61.61,0,0,1,.11.18"/><path class="cls-2" d="M435.81,105.83c.16,0,.13.18.2.25a51,51,0,0,0,3.77,3.73c.23.2.24.26.06.44l-1.66,1.67c-.19.18-.24.21-.48-.06a42.69,42.69,0,0,0-3.74-3.75c-.16-.14-.31-.18-.12-.38l1.81-1.81a.83.83,0,0,1,.16-.09"/><path class="cls-2" d="M542.7,105.8s.11.08.15.13a29.79,29.79,0,0,0,3.55,3.64c.55.51.4.68,0,1.05s-.86.85-1.29,1.28c-.19.19-.24.27-.51,0a44.23,44.23,0,0,0-3.75-3.75c-.16-.14-.32-.18-.12-.38l1.8-1.81.18-.12"/><path class="cls-2" d="M573.41,110.05a1.38,1.38,0,0,1-.19.25c-.53.54-1.08,1.07-1.6,1.62-.25.26-.31.14-.52-.08-1.21-1.27-2.43-2.51-3.71-3.7-.29-.27-.24-.35,0-.54L569,106c.15-.14.24-.26.46,0a46.61,46.61,0,0,0,3.75,3.82c.07.08.2.1.24.24"/><path class="cls-2" d="M575.92,99a1.31,1.31,0,0,0,.1.21,41.79,41.79,0,0,0,3.89,3.87c.23.2.11.29,0,.41l-1.66,1.67c-.19.18-.27.19-.49-.06a52.26,52.26,0,0,0-3.79-3.8c-.14-.12-.26-.17-.1-.34l1.79-1.81a2.18,2.18,0,0,1,.27-.15"/><path class="cls-2" d="M564.64,105.79l.21.18,1.66,1.67c.15.16.21.24,0,.46a39.56,39.56,0,0,0-3.82,3.84c-.18.22-.26.17-.41,0-.57-.57-1.14-1.14-1.7-1.72-.12-.11-.21-.24,0-.39a37.11,37.11,0,0,0,4-4,1.28,1.28,0,0,1,.17-.1"/><path class="cls-2" d="M589.17,99c.11,0,.15.07.21.14a40.38,40.38,0,0,0,3.84,3.9c.19.18.21.24,0,.4-.57.57-1.13,1.14-1.71,1.71-.16.16-.24.19-.44,0a43.26,43.26,0,0,0-3.83-3.83c-.22-.19-.16-.27,0-.4L589,99.11a1.67,1.67,0,0,1,.16-.12"/><path class="cls-2" d="M555.83,105.82c.15,0,.14.12.2.18,1.2,1.33,2.48,2.59,3.79,3.81.2.18.28.26.09.45q-.84.85-1.71,1.71c-.14.15-.21.17-.4,0a45,45,0,0,0-3.84-3.85c-.16-.14-.2-.24-.08-.37l1.81-1.81a.8.8,0,0,1,.14-.09"/><path class="cls-2" d="M562.5,99l.16.18a44.77,44.77,0,0,0,3.82,3.85c.25.21.16.31,0,.46-.53.55-1.06,1.1-1.59,1.63-.17.17-.25.24-.5,0-1.21-1.29-2.47-2.54-3.74-3.77-.17-.16-.32-.21-.1-.43l1.75-1.76.19-.13"/><path class="cls-2" d="M558,99c.09.08.18.14.26.22.54.54,1.07,1.08,1.62,1.62.24.23.16.3-.08.52-1.27,1.21-2.51,2.44-3.69,3.72-.28.3-.37.21-.55,0L554,103.48c-.14-.14-.28-.25,0-.47a38.41,38.41,0,0,0,3.86-3.9L558,99"/><path class="cls-2" d="M578,105.81a1.8,1.8,0,0,1,.24.19l1.61,1.62c.24.23.18.27-.08.51-1.27,1.19-2.51,2.43-3.69,3.72-.27.29-.32.24-.52,0L574,110.27c-.13-.14-.27-.21,0-.45a49.82,49.82,0,0,0,3.84-3.85c.06-.06.07-.15.21-.16"/><path class="cls-2" d="M591.37,105.8c.06,0,.16.11.23.18l1.62,1.62c.22.22.18.28-.08.52-1.27,1.19-2.51,2.43-3.7,3.71-.23.24-.27.32-.51.08-.54-.56-1.1-1.11-1.66-1.66-.17-.18-.17-.24.06-.44a48.4,48.4,0,0,0,3.79-3.79c.07-.07.07-.21.25-.22"/><path class="cls-2" d="M580.5,103.24c0-.15.11-.14.17-.2,1.2-1.17,2.46-2.3,3.56-3.56.51-.58.68-.4,1,0s1,1,1.49,1.55c-.49.47-1,.92-1.46,1.41a25.53,25.53,0,0,0-2.58,2.72.19.19,0,0,1-.33,0c-.61-.6-1.21-1.21-1.81-1.81a.56.56,0,0,1-.08-.15"/><path class="cls-2" d="M571.32,99c.1.08.2.14.27.21l1.57,1.57c.23.24.22.32-.06.59q-1.9,1.8-3.69,3.72c-.24.27-.31.21-.49,0l0,0-1.69-1.72c.52-.55,1.05-1.09,1.56-1.64a28.19,28.19,0,0,0,2.44-2.57.92.92,0,0,1,.14-.15"/><path class="cls-2" d="M582.59,105.8a1.79,1.79,0,0,1,.14.13,29.87,29.87,0,0,0,3.56,3.64c.55.51.4.68,0,1.05s-.87.85-1.29,1.28c-.2.19-.25.27-.52,0a44.23,44.23,0,0,0-3.75-3.75c-.15-.14-.31-.18-.12-.38l1.81-1.81.18-.12"/><path class="cls-2" d="M480.43,110a.86.86,0,0,1,.13-.14,32.17,32.17,0,0,0,3.91-3.92c.17-.2.26-.1.37,0,.59.59,1.17,1.18,1.76,1.76.13.14.13.22,0,.36A33.76,33.76,0,0,0,482.7,112c-.16.18-.23.16-.36,0l-1.8-1.81a.78.78,0,0,1-.11-.18"/><path class="cls-2" d="M455.81,99l.12.13a39.48,39.48,0,0,0,3.86,3.9c.26.23.13.33,0,.48l-1.57,1.57c-.18.18-.26.21-.5,0-1.22-1.28-2.48-2.52-3.75-3.75-.16-.16-.26-.23-.09-.41l1.76-1.76a1.86,1.86,0,0,1,.18-.12"/></g></svg>